<svg xmlns="http://www.w3.org/2000/svg" viewBox="0 0 128 96"><path fill="#fff" d="M75.615 54.022c1.075-1.505 3.44-4.3 3.44-4.3.752-.752 1.612-1.182 2.472-1.182 1.182 0 2.257.645 2.58 1.934.43 2.15 3.332 9.135 3.117 16.873-.107 1.505.645 2.15 1.3 2.15s1.3-.752 1.075-2.15c-.322-2.902-.645-11.5-3.654-17.303.537-.752 1.397-1.3 2.472-1.3 1.3 0 2.687.967 3.332 3.654 1.182 4.836 3.332 14.08 1.72 20.42-1.3 5.266-4.73 7.523-8.275 7.523-.752 0-1.397-.107-2.15-.322-4.084-1.075-4.944-7.415-3.224-12.467 1.505-4.73 3.547-13.756-2.794-13.756-.43.107-.86.107-1.397.215m28.802 17.195c-3.332 0-6.34-3.332-7.308-4.73-.215-3.87-2.794-15.476-5.266-19.345 1.612-1.72 2.902-3.547 4.084-5.588 1.934 4.406 5.803 7.63 10.532 8.813 6.34 1.505 5.91 6.34 6.018 8.705.215 2.794-.86 11.822-7.738 12.144h-.322m-16.12-27.083c-1.934 0-3.76-1.3-3.76-4.19a33.19 33.19 0 00-.322-6.556c-.215-1.72 0-5.05 1.182-6.018 1.075-1.075 3.332-5.266 4.19-6.77 1.934 2.794 4.19 8.813 4.514 15.368s-3.01 7.845-5.16 8.168h-.645M57.452 26.08c-1.612-3.44-.967-9.135 2.042-10.102.322-.107.645-.107.967-.107 2.58 0 4.836 3.332 5.588 5.266-.645-.107-1.3-.215-1.934-.215-4.3 0-6.126 2.794-6.663 5.16m10.2-11.5c.537 0 .967-.752.645-1.827-.43-1.397-.322-2.58 2.364-3.332.322-.107.537-.107.86-.107 1.827 0 3.44 1.72 3.654 2.257-.215 0-.322-.107-.537-.107-2.902 0-6.556 4.3-4.084 9.78-.645 1.3-1.934 3.117-1.934 3.117-1.075-3.976-4.62-10.747-8.275-10.747-.322 0-.645 0-.967.107-3.976 1.397-5.374 7.953-3.87 12.36 1.612 4.406 3.547 7.2 7.308 9.028a36.19 36.19 0 01-5.803 4.944c-1.075.537-.752 1.934.537 1.934a2.29 2.29 0 001.29-.43c3.332-1.827 5.803-4.836 7.308-8.275 2.042-.967 3.224-4.62 3.117-7.63.43-.645 2.15-2.687 2.15-2.687 1.934 3.117 4.836 5.48 8.383 6.77 1.505.537 2.472 1.827 2.794 3.332.107 1.72.215 3.547.215 5.266 0 1.505-.322 4.73-2.794 6.233-2.472 1.397-5.05 5.05-6.233 6.986-1.505 2.15-3.224 4.084-5.16 5.696-.537.537-1.505.967-2.472.967-1.075 0-2.257-.537-3.332-2.042L56.377 46.5c-.645-.752-1.182-1.075-1.505-1.075-.537 0-.752.537-.645 1.72.107 1.934 2.58 11.177 6.233 15.69 1.182.967.752 1.505.107 1.505-.322 0-.752-.107-.967-.43-.645-.645-1.3-1.182-1.827-1.182-.215 0-.322.107-.537.215-.537.645-.322 2.257 2.257 4.3 1.934 1.505 4.406 3.332 9.78 3.332 1.934 0 4.3-.215 7.093-.86 0 1.3.107 3.547.107 5.16-1.934 1.612-5.91 3.224-10.64 3.224-2.687 0-5.588-.537-8.5-1.827-1.827-1.182-1.934-3.654-2.15-5.266-.107-1.505-1.075-6.663-2.902-7.63s-2.364-4.62-2.687-6.233c-.322-1.505-1.397-4.514.86-5.374 1.397-.645 1.934-1.612 1.182-3.224-.645-2.902-.86-5.91-.752-8.813.107-2.472-.43-4.944-1.72-6.986-.43-.537-.752-.752-1.182-.752-.645 0-1.075.967-.537 2.15.752 1.827 1.397 9.028.322 14.186-1.075 5.266-5.48 20.634-9.242 28.265-3.44 6.986-5.696 9.135-9.78 9.135-.43 0-.86 0-1.3-.107-5.05-.107-13.65-8.5-11.284-15.906.86-3.547 4.944-8.5 8.275-13.65 2.15-3.654 6.34-9.242 10.747-21.817.86-3.01 3.87-8.92 9.242-8.92a8.03 8.03 0 012.15.322c1.075-3.654 4.944-11.07 10.747-13.22 1.397-.645 3.224-1.182 4.944-1.182 1.827 0 3.547.645 4.3 2.364.215.645.645.967 1.075.967m2.687-7.63c-1.3 0-2.687.322-4.084 1.182-.752.537-2.15.537-3.547.537H61.32c-1.72 0-11.607 1.505-16.336 13.65h-.645c-4.62 0-10.317 3.44-11.714 11.177-1.505 8.06-14.186 26.545-17.303 30.63-3.117 3.976-3.976 13.326 2.472 19.452 3.224 3.01 7.093 5.374 10.962 5.374 4.084 0 8.168-2.58 11.284-9.672 1.827-4.406 6.126-15.368 6.77-17.733a4.735 4.735 0 002.042 4.19c.86.86 3.547 2.15 3.117 7.738s0 9.887 4.3 11.284c1.934.645 5.266 1.3 9.028 1.3 4.836 0 10.317-1.182 13.65-5.374.86 1.182 3.224 2.15 5.803 2.15 5.05 0 11.284-3.224 11.607-13.22 2.15 2.687 4.62 4.19 8.168 4.19h1.075c4.084-.322 9.242-6.34 9.242-13.22 0-6.986-1.612-11.177-7.415-12.36-5.91-1.3-9.028-2.902-11.07-11.607.537-4.514-2.902-16.013-6.448-20.957-1.612-2.042-3.76-2.58-5.803-2.58-.537 0-1.075 0-1.612.107s-.967.107-1.397.107c-1.612 0-2.58-.537-3.654-2.257-.645-1.505-3.547-4.084-7.093-4.084"/></svg>