<svg xmlns="http://www.w3.org/2000/svg" viewBox="0 0 128 96"><path fill="#fff" d="M47.222 96.006l.035-.114.12.114h-.154zm29.318.016l-4.354-2.9-4.407-2.77c.378-.126.88-.378 1.26-.63.252-.126.88-.63 1.007-.88.126-.63-.378-1.007-.378-1.637-.252-.252-.378-.504-.504-.755-.252-.378-.63-.755-.88-1.007.504-1.007 1.26-1.89 1.763-2.896.755-.252 0-.755-.378-1.007s-.755-.378-1.133-.378c-.504-.126-1.007-.126-1.51-.252-.504 0-1.007.126-1.51.126-.504.126-1.007.126-1.385.378-.126.126-.378.252-.504.378-.755.504-1.133 1.133-1.637 1.763-.252-.63-.88-1.133-1.763-.88-.252-1.385-.126-2.77.126-3.903 0-.378.252-.88.126-1.26 0-.252-.378-.88-.504-1.007-.378-.504-1.637-.755-2.392-.504-.252.126-.755.504-.88.755-.252.252-.378.63-.63.755h-.378c-.126-.126 0-.126-.126-.252s-.252-.252-.378-.252c-.88 0-1.51.252-1.89.63-.126.126-.63.88-.755.88s-.252-.126-.378-.252c-.378-.378-.88-.63-1.385-.755-.88-.126-1.763.126-2.518.252-.504-.126-.755-.504-1.133-.63-1.51-.755-2.896-1.763-4.28-2.644.126-.126.252-.378.378-.504.252-.755.63-1.637 1.007-2.518.252-.88.63-1.763.755-2.644l.252-3.273-.126-3.525 3.777.755 3.903.504c4.03.504 8.813.378 13.094.126l4.155-.378c2.644-.252 5.162-.88 7.554-1.51 4.9-1.133 8.94-3.022 12.842-5.162.88-.504 1.89-1.007 2.896-1.637.88-.63 1.89-1.133 2.644-1.89 1.26-1.007 2.392-2.14 3.273-3.525.63-1.007 1.385-2.14 1.51-3.525.126-1.26-.252-2.014-.63-2.77-.126-.252-.378-.63-.63-.88s-.378-.504-.63-.755-.504-.504-.63-.755c.504-.252 1.007-.504 1.637-.63l11.457-4.155 11.33-4.155c.504-.126 1.51-.378 1.51-.755 0-.252-.252-.252-.252-.504L70.927 10.91c-.504-.252-1.26-.63-1.763-.504l-2.014.378L12.887 25.89c-.378.126-1.637.252-1.637.63s.88.755 1.26.88l22.032 11.46c-.63.63-1.007 1.51-1.51 2.266-1.007 1.51-1.763 3.273-2.392 5.162-.126.504-.252 1.007-.504 1.385-.126.504-.378.88-.504 1.385-.126.755 0 1.385.252 2.14.126.63.378 1.26.755 1.637.755 1.007 1.637 1.637 2.644 2.266 0 2.266.378 4.532.63 6.673.126 1.133.126 2.266-.126 3.273s-.378 2.014-.88 2.644c-2.14-1.51-4.407-2.896-6.673-4.407-.504-.378-1.007-.755-1.637-1.133-.252-.126-.504-.378-.755-.504-.252-.252-.504-.378-.755-.63-.126-.126-.378-.126-.504-.252l-.378-.378c-.88-.63-1.637-1.007-2.392-1.763-.504-.126-.88-.504-1.26-.755-.88-.504-2.14-.755-3.4-.63-1.133.126-2.266.63-3.022 1.133-.378.252-.755.63-1.133.88-.63.504-1.007 1.007-1.51 1.51l-.504.504c-.63.504-1.763.88-2.518 1.133-.504.126-1.51.252-1.51.755 0 .378.755.63 1.007.88.126.126.126.252.252.252.126.126.252.126.378.252l.378.378c0 .378.252.63.378.88v.63c0 .755.126 1.26.126 1.763.126.755.504 1.26.88 1.763.126.126.126.252.252.378s.252.252.378.252c.252.126.378.378.63.63 1.26 1.26 2.644 2.392 4.03 3.65.755.755 1.637 1.385 2.392 2.014.126.126.252.252.252.378-3.148 1.007-6.043 2.392-8.813 3.903-.755.378-1.385.755-2.014 1.26-.252.126-.378.378-.504.504s-.252.126-.378.126l-.755.755c.126.252 0 .504.126.755.126.504.504.755.378 1.26s-.755.504-.63 1.133c0 .252.378.378.378.63s-.378.252-.378.504c-.126.504.126.63.252 1.007.252 0 .126.378.378.504s.504-.252.63-.378.378-.126.504-.252c.378-.378.88-.63 1.26-.88.88-.504 1.637-1.007 2.392-1.51.88-.504 1.637-1.007 2.392-1.385.63-.378 1.26-.63 2.014-.88.252-.126.504-.252.755-.126 0 .378-.378.63-.63.755a55.351 55.351 0 00-2.77 1.51c-.252.126-.504.378-.88.504a18.038 18.038 0 00-2.518 1.763c0 .378-.378.378-.378.755 0 .252.378.63.504.88.252.252.504.504.755.63.63.252 1.385-.252 1.89-.63l.755-.378c.252-.126.504-.378.755-.252 0 .252-.252.378-.378.504-.378.378-.63.63-.88 1.007-.126.252-.378.252-.252.63.126.252 1.007.63 1.385.63.252 0 .63-.252.88-.504.63-.378 1.133-.63 1.637-1.007 1.133-1.007 2.644-1.89 3.903-2.644.63-.378 1.133-.755 1.637-1.007.63-.252 1.26-.378 2.014-.63.63-.252 1.385-.378 2.014-.63s1.385-.378 1.89-.755c1.007.88 1.89 1.763 2.896 2.518s1.89 1.637 2.896 2.518c.504.378 1.007.755 1.51 1.26 1.007.88 2.014 1.637 3.022 2.518.378.252.755.63 1.133 1.007.126.126.252.126.504.252.22.146.44.377.658.62 12.864 14.2 54.012 11.005 38.32.014zM33.912 50.568c-.126.378-.126.755-.252 1.133-.126.504-.252 1.007-.252 1.637-.504 0-.755-.252-1.007-.63-.504-.504-1.007-1.51-1.26-2.14-.252-.88-.126-1.763.378-2.392.755-2.392 1.763-4.658 3.022-6.42 1.007 0 1.89.126 2.644.252.252 0 .504 0 .63.252 0 .126-.252.126-.252.126-.126 0-.126.126-.252.126-.504.378-.378 1.51 0 1.89-.126.63-.63 1.007-.88 1.51-.252.252-.378.63-.504.88-1.007 1.133-1.637 2.266-2.014 3.777zM11.88 83.554c-.504.252-1.007.378-1.385.504-.378.252-.88.504-1.26.755-.378.126-.755.252-1.007.504L6.34 86.45c-.252.126-.63.504-1.007.252 0-.252.252-.378.378-.504.378-.252.63-.504 1.007-.755a23.368 23.368 0 012.392-1.385c1.26-.755 2.644-1.26 3.903-2.014.252-.126.63-.252 1.007-.504.126 0 1.007-.378.88-.63s-.88 0-1.133 0l-1.133.378c-.252 0-.63.252-1.007.378-.755.378-1.51.63-2.14.88-1.385.63-2.644 1.51-3.903 2.14-.126-.126-.126-.378-.126-.504.755-.63 1.637-1.385 2.644-1.89l1.51-.755c1.26-.504 2.518-1.133 3.903-1.763.755-.378 1.51-.63 2.392-.88.63-.126 1.26-.378 1.763-.504h.504c1.133.88 2.266 1.763 3.273 2.77-3.525.504-6.673 1.26-9.568 2.392zm7.554 2.014c-.755.378-1.385.63-2.14.88-.252.126-.504.252-.755.126-.126-.504.504-.504.63-.88-.504-.504-.88-.252-1.51.126-.63.252-1.133.504-1.637.755-.755.378-1.637.88-2.392 1.26-.88.378-1.51.755-2.14 1.133-.252.126-.755.504-.755.126-.126-.252.252-.504.378-.63s.378-.252.63-.378c1.26-.755 2.644-1.51 4.03-2.266l3.022-1.51c1.007-.378 2.014-.88 3.022-1.26a27.705 27.705 0 012.644-1.133c.63.504 1.26 1.133 1.89 1.637-1.763.755-3.4 1.26-4.9 2.014zm21.637 10.44a16.19 16.19 0 00-1.115-.998c-.63-.63-1.385-1.133-2.014-1.637-1.007-.88-2.14-1.637-3.148-2.518-.378-.252-.755-.504-1.007-.755-.252-.126-.378-.378-.504-.63-.126-.126-.252-.126-.504-.252l-1.763-1.763c-.63-.504-1.385-1.133-2.014-1.763-.88-.755-1.763-1.51-2.644-2.392-1.385-1.133-2.644-2.392-4.03-3.525-.504-.378-.88-.755-1.385-1.133-.88-.755-1.89-1.51-2.77-2.266-1.89-1.51-3.525-3.148-5.414-4.658-.504-.378-1.007-.755-1.385-1.133-.504-.378-.88-.755-1.385-1.133-.252-.63-1.007-1.133-.755-2.14v-.126c.63.504 1.385.88 2.014 1.385l.755.378.378.378c.126.126.252.126.378.126.126.126.252.252.504.378 0 .252.252.378.378.504.378.252.63.504 1.007.755 1.007.88 2.014 1.51 3.022 2.266.378.252.755.504 1.007.755 1.26 1.007 2.518 2.14 3.903 3.148 1.007.755 2.014 1.385 3.148 2.14.88.63 1.637 1.26 2.518 1.89.126.126.378.252.504.378.252.126.378.126.63.252.126.126.252.378.378.504s.378.252.504.378c.504.378 1.007.755 1.51 1.26.63.504 1.385 1.007 2.014 1.637.378.252.755.504 1.007.755 1.007.88 2.14 1.385 3.148 2.266.378.126.63.378.88.63.126.126.126.252.252.252.252.126.504.252.63.378.504.378 1.007.755 1.385 1.133.252.252.63.504.88.755-.214 1.07-.155 2.682-.133 4.146.015.99-.054.688-.767-.001zm1.96.008a14.7 14.7 0 01.07-.88c0-.63.126-1.385.378-2.014.126-.63.378-1.385.504-1.763s.63-.88.88-1.26c.88-1.26 2.014-2.266 3.273-3.148 1.763-1.26 3.777-2.14 6.295-2.392 1.26-.126 2.14.252 3.022.504.252.126.504.126.63.252-.504.126-1.133 0-1.763 0-.252 0-.504.126-.755.126-.755.126-1.51.378-2.14.63-.88.252-1.637.88-2.392 1.26-.755.504-1.385 1.133-2.014 1.637l-.88.88c-.378.378-.755.63-.88.88-.252.504-.378 1.007-.63 1.385s-.504.88-.755 1.26c-.126.252-.252.63-.378 1.007-.194.486-.314 1.047-.416 1.625-.178 1.008-2.095 1.033-2.048.01zM62.743 83.05c.63-.755 1.763-1.385 2.896-1.51.63 0 1.26 0 1.89.126.504 0 .88 0 1.133.252a2.94 2.94 0 00-.881.881c-.126.252-.504.755-.88.755-.252 0-.504-.252-.755-.252-1.007-.378-2.77 0-3.65.252 0-.126.126-.378.252-.504zm-.63 1.637c1.007-.378 3.525-1.007 4.28 0-1.51 0-3.022.126-4.28.504v-.504zm.126 1.763c1.007-.378 2.644-.755 4.155-.504.378.126.63.252 1.007.378.504.63 1.007 1.007 1.007 2.14-.252.252-.63.378-1.007.504-.504.126-1.133.378-1.763.126-.252-.126-.504-.252-.755-.504l-1.89-1.133c-.378-.252-.755-.504-1.133-.504 0-.126-.252-.126-.126-.378.126-.126.252-.252.504-.126zm-12.06 9.558c-.88-.892-1.715-1.853-2.67-2.633.252-.755.63-1.26 1.133-1.763.252-.378.504-.755.88-1.133.252-.378.63-.63 1.007-1.007s.63-.755 1.007-1.007c.252-.252.63-.378.88-.63.63-.504 1.385-.755 2.14-1.133 1.26-.252 3.525-.252 5.162 0 1.133.755 2.266 1.51 3.4 2.14s2.266 1.385 3.4 2.14l4.9 3.4c.252.252.504.378.88.504.252.126.63.378.88.504.126 0 .126.126.252.252.2.2.398.24.597.374.053.035.106.077.16.13 8.493 8.493-15.588 8.416-24.022-.136zm2.62-16.986c.126-.378.126-1.007.504-1.007.252.126 0 .378.126.63 0 .252.252.504.378.63 1.133.378 1.637-.63 2.14-1.26a4.49 4.49 0 011.259-1.385c.378 0 .88-.252 1.133.126.126.126.126.252.126.378.126.378.378.378.252.755 0 .252-.126.63-.126.88-.126 1.133-.378 2.644 0 3.777.126.504.504.63.504 1.26-.378.378-1.133 0-1.385-.126l-.504-.504c-.378-.504-.63-.88-.504-1.763 0-.88.378-1.763.504-2.392.126-.378.378-.755.252-1.26-.378-.126-.63.252-.88.504-.504.504-.755 1.133-1.007 1.763l-.378 1.133c0 .378.252.755 0 1.007-.63 0-1.26-.378-1.637-.63-.504-.378-1.007-.755-.88-1.763-.126-.252 0-.504.126-.755zm-6.17.755c.126-.252.252-.63.504-.88.252-.378.63-.378 1.133-.63 1.133-.378 2.644.126 3.273.88-.126.378-.126.755-.126 1.133-1.51-.126-3.777-.252-5.036.378-.252-.378 0-.63.252-.88zm-.504-1.51c-.378.63-.63 1.385-1.133 2.014-.252.63-1.007 1.133-.88 2.14.504.126 1.007-.252 1.51-.378 1.007-.252 2.014-.63 3.273-.755.755 0 1.763-.252 2.518 0 .504.755 1.007 1.51 1.89 1.89-.504.126-1.007.126-1.51.378-.126 0-.252.126-.378.252-.126 0-.252 0-.378.126-.126 0-.378.126-.504.252l-1.133.378c-1.385.63-2.518 1.51-3.65 2.518-.755.63-1.26 1.26-1.89 1.89-.252.378-.63.63-.88 1.133-.378-.126-.755-.504-1.133-.755-.63-.504-1.385-.88-2.014-1.385-.126-.126-.378-.252-.504-.378s-.378-.252-.504-.378l-.378-.378c-.126-.126-.252-.126-.504-.252-.126-.126-.126-.252-.252-.252-.378-.378-.88-.63-1.26-.88-1.133-1.007-2.392-1.89-3.65-2.77-.378-.252-.755-.63-1.26-1.007-1.637-1.133-3.273-2.392-5.036-3.65-1.26-.88-2.392-1.89-3.777-2.644a18.038 18.038 0 01-2.518-1.763c-.63-.504-1.26-.88-1.89-1.385-.252-.126-.504-.252-.63-.378-.88-.63-1.637-1.385-2.518-2.014-1.637-1.26-3.4-2.518-5.162-3.777l-2.644-1.89c-.126-.252-.378-.252-.378-.504 2.014-.63 3.65-1.637 4.784-3.148.252-.126.504-.378.755-.504 1.007-.63 2.014-1.007 3.148-1.133.63 0 1.385 0 1.89.252.126.126.252.252.504.252.504.252.88.504 1.385.755.63.378 1.26.755 1.637 1.26 1.007.504 1.763 1.133 2.644 1.763.755.504 1.385 1.007 2.14 1.51 1.89 1.385 3.903 2.518 5.79 3.903.88.755 1.89 1.385 2.896 2.014s1.89 1.385 2.896 2.014c1.51.88 3.022 1.763 4.532 2.77 1.26 1.007 2.644 2.014 4.155 2.896zM43.23 64.29v1.385c0 1.26-.126 2.518-.504 3.65-.378 1.51-.88 2.896-1.637 3.903-2.518-1.385-4.784-3.148-7.05-4.658 1.133-1.637 1.385-5.162 1.007-7.806-.252-2.014-.63-4.155-.504-6.547 0-1.133.126-2.14.504-3.148.504-1.89 1.385-3.4 2.392-4.9 0 0 0-.126.126-.126.252 0 .126.63.126.88v.88c0 .378-.126 1.385-.126 1.89v1.385c0 .755-.126 1.385-.126 2.14 0 1.385.126 2.77.378 4.03l.378 1.763c.126.755 0 1.51 0 2.14v2.14c0 .504-.252 1.007-.378 1.51 0 .252-.126.88.126 1.007.252 0 .504-.88.504-1.133.126-.378.126-.88.252-1.51.126-1.007.252-1.89.252-2.896s-.126-1.763-.252-2.77c-.252-1.763-.63-3.525-.504-5.54 0-.126.126-.378.126-.63 0-.88 0-2.014.126-2.77 0-.252 0-.88.126-1.133 0-.126 0-.252.126-.252s.126.63.126.88c0 .755.126 1.26.252 2.014.126 1.007.252 2.266.504 3.273 0 .252.126.63.126 1.007 0 .126.126.378.126.504v.88c.126.88.378 1.763.378 2.518.126 1.26.252 1.89.126 4.03v1.51c0 .378-.126.755-.252 1.26-.126.378-.126.88-.126 1.26 0 .126-.126.252-.252.378l-.378 1.51c-.252.63-.63 1.133-.63 1.763.378.126.504-.126.755-.378.378-.378.504-1.007.755-1.637.504-1.26 1.007-2.77 1.26-4.407.252-1.89 0-4.155-.126-6.17-.252-1.763-.63-3.4-.88-5.288l-.378-2.77c-.126-.755-.252-1.385-.252-2.14 0-.252-.126-.504.126-.63.378.126.252.88.504 1.007.252 1.26.378 2.518.63 3.903.126.378.252.755.378 1.26.504 2.014.755 4.407 1.007 6.8.378 3.525-.252 6.8-1.133 9.568-.126.378-.252.63-.378 1.007-.252.504-.504 1.133-.378 1.763.378 0 .63-.378.755-.63.504-.88.755-1.89 1.133-2.896.504-1.385.755-3.022 1.007-4.532.126-.755 0-1.385 0-2.014.252.126.252.504.378.88 0 .378.126.755.126 1.007-.755.252-.755.504-.755.63zm-3.4-22.914c.126.252.378.504.126.755-.378.126-.63-.126-.88-.126-.126-.378-.252-1.133.126-1.133.378-.126.63.252.63.504zm0-1.007c0-.252.126-.504.378-.504.378 0 .504.63.378 1.133h-.378c-.126-.252-.378-.378-.378-.63zm-.126 2.77l.378.378c.252.126.504.252.504.504 0 .63-1.133.126-1.637 0s-.88-.252-1.26-.504c-.252-.378.126-.504.378-.755.63.126 1.133.126 1.637.378zm4.658 3.65c-.63.378-1.133.88-1.51 1.385s-.88 1.007-1.133 1.763c-.378-1.133-.63-2.518-.755-3.903.252-.126.504-.252.63-.504.504-.504.504-1.385.252-2.14.88.378 2.014.755 2.77 1.26-.504.63-.126 1.51.252 1.89-.126.126-.378.126-.504.252zm-3.022-7.806c.504-.504.88.63.755 1.26 0 .252-.252.504-.378.504-.252 0-.378-.252-.378-.504s.252-.504.252-.88c-.252 0-.378-.126-.252-.378zm57.285 5.036c.504.378.378 1.26.252 1.763-.126.378-.378.88-.63 1.385a10.872 10.872 0 01-1.763 2.266c-.378.378-.755.63-1.133.88-.755.63-1.51 1.26-2.266 1.763s-1.637 1.007-2.518 1.51-1.763.88-2.644 1.385c-.378.252-.88.504-1.385.755-1.763.88-3.65 1.763-5.54 2.518-.504.126-1.007.252-1.51.504-.504.126-1.007.378-1.51.504-.252.126-.504.126-.755.252-1.26.378-2.644.755-4.03 1.007-2.266.378-4.658.63-7.176.755h-2.014c-.63 0-1.26.126-1.89 0-.63 0-1.26 0-2.014-.126-1.26-.126-2.518-.126-3.777-.126-1.26-.126-2.518-.252-3.777-.252-.378 0-.63 0-.88-.126-.252 0-.504-.126-.755-.126-.378 0-.63 0-1.007-.126L48.14 60c-.252-.126-.63-.126-.88-.252-.126-.126-.252-.126-.378-.126-.378-1.89-1.133-3.777-1.26-5.917 0-1.133.126-2.266.378-3.273.126-.504.126-1.007.252-1.385.126-.504.126-1.007.504-1.385.378-.126.755 0 1.007-.126.378-.252.63-1.007.88-1.26.755.63 1.763 1.133 2.644 1.763 1.007.63 2.14 1.26 3.148 1.89.504.378 1.133.63 1.637.88s1.133.63 1.637.88c2.14 1.133 4.155 2.518 6.17 3.903.378.126.504.63.88.63.63 0 .88-.63 1.385-.88 2.014-1.763 4.407-3.4 7.05-4.784a5.84 5.84 0 011.26-.63c.252-.126.378-.252.63-.378s.378-.252.63-.378.378-.126.63-.252c1.26-.63 2.77-1.26 4.28-1.637 2.518-.755 5.288-1.51 8.058-2.014a39.765 39.765 0 019.946-1.26zM119.4 30.8l-1.133.378c-.504.126-.88.378-1.385.504-.252.126-.504.126-.88.252l-8.687 3.022c-.755.252-1.51.504-2.392.88l-.755.378c-.252.126-.63.126-.88.252l-12.6 4.407c-1.26.504-2.644.88-3.903 1.385-.504 0-1.007.252-1.51.504-3.525 1.133-6.925 2.518-10.576 3.65-1.007.252-2.014.63-3.022 1.007s-2.014.63-3.022 1.007c-.88.378-1.89.755-2.896 1.133s-2.014.88-3.022 1.133c-.63.126-1.133-.252-1.637-.504-.755-.378-1.385-.63-2.014-1.007s-1.26-.63-1.89-1.007c-.252-.126-.63-.252-.88-.378-.63-.252-1.133-.63-1.763-.88-4.03-1.763-7.932-3.903-11.835-5.666.378-.126.63-.126.88-.378.126-.126.252-.378.504-.504.88.126 1.26-.252 1.637-.755.504.126.88-.126 1.133-.378.378-.252.63-.252.755-.63.63.378 1.26 0 1.51-.504.63.252 1.133-.252 1.26-.63.63.252 1.133-.126 1.385-.504.252 0 .504.126.63.126.755 0 1.26-.504 1.637-1.007.755 0 1.26-.252 1.637-.63.504 0 .88-.126.88-.88a1.61 1.61 0 001.511 0c.126-.126.126-.378.126-.63.63.126 1.133-.126 1.26-.63.504.126 1.133 0 1.007-.63.755.378 1.51-.252 1.763-.755.252.126.504.252.88.126.252-.126.504-.504.755-.63.378-.126.755.126 1.007-.126.126-.126.252-.378.378-.504.126 0 .252.126.504 0 .252 0 .378-.378.504-.504.755 0 1.007-.378 1.26-.755.126-.755-.252-1.133-.88-1.007-.378-.63-1.637-.504-1.763.252-.252 0-.63-.126-.88 0-.252 0-.378.378-.504.504-.63-.126-1.26.126-1.51.504-.504-.126-.755.252-1.133.378-.755 0-1.133.126-1.385.504-.755 0-1.26.252-1.51.63-.504 0-.755.126-1.007.378h-.504c-.126 0-.252.252-.378.378h-.504c-.252.126-.378.252-.504.378-.63-.126-1.007.126-1.133.63-.63-.126-1.007.126-1.133.504-1.007-.126-1.51.252-1.763.755-.755 0-1.385 0-1.637.504-.63 0-1.007.126-1.133.504-.504 0-.88.252-1.007.755-.88-.126-1.51.126-1.637.88-.63-.378-1.51-.126-1.637.504-.63-.252-1.385-.126-1.637.378-.126.126-.126.378-.252.504-.126 0-.252-.126-.378-.126-.755-.126-1.133.252-1.26.755-.378-.126-.88.126-1.007.252-1.763-.88-3.777-1.89-5.54-2.896-.755-.378-1.51-.63-2.14-1.007-.378-.252-.755-.378-1.133-.504-.88-.378-1.637-.88-2.644-1.26a72.75 72.75 0 00-3.148-1.51c-.126 0-.126-.126-.126-.126-.252-.126-.378-.126-.63-.252-.504-.252-.88-.378-1.385-.63-.252-.126-.504-.252-.88-.378-.252-.126-.63-.378-1.007-.504s-.755-.252-1.007-.504c-.126-.126-.252-.378-.63-.378a33.494 33.494 0 01-2.896-1.637c-.252-.126-.504-.252-.63-.252-.504-.126-1.007-.504-1.51-.755 0-.126.378-.252.755-.378l3.148-.755c1.637-.378 3.273-1.007 4.784-1.385l2.644-.755c2.644-.63 5.036-1.51 7.554-2.14l10.072-3.022c1.763-.378 3.4-1.007 5.036-1.51 1.763-.504 3.525-.88 5.288-1.26.88-.252 1.763-.504 2.644-.63 1.763-.378 3.525-.88 5.162-1.26 1.26-.378 2.518-.63 3.65-1.007.63-.252 1.385-.504 2.14-.63.63-.126 1.133-.378 1.763-.378.755 0 1.51.378 2.14.63l49.48 18.13c-.126.252-.63.378-1.007.504zm-76.422 7.554c.126-.126.378-.126.378-.126.63.504.378 2.014-.504 2.014.378-.504.126-1.26.126-1.89zm1.51-.504c0-.252.252-.126.504-.126.126.252.378.755.378 1.133 0 .252-.252.504-.378.755-.126 0-.378.126-.504 0 .126-.378.126-.755.126-1.26 0-.252-.126-.504-.126-.504zm1.51-.88c0-.126.252-.126.378-.126.378.126.755 1.385.378 1.763 0 .252-.252.252-.504.252-.126-.252.126-.504 0-.88 0-.378-.378-.63-.252-1.007zm2.14.126c-.126-.126-.252-.252-.252-.378.63-.504 1.007.88.63 1.385h-.252c0-.378 0-.755-.126-1.007zm1.385.504c0-.755-.126-1.26-.378-1.637-.126-.126-.252-.126-.252-.252 1.007-.378 1.637 1.637.63 1.89zm.504-2.392c0-.252.252-.252.378-.126.504 0 1.26.88 1.133 1.51 0 .252-.504.504-.755.378 0-1.007-.252-1.385-.755-1.763zm2.014-.378c-.126-.126-.504-.126-.378-.378.378-.126 1.385.126 1.51.63.126.63-.126 1.51-.755 1.385.126-.504 0-1.26-.378-1.637zm7.302-2.266c0 .126-.126.252-.378.126-.126 0-.126-.252-.252-.378-.252-.252-.504-.378-.63-.504v-.126c.504-.126 1.385.504 1.26.88zm0-1.385c.252 0 .504 0 .63.126s.378.378.378.63v.126c-.252.126-.378-.126-.504-.252s-.378-.126-.504-.252v-.378zm-1.007 1.763c-.378.252-.88-.378-1.26-.504-.126 0-.252 0-.378-.126.126-.378.63-.126.755 0 .378.126.88.126.88.63zm-1.007.755c0 .126-.126.126-.378.126-.252-.252-.378-.63-.755-.88-.126-.126-.378 0-.378-.378.63-.126 1.51.755 1.51 1.133zm-1.385-.126a.39.39 0 01.126.252c.126.126.252.252.252.378s-.126.378-.378.378a7.182 7.182 0 00-1.385-1.385v-.126c.504-.126.755.252 1.133.378a.39.39 0 00.252.126zm-.88 1.51c-.252.126-.378.252-.63.252 0-.504-.126-1.007-.504-1.26-.126-.126-.252-.126-.252-.126 0-.252.755-.126.88-.126.252.252.504.755.504 1.26zm5.414-4.532c.252-.126.88.252.88.504-.126.504-.378 0-.504-.126-.252-.126-.378-.126-.378-.378zm1.385-.378h.504c.252.252.755.504.504.88a.693.693 0 01-.63-.378c-.126 0-.504-.252-.378-.504zm1.133-.126c0-.63 1.007-.126.755.378H63.5c0-.126-.126-.126-.126-.252-.126-.126-.252-.126-.378-.126zm1.26-.755c.126-.252.378.126.63.126.126.252.252.504.126.755-.252.126-.378-.126-.504-.378-.126-.126-.378-.378-.252-.504zm1.26-.63c.504.126.755.63.504 1.133h-.252c.126-.504-.378-.755-.252-1.133z"/></svg>