<svg xmlns="http://www.w3.org/2000/svg" viewBox="0 0 128 96"><path fill="#fff" d="M64.152 37.014s.78-4.48 2.046-5.845c0 0 5.748-1.754 9.937-1.754 1.17 0 2.143.097 2.923.487 0 0 8.67 6.235 12.47 12.567 2.923 4.774 4.092 10.424 3.312 15.88-.487 3.02-3.994 13.736-10.034 18.315-.292-.292-.585-.4-.877-.4-.195 0-.4 0-.487.097-.78.292-5.26 2.728-5.26 2.728l-3.8.292c.877-.974 1.656-2.046 2.143-3.312 0 0-4.19 3.897-5.553 4.48-1.56.682-3.312.974-5.066.974h-.195c-.78-.195-3.507-4.287-3.507-4.287l-.585.097S60.353 76.08 59.67 75.3c0 0 .974 2.338 1.17 3.02s.682 1.754.682 1.754h-.097c-1.266 0-2.533-.097-3.8-.4-1.072-.292-2.143-.487-3.215-.682 0 0-4.19 0-5.066-.585s-8.67-10.424-10.132-13.834-1.948-10.522-1.85-11.106.097-1.266.097-1.85c0 0 1.364-10.62 2.923-12.957s6.138-5.553 6.138-5.553 4.287-1.948 6.43-2.143h.292c3.215 0 6.43.292 9.547.78 0 0-.487 2.923-.487 3.702v1.656a1.88 1.88 0 01-.974.292c-.195 0-.292 0-.487-.097-1.072-.195-2.923-2.533-2.923-2.533l-.487.097-1.364-2.046c.097 1.17.4 2.24.78 3.312.487.78 3.215 3.312 4.384 3.4 1.266 0 7.21-2.046 7.6-2.923.195-.487.4-.974.487-1.46 0 0 1.56-1.364 1.754-2.728 0 0-2.533 2.923-3.702 3.4-1.072.682-2.143 1.072-3.215 1.17m6.625-18.9a39.24 39.24 0 01-4.774-.292 4.55 4.55 0 01-1.364-1.364s4.19.195 6.138 1.656M60.353 21.33a13.78 13.78 0 01-3.507-2.338 11.655 11.655 0 00-4.97-3.118c-1.656-.292-5.943-.585-7.21-.877a33.237 33.237 0 00-4.48-.585s3.507-1.656 6.722-1.656c.4 0 .877 0 1.266.097 2.533.487 4.97 1.364 7.21 2.436.097.097 4.092 2.436 4.092 2.436 1.364 1.948 2.436 3.994 3.312 6.235 0 0-3.897-2.24-4.774-2.24-.877 0-9.547 2.728-11.3 3.118-.78.097-1.46.195-2.24.195-1.754 0-3.507-.292-5.163-.974-2.143-.974-6.04-3.02-7.696-3.02s-7.89.682-7.89.682 7.89-5.163 11.398-5.456h2.436c3.02 0 6.04.097 9.06.4-.877.585-1.656 1.364-2.338 2.24 1.17-.974 2.533-1.656 3.994-2.143h.487c-2.143 1.46-4.19 3.118-6.138 4.87 0 0 6.138-4.676 7.696-4.774h.195c1.656 0 4.48 1.56 5.456 2.533.974 1.072 4.384 1.948 4.384 1.948M46.714 11.1h-.585c-1.754.097-7.112 2.338-10.132 3.702l-3.215.4c-.682.097-11.3 7.014-13.055 8.768A14.78 14.78 0 0017 28.149s6.43-1.85 7.5-2.338c1.17-.487 5.845-3.118 6.332-3.118h1.46s5.163 3.215 7.404 3.605c1.656.292 3.312.487 4.97.487h1.364c1.266-.195 8.476-3.215 9.84-3.215 1.46 0 7.307 1.948 7.6 2.533a9.61 9.61 0 01.292 2.338c-.292.195-.4.682-.195 1.072h.195c-.585.195-1.072.292-1.656.292a6.75 6.75 0 01-1.948-.292c-1.754-.585-3.507-.974-5.358-.974h-.877c-3.118.097-4.287.877-6.82 2.436s-7.112 5.358-8.28 7.5c-1.17 2.24-3.605 17.926-2.923 22.017s9.742 19.3 14.126 20.07c3.507.487 7.112.78 10.716.78.4 0 1.948 1.072 3.8 1.072 1.266.292 2.63.4 3.897.487 1.656-.097 3.215-.585 4.58-1.46l7.014-1.17c1.56-.292 3.118-.78 4.58-1.364 4.384-3.02 7.89-7.21 10.034-12.178 3.215-7.99 2.923-18.705-.78-24.355-3.702-5.748-12.762-14.126-15.198-14.71-.487-.097-1.072-.195-1.56-.195-2.046 0-4.19.682-5.358.78-1.56.4-3.215.877-4.676 1.46.585-.974 1.266-1.754 2.046-2.533 1.17-.877 2.046-2.046 2.728-3.312.487-1.46.877-2.923 1.266-4.384.097-.877-.292-1.656-1.072-2.046-.682-.195-1.266-.487-1.948-.78a13.845 13.845 0 00-3.897-1.17c-.487-.097-.974-.097-1.364-.097-1.072 0-1.754.292-1.754.682.195.585.585 1.072 1.17 1.46l.097 1.072s2.533 2.338 2.63 2.923.097 1.17.097 1.754c0 0-.585 3.02-1.46 3.605-.292-.78-.78-1.56-1.17-2.24 0 0-1.85-6.625-3.312-8.378-2.24-.877-4.287-1.948-6.332-3.215-2.338-1.46-6.04-1.948-8.086-1.948"/></svg>