<svg xmlns="http://www.w3.org/2000/svg" viewBox="0 0 128 96"><path fill="#fff" d="M39.037 26l.63 10.086h-1.26c-.63-2.774-1.765-6.052-4.54-6.43-3.908-.378-18.28-.504-18.28-.504L28.7 46.172 13.95 63.949s4.413.126 9.456.126h.35c6.09-.005 12.906-.143 13.896-1.008 1.89-1.64 3.026-3.782 3.278-6.178h1.64L39.994 70H4.115L22.27 48.063 4.493 26h34.544zm36.814 0v1.26h-6.808v5.8h.462c2.893.014 19.084.77 19.458 14.75.367 14.92-18.72 15.367-19.866 15.38h-.054v5.547h6.808V70H55.805v-1.26h6.808v-5.547h-.873c-3.976-.02-19.298-1.026-19.298-15.255 0-13.868 14.5-14.877 18.91-14.877h1.26v-5.8h-6.808V26H75.85zm46.813 0l.254 11.827h-1.78c-1.272-6.358-3.56-8.775-6.74-9.665-1.526-.382-3.052-.51-4.578-.51h-7.25V46.6c5.977 0 9.156-.9 9.4-8.012h1.78v18.44h-1.653c-.636-6.994-2.543-8.775-8.393-8.775h-1.017v20.092h8.775c8.012 0 9.665-5.087 10.936-12.6h1.78L123.682 70H88.71v-1.653h6.104V27.653H88.71V26h33.954zm-53.17 9.456h-.45V60.67h.448c2.148-.015 11.03-.763 11.53-12.607.63-11.977-9.456-12.607-11.6-12.607zm-6.754-.378s-12.86.126-12.48 13.112c.24 11.85 10.21 12.48 12.1 12.48h.378z"/></svg>