<svg xmlns="http://www.w3.org/2000/svg" viewBox="0 0 128 96"><path fill="#fff" d="M53.197 84.33c-.57 0-1.142-.095-1.713-.095-.57-.095-1.047-.2-1.618-.38-.76-.286-1.523-.476-2.284-.666-.286 0-.57-.095-.857-.286-.286 0-.476-.2-.76-.286s-.57-.2-.76-.38c-.2-.095-.286-.2-.476-.286-.2-.2-.38-.286-.57-.38-.2-.286-.57-.38-.76-.666l-1.428-1.428c-.2-.2-.38-.38-.476-.57-.2-.2-.38-.38-.476-.666-.2-.2-.38-.38-.476-.666-.2-.2-.286-.38-.38-.57l-.286-.38c-.095-.2-.2-.38-.38-.57l-1.142-2.284c-.095-.38-.286-.57-.286-.857-.476-1.237-.857-2.57-.952-3.997.095-.57 0-1.142.095-1.713l.286-1.713c.286-.57.38-1.237.666-1.808.2-.38.38-.76.666-1.142.286-.476.57-.952.952-1.332l.38-.38c.286-.476.57-1.047.952-1.523l1.523-1.808a30.105 30.105 0 012.475-2.475l1.142-.952 1.237-.952c.2-.2.38-.38.57-.476.286-.2.57-.38.76-.666.57-.57 1.142-1.047 1.808-1.523l.38-.38.952-.857.2-.095 1.332-1.237c.2-.2.38-.38.57-.476.57-.38 1.142-.857 1.618-1.332.2-.095.38-.2.476-.38.476-.286 1.142-.476 1.618-.76.666-.2 1.332-.476 2-.57.2-.095.476-.095.666-.2h.476l.38-.095h.952l.476-.095 1.142-.095H65c.57.095 1.237.2 1.713.38.38.095.666.286 1.047.38.476.2 1.047.38 1.523.666l1.428.857 1.808 1.047c.2.2.476.286.666.476.38.286.666.57.952.857l2.57 2.284 2 1.713 2.094 1.904a.74.74 0 00.381.381c.57.57 1.237 1.047 1.904 1.523l1.142 1.047c.666.57 1.237 1.237 1.808 1.904l.38.476c.095.2.2.38.38.57l.57.952c.286.286.476.57.666.952a8.7 8.7 0 01.666 1.332c.2.38.286.76.476 1.142l.57 2.38c0 .666.2 1.332.2 2.094s-.095 1.428 0 2.19h-.095v.38c0 .476 0 1.047-.095 1.618-.095.286 0 .76-.095 1.047l-.286 1.142c0 .38-.2.57-.286.952-.2.476-.38.952-.666 1.428L87.937 79c-.2.2-.286.38-.38.57-.2.2-.286.38-.476.57-.2.286-.476.57-.76.857l-.857.666-.476.476c-.2.095-.38.286-.57.38l-2.284 1.047c-.666.2-1.332.38-2 .38-.2 0-.38.095-.57.095-.57-.095-1.237 0-1.904-.2l-2.76-.666c-.2-.095-.476-.095-.76-.2-.666-.2-1.237-.476-1.904-.76s-1.332-.476-1.904-.666l-3.33-1.808c-.952-.38-1.808-.952-2.76-1.428h-.286c-.286 0-.666.095-.952.286s-.476.38-.666.476c-.286.095-.38.38-.666.476-.2.2-.38.286-.57.38-.095.2-.286.286-.476.38-.2.2-.38.38-.57.476-.57.38-1.047.857-1.523 1.237-.2.286-.38.476-.666.57-.2.2-.476.38-.76.476-.666.476-1.428.857-2.19 1.047-.2.095-.666.095-.857.2h-.095c-.2-.095-.476-.095-.76 0M36.16 56.537l-1.237-.2c-.286-.2-.57-.38-.952-.476a4.14 4.14 0 00-.666-.571 4.51 4.51 0 01-.952-.952l-1.332-1.713-1.047-1.904-.857-1.523c-.38-.76-.57-1.713-.952-2.57 0-.286-.095-.57-.2-.76l-.76-3.14-.2-1.618.095-1.237v-.2c.095-.857.095-1.808.286-2.665l.286-1.523.57-1.523c.38-.476.57-1.047.857-1.523l.2-.2a7.164 7.164 0 011.047-1.332c.095-.2.286-.38.38-.476l.57-.476.857-.57c.2-.2.38-.38.666-.476.095-.095.286-.286.476-.286.286-.095.57-.2.76-.38.286 0 .476-.095.76-.2.095 0 .2-.095.286-.095h.286c.857 0 1.713.095 2.475.38.38.095.76.286 1.142.476.38.095.76.38.952.76.286.286.57.666.857 1.142.2.2.286.38.476.57a6.87 6.87 0 01.857 1.904 4.64 4.64 0 01.381 1.047c.095.666.286 1.237.38 1.808.38 1.237.57 2.475.76 3.712 0 .286 0 .666.095.952v.2c0 .286.095.57.095.857v2.38c0 1.142-.2 2-.2 3.14 0 1.047-.286 2-.38 3.046-.095.286-.095.57-.2.857l-.57 1.523c-.286.57-.57 1.047-.952 1.523s-.76.857-1.142 1.237a6.87 6.87 0 01-1.904.857c-.476.095-.952.095-1.428.095v.095h-.952m53.205.095l-1.047-.286c-.286-.2-.57-.38-.857-.476-.2-.2-.476-.38-.666-.57l-.76-.857-.38-.57c-.476-.666-.857-1.428-1.237-2.19a20.84 20.84 0 01-1.142-3.141c0-.286-.095-.476-.2-.76v-.286l-.095-.38c0-.38-.095-.76-.095-1.142v-2.76l.286-4.283.095-.38v-.38l.38-1.523v-.476c.2-1.047.476-2.094.952-3.046l.2-.38c.2-.2.38-.476.476-.666.286-.38.666-.666.952-1.047l.666-.857a.74.74 0 00.381-.381c.286-.2.57-.57.857-.76.2-.2.38-.286.57-.476l.857-.57.857-.286h1.047c.57 0 1.047.095 1.618.095h.095l.286.095h.952c.666.2 1.332.57 2 .952.38.286.666.476 1.047.666.095.095.2.2.38.286l.286.095c.286.286.476.476.76.666l.2.38c.38.476.76.952.952 1.523.2.38.38.76.38 1.142.2.57.38 1.142.476 1.713l.095 1.142.095.38v.952c0 .666 0 1.332-.095 1.904v.286c-.095 1.713-.38 3.426-.76 5.14 0 .286-.095.476-.2.76-.095.38-.286.666-.286 1.047-.286.57-.476 1.237-.76 1.713-.38.857-.857 1.523-1.237 2.284a8.37 8.37 0 01-.571.952c-.2.2-.286.38-.38.57l-.2.2c-.286.476-.57.952-.952 1.237l-.76.76a10.85 10.85 0 01-1.808.952c-.476.095-.76.38-1.142.57-.2 0-.286.095-.476.2-.095.095-.2.095-.286.2h-.76c-.2 0-.76 0-1.047.095m-37.69-43.306c.2-.095.286-.095.476-.095l1.237-.095h2.38c.2 0 .38 0 .57.095.57.2 1.142.38 1.618.76.286.286.666.476.952.666.095.2.2.286.38.476.2.095.286.286.38.476.2.095.286.286.38.38.2.38.476.76.666 1.142l.2.286.857 2.094c.095.476.2.952.2 1.428.095 1.047.095 2.094.095 3.14v4.57c0 .38-.095.857-.2 1.237-.286 2-.76 3.997-1.523 5.9-.095.2-.2.476-.286.666l-.286.57a9.494 9.494 0 01-1.618 2.665l-.476.666c-.38.476-.76.857-1.237 1.142-.286.095-.57.286-.76.476-.286.2-.666.286-.952.476-.476.286-.952.476-1.428.666-.286.095-.57.2-.857.2-.2 0-.476 0-.666-.095l-.952-.476c-.57-.666-1.142-1.237-1.618-2-.57-.666-1.047-1.523-1.428-2.284l-.76-1.237-1.428-3.046c-.286-1.332-.666-2.475-1.047-3.712l-.38-1.904c-.286-2.38-.2-4.664.2-7.043a2.93 2.93 0 01.286-1.237c.095-.095.095-.2.095-.286 0-.38.2-.76.38-1.047.38-.857.952-1.713 1.428-2.57.2-.2.286-.286.476-.57.476-.476.857-.952 1.332-1.332l1.523-.857a2.85 2.85 0 01.761-.381h.2c.2-.095.476-.2.76-.2 0 .286.095.286.095.286M74.136 42.07c-.666 0-1.237-.095-1.808-.2-.38-.2-.857-.286-1.142-.476-.2-.2-.38-.38-.57-.476l-2.475-2.475c-.095-.2-.095-.286-.286-.38-.2-.2-.286-.38-.38-.57 0-.095-.095-.2-.2-.2-.2-.38-.286-.76-.476-1.047v-.38c-.2-.38-.38-.76-.476-1.142-.38-1.142-.666-2.19-.76-3.426-.095-.952-.38-1.904-.476-2.95-.095-.476-.095-.952-.2-1.428-.095-1.237 0-2.57 0-3.807H65c.095-.57.095-1.237.2-1.713l1.237-4.664.095-.38.666-1.237c.2-.2.286-.286.38-.476.095-.095.095-.2.2-.286.095-.2.095-.286.2-.38.2-.2.286-.38.38-.57.286-.286.476-.476.666-.76l.476-.286c.2-.2.476-.38.666-.476l.76-.476.38-.2c.286 0 .57-.095.76-.2h1.618c.857 0 1.808.095 2.665.286.286.2.666.2.952.286.286 0 .57.095.857.286.286 0 .57.2.76.38.286.095.476.2.666.38.2.095.38.2.476.286l.286.286c.286.2.57.476.857.76s.476.666.76.857c.095.2.286.38.476.57l.57.952c.095.095.286.286.38.476.2.38.286.76.476 1.047 0 .38.095.666.286.952.095.38.2.666.38.952s.095.666.095.952v.952c0 .476-.095 1.047-.095 1.618-.2 1.237-.476 2.475-.952 3.617l-.857 1.713-1.142 2.57-1.428 3.33c-.095.2-.2.476-.286.666-.76 1.808-1.713 3.426-2.76 5.044a4.51 4.51 0 01-.952.952l-.857.666c-.38 0-.76.095-1.142.2M73.85 8.09h-2.284l-.476.2-.2.095h-.38l-1.047.476c-.286.095-.57.286-.857.476-.38.2-.76.38-1.047.666l-.666.38-.38.476-.857.857-.2.38c-.2.2-.286.38-.38.57l-.2.2v.2l-.2.095-.286.476c-.2.286-.286.57-.476.857l-.286.476-.095.286-.095.57-.2-.286c-.2-.286-.38-.57-.476-.857l-.2-.38c-.2-.286-.38-.476-.57-.76s-.476-.57-.666-.857l-.286-.2-.286-.286c-.2-.2-.476-.38-.666-.476l-.476-.286a10.48 10.48 0 00-2.57-1.142c-.286-.095-.666-.2-.952-.2l-.286-.095h-2.38l-1.428.095h-.095c-.286 0-.476.095-.76.095-.476 0-.857.2-1.332.286h-.095a2.95 2.95 0 00-1.237.571c-.57.286-1.237.57-1.713.952l-.286.2-.2.2a4.51 4.51 0 00-.952.952l-.476.476-.38.286-.095.2-.2.2-.286.666-.286.57c-.476.666-.857 1.428-1.237 2.19a4.176 4.176 0 00-.57 1.523l-.095.095c-.2.476-.286 1.047-.38 1.523v.286a24.72 24.72 0 00-.286 5.33c-.2-.2-.38-.286-.666-.38a3.311 3.311 0 00-1.332-.57l-.2-.095a10.92 10.92 0 00-3.522-.571h-.476c-.476 0-.952.095-1.332.286h-.095l-.476.095-.476.2-.2.095h-.095c-.38.095-.76.38-1.142.666l-.857.57c-.2.2-.38.286-.57.38v.095l-.2.095-.57.57a4.51 4.51 0 00-.952.952l-.2.286c-.38.2-.666.57-.952.952-.095.2-.286.286-.38.476-.2.286-.286.57-.476.857l-.286.57-.2.286-.666 1.904v.095c-.2.476-.286 1.047-.38 1.618 0 .095 0 .286-.095.38-.095.57-.2 1.142-.2 1.713 0 .38-.095.76-.095 1.047v.76l-.095 1.237.286 2.094v.2l.286 1.237c.095.57.286 1.237.476 1.904l.095.286.095.2v.2l.095.286c.095.2.2.476.286.76.2.666.476 1.428.76 2.094.286.57.57 1.237.952 1.808l1.237 2 .38.476c.38.38.666.857 1.047 1.332.286.476.666.857 1.142 1.237l.2.095c.2.2.38.286.57.476l.2.286.952.476.095.095.476.38 2.665.476.38-.095h.666l-.952 1.428-.095.095c-.286.476-.57.952-.76 1.428s-.38.857-.476 1.332c-.095.2-.095.38-.2.476l-.095.2-.095.286c-.2.666-.286 1.428-.38 2.094 0 .38 0 .666-.095.952s0 .476 0 .666v.666c.2 1.618.476 3.14 1.142 4.664.095.2.095.38.2.57l.095.286 1.523 2.95.2.38.476.666.476.76c.095.2.286.38.38.476.38.57.857 1.047 1.237 1.618L41.3 82.9c.2.2.38.38.57.476l.38.38.476.2.2.095c.286.2.476.38.76.476l1.047.57c.286.2.666.286 1.047.38.38.2.857.286 1.332.38l1.808.57 2 .476c.57.095 1.142.095 1.713.2h.76l.38-.095h.76l.2-.095h.095c.38 0 .76-.095 1.047-.2.76-.286 1.523-.666 2.19-1.047l.38-.2h.095c.286-.2.57-.286.857-.57.38-.2.76-.57 1.142-.857l.57-.476.666-.57.095-.095c.095-.095.286-.2.476-.38.286-.2.476-.286.666-.476.2-.095.38-.286.57-.38s.286-.2.476-.38c.476.286 1.047.57 1.618.857l.2.095c1.047.666 2.19 1.237 3.33 1.808l1.428.57.57.2.666.286c.38.2.857.38 1.332.57l.57.2.2.095 2.95.666h.095c.476.095.952.2 1.523.2h.476c.2 0 .38.095.57.095.286 0 .476 0 .76-.095.76 0 1.428-.2 2.094-.38l.38-.095h.2l.2-.095c.952-.38 1.808-.76 2.665-1.237.2-.095.38-.286.57-.38.286-.2.666-.476.857-.666l.76-.57.095-.095c.38-.286.666-.666.952-1.047l.095-.095c.095-.095.286-.286.38-.476l.2-.095.286-.476.095-.2.2-.2.76-1.428.57-1.237c.095-.2.095-.286.2-.38l.2-.476v-.38c.095-.2.2-.476.2-.666.095-.286.2-.57.2-.857l.095-.286c.095-.38.095-.666.2-1.047v-4.95c0-.57 0-1.142-.095-1.713 0-.2 0-.38-.095-.57v-.286c0-.2-.095-.38-.095-.57-.095-.666-.286-1.428-.476-2.094l-.095-.286-.286-.2-.095-.2c-.095-.2-.095-.38-.2-.57l-.57-1.332-.095-.286-.2-.476-.2-.2c-.095-.2-.286-.38-.38-.57h1.523l.952-.286.38-.2a2.95 2.95 0 001.237-.571l.095-.095.38-.2 1.904-1.047.286-.2 1.047-.952c.57-.57 1.047-1.142 1.428-1.808.095-.095.2-.286.286-.38l.286-.286.286-.666.095-.095c.095-.2.2-.38.38-.666.095-.286.286-.57.476-.857a9.7 9.7 0 00.761-1.428c.286-.476.38-.857.57-1.332l.2-.57.2-.38v-.476c.095-.2.2-.38.2-.76.095-.286.2-.57.2-.857.476-1.808.76-3.617.857-5.425V39.7c0-.476.095-.952.095-1.428v-1.618h.095v-.095l-.2-.38-.095-1.142v-.095c-.095-.666-.286-1.332-.476-2-.095-.666-.38-1.237-.666-1.808a7.816 7.816 0 00-1.142-1.904l-.38-.57-.38-.286-.38-.38c-.2-.2-.476-.38-.666-.57l-.095-.2-.76-.38-.286-.2c-.2-.095-.38-.286-.57-.38-.857-.57-1.713-.952-2.76-1.332-.38-.095-.76-.2-1.237-.2h-.2c-.2 0-.38-.095-.666-.095h-.38c-.38-.095-.76-.095-1.142-.095h-.2l-1.523.095-.57.2-.2.095-.57.095-.476.286-.38.2-.286.2.476-2.284v-.57c0-.476 0-.857.095-1.237v-1.904c0-.095 0-.476-.095-.76l-.095-.38-.2-.38s-.095-.2-.095-.286-.095-.286-.2-.476l-.095-.286v-.57l-.38-.286-.2-.2c-.095-.286-.286-.57-.38-.857-.2-.286-.38-.57-.57-.76l-.38-.666-.095-.095c-.095-.095-.2-.286-.286-.38l-.2-.286-.476-.38-.095-.286c-.2-.2-.286-.38-.57-.666l-.2-.2-.2-.095c-.2-.286-.476-.476-.76-.666l-.2-.095-.095-.095c-.286-.2-.476-.38-.76-.476a2.253 2.253 0 00-1.047-.57c-.38-.2-.76-.38-1.142-.476-.38-.2-.666-.286-1.047-.286l-.38-.2h-.095l-.2-.095-.38-.095a19.43 19.43 0 00-3.236-.286"/></svg>