<svg xmlns="http://www.w3.org/2000/svg" viewBox="0 0 128 96"><path fill="#fff" d="M65.606 68.565v3.213h-3.213v-3.213h3.213zm-3.213-3.213v3.213H59.18v-3.213h3.213zm6.425 0v3.213h-3.213v-3.213h3.213zM59.18 62.14v3.213h-3.21V62.14h3.213zm12.85 0v3.213h-3.21V62.14h3.213zm-16.06-3.285v3.286h-3.213v-3.286h3.213zm19.275 0v3.286H72.03v-3.286h3.213zm-22.488-3.213v3.213H49.47v-3.213h3.286zm25.773 0v3.213h-3.286v-3.213h3.286zM49.47 52.43v3.213h-3.213V52.43h3.213zm32.27 0v3.213h-3.21V52.43h3.213zm-35.484-3.213v3.213h-3.213v-3.213h3.213zm38.697 0v3.213H81.74v-3.213h3.213zm-41.91-3.213v3.213H39.83v-3.213h3.213zm45.122 0v3.213h-3.213v-3.213h3.213zM39.833 33.08v12.923H36.62V33.08h3.213zm51.547 0v12.923h-3.213V33.08h3.213zm-25.773 0v3.213h-3.213V33.08h3.213zm-3.213-3.213v3.213H59.18v-3.21h3.213zm-19.348 0v3.213h-3.213v-3.21h3.213zm25.773 0v3.213h-3.213v-3.21h3.213zm19.348 0v3.213h-3.213v-3.21h3.213zM59.18 26.656v3.213h-3.21v-3.213h3.213zm-12.923 0v3.213h-3.213v-3.213h3.213zm25.773 0v3.213h-3.21v-3.213h3.213zm12.923 0v3.213H81.74v-3.213h3.213zM55.97 23.444v3.213h-9.71v-3.213h9.71zm25.773 0v3.213h-9.71v-3.213h9.71z"/></svg>