<svg xmlns="http://www.w3.org/2000/svg" viewBox="0 0 128 96"><path fill="#fff" d="M93.417 13.67h-2.293c-.287 0-.67.096-.955.096l-2.58.478-3.152.955a23.05 23.05 0 00-2.388.764 21.55 21.55 0 00-2.101 1.051c-.19.096-.478.287-.67.287l-.764.287c-.19.19-.382.287-.67.382l-2.006 1.05-1.242.86-2.388 1.72c-.19.096-.382.287-.573.478l-2.675 2.58-.86 1.242-1.624 2.484c-.19.19-.287.382-.382.67l-.287.764c-.19.478-.382 1.05-.478 1.624s-.096 1.242-.19 1.9-.096 1.337-.096 2.006c0 .287.096.67.096.955.096.955.287 1.815.478 2.675l.382 1.72 1.05 5.158c.096.67 0 1.242-.096 1.9-.096.573-.19 1.146-.382 1.72-.096.287-.19.478-.287.67s-.287.382-.478.573c-.096.096-.19.096-.287.096-.287 0-.573-.287-.67-.382-.382-.382-.573-.764-.86-1.146-.096-.19-.287-.382-.382-.573-.19-.478-.382-.955-.478-1.528-.19-.573-.287-1.05-.382-1.624a5.41 5.41 0 00-.287-1.719c-.096-.573-.287-1.05-.382-1.528s-.287-1.05-.573-1.528c-.096-.19-.19-.478-.382-.67-.096-.19-.287-.382-.382-.573s-.19-.382-.382-.573c-.096-.19-.287-.382-.382-.67l-.86-1.05c-.573-.764-1.242-1.433-1.815-2.1l-2.1-1.72-2.388-1.624c-.478-.287-.86-.478-1.337-.573l-1.433-.573c-.573-.096-1.146-.287-1.624-.287l-1.72-.19c-.573-.096-1.146-.19-1.815-.19h-1.9l-3.82.096c-1.146.096-2.293.287-3.44.478l-1.72.287-1.624.287c-.573.096-1.05.19-1.624.382l-1.337.573c-.19.096-.478.19-.67.287a1.15 1.15 0 00-.478.478c-.19.19-.287.382-.382.573-.096.287-.19.573-.19.86a1.32 1.32 0 000 .86c.19 1.146.478 2.1.764 3.152 0 .287.096.478.19.764.096.19.287.382.382.67s.096.478.19.764l1.433 2.58 1.337 2.484 1.528 2.388c.478.86.955 1.624 1.528 2.388l1.72 2.197a1.15 1.15 0 00.478.478c.19.096.382.287.573.382.287.382.67.67 1.05.955l1.146.86a8.72 8.72 0 001.242.764c.287.096.478.19.764.19l2.293.573c.573.096 1.146.19 1.815.19h.955c.287.096.573.096.764.096h.096c.67 0 1.337 0 1.9-.096.573 0 1.146-.096 1.72-.19l3.057-.86 1.337-.573c.19-.096.478-.19.67-.287.287-.096.478-.096.764-.19.478-.19 1.05-.287 1.528-.382.287-.096.573-.096.86-.19.287 0 .67-.096.955-.096h1.337c.67 0 1.242.287 1.72.86.096.287-.096.67-.382.86l-.382.478c-.382.478-.67 1.05-.955 1.433-.096.096-.287.287-.478.382-.287.287-.573.573-.764.86l-1.528 1.72c-.287.287-.478.573-.764.86s-.573.478-.86.764l-1.72 1.528c-.287.287-.573.478-.86.764s-.573.478-.955.764l-1.815 1.528c-.287.19-.573.478-.955.67s-.573.478-.955.67c-1.337.86-2.866 1.528-4.3 2.293-.764.382-1.433.764-2.293 1.05-.382.19-.764.382-1.146.478l-1.337.287c-.382.19-.86.287-1.337.287h-1.52c-.382 0-.955-.19-1.528-.19s-.955.096-1.146.478-.096.86.19 1.146L38.014 77c.19.287.478.573.67.86.096.096.287.287.478.382a3.43 3.43 0 00.955.669c.19.096.382.096.573.096h.19c.478 0 .86-.19 1.146-.382.382-.19.764-.382 1.146-.478.19-.096.382-.096.573-.19s.287-.287.478-.382.382-.096.573-.19.382-.19.478-.287l1.05-.573c.67-.382 1.242-.86 1.9-1.337l1.9-1.337 1.815-1.433c1.242-.955 2.293-2.006 3.44-3.057a13.04 13.04 0 001.624-1.624l1.433-1.815c.287-.287.478-.67.67-.955.19-.382.478-.573.764-.955.19-.287.382-.67.67-.955.19-.287.478-.573.67-.955.478-.573.86-1.337 1.337-1.9s.86-1.242 1.337-1.9c.287-.478.573-1.05.955-1.528.19-.287.287-.573.573-.573h.19c.382.19.764.478 1.05.86s.573.764.764 1.146a1.8 1.8 0 01.191.764c0 .287.096.573.096.86.096.573.287 1.05.382 1.624s.096 1.242.096 1.815 0 1.242.096 1.815.19 1.146.19 1.72c0 .287.096.573.096.86.096.287.096.478.19.764.19.478.287.955.478 1.433.096.19.19.478.287.67s.287.382.382.573l.86 1.146c.287.287.67.573.955.955l2.006 1.9c.382.287.764.573 1.146.764l2.388 1.528c.478.19.86.478 1.337.573l1.242.67c.478.19.86.478 1.337.573.287.096.478.096.764.19l.67.287c.764.287 1.433.478 2.197.67a1.8 1.8 0 01.764.191c.287.096.478.19.764.19.573 0 1.242.096 1.72.19.287 0 .573.096.86.096.573.096 1.146.19 1.72.19.478.096.86.096 1.337.096h.478c1.146-.096 2.58 0 3.63-.19l1.624-.287c.573-.096.955-.287 1.528-.382.287-.096.478-.096.764-.19.19-.096.382-.287.573-.478.382-.382.478-.86.478-1.433s-.096-1.146-.19-1.815h.096c-.096-.478-.19-1.05-.382-1.528-.096-.478-.287-.955-.478-1.528-.19-.382-.382-.86-.573-1.337-.19-.382-.382-.955-.573-1.337-.096-.19-.287-.382-.382-.573s-.19-.478-.287-.67a5.48 5.48 0 00-.382-.669c-.096-.19-.19-.478-.287-.67-.478-.764-.86-1.72-1.337-2.484-.19-.478-.382-.86-.67-1.242a20.356 20.356 0 01-1.528-2.388c-.478-.764-1.242-1.433-1.72-2.197l-1.72-2.1a2.996 2.996 0 00-1.05-.86c-.382-.287-.764-.573-1.146-.764-.19-.096-.478-.19-.67-.287s-.478-.19-.67-.287l-2.866-1.05a5.33 5.33 0 00-1.624-.287c-.573-.096-1.146-.19-1.72-.19h-1.9c-.573.096-1.146.096-1.72.19s-1.05.287-1.624.287c-.573.096-1.146.096-1.815.096h-.86c-.67 0-1.242 0-1.9-.096-.287 0-.573-.096-.86-.096l-1.624-.287c-.478-.096-.955-.287-1.242-.67-.096-.287-.096-.573.096-.86a.977.977 0 01.478-.573c.287-.096.478-.287.67-.382.19-.19.478-.287.67-.382.573-.19 1.146-.382 1.815-.382l6.113-.573c.67-.096 1.242-.19 1.9-.382.287-.096.573-.096.86-.19l.86-.287 1.624-.573c.478-.19.955-.478 1.337-.86l1.337-.86.573-.573c.19-.19.382-.382.573-.478.382-.287.764-.67 1.146-1.146.096-.19.19-.478.382-.67a9.341 9.341 0 001.433-1.9 2.97 2.97 0 01.478-.67c.096-.19.19-.573.382-.764.287-.478.573-.955.67-1.528l.287-.764c.19-.19.287-.478.382-.764l.287-.86c0-.287.096-.67.19-.955l.573-1.72c.096-.287.096-.67.096-.955s.19-.573.19-.86c.096-.67.287-1.242.382-1.9.287-1.242.478-2.58.67-3.82l.67-6.018c.096-.67 0-1.433.096-2.1.096-1.337.287-3.057-.478-3.82.478-1.05-.096-1.242-.67-1.242"/></svg>