<svg xmlns="http://www.w3.org/2000/svg" viewBox="0 0 128 96"><path fill="#fff" d="M106.492 32.9v-.932c.242-.065 7.456-.084 7.904 0-.13.317-.298.606-.466.932h-7.438zm2.2 6.524h6.04a2.58 2.58 0 01-.093.28 10.04 10.04 0 01-6.953 5.788c-2.41.606-4.95.45-7.27-.447a9.32 9.32 0 01-4.129-3.234 13.92 13.92 0 01-.979-1.473.43.43 0 00-.419-.233h-3.28V30.002h3.607a.44.44 0 00.457-.27 12.45 12.45 0 011.426-2.153 8.95 8.95 0 015.163-3.169 11.721 11.721 0 016.077.186 9.665 9.665 0 015.984 5.285c0 .075.056.15.093.26h-9.684c-.075.252-.093 8.882 0 9.32h3.99l-.028-.028zm-1.5 8.258a9.32 9.32 0 01-7.866.522 10.195 10.195 0 01-3.588-2.106 9.658 9.658 0 01-1.482-1.864.58.58 0 00-.55-.298h-2.964l.848-2.004h2.283a.479.479 0 01.457.242 12.76 12.76 0 002.796 3.057 11.338 11.338 0 005.23 2.218 14.13 14.13 0 003.066.177c.67 0 1.333-.14 2.004-.214h.15v.065l-.39.224.01-.02zm-21.325-3.216a3.73 3.73 0 01-4.194-3.551v-15.75a3.58 3.58 0 011.864-3.178 3.875 3.875 0 015.778 2.872c.01.146.01.292 0 .438V40.61a4.02 4.02 0 01-3.458 3.887l.01-.028zm1.92 12.527c-.073.97-.238 1.932-.494 2.87a14.932 14.932 0 01-2.89 5.518 23.19 23.19 0 01-4.399 4.138 13.79 13.79 0 01-4.38 2.078l-.308.065v-.345l-.13-8.258v-2.106a8.79 8.79 0 00-1.277-4.203 11.63 11.63 0 00-1.79-2.339 9.451 9.451 0 00-2.31-1.612l-4.958-2.563a6.46 6.46 0 005.592-2.498 6.121 6.121 0 005.005 2.507 6.256 6.256 0 005.024-2.517 6.235 6.235 0 003.243 2.256 6.16 6.16 0 003.952-.14 2.72 2.72 0 010 .28v1.612c0 .783.12 1.547.168 2.32a21.6 21.6 0 010 2.945l-.047-.01zM72.854 72.43l-2.125.662a21.45 21.45 0 01-6.375.932 20.225 20.225 0 01-7.074-1.464 29.837 29.837 0 01-8.472-4.986 20.747 20.747 0 01-7.074-12.117 28.762 28.762 0 01-.494-5.835l.084-8.11.12-9.973a3.73 3.73 0 015.657-3.16 3.911 3.911 0 011.92 2.694c.04.215.058.434.056.652v9.106a6.408 6.408 0 001.39 3.943 8.26 8.26 0 003.057 2.47c1.538.718 3.03 1.538 4.53 2.32l10.57 5.452a6.98 6.98 0 012.694 2.377 7.71 7.71 0 011.212 2.6 10.42 10.42 0 01.168 2.069l.14 8.202v2.256l.02-.093zM51.417 25.27a3.73 3.73 0 012.992-3.728 3.92 3.92 0 014.66 3.104 3.73 3.73 0 01.065.68v15.22a4.053 4.053 0 01-3.057 3.896 3.73 3.73 0 01-4.511-3.001 4.66 4.66 0 01-.065-.802v-15.37h-.084zm10.066 7.69v-7.83a3.81 3.81 0 013.113-3.635 3.951 3.951 0 014.483 3.206 3.73 3.73 0 010 .615v15.22a4.045 4.045 0 01-3.15 3.905 3.73 3.73 0 01-4.259-2.945 5.47 5.47 0 01-.075-.932V32.92l-.112.037zM71.42 41V25.1a3.44 3.44 0 011.864-3.057 3.86 3.86 0 011.501-.569 3.73 3.73 0 013.309 1.128 3.84 3.84 0 011.156 2.852v15.51c-.105 1.274-.787 2.43-1.852 3.137s-2.395.887-3.6.49a3.83 3.83 0 01-1.156-.736l-.224-.214a3.87 3.87 0 01-.429-.55 3.45 3.45 0 01-.177-.308 3.26 3.26 0 01-.326-.98 4.4 4.4 0 010-.774L71.42 41zm-32.25 1.1h-4.23l-.28.503a11.44 11.44 0 01-2.694 3.383 9.438 9.438 0 01-4.875 2.097c-1.82.27-3.68.12-5.434-.438a9.87 9.87 0 01-6.273-5.946c0-.075 0-.15-.075-.26h10.075c.084-.26.084-9.013 0-9.32h-9.693c.047-.13.075-.214.112-.298a9.61 9.61 0 017.531-5.676 11.947 11.947 0 014.595.168 9.04 9.04 0 015.592 3.831c.345.503.643 1.035.932 1.566.08.178.262.287.457.27h4.27v10.13l-.01-.01zm-.177 3h-3.728l.746-1.165h3V45.1l-.02.01zM28.74 49.77a8.19 8.19 0 01-3.318 1.24 13.74 13.74 0 01-7.522-1.118 9.63 9.63 0 01-4.12-3.197 11.12 11.12 0 01-1.687-3.644.371.371 0 01.047-.354l.932-1.333a1.05 1.05 0 01.13-.12l.12.363a12.515 12.515 0 003.113 5.052 11.69 11.69 0 006.133 3.122c2.03.394 4.12.337 6.123-.168h.196c-.103.084-.15.14-.214.177l.065-.02zM13.95 35.63a3.19 3.19 0 01.317-.764c.08-.1.215-.137.336-.093h1.864l7.177.084v.708l-9.665.047-.028.02zm104.388-.932V34.4a14.13 14.13 0 00-.196-2.283c-.2-1.067-.48-2.117-.84-3.14a12.92 12.92 0 00-11.268-7.997 14.51 14.51 0 00-4.11.242 12.106 12.106 0 00-7.018 3.99c-.39.447-.736.932-1.11 1.417a.42.42 0 01-.224.177h-.932v-.53c.01-.68-.018-1.363-.084-2.04a7.355 7.355 0 00-6.925-6.235 7.16 7.16 0 00-5.042 1.752l-.28.242a7.28 7.28 0 00-10.029 0 7.29 7.29 0 00-10.019 0 7.29 7.29 0 00-12.266 4.884 7.057 7.057 0 00-5.592 0 7.13 7.13 0 00-3.905 3.924h-1.66a.86.86 0 01-.857-.438 12.286 12.286 0 00-5.303-4.41 14.64 14.64 0 00-6.869-1.09 13.05 13.05 0 00-6.422 2.172 14.204 14.204 0 00-5.117 6.384 7.94 7.94 0 00-.363.988 29.92 29.92 0 00-.848 4.828.93.93 0 000 .224h11.184v.848H12.27a.624.624 0 00-.345.093c-.217.16-.417.34-.597.54L9.317 41.3c-.084.093-.116.223-.084.345.147.944.352 1.878.615 2.796a12.393 12.393 0 004.763 6.71 16.2 16.2 0 006.142 2.563 14.12 14.12 0 005.5.084 11.1 11.1 0 007.792-5.294.43.43 0 01.419-.242h3.365a.26.26 0 010 .075v.774a32.19 32.19 0 00.68 7.456 23.88 23.88 0 006.99 12.527 32.025 32.025 0 0012.117 7.12 22.408 22.408 0 009.432 1.053 46.334 46.334 0 008.92-2.125 20.59 20.59 0 005.36-2.358 25.8 25.8 0 005.518-4.847 18.64 18.64 0 003.579-6.422c.803-2.57 1.085-5.27.83-7.95 0-.475-.112-.932-.13-1.426 0-1.584-.056-3.17-.084-4.753a2.255 2.255 0 010-.26h1.165a.494.494 0 01.4.177c.363.382.727.764 1.128 1.11a13.32 13.32 0 003.933 2.283 12.802 12.802 0 0012.05-1.128c1-.667 1.92-1.45 2.74-2.33a40.62 40.62 0 011.389-1.426 13.72 13.72 0 002.47-2.796 10.98 10.98 0 00.988-1.752 13.55 13.55 0 00.997-4.427v-.56h-10.448a5.674 5.674 0 010-1.594h10.495v.02z"/></svg>