<svg xmlns="http://www.w3.org/2000/svg" viewBox="0 0 128 96"><path fill="#fff" d="M58.297 53.1l4.155-2.36v4.9l-3.872 1.89-.283-4.438zm7.365 2.266v-4.72l4.25 2.455v4.25l-4.25-1.983zM54.048 48.19v-.094l3.022-2.172L60.752 48l-4.06 2.455-2.644-2.266zM67.173 48l3.966-2.266 3.777 2.738-3.4 1.983L67.173 48zm-1.51-6.893l3.966-1.794.094 3.588-4.06 2.36v-4.155zm-3.21 4.155l-3.966-2.266.094-3.777 3.966 1.794v4.25m-.094-32.483v6.893l-5.194-2.644c-.19-.094-.472-.19-.66-.19-.567 0-1.133.283-1.416.85a1.51 1.51 0 00.755 2.077l6.6 3.305v3.116l-5.57-2.55c-.094 0-.283-.094-.378-.094a1.62 1.62 0 00-1.511 1.133c-.19.66.094 1.322.66 1.7l6.893 3.116v7.365l-7.65-3.588-.094 7.27-6.327-3.588.094-7.177c0-.85-.755-1.51-1.605-1.51h-.094c-.755 0-1.416.66-1.51 1.416l-.094 5.477-2.455-1.416.094-6.516c0-.85-.755-1.51-1.605-1.51H41.3c-.755 0-1.416.66-1.51 1.416l-.094 4.816-6.232-3.588c-.283-.19-.567-.283-.85-.283-.472 0-1.04.283-1.322.66-.472.755-.283 1.7.378 2.172l.19.094 6.232 3.588-4.72 3.4c-.66.567-.755 1.51-.19 2.172.283.378.755.567 1.228.567.283 0 .567-.094.85-.283l5.855-4.155 2.55 1.416-4.155 3.872c-.66.567-.755 1.605-.19 2.266.283.378.755.567 1.228.567.378 0 .755-.094 1.04-.378l5.1-4.155 6.8 3.872-5.855 4.155 5.288 4.627-5.855 3.305-5.194-3.588c-.283-.19-.567-.283-.85-.283-.472 0-.944.283-1.322.66-.472.755-.283 1.7.378 2.172l3.966 2.738-3.494 1.983-5.382-3.21c-.283-.19-.567-.19-.85-.19-.567 0-1.04.283-1.416.755-.472.755-.19 1.794.567 2.172l3.872 2.266-5.382 3.21c-.755.472-.944 1.416-.567 2.172a1.63 1.63 0 001.322.755c.283 0 .567-.094.85-.19l5.95-3.4v6.8c.094.85.755 1.416 1.605 1.416h.19c.755-.094 1.416-.66 1.416-1.51l-.19-8.5 3.305-1.89.19 6.42c.094.85.755 1.416 1.605 1.416h.19c.755-.094 1.416-.755 1.416-1.51l-.283-8.026 5.57-3.21.472 7.932 7.554-3.777v6.8l-6.6 3.966c-.755.378-1.04 1.322-.66 2.077.283.567.85.85 1.416.85.283 0 .472-.094.755-.19l.19-.094 5.005-2.927v3.588l-6.327 3.116c-.755.378-1.133 1.322-.755 2.077.283.567.85.85 1.416.85.19 0 .472-.094.66-.19l4.9-2.455v6.327a1.59 1.59 0 103.211 0v-6.327l5.477 2.927c.19.094.378.094.66.094.567 0 1.228-.378 1.416-.944.283-.66.094-1.51-.567-1.983L65.763 73.3v-3.588l5.1 3.022a1.78 1.78 0 00.755.189c.567 0 1.133-.283 1.416-.85.378-.755.19-1.605-.567-2.077l-6.704-3.966v-6.6l7.554 3.494v-7.838l6.42 3.683v7.365c-.094.85.567 1.605 1.416 1.7h.094c.85 0 1.51-.66 1.605-1.416V60.56l3.116 1.794-.567 7.743c-.094.85.472 1.7 1.322 1.794h.283c.755 0 1.416-.567 1.51-1.322v-.283l.472-6.232 5.57 3.21c.283.094.472.19.755.19.567 0 1.04-.283 1.322-.755.472-.755.19-1.7-.567-2.172l-5.666-3.21 4.06-3.4c.755-.472.85-1.51.378-2.172-.283-.472-.755-.66-1.322-.66-.283 0-.66.094-.944.283l-.19.19-5.005 4.155-3.494-2.172 4.72-2.833c.755-.378 1.133-1.322.755-2.077-.283-.567-.85-.85-1.416-.85-.19 0-.472.094-.66.19l-.19.094-6.327 3.777-5.95-3.4 6.6-3.872-6.704-4.9 6.907-3.97 5.95 3.872c.283.19.567.283.85.283.472 0 1.04-.283 1.322-.66.472-.755.283-1.7-.472-2.172l-4.627-3.022 2.455-1.51 6.232 3.872c.283.19.66.283.944.283.472 0 .944-.19 1.228-.66.567-.66.378-1.7-.283-2.172l-.19-.19-4.72-2.927 5.76-3.305c.755-.378 1.133-1.322.755-2.077-.283-.567-.85-.944-1.416-.944-.19 0-.472 0-.66.19l-.19.094-5.477 3.116-.755-5.005c0-.85-.66-1.416-1.51-1.416h-.094a1.66 1.66 0 00-1.511 1.7v.283l.944 6.232-3.305 1.89-.283-5.005a1.526 1.526 0 00-1.51-1.322h-.283a1.526 1.526 0 00-1.322 1.51l.378 6.6-6.8 3.872-.283-7.365-7.177 3.21V29.87l6.043-3.116a1.554 1.554 0 00.66-2.172c-.283-.567-.85-.85-1.416-.85-.283 0-.472.094-.755.19l-4.627 2.36v-3.116l6.138-3.022c.755-.378 1.133-1.322.755-2.077-.283-.567-.85-.85-1.416-.85-.19 0-.472.094-.66.19l-4.72 2.36v-6.988c.094-.944-.66-1.605-1.51-1.605a1.59 1.59 0 00-1.605 1.605z"/></svg>