<svg xmlns="http://www.w3.org/2000/svg" viewBox="0 0 128 96"><path fill="#fff" d="M29.067 52.045v.075a15.89 15.89 0 01.438 1.584 10.53 10.53 0 01.168 4.017l-.39 1.976c-.42 1.603-1.22 3.085-1.407 4.614a3.465 3.465 0 00-.028 1.268 7.55 7.55 0 002.405 3.318l.932.848.708.727a2.71 2.71 0 00.606.466 2.22 2.22 0 00-.466-.746 12.596 12.596 0 01-.7-.802 9.34 9.34 0 01-1.557-3.3v-.103a7.55 7.55 0 01.065-3.141 16.1 16.1 0 00.466-2.945v-.298a.734.734 0 01.075-.345.58.58 0 01.196-.214l.075-.056.056.056a6.6 6.6 0 01.932 1.529 23.59 23.59 0 011.212 2.451c.15.404.268.818.354 1.24.152.736.22 1.486.205 2.237-.02 1.053-.233 2.097-.15 3.094.02.238.053.475.103.708.177.84.59 1.61 1.193 2.218.562.54 1.188 1 1.864 1.398l1.817 1.174c-.363-.39-.867-.727-1.296-1.193a9.613 9.613 0 01-2.2-4.38 2.035 2.035 0 01-.112-.67l-.094-.662-.1-.7v-.242l-.158-.7a1.67 1.67 0 010-.997v-.075h.084a1.92 1.92 0 01.755.55 16.86 16.86 0 011.268 1.249c.186.196.447.373.643.587.52.63.94 1.337 1.24 2.097.372.77.684 1.568.932 2.386.084.242.084.513.186.783l.047.28c.073.5.205 1.01.39 1.49a5.21 5.21 0 002.405 2.293c.317.177.624.43.932.587.158.084.4.112.597.214s.336.28.485.345l2.18.867c.147.052.288.12.42.205.087.07.19.122.298.15a1.38 1.38 0 00-.43-.336l-.7-.326c-.457-.233-.885-.56-1.305-.83a9.08 9.08 0 01-2.405-1.948 9.45 9.45 0 01-1.575-3.01 8.39 8.39 0 00-.699-1.594 5.16 5.16 0 01-.7-1.52v-.075h.084a.596.596 0 01.308 0 .65.65 0 01.214.14c.12.112.112.158.308.336s.485.27.736.447.43.4.643.578c.298.242.7.4.997.652l.885.746c.15.12.28.29.4.42s.308.233.438.373a12.428 12.428 0 011.864 2.796c.507.99 1.11 1.925 1.8 2.796a3.73 3.73 0 001.706 1.081c.7.242 1.36.373 2.218.578l2.582.597a8.494 8.494 0 00-1.128-.39 10.58 10.58 0 01-2.684-1.445c-.4-.298-.7-.68-1.1-1.025-1.547-1.323-2.45-3.253-3.896-4.744l-.14-.14h.214a4.82 4.82 0 011.594.55c.373.177.643.373 1.118.57l1.407.55c.214.093.43.12.7.26s.513.382.764.53c.288.133.566.29.83.466.078.075.147.16.205.252a1.68 1.68 0 00.205.252 2.09 2.09 0 00.261.196c.107.064.2.146.28.242.04.055.07.114.093.177a.82.82 0 00.047.112c.186.242.447.466.643.755l1.1 1.687c.186.267.39.52.615.755.467.403 1.023.7 1.622.84.597.177 1.258.29 1.864.4a22.66 22.66 0 012.861.727l.447.158c.134.052.276.083.42.093.116-.02.23-.053.336-.103l.438-.168 2.414-.7c.6-.12 1.207-.208 1.817-.26a5.012 5.012 0 001.63-.4 5.51 5.51 0 001.734-1.529c.53-.587.94-1.268 1.463-1.864a10.32 10.32 0 012.386-1.752c.848-.27 1.584-.67 2.377-1.016.382-.168.718-.43 1.1-.624a3.73 3.73 0 011.174-.55h.112v.103a6.05 6.05 0 01-1.212 2.442 8.22 8.22 0 01-.811 1.035l-.867.932c-.27.233-.634.43-.932.652a10.4 10.4 0 01-4.213 1.864 2.29 2.29 0 00-.857.317 7.765 7.765 0 001.547-.205l1.65-.317a13.81 13.81 0 003.03-.932 4.731 4.731 0 001.65-1.584c.475-.68.97-1.584 1.286-2.125s.708-1.063 1.053-1.584a7.66 7.66 0 01.932-1.072 12.066 12.066 0 012.05-1.752l1.8-1.146a2.21 2.21 0 011.016-.466h.084v.028c.017.1.017.2 0 .298a4.24 4.24 0 01-.345.83c-.15.382-.242.802-.354 1.22a7.82 7.82 0 01-.708 1.519 8.736 8.736 0 01-3.626 3.82l-1.11.597a7.292 7.292 0 00-1.566.774 5.9 5.9 0 001.174-.373 38.73 38.73 0 004.82-2.06 2.46 2.46 0 00.932-.876 4.53 4.53 0 00.541-1.398 22.25 22.25 0 011.407-4.287 7.65 7.65 0 011.146-1.538l1.52-1.93a.93.93 0 01.186-.149.79.79 0 00.149-.121 3.99 3.99 0 00.28-.438.727.727 0 01.53-.326h.093v.075c.087.55.087 1.11 0 1.66-.075.53-.028 1.1-.075 1.612l-.112.764c-.513 2.796-2.48 4.483-4.24 5.78h.103c.12-.056.242-.13.354-.196.475-.233.98-.53 1.407-.82.214-.15.373-.354.597-.53.165-.115.34-.215.522-.298.172-.077.335-.174.485-.29a1.11 1.11 0 00.158-.196c.056-.088.122-.17.196-.242a4.345 4.345 0 001.454-1.817 4.13 4.13 0 00.112-.429c.096-.544.12-1.1.075-1.65-.05-.596-.05-1.194 0-1.8l.242-1.603a13.19 13.19 0 01.373-1.445 11.82 11.82 0 01.932-1.864c.214-.4.606-.746.783-1.128l.308-.718c.118-.256.328-.458.587-.57l.112-.047v.112c.27 1.247.42 2.517.447 3.793.033.562.033 1.125 0 1.687-.02.205-.103.4-.103.606-.466 2.06-1.864 3.542-2.796 5.06a.666.666 0 00.168-.112c.103-.093.093-.112.308-.317s.475-.373.68-.57l2.572-2.517a5.379 5.379 0 001.407-2.144 2.49 2.49 0 000-1.053c-.093-.54-.438-1.1-.615-1.687a14.16 14.16 0 01-.932-5.527c.03-.257.073-.512.13-.764l.4-1.65c.028-.14.084-.28.084-.42l.158-1.193c.037-.18.093-.355.168-.522l.047-.103.112.084a.93.93 0 01.326.559c.047.186.056.373.112.55.212.513.458 1.01.736 1.49.55.972.993 2 1.323 3.066.185.526.32 1.07.4 1.622.084 1.417.522 3.216.196 4.66l.503-.774a12.524 12.524 0 013.076-3.132 12.9 12.9 0 011.342-.643 27.867 27.867 0 012.796-1.072 2.21 2.21 0 00.373-.224 1.36 1.36 0 01.438-.205.84.84 0 01.382 0h.056l.056.177a.57.57 0 010 .41 3.57 3.57 0 01-.298.559 13.24 13.24 0 01-2.86 3.83 11.19 11.19 0 01-2.917 2.06c-.58.204-1.172.378-1.77.522-1.184.258-2.33.665-3.41 1.212a19.92 19.92 0 00-2.535 2.367l-2.32 2.134a1.68 1.68 0 00.363-.14l.587-.345a17.939 17.939 0 002.228-1.63l.587-.373a2.73 2.73 0 00.27-.233.873.873 0 01.298-.196c.118-.036.24-.058.363-.065.11.008.218.008.326 0a1.11 1.11 0 00.289-.121 2.36 2.36 0 01.317-.168 24.88 24.88 0 012.796-.783c.913-.24 1.812-.53 2.694-.867.168-.065.317-.177.494-.27a.98.98 0 01.652-.112h.12l-.056.093c-.398.524-.87.988-1.398 1.38l-1.463 1.277a13.255 13.255 0 01-3.915 2.48 14.41 14.41 0 01-3.309.736c-.897.03-1.8.12-2.675.27a11.28 11.28 0 00-3.728 2.013l-3.374 2.032c.404-.012.803-.1 1.174-.26a11.83 11.83 0 001.258-.662l2.47-1.38a9.32 9.32 0 011.752-.494 9.832 9.832 0 011.976-.14 16.148 16.148 0 003.654-.578c.142-.042.282-.092.42-.15a.874.874 0 01.54 0h.14v.065a.93.93 0 01-.569.55c-.236.086-.46.2-.67.336a.79.79 0 00-.121.14.84.84 0 01-.158.168c-.252.196-.54.27-.792.485s-.53.345-.764.53c-.162.165-.333.32-.513.466-.196.12-.42.186-.624.298-.382.214-.718.53-1.11.736-.224.112-.513.186-.727.28s-.42.242-.652.336a12.17 12.17 0 01-5.434.475 10.25 10.25 0 00-4.325.252c-.876.298-1.668.718-2.498 1.025l-1.258.475a7.41 7.41 0 00-.932.382 11.64 11.64 0 001.379-.457c1.143-.44 2.33-.752 3.542-.932a8.032 8.032 0 012.358 0h.345l2.088.494 1.49.186a2.23 2.23 0 01.578.196h.084l-.056.065a1.35 1.35 0 01-.699.391c-.28.084-.578.12-.83.186a11.96 11.96 0 00-1.519.485 14.67 14.67 0 01-2.694.932 10.7 10.7 0 01-2.433.233l-.718-.075c-1.174-.168-2.256-.53-3.31-.727l-.438-.065c-1.525-.056-3.05.12-4.52.522l-.335.058.226-.026a10.83 10.83 0 011.2-.053l.4.012.57.075c.955.193 1.89.47 2.796.83l2.796.857h.12l-.093.084c-.42.285-.897.48-1.398.57a17.71 17.71 0 01-5.005.699h-.447a12.74 12.74 0 01-3.728-1.044 14.917 14.917 0 00-3.523-1.118h-.056a9.54 9.54 0 00-2.078.29c-.6.102-1.16.29-1.696.56v.056a.44.44 0 00.121.075 3.3 3.3 0 01.336.13 13.599 13.599 0 012.386 1.94l.26.233c.1.096.207.206.29.326.05.07.08.155.084.242a.244.244 0 01-.12.205.478.478 0 01-.15.065 1.37 1.37 0 01-.391 0 2.09 2.09 0 01-.494-.075.98.98 0 01-.503-.345l-.336-.457a10.16 10.16 0 00-1.594-1.529 3.98 3.98 0 00-.736-.494.55.55 0 00-.205-.056h-.075l-.13.075-.27.186a10.04 10.04 0 00-2.172 1.864c-.13.15-.242.326-.363.475a.93.93 0 01-.522.354.98.98 0 01-.242 0 1.12 1.12 0 01-.82-.354 3 3 0 01.764-.932c.263-.272.54-.53.83-.774.56-.475 1.268-.792 1.864-1.23a3.58 3.58 0 00-1.501-.559 10.54 10.54 0 00-2.638-.252l-.652.056A15.21 15.21 0 0053.85 84.2a11.66 11.66 0 01-2.796.615l-.783.01a9.57 9.57 0 01-3.327-.41c-.755-.214-1.52-.308-2.32-.475h-.252a.75.75 0 01-.28-.112.4.4 0 01-.13-.158v-.093h.028l.447-.056c1.687-.26 2.955-1.063 4.437-1.39.225-.05.452-.087.68-.112a8.49 8.49 0 012.684.242c.826.195 1.663.335 2.507.42h.298a1.51 1.51 0 00.345-.056 11.91 11.91 0 00-1.323-.252l-1.445-.354-2.796-.727h-.932a8.24 8.24 0 00-.83-.103h-.27c-.57.075-1.174.28-1.8.382h-.718c-1.068.182-2.15.26-3.234.233-2.395-.168-4.306-1.118-6.282-1.864l-.587-.224a1.12 1.12 0 01-.485-.401l-.056-.093h.14c.543-.04 1.088-.04 1.63 0a10.17 10.17 0 001.678-.233 14.53 14.53 0 014.94-.196 8.39 8.39 0 011.603.447 2.72 2.72 0 00-.363-.214.917.917 0 00-.196 0 .98.98 0 01-.233-.056c-.895-.336-1.678-.97-2.6-1.268a10.044 10.044 0 00-3.877-.158c-.673.06-1.35.06-2.023 0a11.5 11.5 0 01-1.799-.261c-.177-.056-.326-.205-.475-.205a1.38 1.38 0 00-.252 0c-.1.008-.18.008-.27 0-.373-.112-.764-.345-1.137-.485a8.75 8.75 0 01-1.146-.485c-.27-.158-.475-.42-.736-.578l-2.358-1.52c-.168-.112-.382-.177-.587-.28a.93.93 0 01-.485-.475v-.075h.084a1.61 1.61 0 01.83 0c.252.056.494.186.736.186l1.612.168a37.86 37.86 0 014.66.494c.242.075.457.224.7.298a11.77 11.77 0 013.188 1.715 3.26 3.26 0 001.109.559.602.602 0 00-.168-.158c-.112-.075-.252-.14-.373-.214l-3.607-2.34a7.16 7.16 0 00-1.473-.867 13.3 13.3 0 00-3.16-.615 14.978 14.978 0 01-3.197-.578c-.345-.12-.718-.326-1.072-.475a11.78 11.78 0 01-2.722-1.817c-.606-.466-.997-1.007-1.538-1.5a5.37 5.37 0 01-1.24-1.23l-.056-.093h.13c.285-.028.572.024.83.15.223.116.457.2.7.28 1.277.29 2.722.336 4.073.634.43.083.853.195 1.268.336a9.99 9.99 0 011.426.857c.65.426 1.273.893 1.864 1.398a33.16 33.16 0 00-2.908-2.722 18.13 18.13 0 00-1.864-1.212 13.773 13.773 0 00-2.153-.755 21.29 21.29 0 01-2.106-.867c-.326-.158-.597-.42-.932-.606-.177-.103-.373-.186-.55-.27a1.23 1.23 0 01-.419-.298.466.466 0 01-.084-.168v-.112a.52.52 0 00-.056-.13 5.774 5.774 0 00-.438-.447 13.98 13.98 0 01-2.349-4.744l-.084-.252.196.196c1.296.857 2.796 1.39 4.166 2.21.098.054.2.098.308.13a1.2 1.2 0 01.308.149c.205.158.298.373.457.503.108.082.227.148.354.196a2.16 2.16 0 01.429.224 18.5 18.5 0 013.299 3.169l.186-.065a.314.314 0 010-.075v-.382c.02-.173.02-.348 0-.522l-.27-.997a8.184 8.184 0 01-.28-1.66c-.02-.4.075-.848.075-1.258.16-1.962.78-3.86 1.808-5.536a10.41 10.41 0 00.485-1.025l.12-.39a.98.98 0 01.252-.41.93.93 0 01.345-.196h.093zm43.758 30.22l-.584.088-2.78.423h.112a1.49 1.49 0 00.336.047h.205c.784-.095 1.56-.25 2.32-.466l.39-.09zm-9.02-51.62C84.812 30.6 95.26 47.077 95.7 47.776c.607.986.607 2.23 0 3.216-.475.7-10.812 17.243-31.8 17.3S32.376 51.868 31.938 51.17a3.07 3.07 0 010-3.225c.438-.708 10.858-17.243 31.857-17.3zM44.82 37.943a38.975 38.975 0 00-7.12 5.77v11.64h.037a39.1 39.1 0 007.15 5.732zm38.018-.12l.065 23.174.607-.392a38.92 38.92 0 005.937-4.818l.54-.545V43.563a38.95 38.95 0 00-7.15-5.74zm22.816-1.435l2.023 4.38 4.753.83-3.55 3.27.7 4.772-4.203-2.358-4.334 2.125.95-4.735-3.365-3.458 4.79-.56 2.246-4.27zm-83.678 0l2.246 4.27 4.79.56-3.365 3.458.95 4.735-4.334-2.125-4.203 2.358.7-4.772-3.55-3.27 4.753-.83 2.023-4.38zm44.617-3.2a.878.878 0 00-1.314.76v1.268h-2.964v-1.258a.876.876 0 10-1.752 0v1.296c-.98.056-1.967.15-2.964.298v-1.063c0-.313-.167-.602-.438-.76s-.605-.157-.876 0-.438.446-.438.76v1.407a23.47 23.47 0 00-2.964.82v-.885a.876.876 0 10-1.752 0v1.584c-.39.177-.783.373-1.174.578a.878.878 0 00.838 1.54l.345-.177v.867a.876.876 0 101.752 0v-1.612a20.88 20.88 0 012.964-.932v1.193a.876.876 0 101.752 0v-1.52a31.18 31.18 0 012.964-.317v1.277a.876.876 0 101.752 0v-1.36h2.964v1.323a.876.876 0 101.752 0v-1.286c.992.054 1.98.154 2.964.298v1.557c0 .313.167.602.438.76s.605.157.876 0 .438-.446.438-.76v-1.202a20.95 20.95 0 012.964.876v1.566a.876.876 0 101.752 0v-.792l.345.168a.876.876 0 001.184-.354v.01a.876.876 0 00-.354-1.184c-.382-.214-.783-.4-1.174-.578V35.77a.876.876 0 10-1.752 0v.895a23.3 23.3 0 00-2.964-.802v-1.37a.876.876 0 10-1.752 0v1.063a38.118 38.118 0 00-2.964-.28v-1.323a.88.88 0 00-.438-.76zm27.16-9.494l3.654 3.15 4.67-1.23-1.873 4.455 2.6 4.054-4.81-.4-3.057 3.737-1.1-4.697-4.492-1.752 4.12-2.507.28-4.81zm-59.874 0l.28 4.81 4.12 2.507-4.492 1.752-1.1 4.697-3.057-3.737-4.81.4 2.6-4.054-1.873-4.455 4.67 1.23 3.654-3.15zm8.9-10.905l3.737 3.048 4.632-1.35-1.743 4.502 2.712 3.98-4.82-.26-2.945 3.812-1.23-4.67-4.54-1.622 4.054-2.62.14-4.82zm42.054 0l.14 4.82 4.054 2.62-4.54 1.622-1.23 4.67-2.955-3.812-4.81.26 2.712-3.98-1.743-4.502 4.632 1.35 3.737-3.048zm-21.008-4.52l2.134 4.325 4.772.7-3.45 3.365.81 4.753-4.27-2.246-4.27 2.246.81-4.753-3.45-3.365 4.772-.7 2.134-4.325z"/></svg>