<svg xmlns="http://www.w3.org/2000/svg" viewBox="0 0 128 96"><path fill="#fff" d="M64.002 5.053c18.6 0 35.79 12.31 41.42 31.113a42.18 42.18 0 01-3.818 32.544 42.91 42.91 0 01-25.768 20.519c-4.008 1.145-8.017 1.718-11.93 1.718-18.6 0-35.79-12.31-41.23-31.113-6.585-22.8 6.585-46.478 29.395-53.063 4.008-1.145 8.017-1.718 11.93-1.718zm9.353 78.068c-2.96.668-6.203 1.336-9.353 1.622l.095.954-3.818 1.432.19.764c.382.382.954 1.05 1.432 1.527h2.1c3.627 0 7.253-.382 10.784-1.336zm-30.54.764c.286.095.764.286 1.05.477 3.245 1.718 6.585 3.054 10.02 4.104L51.7 85.22c-2.96-.19-5.917-.573-8.876-1.336zm45.047-6.3A63.56 63.56 0 0174.31 82.93l1.336 5.058c4.2-1.24 7.92-3.054 11.453-5.44.286-1.718.382-3.34.764-4.963zM33.94 64.988c1.336 6.394 4.2 12.407 7.92 17.56 3.15.668 6.108 1.24 9.162 1.432l-1.05-1.527-4.295-1.813-2.768-2.29-4.2-2.195-1.24-5.058 1.145-1.91-.477-1.24-2.29-.286zm33.594-1.527c-5.822 1.527-11.74 2.48-17.656 2.768.382.954.668 2.1.86 3.15l5.44.382.86 2.96 3.818-1.145 3.34 1.91 2.386-1.432 2.195 2.577-1.145 3.054-.095 4.295-3.818 1.05.095.954c3.245-.286 6.203-.764 9.257-1.622zm-43.52-4.2l.095.19a40.886 40.886 0 0016.224 22.62c.095 0 .19.19.382.19-4.008-5.345-6.585-11.357-7.826-17.942-3.245-.86-6.394-2.672-8.876-5.058zm61.366-2.386l-2.29 3.34h-3.722l-.86-.86c-3.15 1.432-6.585 2.577-9.926 3.627l5.44 18.897c4.772-1.24 9.448-3.15 13.838-5.535.477-6.394-.095-12.98-1.336-19.374l-1.145-.095zM99.123 68.9c-3.15 3.245-6.68 5.917-10.594 8.208-.095 1.432-.286 3.15-.477 4.676 4.676-3.245 8.4-7.253 11.166-11.93zm-7.062-15.08l-1.05.86-2.48 2.48-1.432-.095c1.336 6.3 1.813 12.502 1.432 18.897a49.535 49.535 0 0010.305-8.112l-.095-.954-2.386-1.813.764-6.108-2.386-.86-2.672-4.295zM43.005 66.23l2.768 1.622 2.29-.954 1.432 1.336c-.095-.764-.382-1.432-.477-1.91h-2.53c-1.19-.002-2.37-.015-3.484-.095zm-1.05-.382H40.8l.764 1.336.382-1.336zm-6.585-1.05l.19.86 2.48-.19c-1.05-.19-1.91-.382-2.672-.668zM47.586 48.19a85.98 85.98 0 01-7.062.286h-2.386l.095 1.336-3.245 1.432-.382 3.436h-.095l-1.24-3.054c-.286 3.15-.382 6.108-.095 9.162l.86.382.764 2.768c3.913.954 7.92 1.336 11.834 1.336h1.336l-.764-.477.954-.286.19.286-.382.477h.954c-1.05-5.63-1.432-11.357-1.336-17.083zm14.888-2.768c-4.58 1.24-9.353 2.1-14.03 2.48-.095 5.726.382 11.74 1.145 17.37 6.108-.382 11.93-1.432 17.656-2.96zM51.213 63.365v.954l-1.24.095-.095-.86 1.336-.19zm-4.676-.095l.573.095.286.764h-1.05l.095-.86h.095zM25.158 45.9l-1.336 2.386-.19-2.195c-.573 1.813-.86 3.627-.954 5.44 0 1.91.286 3.913.764 5.726 2.004 2.672 5.058 4.676 9.257 6.013v-.095l-.19-.286-3.15-1.05.668-1.336-4.104-4.4.286-2.29-1.336-2.386.477-5.44-.19-.095zm19.946 15.46l.382 1.05-.954.19-.573-.764.19-.19.954-.286zm-3.244-1.43l.86 1.336-1.24 1.145-2.1-.573.573-1.813 1.91-.095zm34.358-19.183a83.159 83.159 0 01-11.834 4.295l-.954.19 4.963 16.892c3.15-.954 6.394-2.004 9.544-3.34l-2.96-3.15-.86-8.303 2.195-2.004zm-40.18 15.938l2.386 2.672-1.432.764-3.054-3.054 2.1-.382zm-6.585-5.726l-1.24 4.4 1.622 1.91 2.195-.286v2.672l.382.286c-.286-2.96-.286-5.822.382-8.876l-.764.095.19 1.145-2.768-1.336zM48.732 27.48l-1.05.095.286.954-1.622.095v2.195l-2.96-2.29.477-.477c-.668 0-1.145-.095-1.91-.095l-.477.477c-1.05 1.622-2.004 3.722-3.054 5.726l.19.764v1.622l.86-1.622 1.145-.286 1.432-3.913 2.386 2.96 1.432-1.432 1.622 4.486-1.336 2.48h-2.672l2.195 2.195.86 1.24-3.245.954-.764-1.05-.86 1.527-1.24.286-1.05 2.195-1.432-.095.095.954c3.15 0 6.394 0 9.544-.286 0-1.05.095-2.004.095-2.96.286-5.345.86-10.498 1.813-15.556l-.764-1.05v-.095zm8.208-1.622c-.573.19-1.05.382-1.813.477l-2.29 2.1-1.05 3.913-1.527-2.29c-.764 5.63-1.527 11.453-1.622 17.18 4.58-.477 9.257-1.336 13.743-2.48zM22.677 43.6c-.095 1.145-.19 2.29-.382 3.245.382-.86.573-1.718.764-2.672a1.321 1.321 0 00-.286-.382s-.095-.095-.095-.19zm41.515-21.283c-2.29.954-4.486 1.91-6.872 2.768l5.535 18.8a70.817 70.817 0 0015.365-5.822l-.382-.764h.095c-.382-.477-.86-1.05-1.145-1.527l.19.954-1.91 2.48-1.91.095-2.386-3.34 2.386-.954-3.054-2.768 1.813-2.386c-2.386-2.768-4.963-5.154-7.73-7.54zm-27.868 18.8l-.286 1.05.095 1.336 1.24.095.19-1.24-1.24-1.24zm-4.008-20.233c-1.718 2.195-3.34 4.4-4.676 6.872-2.48 4.4-4.008 9.067-5.154 14.03.095.477.19 1.05.477 1.432.286-1.05.764-2.004 1.145-3.054l-.286-1.91 3.34-7.253 1.813-1.24-.477-1.91 3.054-2.768 1.05-1.336c-.095-.286-.19-.764-.286-1.05-.095-.573-.095-1.336 0-1.813zm1.91 20.233l-1.336.286.286 1.622.954.095c.19-.573.286-1.336.477-1.813l-.382-.19zm69.67-5.154c-.095.954-.573 2.1-.954 3.15l2.004 1.432c-.19-1.432-.668-2.863-.954-4.2 0-.095-.095-.286-.095-.382zm-70.338 2.1l-1.813.86.764 1.05 1.24-.095 1.05.095-1.24-1.91zm64.707-12.407l.477 6.108-5.822-1.145 5.44 3.627 2.386-2.577.954 6.68.382.477c.668-1.527.954-3.15 1.05-4.676-.477-1.527-1.05-2.96-1.813-4.295-1.05-1.527-1.91-2.863-3.054-4.2zm-16.892-2.1l-.095.382 3.054 4.2.286 2.48-3.245-1.813-2.195 1.527 2.96.477-1.24.86.095 2.48-.954.19-.382-1.432-.86-.095-1.527-.286-.668 2.1c.764.954 1.432 2.004 2.195 3.15l.286-.954 3.245-1.91 1.527.764c1.24-.86 2.48-1.718 3.627-2.768l-.095-.86 1.813-.86c.477-.382.668-.668.86-.86-.764-.668-1.432-1.432-2.195-1.91v.477l-1.24.286-1.336-2.96c-1.336-1.05-2.577-1.813-3.913-2.672zm-4.2 13.648l.477.095-.19.286h-.382l.095-.382zm10.498-3.913c-.86.86-1.718 1.432-2.672 2.195l2.768-1.336zm-9.448.19l.19.382-.668.382-.286-.573.764-.19zM66.388 30.63l1.336.19.477 1.813-1.336.19-.668-2.195h.19zm-26.818-.668l-2.386.095.954 2.672c.477-.954 1.05-1.813 1.432-2.768zm47.146-.095v1.05l-.382.286-.573-.382.86-.954h.095zM66.578 26.43l2.672.668 1.145 2.195-1.05 1.24-1.336-2.1-1.622-.573.095-1.432h.095zm23.096-.668l-2.1 1.05v.095c.86.668 1.527 1.24 2.386 2.004l-.286-3.15zm-18.992-4.486l1.24 2.1L68.773 25c.954.86 1.91 1.91 2.96 3.054V26.05l2.29-.86-1.145-3.818-2.195-.095zM59.898 25l1.24.764-2.29 2.29-.095-.19-.382-1.432L59.898 25zm-16.13.095l-.86 1.24.382.477-.286.286h1.24l-.477-2.004zm6.394-8.112c-2.195 2.48-4.2 5.154-6.013 7.92l1.432-.954 1.91 2.768.095.286c.477-.095 1.05-.095 1.527-.19l.477-3.436-2.29-.954.477-1.336 2.577-2.004 1.527-.954.573-.86a8.86 8.86 0 01-2.291-.286zm-1.527-1.24a64.29 64.29 0 00-6.585 4.4l-.19 4.963.382.382c2.1-3.34 4.295-6.3 6.872-9.257a1.15 1.15 0 01-.477-.477zm7.062.764l-.477.19.86 2.768.286.382v.954l.477 1.91 1.145 1.24-.764.477.095.19c2.29-.668 4.486-1.527 6.5-2.577a39.3 39.3 0 00-8.112-5.535zm29.3 4.772l-3.245.19-.382.954c.86.573 1.813 1.05 2.768 1.813l-.19-.477 1.05-2.48zm-18.515.382l-.954.477c.764.573 1.336 1.145 2.195 1.91l-.382-1.145-.86-1.24zm-32.64-1.145h-.477c-.19.764-.286 1.336-.095 2.004 0 .19.095.286.095.382l.477-.86v-1.527zm9.162.954l.764.19.095.954-1.05.095.19-1.24zm14.984-6.394c-.382.477-.954.764-1.336.954a45.17 45.17 0 018.017 5.63c.382-.382.86-.573 1.24-.764l-.954-1.718.86-2.577c-2.48-.573-5.25-1.24-7.826-1.527zm-9.544-.477c-1.432.382-4.676 1.05-7.826 2.004l-2.004 2.386 1.24 1.622c2.768-2.195 5.535-4.2 8.59-5.822zm35.312 2.768l-.764 1.622 2.004 1.527 2.29-.382-.477-1.91-3.054-.86zm-39.607 1.91l-.19.954-.668.19-.573-.573 1.432-.573zm-2.48-.954l.19.477-.86.668-.19-1.05.86-.095zm12.693-1.527c-.382.095-.86.19-1.24.19l-.095.286 1.622.573zm1.05-5.822c-2.29 0-4.58 1.05-6.203 2.863-.095.286-.19.764-.095 1.05.286.382.477.668.764.764.86.382 1.622.477 2.48.477.764 0 1.527-.19 2.195-.382 2.863-.86 4.486-2.48 4.2-3.53-.095-.286-.286-.477-.86-.86-.86-.286-1.622-.382-2.48-.382zm10.02.668a55.03 55.03 0 00-5.726.573c0 .477-.095 1.05-.286 1.336-.095.19-.19.382-.286.477 3.054.477 5.917 1.05 8.876 2.004l-.382-1.91zm-23.86 1.813h-.86l-.954.86 1.05.477.095.764 7.826-1.91v-.095c-1.91-.095-3.818-.095-5.726-.095l-1.05.86-.382-.86zm24.337.477l1.145.668-.382.764-1.05-.095v-.573l.286-.764zm-.954-1.527l.382.954h-.095l-.668.095-.954-.477.286-.573h1.05zm-15.938-1.91l-1.05 1.145-3.054.19-.286.668c1.622 0 3.34 0 5.058.19.382-.382.86-.954 1.622-1.24-.86-.477-1.432-.764-2.29-.954zM60.66 9.73c-.954.382-1.813.668-2.004.86.477.382.668.573.86.86.19-.095.668-.19 1.622-.286l-.764-.095zm-5.82-1.527l-3.054 2.004-1.91-.382c.668.286 1.145.668 1.813.954.286-.095.86-.19 1.145-.286.382-.095.86-.095 1.24-.19.286-.668.86-1.336 1.24-1.813l-.477-.286zm1.432.764c-.382.382-.668.86-.86 1.24.573 0 1.145 0 1.91.095l.286-.19z"/></svg>