<svg xmlns="http://www.w3.org/2000/svg" viewBox="0 0 128 96"><path fill="#fff" d="M86.566 26.57v.097c-.187.003-.373.04-.548.106-.606.27-.74 1.074-.894 2.003 0 .164-.058.34-.087.503-.202.968-.154 3.232.635 3.986.394.416.404.85.048 1.713a5.51 5.51 0 00-.25.735c-.173.62-.22.735-.702.735h-.154c-.644 0-.72-.33-.846-1.016a3.702 3.702 0 00-.154-.648 5.05 5.05 0 00-.27-.522 1.558 1.558 0 01-.288-1.064c.106-1.75.548-5.428.962-5.93a.43.43 0 00.096-.3.61.61 0 00-.143-.446.602.602 0 00-.415-.212h-.096a2.07 2.07 0 01.375-.503.584.584 0 00.413.174 1.08 1.08 0 00.798-.677 2.65 2.65 0 01.221-.319l.115-.058c.398-.23.835-.383 1.29-.455h.087l.24.126c.11.066.225.118.346.155a1.616 1.616 0 00-.202.6c-.058.242-.096.26-.154.28a.721.721 0 00-.43.387.73.73 0 00-.011.581l.02-.02zm35.09-7.74a4.63 4.63 0 00-.452.445 2.5 2.5 0 00-.356.561 1.07 1.07 0 00-.442-.116.617.617 0 00-.615.62.575.575 0 00-.702.097.77.77 0 00-.173.6v.194c.067.387.048.416 0 .464l-.298.213a2.14 2.14 0 00-.962 1.084 3.122 3.122 0 00.212 1.77l.106.348a10.17 10.17 0 00.365.968c.337.813.76 1.83.5 2.448a2.24 2.24 0 01-1.058 1.122 10.71 10.71 0 00-3.462 2.632l-.356.358a4.4 4.4 0 00-1.692 2.903 6.93 6.93 0 01-.192 1.248 6.776 6.776 0 00-.212 1.635.66.66 0 01-.231.445 2.63 2.63 0 00-.327.435 3.82 3.82 0 00-.385 1.48 14.26 14.26 0 00.048 2.7v.184c0 .348.058.697.096 1.045l.163 2.1a7.64 7.64 0 01-.067 1.161 8.261 8.261 0 00-.067 1.287v.184c.048.968 0 1.596-.577 1.935a4.53 4.53 0 00-2.019 2.322.89.89 0 01-.673.861c-.136.05-.28.08-.423.087-.663.068-1.058.3-1.096 1.355a3.39 3.39 0 01-.962 2.08l-.317.406c-.174.24-.39.446-.635.6-.41.28-.76.643-1.03 1.064a7.9 7.9 0 00-1.269 4.218 5 5 0 001.635 4.286 12.04 12.04 0 012.346 3.502c.192.412.424.804.692 1.17a7.49 7.49 0 011.394 2.903c.067.63.22 2.12-.47 2.67a.89.89 0 01-.471.232c-.3-.1-.56-.302-.73-.57l-.28-.3a2.68 2.68 0 00-.865-.551.963.963 0 01-.625-.484 6.02 6.02 0 00-1.423-1.5c-.532-.457-1.03-.95-1.5-1.48a.78.78 0 00.125-.668.75.75 0 00-.587-.445h-.115a3.62 3.62 0 01-.058-.968v-.6a2.093 2.093 0 00-.808-1.625l-.058-.048h-.048L97.442 68a1.663 1.663 0 00-.817-.28 1.21 1.21 0 00-.962.571 4.05 4.05 0 01-1.25.687l-.337.145a6.005 6.005 0 00-3.72-1.22c-.48-.015-.96.057-1.414.213a9.811 9.811 0 00-.567.3 2.35 2.35 0 01-.654.319c-.27-.16-.58-.245-.894-.242a6.51 6.51 0 00-3.154 1.471 7.647 7.647 0 01-2.77 1.422 9.06 9.06 0 01-1.135.068c-.75 0-1.548-.077-2.308-.145l-2.394-.145a8.45 8.45 0 00-2.327.29c-.248.077-.49.174-.72.3a1.57 1.57 0 01-1.077.232.43.43 0 00-.394.094.437.437 0 00-.145.38 1.38 1.38 0 01-.519 1.296 5.011 5.011 0 01-1.98 1.258h-.173a1.49 1.49 0 00-.837 0c-1.02.368-3.058 2.738-2.74 4.112.07.2.197.375.365.503a6.96 6.96 0 00.317 2.506c.033.096.07.2.115.28v.058a6.42 6.42 0 01-4.048-1.403 3.66 3.66 0 01-.5-1.229 4.715 4.715 0 00-.962-2.04 12.34 12.34 0 01-2.25-3.009v-.058a3.01 3.01 0 01-.183-.464 1.224 1.224 0 00-.692-.87 1.918 1.918 0 01-1.106-.813l-.077-.106a2.69 2.69 0 00-1.923-.639 5.397 5.397 0 00-.673 0 1.7 1.7 0 00-1.385 1.17 1.22 1.22 0 01-.75 1.035 4.37 4.37 0 01-1.346-.668l-.5-.3a2.905 2.905 0 01-1.356-2.1 2.9 2.9 0 00-1.49-1.858 4.68 4.68 0 01-.587-.464 9.83 9.83 0 01-1.26-1.422l-1.058-1.258a.44.44 0 00-.288-.135l-3.702-.203a.443.443 0 00-.442.3l-.22.677-5.837-.3-9.443-5.157a.44.44 0 00-.212-.048h-3.02c-1.24 0-1.375-.474-1.414-.968a2.811 2.811 0 00-1.058-2.206 40.73 40.73 0 00-4.23-3.61c-.163-.058-.337-.097-.5-.135a1.31 1.31 0 01-.817-.387v-.048c.018-.094.047-.185.087-.27.162-.34.222-.72.173-1.093a4.75 4.75 0 00-.962-1.848 6.271 6.271 0 01-.625-.968 4.068 4.068 0 01-.288-1.558 7.22 7.22 0 00-.144-1.238 2.49 2.49 0 00-.462-.88 2.23 2.23 0 01-.365-.455 9.63 9.63 0 01-.365-1.51 6.676 6.676 0 00-.885-2.593 1.64 1.64 0 01-.202-1.722 2.16 2.16 0 00-.298-2.206l-.087-.116c-.47-.968-.26-1.122.125-1.5a3.35 3.35 0 00.375-.397 5.222 5.222 0 00.5-2.903v-.32a9.98 9.98 0 01.875-4.006 42.39 42.39 0 002.625-6.773l.173-.55c.287-1.318.378-2.67.27-4.015a19.47 19.47 0 010-1.935c.81.563 1.786.836 2.77.774.337 0 .702 0 1.154-.058a.434.434 0 00.394-.416 4.894 4.894 0 00-.202-1.587c14.28 3.638 29.348 4.51 40.945 4.838l5 .087c2.077 0 3.943-.058 5.693-.174.63.443 1.386.667 2.154.64h.635c.32-.037.642-.037.962 0 .33.116.64.286.914.503.36.31.807.5 1.28.542a1.34 1.34 0 00.337 0l.346-.087c.38-.12.775-.184 1.173-.194a4.19 4.19 0 011.221.203h.067c-.29.17-.587.322-.894.455l-.5.242c-.498.33-.897.793-1.154 1.335-.11.21-.24.41-.394.6l-.26.242a.828.828 0 00-.404.697c.04.23.186.428.394.532.137.1.302.154.47.155.27-.023.532-.113.76-.26l.327-.164.096.116a1.33 1.33 0 00.962.368c.43.02.838-.18 1.087-.532a1.7 1.7 0 01.51-.087 1.615 1.615 0 001.587-.87 2.23 2.23 0 01.5-.88.587.587 0 00-.096.63c.31.362.796.522 1.26.416h.462c.023.043.043.09.058.135a1.16 1.16 0 00.375.551c.33.21.716.315 1.106.3.467.054.928-.145 1.212-.522a5.46 5.46 0 011.769-.697.823.823 0 01.837.242c.322.235.67.43 1.04.58a2.24 2.24 0 00-.337.203 1.78 1.78 0 01-.192.126l-.144-.077a3.25 3.25 0 00-.346-.174c-.12-.04-.248-.06-.375-.058a4.3 4.3 0 00-1.683.551l-.135.068a1.587 1.587 0 00-.5.542.5.5 0 00-.24-.068 1.17 1.17 0 00-.625.281 4.528 4.528 0 00-1.394 2.487v.116a1.14 1.14 0 000 .968.52.52 0 00.423.223h.154c-.346 1.935-.5 4.354-.5 4.383a2.38 2.38 0 00.394 1.567c.077.145.163.3.22.426.048.155.083.313.106.474a1.709 1.709 0 001.664 1.742h.192c.4.032.778-.094 1.075-.35s.482-.62.51-1.014a4.86 4.86 0 01.212-.629c.507-.85.4-1.934-.24-2.68-.442-.426-.606-2.206-.394-3.183 0-.174.058-.358.087-.532.028-.467.156-.923.375-1.335a.84.84 0 01.25 0 .843.843 0 00.663-.27 1.07 1.07 0 00.144-.851 1.12 1.12 0 00.596-.871v-.097c.49.14.992.224 1.5.252a1.16 1.16 0 01.94.351c.245.254.362.605.32.955.012.14.034.28.067.416a2.85 2.85 0 01-.25 1.625l-.163.242a.97.97 0 00-.106 1.287c.15.16.358.252.577.252a1.03 1.03 0 00.962-.842.51.51 0 01.385-.358h.27v.058c.12.54.3 1.067.538 1.567a3.63 3.63 0 01.298.774 1.94 1.94 0 01-.308.648c-.238.31-.385.683-.423 1.074-.056.238-.16.462-.308.658a1.71 1.71 0 00-.356.89c0 1.325 1.74 1.413 2.327 1.442 1.923.126 4.49-2.496 6.5-4.78l.337-.377a1.29 1.29 0 00.433-.861.63.63 0 00-.24-.493c-.183-.145-.192-.174-.163-.32a.615.615 0 01.577-.55h.26a6.066 6.066 0 003.048-.648 2.175 2.175 0 001.202-1.635 1.168 1.168 0 00-.423-1.026.32.32 0 01-.125-.232.61.61 0 01.24-.464.469.469 0 00.087-.106 12.79 12.79 0 011.317-1.838 2.57 2.57 0 011.414-.745 29.79 29.79 0 005-1.567.435.435 0 00.24-.3 1.06 1.06 0 01.962-.832l.183-.058a.438.438 0 00.212-.145c.385-.503.404-1.645.404-3.328v-1.306c.022-.75.213-1.483.558-2.148a1.12 1.12 0 00.894.213.96.96 0 00.663-.416h.096c.587 0 1.106 1.442 1.414 2.312a6.96 6.96 0 00.462 1.122 6.08 6.08 0 001.404 1.432c.295.23.57.482.827.755a1.71 1.71 0 01-.413.455l-.03-.077zm.135-1.935a5.93 5.93 0 01-1.212-1.19 6.724 6.724 0 01-.394-.968c-.462-1.287-1.04-2.903-2.24-2.903h-.058a.877.877 0 00-.75.397v.058h-.058a.298.298 0 01-.26-.087.87.87 0 00-.644-.184c-.962.106-1.28 2.428-1.308 3v1.364a12.07 12.07 0 01-.163 2.68 1.927 1.927 0 00-1.452 1.248 30.175 30.175 0 01-4.616 1.413c-.7.12-1.365.457-1.875.968a12.89 12.89 0 00-1.423 1.935 1.424 1.424 0 00-.48 1.142 1.2 1.2 0 00.5.88.32.32 0 01.077.261c-.07.433-.357.8-.76.968a5.25 5.25 0 01-2.644.532h-.298a1.484 1.484 0 00-1.404 1.277 1.05 1.05 0 00.346 1.055l-.077.097a6.35 6.35 0 00-.423.455c-.962 1.113-3.97 4.49-5.72 4.49h-.087c-.452 0-1.52-.116-1.5-.56a1.94 1.94 0 01.221-.416 2.27 2.27 0 00.442-1.122c.057-.223.154-.433.288-.62a2.31 2.31 0 00.433-1.113 3.36 3.36 0 00-.375-1.142 6.52 6.52 0 01-.5-1.393.856.856 0 00-.904-.764h-.192a1.14 1.14 0 00-.692.213 3.99 3.99 0 00.144-1.78 2.27 2.27 0 010-.29 2.03 2.03 0 00-.584-1.495 2.008 2.008 0 00-1.483-.595 6.02 6.02 0 01-1.346-.223h-.077l.135-.097a2.35 2.35 0 01.394-.213.85.85 0 00.654-.706 1.05 1.05 0 00-.837-.784 4.05 4.05 0 01-.962-.513 1.668 1.668 0 00-1.567-.358c-1.53.464-2.116.745-2.298 1.122-.142.05-.292.072-.442.068a1.242 1.242 0 01-.538-.097.473.473 0 01-.087-.164.962.962 0 00-.962-.706h-.558a2.06 2.06 0 01.375-.416.72.72 0 00.26-.793.682.682 0 00-.673-.445 1.44 1.44 0 00-.75.26 3.102 3.102 0 00-1.5 1.8.83.83 0 01-.846.3 1.36 1.36 0 00-1.164.484.45.45 0 01-.365.135.5.5 0 01-.327-.106.06.06 0 010-.058.446.446 0 00-.168-.353.44.44 0 00-.38-.083 3.63 3.63 0 00-.731.29 4.58 4.58 0 00.433-.668 2.56 2.56 0 01.817-.968l.452-.213c.808-.377 1.577-.726 1.54-1.335a1.03 1.03 0 00-.817-.784 5.07 5.07 0 00-1.481-.242c-.473.01-.942.084-1.394.223l-.337.087h-.125a1.64 1.64 0 01-.779-.387 3.92 3.92 0 00-1.183-.63 2.87 2.87 0 00-.702-.077H70.2c-.63.03-1.25-.164-1.75-.55a.44.44 0 00-.298-.097 87.86 87.86 0 01-5.77.174c-1.462 0-3.04 0-4.97-.087-11.924-.252-27.3-1.15-41.733-4.963a.43.43 0 00-.459.146.455.455 0 00-.04.483 4.26 4.26 0 01.433 1.596h-.673a2.97 2.97 0 01-2.625-.987.44.44 0 00-.74 0 7.19 7.19 0 00-.26 3.057 13.18 13.18 0 01-.231 3.735l-.173.55a41.06 41.06 0 01-2.567 6.608 10.863 10.863 0 00-.962 4.402v.3a5.167 5.167 0 01-.346 2.36 2.636 2.636 0 01-.288.3c-.567.542-.962 1.142-.288 2.554v.048l.106.155a1.34 1.34 0 01.163 1.461 2.49 2.49 0 00.317 2.428c.406.697.665 1.47.76 2.274.1.558.225 1.108.404 1.645.103.257.242.498.413.716a1.8 1.8 0 01.317.561c.073.36.115.726.125 1.093a4.88 4.88 0 00.375 1.935 7.06 7.06 0 00.702 1.122c.368.434.64.942.798 1.5a1.13 1.13 0 01-.125.61 1.04 1.04 0 00.087 1.2c.338.382.803.627 1.308.687l.385.097a44.14 44.14 0 013.933 3.415c.522.386.823 1.003.808 1.654.087 1.15.856 1.732 2.29 1.732h2.885l9.399 5.13a.44.44 0 00.183.048l6.27.33c.198.014.38-.1.442-.3l.22-.677 3.27.223c.28.3.587.697.885 1.074.41.57.882 1.097 1.404 1.567a5.28 5.28 0 00.519.368c.542.253.95.73 1.115 1.306a3.726 3.726 0 001.798 2.68l.442.27a4.14 4.14 0 001.808.803.86.86 0 00.25 0 2.07 2.07 0 001.365-1.635.79.79 0 01.721-.629 4.53 4.53 0 01.538 0c.46-.042.922.085 1.298.358l.067.087a2.73 2.73 0 001.49 1.103.447.447 0 01.192.34c.062.193.14.38.23.56a12.96 12.96 0 002.471 3.319 4.26 4.26 0 01.721 1.645 3.79 3.79 0 00.769 1.558 7.27 7.27 0 004.895 1.674h.106a.605.605 0 00.5-.32 1.1 1.1 0 00-.125-.968 1.94 1.94 0 01-.077-.174v-.048a6.008 6.008 0 01-.24-2.274.513.513 0 00-.22-.493l-.192-.184c-.096-.793 1.414-2.748 2.192-3.028a.57.57 0 01.317 0c.21.06.434.06.644 0a5.87 5.87 0 002.346-1.48 2.4 2.4 0 00.78-1.48 2.87 2.87 0 001.115-.339 3.96 3.96 0 01.587-.242 7.65 7.65 0 012.087-.252c.76 0 1.548.077 2.317.145s1.596.145 2.385.145c.418.004.835-.02 1.25-.068a8.18 8.18 0 003.135-1.519 6.25 6.25 0 012.664-1.325.84.84 0 01.433.106.808.808 0 00.47.145 2.33 2.33 0 001.106-.445c.163-.097.337-.203.48-.27a3.28 3.28 0 011.058-.135 5.135 5.135 0 013.366 1.18.43.43 0 00.51.058c.115-.068.317-.145.53-.242a4.41 4.41 0 001.577-.968 1.93 1.93 0 01.25-.271.96.96 0 01.365.155c.596.387 2.49 1.674 2.74 1.838a1.26 1.26 0 01.529 1.045v.522a3.72 3.72 0 00.135 1.393.8.8 0 00.519.464c-.317.522.327 1.142 1.75 2.448a11.14 11.14 0 011.192 1.171 1.81 1.81 0 001.077.968 1.92 1.92 0 01.606.368l.26.28a1.92 1.92 0 001.375.861 1.63 1.63 0 001.019-.416c.962-.755.962-2.167.798-3.454a8.215 8.215 0 00-1.54-3.3 6.78 6.78 0 01-.606-.968A12.95 12.95 0 00104.317 68a4.125 4.125 0 01-1.385-3.657 7.038 7.038 0 011.106-3.754c.2-.338.49-.628.817-.85.32-.215.598-.483.827-.793l.308-.387a4.27 4.27 0 001.173-2.583 1.06 1.06 0 01.087-.484 1.04 1.04 0 01.231 0 2.19 2.19 0 00.663-.145 1.72 1.72 0 001.192-1.422 3.72 3.72 0 011.558-1.78c1.183-.57 1.125-1.82 1.077-2.728v-.232c-.007-.385.016-.77.067-1.15a8.36 8.36 0 00.067-1.296c0-.716-.096-1.442-.163-2.13 0-.348-.067-.687-.096-1.035v-.184a13.472 13.472 0 01-.058-2.516c.02-.392.115-.776.28-1.132a1.8 1.8 0 01.221-.29c.264-.255.425-.6.452-.968.005-.483.07-.964.192-1.432a7.74 7.74 0 00.212-1.413 3.72 3.72 0 011.433-2.264l.365-.368a9.81 9.81 0 013.135-2.535 3.12 3.12 0 001.54-1.596c.413-.968-.087-2.167-.5-3.135-.135-.32-.26-.63-.337-.87l-.087-.28a2.56 2.56 0 01-.202-1.248c.144-.26.36-.473.625-.6l.346-.252a.97.97 0 00.375-.909.78.78 0 00.712-.803.96.96 0 00.317.058.78.78 0 00.692-.551c.063-.14.143-.27.24-.387.117-.13.242-.254.375-.368a1.87 1.87 0 00.721-1.064c.048-.464-.433-.87-1.164-1.48l.048-.077z"/></svg>