<svg xmlns="http://www.w3.org/2000/svg" viewBox="0 0 128 96"><path fill="#fff" d="M53.2 19.3l.7 2.2.3.8c1.6 4 3.8 7.8 6.4 11.2l2.8 3.6 1.5 1.8 2.8 3.8 2.7 4c4.4 6.9 8.3 14.3 12.1 21.6l1.5 2.9.4.5a4.67 4.67 0 00.5 1l.6.9-.2.2-.3.4-.1.1c-1.7 2.1-3.5 4.3-5.1 6.5l-.3.4c-.4.6-.9 1.2-1.3 1.8l-3.8-6c-.6-1.1-1.3-2.2-2-3.3l-.6-1-.2-.1-.1-.2-16.1-26c0-.1 0-.2-.1-.3l-.2-.2-3.2-5.4c-1.9-3-3-6.5-3-10.1 0-.2.1-.4.1-.6 0-.6.2-1.2.3-1.8.3-1 .8-2 1.3-3l.4-.7c.8-1.6 1.5-3.2 2.2-5zm1 28.6c.5.8 1.1 1.7 1.6 2.6l1.2 1.9 2.1 3.5c.7 1.1 1.5 2.3 2.2 3.5h-.1l-6.7 13.2-4 8.1-1.2-1.2-.5-.4-.5-.6-5.8-5.6v-.4c.4-1.5.9-2.9 1.5-4.3 2.8-6.4 5.9-12.6 9.3-18.7zm15.4-31.1c.2.3.4.6.5.9l.2.4c1.7 2.9 3.2 6 4.4 9.1.3.7.4 1.4.5 2.2 0 2.5-.6 5-1.7 7.2l-.4 1.1c-.8 1.9-1.7 3.8-2.7 5.6-2.1-3.2-4.5-6.3-7-9.2l-.1-.1c-.2-.3-.4-.5-.6-.8l.24-.456A87.053 87.053 0 0065.2 28c1.3-3 2.8-6.6 4.4-11.2zm-7.9-3.9c1 0 2 .1 2.8.4.8.2 1.5.5 2.1.9.6.3 1 .6 1.5 1-.5 1.5-1.1 3-1.6 4.4l-.3.9c-.5-.1-1.1-.2-1.7-.3h-.2l-1.4-.1h-2.4c-.534.003-1.03.02-1.6.1a10.16 10.16 0 00-3.4.6c-.2-.8-.4-1.6-.5-2.3s-.2-1.5-.4-2.2l.166-.234c1.3-1.764 3.23-2.875 5.434-3.066.5-.1 1-.1 1.5-.1z"/></svg>