<svg xmlns="http://www.w3.org/2000/svg" viewBox="0 0 128 96"><path fill="#fff" d="M56.93 24H31.534v10.774h2.02L23.07 61.034h-2.886v10.774h18.373V61.034h-1.54l.77-2.116h12.697l.673 2.116h-1.54v10.774h18.277V61.034H65.01l-10.004-25-.48-1.154h2.405V24M40.96 49.78l3.078-7.6 1.058 2.5.48 1.347 1.443 3.752h-6.06m48.192-25.683c11.255 0 17.218 4.906 17.218 12.6 0 9.042-6.733 14.044-19.238 16.16-6.253 1.058-10.39 3.367-12.216 6.733 1.924-1.924 4.906-2.693 8.56-2.693 1.828 0 3.848.192 5.964.577 2.5.385 5.29.962 7.6.962 3.463 0 5.868-1.154 5.387-5.29l3.848-.577c.962 2.212 1.443 4.617 1.54 7.022l.001.357C107.78 67.52 103.57 71.905 96.56 72c-5.868 0-8.946-2.5-13.37-6.06-2.116-1.73-4.04-2.5-5.675-2.5h-.29c-1.154 0-2.212.385-2.982 1.154.48-.096.962-.192 1.443-.192h.29a3.27 3.27 0 013.271 3.078v.48c0 2.116-1.443 3.463-3.944 3.463-2.693 0-4.713-2.212-4.713-6.06 0-6.83 3.367-12.12 11.832-15.487 7.888-3.27 10.774-6.54 10.774-12.024 0-5.002-2.8-7.984-8.56-7.984-3.56 0-7.214 1.443-8.946 4.425a8.912 8.912 0 012.8-.48h.192c3.655 0 5.964 2.116 5.964 5.58 0 3.56-2.405 5.58-6.445 5.58s-6.54-2.8-6.54-7.407c0-8.37 7.022-13.467 17.507-13.467zm-33.57 1.347v7.984h-3.078l.48 1.25-6.926 8.85-1.347-3.367h-1.347L38.94 51.222H40L25.186 70.076h-3.56v-7.503h2.405l11.64-29.05h-2.8v-8.08h22.7z"/></svg>