<svg xmlns="http://www.w3.org/2000/svg" viewBox="0 0 128 96"><path fill="#fff" d="M91.94 16.188c.227.005.452.032.674.08h.133c1.218.03 2.432.166 3.627.408 1.055.19 2.093.465 3.103.825.237.092.447.242.612.434l.186.195a3.22 3.22 0 011.1 2.066 5.89 5.89 0 01-2.19 4.629c-.32.266-.683.514-1.064.77-.537.344-1.047.73-1.525 1.153a12.67 12.67 0 01-1.481 1.162l-.47.355a5.452 5.452 0 01-2.456 1.286c-.323.05-.65.074-.975.07h-.346a7.75 7.75 0 00-1.082.967l-.77.736-1.507 1.4-.79.754-4.114 3.9-3.22 3.068-1.862 1.835a24.96 24.96 0 01-1.898 1.773l-.56.497-.355.4-.665.718a5.1 5.1 0 01.505.337c1.995 1.552 2.536 3.972 2.935 6.402h.257a7.44 7.44 0 011.773.231 6.158 6.158 0 013.077 2.057 14.46 14.46 0 001.649-.514l2.057-.647.603-.124a14.65 14.65 0 001.71-.48l.364-.15a5.528 5.528 0 012.137-.576 2.56 2.56 0 011.01.204 2.82 2.82 0 011.348 3.086c-.02.088-.046.174-.08.257a2.29 2.29 0 01-.612.878c1.658.09 4.753 1.064 5.205 3.183a4.77 4.77 0 010 1.277c0 .106-.124.23 0 .372l.48.497.124-.106a11.16 11.16 0 011.844-1.144l.825-.452.727-.46a6.896 6.896 0 012.226-1.117c.407-.093.824-.14 1.24-.142a4.885 4.885 0 014.77 4.274c.07.177.07.355.07.54a3.08 3.08 0 011.233-.257 2.91 2.91 0 012.066.833c.468.47.726 1.1.718 1.773a2.27 2.27 0 01-.426 1.312l.346.142.222.09a9.094 9.094 0 012.74 1.773c.517.592.83 1.335.887 2.12l.993 1.1c1 .38 1.8 1.19 2.155 2.208l.062.133a4.55 4.55 0 01.55 1.924l.38.887a6.64 6.64 0 01.789 1.898v.106a3.27 3.27 0 01.053 2.128v.665c.736 1.32.48 3.538.355 4.345a3.225 3.225 0 01-.284.825l-.037.08.018.072.044.246.028.248a5.76 5.76 0 01-.887 3.69c-.046.33-.108.66-.186.984.01.79-.247 1.562-.727 2.2l-.062.09-.93 1.924a1.55 1.55 0 010 .887 9.218 9.218 0 01-2.43 4.07l-.115.186v.09c.084.32.11.654.08.984.164.075.32.164.47.266a4.23 4.23 0 01.887.825l.062.07h.222a.431.431 0 01-.053.222c.887.186 1.89-.4 2.66-.426s2.323.098 2.802.77a1.11 1.11 0 01.186.381h-.204l-.168-.07-.204-.07a6.452 6.452 0 00-.665-.08l-.426-.044h-1.357a2.8 2.8 0 00-.727.257 5.71 5.71 0 01-1.977.78c-.222-.133-.46-.035-.7-.133a1.94 1.94 0 01-.567-.532 2.81 2.81 0 00-.55-.55 1.67 1.67 0 00-.275-.15h-.08l-.204-.062h-.3c-.355-.044-.7-.044-1.037-.044a.8.8 0 01.062-.168v-.053a1.33 1.33 0 01.115-.168l.355-.426v-.062l.053-.08c.143-.254.175-.555.09-.833a.766.766 0 00-.426-.48l-.257-.106h-.044l-.275-.07h-.062l-.346-.053h-.417v-.106h-1.33l-.355-.053-8.867-1.623a7.139 7.139 0 00-1.773-.24c-.24.027-.77.56-1.055.38-.48-.3.408-1.33.408-1.33.656-1.046.95-1.756 1.543-2.82s.647-2.208 1.117-3.396a28.716 28.716 0 002.305-8.867 23.31 23.31 0 00-.408-6.65c-.098-.434-.106-.887-.23-1.32a11.629 11.629 0 00-1.197-2.57c-.4-.603-1.153-1.738-1.827-1.933a1.19 1.19 0 00-1.632.709 3.2 3.2 0 00.647 1.206 10.34 10.34 0 011.144 2.571c.194.462.36.936.497 1.42.09.293 0 .656 0 .95.053.736.567 2.12.204 3.006-.213.497-.878.337-1.42.337-1.023.023-2 .477-2.66 1.25-.284.248-1.366 1.463-1.24 2.022.15.71 1.552.15 1.596.984.035.585-1.162 1.01-2.048.887-.505-.07-.7-.505-1.277-.56-.337-.035-1.4.452-1.224-.355.124-.567 2.18-.16 2.474-.567.242-.407.4-.86.46-1.33a21.5 21.5 0 00-.727-6.695 8.76 8.76 0 00-1.569-2.935 8.098 8.098 0 00-2.18-2.34 5.48 5.48 0 00-2.483-.177c-.54.443.266 1.835.514 2.66.333.924.594 1.873.78 2.837v1.428c.035.337.177.745.177 1.055.01 2.598-1.968.213-3.22.417-.497.08-.656.807-1.153.754-.692-.07-.408-1.348-.46-2.42l-.195-2.846a17.07 17.07 0 00-1.277-4.735c-.408-.958-.798-2.376-1.986-1.977-.434.71.213 1.392.452 2.057a14.02 14.02 0 01.559 2.314 35.47 35.47 0 01.585 8.131 13.61 13.61 0 01-.736 3.919c-.168.443-.24.993-.408 1.33-.364.71-1.445 1.4-1.773 2.297-.168.48-.142 1.552-.718 1.5-.763-.08.16-1.676.24-1.96s.106-.674.195-.958.3-.56.408-.887c.177-.594.213-1.312.4-1.96a26.39 26.39 0 00.887-7.723 20.72 20.72 0 00-.55-5.32 11.4 11.4 0 00-.763-1.835 15.2 15.2 0 00-.887-1.773c-.284-.4-1.17-1.312-1.71-1.188-.692.168-.24 1.215-.08 1.64a19.02 19.02 0 011.312 6.739c.01 1.206.248 3.095-.54 3.174-.434.044-.7-.62-1.117-.567s-.434.754-.993.754-1.268-.967-2.022-1.135c-.93-.204-1.57.15-2.953.15-.878-.54-1.064-2.066-1.366-3.2l-.674-2.793c-.204-.745-.55-1.5-.984-2.57-.24-.603-.807-2.297-1.454-2.04-.417.168-.168.638 0 1.055a18.32 18.32 0 011.117 3.662l.4 1.95c.152 1.21.24 2.426.266 3.644a11.75 11.75 0 01-.479 3.387 13.3 13.3 0 01-1.773 4.097c-.213.328-.452.93-.94.887-.364-.328-.01-.86.09-1.215a22.05 22.05 0 00.825-4.974c.127-1.406.16-2.82.098-4.23-.346-3.467-.833-6.828-2.607-8.938-.3-.408-2.2-1.906-1.773-.186.08.267.21.517.38.736.224.548.407 1.11.55 1.685a29.26 29.26 0 01.683 3.848 9.69 9.69 0 01.301 2.376 6.804 6.804 0 01-.4 1.853c-.505.825-1.09.053-1.844.186-.532.09-.638.71-1.206.807-1.383.24-1.667-.736-1.818-1.773a7.651 7.651 0 00-1.32-3.946c-.3-.4-1.03-1.295-1.5-1.197-.958.213.337 2.81.4 3.05s.062.56.168.887.328.63.38.842c.177.656.07 1.454-.452 1.543a1.776 1.776 0 01-1.277-.567 3.92 3.92 0 01-1.25-2.199c-.23-.816-.3-2.492-1.197-2.412-.56.053-.576.993-1.197 1.126-.39.017-.78-.012-1.162-.09l-2.802-.434-2.27-.23c-.505-.09-1.03-.035-1.534-.09-2.208-.248-4.39-.887-6.72-.7a1.17 1.17 0 00-.417.638c-.08 1.17 2.022 1.1 3.13 1.17 2.367.16 5.435.878 8.096 1.046.585 0 1.162-.08 1.694 0 .4.062.816.3 1.215.3a8.52 8.52 0 011.215-.124c.443.168.284.904.337 1.525a22.99 22.99 0 010 5.232l-2.03 9.638c-.23.792-.5 1.57-.816 2.332-.293.78-.46 2.004-1.082 2.075a4.839 4.839 0 01-.958-.355 13.69 13.69 0 00-1.853-.08c-.718-.08-1.587-.337-2.536-.443l-5.4-.665a19.7 19.7 0 00-2.66-.39c-1 .133-1.886.71-2.412 1.57-.372.426-.754 1.18-1.357 1.18-.027-1.055.833-1.71 1.18-2.66.098-.284.16-.647.248-.958l.887-3.024c.237-.696.438-1.403.603-2.12.133-.807.106-1.65.23-2.536l.38-3.068c.198-1.266.46-2.52.79-3.76.206-1.293.313-2.6.32-3.9a12.5 12.5 0 00.089-1.374c-.027-.293-.23-.85-.284-1.472v-1.268a16.5 16.5 0 00-.665-2.208 16.1 16.1 0 00-.665-2.101c-.267-.52-.735-.9-1.296-1.078s-1.166-.098-1.675.19a11.45 11.45 0 00-2.66 2.412l-1.357 1.5c-.443.532-.79 1.197-1.24 1.773s-.78 1.295-1.188 1.862l-1.24 1.773c-.426.62-.71 1.34-1.135 1.968a34.947 34.947 0 01-2.66 3.414l-1.348 1.71c-.417.576-.718 1.268-1.188 1.915-.532.79-1.206 1.507-1.773 2.297-.575.787-1.2 1.536-1.87 2.243l-7.803 8.77-2.03 2.093c-.106.106-.328.355-.576.647l-.07.09-.168.213-.115.15-.142.195-.124.168-.115.177-.115.195-.07.16v.177a1.18 1.18 0 000 .133.826.826 0 000 .186c.018.328.328.488.328.79-.018.497-.94.922-.24 1.534l.16-.106.106-.08.062-.053.32-.3.106-.07h.07l.115-.044H6.7c.09-.01.184-.01.275 0 .39-.69.837-1.347 1.34-1.96l1.037-1.286 2.855-3.786 1.773-2.297a2.49 2.49 0 011.1-1.02c.443.488-.142 1.126-.4 1.48l-4.974 6.72c-.665.896-1.507 1.79-1.65 2.926.887.248 1.303-.594 1.835-1.135s.896-1.33 1.56-1.5c-.106.727-.878 1.073-.656 1.96 1.108.275 1.046-1.03 1.995-1.082.186.293-.346.736 0 1.055 1.57.293 1.374-1.782 2.456-1.933-.07.763.044 1.42.816 1.366.62-.035.603-.78.825-1.117s1.81-1.366 2.155-.612-.63.77-.887.887c-1.233.567-.168 1.694 1.03 1.623a10.72 10.72 0 011.055-.328c.426.053.443.674.887.62.343-.2.615-.52.78-.887a2.89 2.89 0 00.674-1.011c.842-.434 1.03-1.507 2.04-1.773.523.656-.3 1.135-.56 1.543a1.773 1.773 0 00-1.295 1.552c.984.098 1.516-.807 2.305-1.037a3.37 3.37 0 011.374-.124 5.01 5.01 0 001.011.408c.603-.018 1.224-.833 1.986-1.295.222-.133.408-.09.683-.275s.426-.523.727-.7.7-.186.887-.328c.612-.48.54-1.702 1.348-1.977.967 1.188-.887 2.305-.3 3.565.16.355.523.293.745.674-.705.34-1.48.512-2.26.505l-2.367.408-6.64 1.046c-.3.053-1.037.213-.993.488s.195.248.638.204c.993-.106 1.374-.32 2.474-.46l9.275-1.5c.275 0 .603.044.887 0 .418-.123.822-.29 1.206-.497a3.07 3.07 0 011.162-.266.888.888 0 01.887.78c-.044.594-1.986.585-2.66.674l-5.8.975c-1.073.213-2.226.195-3.006.408l-.133.044h-.044l-.098.044h-.062l-.186.115-.07.044-.08.053-.062.053-.062.062-.106.124v.062a.32.32 0 000 .062 12.68 12.68 0 01-2.829.931.502.502 0 00.204-.461.47.47 0 000-.106v-.053l-.07-.08-.09-.07H22.6l-.115-.053H20.88l-1.587.168c-.32.027-.647.168-1.055.168a7.72 7.72 0 01-.887 0 1.48 1.48 0 01.089-.523c.164-.217.4-.368.665-.426a.64.64 0 00.372-.408c-.01-.275-.656-.346-.95-.346a8.881 8.881 0 00-2.128.15c-.1.047-.185.082-.284.106a1.41 1.41 0 01-.452-.301c-.053-.08-.035.01-.177-.08s-.24-.195-.4-.275l-.434-.213a1.32 1.32 0 00-.47 0 2.44 2.44 0 00-.32 0c-.053.01-.09.062-.15.062-.293.044-.656-.053-.95 0-.098.018-.23.124-.32.168s-.195.044-.284.044a.575.575 0 00-.346.372c.025.117.12.206.24.222.162-.002.323-.026.48-.07a.95.95 0 01.213.062 10.47 10.47 0 001.188.044c.195.01.4.07.585.07.423-.06.853-.06 1.277 0-.153.205-.32.4-.497.585a.55.55 0 000 .355 9.06 9.06 0 00-1.02 0 1.1 1.1 0 00-.355-.337l-.257-.106a1.95 1.95 0 00-.426-.151c-.062-.01-.062-.07-.177-.07s-.266.018-.364 0-.213-.106-.346-.106a4.394 4.394 0 00-.887.062c-.284.01-.594-.177-.887-.177a.806.806 0 00-.683.24 2.21 2.21 0 01-.168.434 1.17 1.17 0 01-.328.044.654.654 0 01-.372 0 2.135 2.135 0 01-.54-.133.863.863 0 01-.195-.222c-.128-.23-.2-.483-.213-.745a3.45 3.45 0 00-.417 0h-1.02l-.48.044v.124a1.622 1.622 0 00-.736.142 1.771 1.771 0 00-1.224.488.996.996 0 01-.408.364.191.191 0 01-.106 0h-.993l-.222.08h-.09l-.248.133a2.34 2.34 0 00-.426.426 1.49 1.49 0 01-.434.408c-.177.106-.364.027-.54.106a4.447 4.447 0 01-1.525-.603 1.885 1.885 0 00-.56-.195h-.887c-.175.002-.35.017-.523.044a4.937 4.937 0 00-.514.062l-.15.053-.133.053h-.213a.49.49 0 01-.142 0 .49.49 0 00-.16.16c-.48-.177-.727-.4-.284-.887s2.27-.497 2.926-.497c.492.033.986-.03 1.454-.186l.346.177.222.115c.2-.23.41-.433.656-.603.6-.387 1.3-.594 2.013-.594a3.13 3.13 0 011.445-.683c.027-.07.07-.15.07-.222a5 5 0 01-1.667-.887h-.15a1.82 1.82 0 01-1.188-.887c-.54-.913-.248-2.12.106-3.28v-.142l.213-.798.426-1.614.417-2.022a21.28 21.28 0 01.771-3.219 5.77 5.77 0 011.011-1.578l.408-.532.825-1.162 1.463-2.137A42.2 42.2 0 019.92 79.49l.266-.32.497-.647.77-.984c.177-.213.364-.4.54-.585.22-.208.418-.437.594-.683.532-.922.417-2.376.293-4.07l-.09-1.286a3.05 3.05 0 01-.816.798 2.83 2.83 0 01-.319.089 2.66 2.66 0 00-1.525 1.126c-.08.48-.08.967 0 1.445a2.014 2.014 0 01-1.57-.346 1.47 1.47 0 01.443-1.321 3.45 3.45 0 01.443-.523c.647-.532 1.79-.736 2.048-1.56.08-.23.01-.488.08-.683a2.02 2.02 0 011.091-1.029l-.284-4.043v-1.153a10.58 10.58 0 00-2.181-.887l-.887-.3-1.26-.514-.887-.364A6.636 6.636 0 014 59.55a3.14 3.14 0 01-.479-2.891c.287-.78.96-1.354 1.773-1.516a2.9 2.9 0 01.576-.053 4.61 4.61 0 011.986.559l.48.213 2.1.665 2.243.7a7.17 7.17 0 01.603.248l.647.266.177-.257a5.5 5.5 0 01.665-.842 8.627 8.627 0 015.87-2.1h.887a3.69 3.69 0 01.55.089v-.346c.257-1.667 1.366-4.744 3.254-5.88.314-.182.647-.327.993-.434l.204-.07c.176-.323.33-.658.46-1.002l.24-.567.532-1.206c.887-2.022 1.906-4.513 4.983-5.16a17.12 17.12 0 012.908-.275h.56a2.96 2.96 0 011.614-1.844l.248-.15.62-.426.833-.567.647-.443a7.236 7.236 0 014-1.623h.266c.716.015 1.43.084 2.137.204l.638.115a5.32 5.32 0 00.887.124 3.82 3.82 0 00.399-.39l.674-.736 2.376-2.518.293-.293 1.65-1.773.23-.284a6.282 6.282 0 012.66-2.234 3.11 3.11 0 01.94-.142 2.99 2.99 0 012.855 1.942 2.66 2.66 0 011.303-.887 2.52 2.52 0 01.656-.089 3.083 3.083 0 013.04 2.518 3.67 3.67 0 01-1.561 3.095l-.266.248-4.37 4.496-.15.222.177.266.222.337c.24.38.505.727.807 1.126l.08.106c.248.328.46.674.674 1.02a5.32 5.32 0 00.833 1.153 3.98 3.98 0 001.206.195h.142c.36-.206.694-.456.993-.745l.887-.7c.6-.448 1.173-.927 1.72-1.436l.452-.408 1.4-1.188.887-.763 1.108-1.046 1.01-.967c.434-.4.95-.78 1.32-1.064l1.046-.833 1.658-1.463 2.846-2.474 1.25-.975 1.1-.887c.115-.098.248-.23.408-.38a10.64 10.64 0 011.002-.887 6.72 6.72 0 00.7-.603v-.452a4.63 4.63 0 01.142-1.339 4.79 4.79 0 011.552-2.093l.434-.417c.434-.46.913-.86 1.32-1.215l.514-.452.48-.462.24-.238 1.046-.993a6.43 6.43 0 013.254-1.773zm14.78 80.184c-.718-.124-2.27-.683-2.75-.38a7.04 7.04 0 00-1.392 2.713c.106.77 1.002.71 1.773.77s1.658.346 2.545.443l3.494.372c.337.062.63.248.958.3l-.08.24c.603.133 1.357.062 1.853.133l1.507.284h1.685a7.84 7.84 0 002.119-3.467.46.46 0 00-.479-.293h-.372l-.257.115-.177.062h-.053a1.02 1.02 0 01-.213 0 10.54 10.54 0 01-1.48-.24l-3.813-.523-3.813-.532c-.38 0-.718.062-1.055 0zm-14.49-78.8h-.434a5.826 5.826 0 00-2.412 1.463c-.612.514-1.215 1.188-1.72 1.658l-1.773 1.614a5.586 5.586 0 00-1.56 1.773c-.133.3-.027 1.5-.133 1.853a4.125 4.125 0 01-1.25 1.286c-.576.434-.95.887-1.357 1.233l-2.35 1.827-4.487 3.92-2.35 1.88-2.137 2.04-2.297 1.933c-.73.684-1.498 1.33-2.297 1.933-.79.567-1.623 1.596-2.51 1.72h-1.81l-.16-.053h-.07l-.195-.08c-.833-.434-1.4-1.73-2.04-2.616l-.967-1.357a3.322 3.322 0 01-.727-1.632c.138-.4.39-.752.727-1.01l4.274-4.558c.505-.523 1.48-1.108 1.392-2.137a.761.761 0 00-.062-.23v-.07a1.1 1.1 0 00-.089-.142l-.07-.08-.115-.124-.09-.07-.142-.098-.106-.062-.15-.07-.106-.044-.168-.053h-.364a.95.95 0 00-.248 0c-.407.233-.75.566-.993.967l-4.735 5.187c-.452.514-1.33 1.773-2.1 1.87l-.3.053h-.638l-.222-.07-.15-.08h-.053l-.3-.213-.07-.07a.27.27 0 010-.106c.085-.41.327-.774.674-1.01a42.568 42.568 0 014.327-4.283c.452-.364 1.4-1.295 1.4-2.075a1.01 1.01 0 00-.044-.275v-.08a1.18 1.18 0 00-.08-.168l-.053-.08-.115-.142-.07-.07-.168-.124-.07-.044a1.57 1.57 0 00-.266-.124h-.656a1.517 1.517 0 00-.328-.053c-.754.266-1.507 1.295-2.137 2.04s-1.383 1.48-2.03 2.137l-3.015 3.2c-.307.43-.75.743-1.26.887a2.139 2.139 0 01-.408 0h-.674l-.38-.07-.54-.098-.576-.15H44.2c-1.72.08-2.837 1.162-3.937 1.853l-1.4.967c-.48.293-1.277.63-1.197 1.18.133.887 2.73.106 2.66.887a.369.369 0 010 .124v.044h-4.31a17.61 17.61 0 00-2.9.248c-2.82.585-3.36 3.254-4.433 5.498a6.8 6.8 0 01-1.135 2.101c-.38.284-.887.3-1.366.603-1.24.745-2.27 3.13-2.518 4.788-.142.922.07 1.702-.612 1.853h-.168a1.66 1.66 0 01-.319 0h-.09l-.3-.044-.372-.098h-.044c-.114-.03-.23-.05-.346-.062h-1.915l-.452.08-.3.07-.417.115-.284.09-.4.177-.293.09-.364.177-.213.115-.346.222-.16.106a4.13 4.13 0 00-.381.177c-.46.46-.842 1.428-1.454 1.552-.097.01-.195.01-.293 0h-.647l-.177-.062h-.106l-.177-.07h-.098l-.213-.09-.16-.168-.115-.053-.213-.08-4.354-1.366-.257-.098-.106-.044-.168-.08-.222-.098-.115-.053-.168-.07-.115-.044-.16-.062H5.6c-.95.186-.887 1.357-.417 2.004a5.32 5.32 0 002.509 1.605l2.128.887c1.037.4 3.635.967 4 2.004a7.5 7.5 0 01.133 1.685l.337 5.116c.044 2.66.683 5.267-.372 7.094-.385.522-.812 1.01-1.277 1.463l-1.24 1.605a44.04 44.04 0 00-3.627 4.806c-.763 1.233-1.552 2.226-2.332 3.36A10.9 10.9 0 004.2 90.042c-.505 1.383-.718 3.387-1.144 5.1L2.4 97.57c-.124.372-.754 2.243-.124 2.376a.329.329 0 00.364-.168 1.43 1.43 0 00.115-.213v-.044l.053-.124a16.51 16.51 0 011.339-2.288c.665-.887 1.587-1.862 2.234-2.66.763-.94 1.374-1.89 2.022-2.775L9.44 90.3l.887-1.543c.833-1.25 2.022-2.412 2.908-3.733.443-.656.922-1.25 1.42-1.88l1.454-1.87c1.03-1.18 1.79-2.563 2.802-3.84l2.926-3.698 2.855-3.786 2.75-3.893 2.855-3.786 1.56-1.773c1.002-1.268 1.445-1.968 3.3-2.155a27.368 27.368 0 015.072 0c2.51.213 5-.15 7.448.106.683.07 1.48.408 2.013.497s1.073.01 1.587.133c1 .28 1.95.71 2.82 1.277.45.196.812.55 1.02.993-.225.513-.756.82-1.312.763-.825-.08-1.02-1.03-1.71-1.295s-1.87.044-2.908-.115c-.638-.098-1.42-.48-2.066-.603a19.88 19.88 0 00-2.855-.434c-1.57-.098-2.793.018-4.23-.098-.63-.08-1.25 0-1.844 0-1.32.018-2.846-.204-3.857.106a4.95 4.95 0 00-1.516 1.179c-.78.825-1.312 1.87-2.075 2.775s-1.428 1.844-2.075 2.775l-4.212 5.56-2.128 2.722c-.674 1.002-1.366 1.89-2.075 2.775l-4.31 5.444a59.393 59.393 0 01-4.77 6.35c-.603.692-1.03 1.516-1.552 2.2l-1.658 2.03-1.552 2.2A22.4 22.4 0 004.75 97.72l-.674 1.17c-.213.284-.77.754-.3 1.17a.984.984 0 00.94-.647c1.197-1.623 2.73-2.953 3.955-4.496l4.62-5.56c.807-.896 1.48-1.942 2.234-2.83.275-.346.612-.55.887-.887s.452-.763.727-1.117l5.506-7.475 1.72-1.977a49.588 49.588 0 003.272-4.22l1.605-2.137c.364-.505.63-1.108.984-1.596s.77-.958 1.197-1.445c1.33-1.507 1.942-3.024 4.336-3.28a13.38 13.38 0 013.387.301c.3.044.63 0 .95 0 .514.035 1.02.24 1.534.293l3.28.328c.612.035 1.188.24 1.773.293l2.376.124c.408.053.825.213 1.153.204a6.892 6.892 0 011.64.24c.488.213.958 1.03 1.5 1.037s.372-.434.95-.434c.4.443.328 1.1.887 1.1 1.392.027.222-2.59 1.277-2.873a6.34 6.34 0 011.48.142c.54.09 1.135.09 1.534.09 1.064.08 1.95.4 2.758.488.328.044.603 0 .887 0l3.706.48h1.002c.665.053 1.977.38 2.1-.4.02-.3-.08-.575-.275-.79.562-.503 1.154-.97 1.773-1.4.567-.46 1.48-.984 1.24-1.915a2.292 2.292 0 00-.48-.576 2.405 2.405 0 00-1.525.4c-.7.4-1.5 1.02-2.305 1.56a8.78 8.78 0 01-2.412 1.49 7.42 7.42 0 01-1.906-.346 36.06 36.06 0 01-4.336-.31c-.417-.098-.86-.3-1.374-.408s-1.144-.08-1.587-.24-.683-.913-1.126-1.25a11.862 11.862 0 00-2.297-1.144c-.77-.3-1.89-.665-2.18-1.34-.364-.887.027-2.518-.3-3.547-.177-.576-.94-1.5-.904-1.977s.576-.754.674-1.17a10.96 10.96 0 000-2.66c-.248-1.765-2.084-1.95-3.396-1.064a5.41 5.41 0 00-1.348 1.605c-.4.683-.825 1.773-1.348 1.658s-.222-.93-.07-1.268a6.927 6.927 0 014.176-3.6l.262-.087c2.392-.746 5.75-.48 7.46.77a5.49 5.49 0 011.117.887 9.96 9.96 0 01.7 1.259 9.01 9.01 0 01.754 4.957c-.09.63-.878 1.42-.656 1.96.15.364.93.38 1.694.452l1.96.24 9.426 1.454c.63.032 1.254.15 1.853.346.262.192.498.42.7.674a2.76 2.76 0 00.665.727 8.38 8.38 0 002.013.186l6.207.497.044.168c2.03.222 3.83.763 5.72.975h1.18l.106-.062.08-.062.09-.098.062-.09a.913.913 0 00.098-.195c-.372-.7-1.4-.825-2.394-1.02-.54-.106-2.66-.372-2.66-.807s.727-.46 1.26-.647c1.383-.47 2.9-1.224 4.043-1.694.55-.248 1.348-.328 1.57-.887a1.39 1.39 0 00-.443-1.366.96.96 0 00-.239-.062h-.656l-.3.09h-.07l-.24.09h-.098l-.213.09-.32.142-.24.098a23.28 23.28 0 01-2.42.665c-1.853.452-3.077 1.206-4.788 1.34a4.86 4.86 0 00-2.775-2.234l-.248-.062-.3-.053h-1.72a.48.48 0 00-.257.452c.027.62.967.4 1.64.505a6.42 6.42 0 011.649.559c.43.207.753.588.887 1.046-.816.16-2.208-.718-2.908 0 .598.26 1.218.464 1.853.612.4.07 1.827.142 1.543.887-.15.426-1.79.098-2.27 0l-1.117-.248a6.41 6.41 0 01-1.162-.195l-.204-.115-.09-.027-.106-.09-.053-.106-.08-.106v-.07l-.062-.115V55.39l.177-1.037v-.09c-.514-2.846-.736-5.604-2.66-7.094-.497-.38-1.658-.807-1.658-1.4a2.52 2.52 0 01.984-1.233c.443-.417.754-.878 1.09-1.18l2.35-2.2c.7-.763 1.507-1.507 2.297-2.252l6.987-6.65 2.35-2.2c.736-.62 1.685-1.818 2.51-2.04h1.392a6.114 6.114 0 002.305-1.348c.433-.376.836-.785 1.206-1.224.887-.85 1.977-1.436 2.66-1.995a4.342 4.342 0 001.587-3.3 2.331 2.331 0 00-.887-1.4c-.933-.328-1.89-.58-2.864-.754a19.378 19.378 0 00-3.387-.372 2.66 2.66 0 01-.364-.053zm14.034 73.724l-.246.005-.24.08c-.56.142-1.348 1.667-1.18 2.447.195.922 1.942 1.17 2.97 1.17a16.728 16.728 0 013.12.275c2.483.452 5.373.665 7.723.95.48-.43.84-.982 1.037-1.596l.07-.106a5.03 5.03 0 00.55-.993c.02-.067.035-.135.044-.204a.69.69 0 000-.071.855.855 0 000-.16.72.72 0 000-.089v-.09l.058-.234-.044-.004c-.498-.02-.627.397-1.004.536l-.1.03a4.494 4.494 0 01-1.48-.195l-5.32-.612a14.42 14.42 0 01-2.438-.55 12.62 12.62 0 00-2.545-.443 3.566 3.566 0 00-1.215-.142zm-73.3-4.03a.888.888 0 01.967 1.046c-.124.612-.727.7-1.303 1.073l-.01.018a3.29 3.29 0 00-1.374 3.547c.033.233.09.46.168.683.275.488.807.3.967 1.197a1.5 1.5 0 01-1.587-.452c-.896-.736-1.108-1.42-1.312-2.944-.293-2.2 1.516-3.813 3.485-4.167zm8.885 1.623c-1.135-.16-2.607-.612-3.547-.16a3.192 3.192 0 00-.887 2.917c.38 1.03 2.367.958 3.768 1.162l3.28.48h1.055c.86.09 1.658.4 2.545.443l3.485.16v-.018c.665-.585 1.853-2.758.745-3.6-.656-.497-3.174-.54-4.602-.674l-1.773-.133c-.514-.07-1.055-.284-1.587-.346l-2.483-.23zm78.703 2.385l-.11.106-.054.043-.037.345-.138.768-.036.144.1.013v.115c.138-.502.23-1.015.275-1.534zm.603-8.7c-.754-.186-.355 1.694-.497 2.066-.346.904-1.827.213-2.9.098l-1.773-.133c-.434-.07-.842-.355-1.32-.355l-2.27-.124c-.7-.07-1.5-.3-2.28-.443-.967-.168-2.678-.727-2.846.567-.222 1.676 2.155 1.658 3.83 1.773l1.96.186c.24.035.656.23 1.064.3.993.186 2.217.168 3.228.328.878.142 2.563.133 2.917.647s.275 1.96-.337 2.12a4.85 4.85 0 01-1.534-.239l-9.364-1.4a4.22 4.22 0 00-1.587-.239c-.62.292-.926.997-.718 1.65.328.754 1.32.54 2.545.647.798.07 1.694.408 2.438.497s1.357.062 2.013.133c.346.044 1.135.355 1.428.355h.887c1.5.106 2.98.683 4.283.47l.065-.055.005-.043.098-.115.133-.177.09-.142.106-.195.07-.16.08-.222.053-.168c.062-.08.062-.16.062-.24V88.42c-.027-.328-.177-.674-.177-1.002.116-.38.252-.752.408-1.117v-3.68l-.053-.053zm-79.218 1.4c-1.082-.284-2.82-1.082-3.378.098 0 .798-.4 1.543 0 2.323s1.64 1.01 2.82 1.224 2.34.133 3.653.32l3.547.585 3.112.062a6.67 6.67 0 001.108.089l.027.01c.887-.213 1.578-2.616.434-3.228-.78-.372-2.385-.23-3.6-.372l-7.723-1.108zm-16.99.16a.57.57 0 01.603.098c-.168.488.142.833 0 1.268a.78.78 0 01-.603-1.366zm1.71-2.518c.736.027.08 1.295.443 1.632-.025.124-.104.23-.215.3s-.244.067-.36.02c-.674-.133-.54-1.906.133-1.906zm13.552-2.037l-.41.007c-.317.102-.573.337-.7.644s-.115.655.036.952c.24.62 1.818.77 2.704.887l3.28.328 2.962.488 2.66.124c.93.08 1.8.612 2.855.488l.018-.027c.464-.178.773-.62.78-1.117-.07-1.215-2.598-1.108-4.034-1.215-1.977-.15-3.316-.488-5.24-.665-1.685-.16-3.547-.984-5.32-.887zm-31.055-9.96a3.3 3.3 0 011.596.78c.168.257.48.825 0 .95a.816.816 0 01-.275-.355 3.496 3.496 0 00-3.316.38c-.142.09-.3.142-.434.222a2.59 2.59 0 00-1.117 1.25c-.07.514.346.62.54.975a2.91 2.91 0 01.16.434.45.45 0 010 .461 2.36 2.36 0 01-1.029.053.68.68 0 00-.434.656c-.01.638.736.816 1.064 1.117a6.49 6.49 0 011.844.683c.576.364.204.71-.106 1.25-.126.335-.356.62-.656.816a2.33 2.33 0 01-.328 0c-.23.044-.514.213-.63.213h-.355a1.03 1.03 0 00-.567.488c-.053.07-.168.168-.248.275a.48.48 0 01-.222.301.978.978 0 01-.683-.488 1.607 1.607 0 00-.683-.106 3.257 3.257 0 00-1.5.816c-.168.417-.85 1.153-.736 1.773.12.202.314.35.54.408-.018.275-.426.142-.567.275l-.044.018c-1.068-.218-.43-2.24-.128-2.728.098-.16.3-.257.38-.38s.07-.293.16-.408a3.13 3.13 0 011.17-.683c.54-.106 1.206-.018 1.773-.106.244-.078.468-.208.656-.38.157-.1.32-.192.488-.275.257-.15.95-.408.887-.736a.95.95 0 00-.434-.275 2.44 2.44 0 01-1.472-.736 3.099 3.099 0 01-.355-.683c-.282-.392-.4-.88-.328-1.357.106-.364.54-.638.683-1.03a.95.95 0 01.106-.63c.022-.256.058-.5.106-.763.145-.137.3-.265.46-.38a4.69 4.69 0 01.683-.789c.09-.053.204-.07.3-.133a1.2 1.2 0 00.248-.222c.07-.08.106-.01.248-.08s.168-.186.355-.275.46-.133.683-.222c.294-.157.617-.25.95-.275.204-.01.417-.106.567-.106zm99.497 10.02a.71.71 0 00-.833.594 3.35 3.35 0 00.594.63c4.052.443 7.954 1.037 11.908 1.578l-.01-.01c1.4-1.17-1.436-1.303-2.447-1.392-1.17-.098-2.42-.55-3.76-.63-2.04-.133-3.777-.665-5.453-.77zm-81.248 1.162c-.01-.488 1.064-1.366 1.26-.55.133.417-.328.71 0 1.224a.825.825 0 01-1.259-.674zm83.43-4.7c-.692-.106-3.715-.975-3.547.257.062.488 1.57.46 2.066.55.887.133 1.525-.01 2.367.115s1.89.417 2.802.488 1.676.23 2.483.337c1.32.168 2.678.01 3.183.798.3.488.443 2.305 1.09 2.305a.444.444 0 00.186-.053l.044-.04.036-.048v-.062a.47.47 0 000-.106.8.8 0 000-.08c.002-.04.002-.083 0-.124v-.665l-.062-.204c-.035-.15-.09-.3-.133-.452l-.053.09a3.902 3.902 0 00-.612-1.206l-.133-.15-.124-.115-.133-.115-.08-.044-.23-.142a2.032 2.032 0 00-.364-.133c-3.086-.3-5.693-.77-8.787-1.197zM30.1 80.04c-1.24-.09-1.082-2.563.337-2.12.284.638-.257.922-.452 1.277a1.18 1.18 0 01.275.683.267.267 0 00-.16.16zm12.786-4.16c-1.02-.124-3.14-.665-3.06.514s3.618 1.215 4.717 1.357c1.71.222 3.813.56 5.4.665a16.35 16.35 0 012.367.177c.887.222 2.305.692 2.66 0a3.138 3.138 0 000-.887c-.293-.887-1.454-.63-2.598-.7s-2.412-.257-3.706-.426l-5.817-.71zm75.75-2.146h-.213l-.01.035a.39.39 0 00-.115.08.862.862 0 00-.177.293c.148.53.388 1.027.71 1.472.204.337.63 1.312 1.18 1.144l.106-.07a.96.96 0 00-.062-.887v-.106l-.062-.15v-.098l-.098-.186-.177-.222-.09-.195V74.8l-.098-.177-.124-.195v-.044l-.16-.222-.142-.16-.32-.168-.15-.09zm8.64-2.1c.224.028.41.184.48.4a3.66 3.66 0 01-.399 1.88c-.603.275-1.605.124-1.605-.48.018-.434.497-.408.763-.603.46-.3.328-1.037.763-1.197zm-93.365-1.617c.136 0 .264.063.346.17v.044c.168.674-.4 1.108-.718 1.65s-.674 1.818-1.4 1.126a7.42 7.42 0 011.436-2.82.42.42 0 01.346-.17zm59.39-11.755H92.1c-1.24.16-.95 1.295-1.34 2.18-.018.044-.07.124-.07.124l-.115.204-.053.09-.062.098c-.062.09-.133.177-.204.257l-.133.16-.257.248-.124.124a4 4 0 01-.38.293 4.233 4.233 0 00-1.463 1.03c-.4.63-.532 1.596.23 1.685a2.1 2.1 0 001.312-.754c.406-.29.79-.614 1.144-.967a6.95 6.95 0 001.339-2.288c.168-.7.133-1.33.77-1.436a5.38 5.38 0 012.35.887c1.153.692.745 2.483.266 3.848-.133.38-.807 1.632.08 1.632.745.01.47-1.233.984-1.33s.967.993 1.126 1.357a4.3 4.3 0 01-1.046.488c-.402.38-.84.72-1.303 1.02-.355.124-1.25 0-1.525.284a1.465 1.465 0 00.985 2.208 9.39 9.39 0 011.17.727c.62.4 1.844 1.463 2.394 1.286.48-.155.507-.9.536-1.68l.014-.334a12.72 12.72 0 00.07-2.483c-.07-.4-.4-.647-.488-1.046a5.87 5.87 0 01.355-1.011c.763-.266 1.65.337 2.536.337.585.01 1.64.098 1.773-.4s-.754-.567-.754-1.206a.47.47 0 01.417-.532c.745-.062.434.93.656 1.525.186.408.825.337.887.833s-.567.754-.452 1.383 1.32.718 2.022.887c2 .35 3.98.8 5.932 1.348.3.106.86.168.754.727a2.33 2.33 0 01-1.773-.08 74.64 74.64 0 00-10.64-1.224 1.1 1.1 0 00-.567 1.011c.09.736 1.162.56 1.862.656.3.044.665.248 1.064.248.56.08 1.162-.018 1.694.08.32.053.603.248.887.3l-.328-.452c.71.124 1.57.222 2.385.337 1.188.177 2.066.195 3.334.275.754.044 1.87.355 2.758.488a7.69 7.69 0 002.749.168.77.77 0 00.231-.151.516.516 0 00.07-.09 1.462 1.462 0 00-.195-1.534 1.74 1.74 0 00-.133-.177 7.366 7.366 0 00-2.18-1.34c-.665-.275-2.03-.87-2.03-1.56s.887-.665.887-1.436a.922.922 0 000-.257v-.07a.798.798 0 00-.08-.16v-.062c-.042-.058-.1-.11-.142-.16a1.26 1.26 0 00-.222-.142h-.07l-.195-.07h-.7a1.57 1.57 0 00-.319.098c-.727.32-.63 1.197-1.4 1.552-.904-.408-.665-2.27-.833-3.2a4.527 4.527 0 00-.133-.54v-.08a4.37 4.37 0 00-.195-.488l-.044-.09a3.609 3.609 0 00-.266-.443V61.4a3.38 3.38 0 00-.328-.39 3.075 3.075 0 00-.4-.328l-.07-.053a3.01 3.01 0 00-.452-.24h-.09a2.98 2.98 0 00-.523-.16h-.044a3.269 3.269 0 00-.567-.053h-.94a11.41 11.41 0 00-2.492 1.543 19.65 19.65 0 00-2.465 1.463l-.142.124-.248.248-.053.044-.08.07h-.053l-.08.053h-.15l-.168.07H98.2a5.62 5.62 0 01-1.818-1.773c-.098-.46.098-1.4 0-1.844a1.168 1.168 0 00-.07-.222v-.07l-.08-.142-.062-.08-.098-.115-.098-.07-.124-.106-.098-.08-.177-.124-.115-.07-.15-.09-.124-.07-.133-.124-.124-.062-.3-.133-.204-.08h-.115l-.275-.142h-.09l-.328-.09-.284-.062zm-38.12 9.603c-.4-.93-.913-2.004-1.605-1.72-.514 1.197 1.32 2.35.523 3.316a28.94 28.94 0 00-5.498-.612 68.87 68.87 0 01-6.828-.7c-.647-.098-2.492-.567-2.42.452.053.736 1.188.62 1.915.656l2.1.133c.922.07 1.906.426 2.962.488 1.33.08 2.2.257 3.334.426.736.07 1.5.027 2.217.07.922.07 1.88.426 2.59.07.514.053.576.727 1.064.674h-.018l.1-.057a1.11 1.11 0 00.448-.799l.003-.138a7.596 7.596 0 00-.887-2.26zm59.198-18.878c.222 0 .532.16.842.16.5.035.967.17 1.4.4.328.124.842.257 1.002.32s.4.328.523.4.23.035.364.124.23.23.364.32.32.124.443.204a7.03 7.03 0 011.002 1.162 6.5 6.5 0 01.683.559 10.73 10.73 0 01.16 1.126 1.4 1.4 0 01.16.887c.204.576.85.984 1.002 1.525a2.74 2.74 0 01-.479 2.004 4.62 4.62 0 01-.523 1.002 3.6 3.6 0 01-2.164 1.082c-.246.07-.467.21-.638.4-.098.48.922.87 1.32 1.082a7.98 7.98 0 01.718.399c.277.255.607.446.967.56.833.16 1.818.044 2.607.16a4.62 4.62 0 011.747 1.037c.124.177.106.4.24.603s.417.328.56.56c.443.718 1.383 3.698-.204 4.008-.257-.195-.887-.018-.887-.4.293-.266.718-.177.798-.603.168-.913-.833-2.004-1.082-2.607-.63-.32-1.215-1.206-2.208-1.206a2.36 2.36 0 00-1.002.16c-.284.142-.46.842-1.002.718a.71.71 0 01-.319-.443c-.115-.15-.284-.293-.364-.4a1.506 1.506 0 00-.842-.718c-.177 0-.3.035-.523 0s-.55-.257-.887-.32c-.16.01-.32.01-.48 0a2.466 2.466 0 01-.967-1.206c-.452-.807-1.046-1.312-.16-1.844a9.28 9.28 0 012.767-1.046c.48-.443 1.56-.71 1.56-1.64a1.01 1.01 0 00-.638-.967c-.523-.08-1.02.23-1.525-.08a.664.664 0 010-.683c.063-.22.143-.432.24-.638.293-.56.896-.683.798-1.445a3.81 3.81 0 00-1.64-1.844c-.195-.115-.426-.195-.638-.32-1.25-.754-3.272-1.445-4.895-.56-.082.208-.22.39-.4.523l-.044.018c-.665-.177-.213-1.01 0-1.4.718-.355 1.224-1.126 2.243-1.126zM90.352 66.633c-1.286-.257-2.376-.833-2.855 0 .364.656 1.34.514 2.385.656l.01.053c.4 0 2.27.763 2.43 0 .09-.443-1.286-.594-1.968-.71zm-13.94-2.846a.966.966 0 00-.674.638c-.027.85 1.348.86 2.234.975l5.666.763-.018.01c.896.142 2.137.638 2.43-.248-.4-.71-1.4-.647-2.172-.763-2.447-.355-5.036-1.073-7.466-1.374zM95.15 61.88c-.133-.79-2.35-2.057-2.43-.284.337.47 1.09.32 1.224.887l.002.103a1.667 1.667 0 01-1.244 1.564 4.55 4.55 0 01-1.011-.195.705.705 0 00-.3.585 4.71 4.71 0 002.545.497c.4-.375.685-.854.825-1.383a6.36 6.36 0 00.399-1.773zm10.933-.514c1.95-.257 2.057 3.263.417 3.485s-2.252-3.236-.417-3.485zM75.74 60.47h-.106a10.147 10.147 0 00-3.547 2.1 3.876 3.876 0 00-.887 1.117c-.035.417.346.594.958.727.458.162.943.228 1.428.195a3.14 3.14 0 00.825-.7c.71-.638 2.075-1.534 2.403-2.252.417-.896-.638-1.197-1.073-1.197zm25.147 3.254a.356.356 0 01.48 0V64c-.186.124-.567.07-.48-.266zm-26.38-1.543c.32-.24.656-.77 1.1-.488a.666.666 0 01-.523.532c-.417.284-.807.7-1.197.967a.814.814 0 01-.887.168 5.02 5.02 0 011.454-1.188zm8.344-.7c-.763-.603-1.525.54-1.357 1.233.284 1.18 2.633.665 2.474-.505-.346-.177-.505.328-.842.275-.372-.062-.46-.55-.275-1.002zM6.798 58.6c1.718.545 3.403 1.2 5.045 1.933 1.108.46 2.456.967 3.768 1.428.435.184.902.277 1.374.275.505-.124.48-.674.727-1.01v.044h.372a1.48 1.48 0 01-1.561 1.871c-.4-.14-.75-.35-1.064-.62-.896-.497-2.18-.816-3.396-1.383-.523-.248-1.108-.48-1.65-.718a11.6 11.6 0 00-1.649-.718 5.8 5.8 0 01-2.128-.887.42.42 0 01.053-.16zm72.346 2.36c-.7-.452-1.516.497-1.463 1.073.07 1.224 2.722 1.1 2.66-.142-.4-.142-1.17.3-1.32-.3l.027.01c.016-.215.05-.428.098-.638zm-9.044.01c.13-.042.27.024.32.15a2.9 2.9 0 01-.833.7c-.497.372-.887.95-1.525.497.505-.612 1.4-.85 2.04-1.348zm-6.64-1.977c-.523-.417-1.197.56-1.197 1.02.106 1.303 2.687.984 2.376-.293-.48.248-1.135.54-1.268-.09a1.59 1.59 0 00.089-.638zm-3.52-.47c-.736-.594-1.525.47-1.4 1.126.195 1.277 2.66 1.09 2.66-.355l-.001.005-.05.01c-.588.096-1.53.067-1.245-.68zm-38.57-.514c.505-.018 2.67-.062 2.66.594s-1.4.186-2.004.186a15.65 15.65 0 00-3.325.257c-.71.124-1.507.567-2.217.346a.973.973 0 01.674-.638c.833-.306 1.7-.514 2.58-.62a15.71 15.71 0 011.578-.124zm15.766-5.8a8.358 8.358 0 012.26.15c.266.062.532.248.798.3.324.037.645.103.958.195l.018-.01c.87.48 2.013 2.243 1.055 3.423-.665-.044-.692-.745-1.02-1.09s-1.277-1.17-2.34-.887-.177 1.89-.177 2.66c-1.215.594-3.015-.044-4.38.275-.638.15-.967.71-1.525.443.15-.56.555-1.014 1.09-1.233.284-.222 1.144-.62.984-1.286-.266-1.197-1.614.603-1.942.887-.514.443-1.26.87-1.986 1.454-.434.337-1.88 1.5-2.208.718-.142-.328.754-1.277 1.135-1.65a36.198 36.198 0 013.024-2.66 7.34 7.34 0 011.676-1.188c.84-.26 1.705-.433 2.58-.514zm-30.99 5.12l.056.02c.418.2.2.895-.092 1.078-.17-.064-.33-.15-.48-.257.26-.02.492-.16.63-.38a1.26 1.26 0 01-.115-.47l.001.012zm76.388.724c.124-.488 1.348-1.073 1.525-.4-.46.133-1.03.63-1.525.4zm-36.62-4.292c-.257-1.25.505-2.58 2.03-2.137a3.12 3.12 0 011.445 1.401c.647 1.32.913 4.185-.674 4.433a19.43 19.43 0 01-3.272 0l-.01.01c-.896-.168-1.03-1.303-1.144-2.465s-.027-2.137.594-2.545a4.78 4.78 0 01.08 1.685 2.44 2.44 0 002.563 1.968 1.65 1.65 0 001.614-1.658c-.408-.098-.55.372-.887.488-.464.206-.996.193-1.45-.035s-.78-.648-.89-1.144zm-5.8 1.694c.825.027.993 1.046.887 1.89a.987.987 0 01-.585-.098 3.544 3.544 0 01-.337-1.773zm15.242-.417c-1.26-.257-3.068-.4-3.547.63.364.62 1.445.904 2.5 1.02.38 0 .77-.062 1.108 0 .718.142 1.96.86 2.164-.24l-.005.017-.11-.154a3.4 3.4 0 00-1.902-1.23zm12.53-4.655c.417.098.807 1.454.887 2.26l-.018-.018c.09.904-.027 1.4.656 1.632.018.798.364 1.915-.284 2.226-1.064-.417.408-2.27-.825-2.367-.168-.585.07-1.108-.497-1.472s-1.507-.106-2.013-.603a9.06 9.06 0 011.72-1.658zM90.9 54.967l.198.006a3.91 3.91 0 01-1.685.603c0-.044.08-.16 0-.16a2.73 2.73 0 011.685-.443zm13.436-6.37c.4-.027.727-.195.683.284-.692.3-1.986.177-2.607.718a3.75 3.75 0 00-.523 1.126c-.27.5-.656.95-1.126 1.286a2.99 2.99 0 01-.364.08l.038-.007-.18.058a2.66 2.66 0 00-1.228.906l-.11.16a4.37 4.37 0 000 1.445 2.008 2.008 0 01-1.56-.32 1.47 1.47 0 01.443-1.321c.13-.19.28-.364.443-.523.647-.532 1.8-.736 2.048-1.56.08-.23.01-.488.08-.683.3-.62.88-1.046 1.56-1.126.337-.523 1.516-.452 2.403-.523zm-50.55 4.256c-1.224-.08-1.73.328-1.995 1.03.364.763.958.106 1.95 0a6.058 6.058 0 011.534 0v.062c.833.142 1.995 1.268 2.438.443-.32-1.215-2.412-1.436-3.928-1.534zm16.617-5c1.197-.248 2.642 1.064 3.14 1.773l-.01-.018c.44.784.74 1.64.887 2.527s-.044 1.463-.887 1.543a3.84 3.84 0 01-1.268-.301c-.913-.195-2.12-.133-2.492-.887a7.43 7.43 0 01-.168-1.055c-.1-.35-.247-.682-.434-.993a1.82 1.82 0 01-.488-.887 2.66 2.66 0 011.72-1.702zm-18.857-.95l-.118.01a.267.267 0 00-.16.16c-.213.692.204 1.392.248 2.376-.066.65-.04 1.308.08 1.95.275.833 1.65.612 2.66.754.982.28 1.994.445 3.015.488l.044-.01c.55-.293.62-1.24.55-2.066a9.49 9.49 0 00-1.153-2.997c-.284-.08-.364.3-.63.38a3.91 3.91 0 01-1.108-.142c-.7-.07-1.694-.044-2.27-.177s-.78-.816-1.277-.718zm.334 1.073c.195-.364 1.02-.222 1.773-.133l2.172.284-.027.027c.39.16.72.432.958.78a5.03 5.03 0 01.142 2.66 1.09 1.09 0 01-.745-.567c.196-.7.026-1.45-.452-1.995-.922-.56-3.67.275-3.822-1.055zm-17.52-5.613c2.66-.266 5.78.248 8.397.098.273.37.458.798.54 1.25l.01-.018c0 .195-.053.434 0 .63.098.346.434.514.434.79.062.505-.408 1.303-.825 1.224a1.58 1.58 0 01-.541-1.153c.062-.443.62-.364.62-.745-.044-.594-1.126-.567-2.013-.656-.683-.07-1.844-.54-1.844.346-.027.523.656.514.594.993-.098.3-.514.115-.79.115-.922-.018-2.42-.168-2.58.674a4.95 4.95 0 00.231 1.162c.073.9-.04 1.806-.337 2.66h-.32a1.826 1.826 0 01-.177-1.162 8.46 8.46 0 00-1.694-4.247 2.89 2.89 0 01-.807-1.153 1.09 1.09 0 011.1-.807zm53.82-14.461a.46.46 0 01.532.044.96.96 0 01-.567.958c-.904.745-1.72 1.357-2.607 2.2-.54.567-1.206.93-1.773 1.454-1.658 1.525-3.494 2.935-5.063 4.61-1.03 1.108-2.234 2.022-3.28 3.112-.337.364-.585.825-.93 1.18-.585.594-1.26 1.09-1.827 1.71-1.09 1.144-2.18 2.403-3.387 3.547l-.01.027a4.426 4.426 0 01-1.933 1.454c.075-.472.337-.894.727-1.17.275-.337.408-.842.77-1.224s.85-.718 1.25-1.126c2.65-2.713 5.41-5.373 8.237-8.033.798-.754 1.56-1.507 2.34-2.305s1.71-1.4 2.51-2.146a66.564 66.564 0 015-4.292zM9.272 40.324a.378.378 0 01.257 0c.062.012.12.033.177.062l.275.142h.062c.816.328 2.208.95 2.323 1.002s.24.08.337.142a1.5 1.5 0 00.275.098l.56.248c.505.213.922.46 1.392.674l.3.15.124.07c.08.035.177.098.257.098l.718.346a12.98 12.98 0 011.977-.807c.222-.07.48-.106.718-.168h.257a6.72 6.72 0 011.17-.098 2.91 2.91 0 01.585 0c.1.018.21.078.275.168a.593.593 0 01-.133.24c-.115.16-.222.328-.355.488l-.09.09v.07c-.13.163-.27.314-.426.452l-.07.07-.248.222a2.74 2.74 0 01-.337.257l-.09.044-.204.124a1.56 1.56 0 00.301.089l.763.213.46.115.293.098c.1.022.198.052.293.09.09-.053 2.412.576 2.616.62l.08.07a.29.29 0 01-.07.195l-.09-.027h-.08l-.07.062h-.08a1.58 1.58 0 01-.355.089h-3.9c-.204-.018-.426-.053-.585-.07s-.32-.062-.47-.062a7.59 7.59 0 01-.887-.089h-.79a2.66 2.66 0 00-.426-.053c-.133.01-.275.062-.408.062-.408.053-.825.133-1.224.204l-.266.062a7.407 7.407 0 00-.798.115l.15.115.3.23.09.062a.39.39 0 01.098.204.27.27 0 01-.3.213h-.32a1.97 1.97 0 01-.355-.044 2.8 2.8 0 01-.887-.248.602.602 0 01-.257-.24h-.053a.985.985 0 00-.328.053l-.09.098h-.124a.966.966 0 01-.16-.09h-.177a.37.37 0 01-.3-.355v-.177h-.062a.263.263 0 01-.142-.053C10.69 46 10.62 46 10.55 46h-.124l-.186-.222a1.584 1.584 0 01-.656-.505l-.044-.09-.062-.07c-.044-.08-.053-.186-.106-.275a.143.143 0 01.115-.177.412.412 0 01.266-.07h.293c.195.044.364.115.56.168l.56.168.15.044v-.434l.062-.213c.07-.2.157-.414.257-.612l.062-.053.124-.062h.106a.56.56 0 01.213.186.5.5 0 01.142.38c.027.177.124.372.124.55.01.128.04.254.09.372.103-.024.2-.063.293-.115l.842-.408a1.642 1.642 0 00-.355-.32 3.884 3.884 0 00-.47-.408c-.16-.142-.32-.266-.488-.4s-.346-.293-.488-.4-.248-.24-.417-.355-.346-.266-.488-.38-.204-.15-.434-.355-.488-.408-.736-.612l.027-.035a2.33 2.33 0 01-.62-.62.274.274 0 010-.284zm48.166 6.19c-.124-1.082 1.782-.142 2.536-.195v.027c.227-.117.48-.175.736-.168a1.34 1.34 0 01-.94.887c-.213.018-.514-.15-.745-.15-.638-.01-1.516.248-1.587-.4zM91.3 36.246c.1-.04.21-.04.3 0a.78.78 0 01.222.009l.328.177.07.053a46.05 46.05 0 012.829 1.268 3.74 3.74 0 01.408.177c.082.06.168.113.257.16l.665.3c.55.3 1.1.612 1.658.887l.372.195.15.09c.098.044.213.07.3.124l-.07.01.887.434c.753-.406 1.54-.747 2.35-1.02.293-.09.603-.142.887-.213h.204l.124-.186c.462-.085.93-.127 1.4-.124a3.21 3.21 0 01.7 0c.133.024.252.1.328.213a.77.77 0 01-.098.284c-.142.204-.266.426-.426.62l-.106.106-.044.09a4.448 4.448 0 01-.514.54l-.09.09-.293.275c-.125.12-.258.23-.4.328l-.106.062-.248.16c.117.047.24.083.364.106l.887.266.55.142.346.115a2.18 2.18 0 01.346.106c.098 0 2.873.798 3.12.887l.09.09a.344.344 0 01-.08.248l-.09.062-.098.053-.08.07h-.098c-.137.056-.28.095-.426.115h-.426c-.168.044-.364 0-.54 0h-3.04l-.257-.053c-.124 0-.16.027-.4 0l-.692-.09c-.186-.018-.372-.08-.56-.08a8.16 8.16 0 01-1.073-.115h-.94a3.18 3.18 0 00-.505-.07c-.16.018-.32.08-.488.08-.497.07-.984.168-1.463.257l-.32.07c-.3.05-.595.114-.887.195.052.058.112.11.177.15l.372.293.106.08a.49.49 0 01.115.257v.044a.337.337 0 01-.372.266h-.4a2.28 2.28 0 01-.426-.062 3.2 3.2 0 01-1.064-.319h-.044a.67.67 0 01-.3-.3l-.027-.062a1.139 1.139 0 00-.4.062.6.6 0 01-.106.124.7.7 0 01-.151 0 1.15 1.15 0 01-.186-.115h-.213a.47.47 0 01-.364-.452v-.222h-.07a.3.3 0 01-.168-.071c-.08-.07-.168-.07-.248-.07l-.15-.08h-.204a1.92 1.92 0 01-.833-.727v-.044l-.053-.115.08-.053c-.044-.115-.062-.24-.124-.355a.186.186 0 01.133-.222.47.47 0 01.319-.089h.248c.24.053.452.142.674.213s.434.124.665.213c.057.026.116.047.177.062v-.54c.018-.098.07-.186.07-.275a5.78 5.78 0 01.301-.771l.07-.062a.25.25 0 01.15-.07h.098c.1.055.186.134.248.23.12.13.185.302.177.48.035.222.106.46.15.692a1.57 1.57 0 00.098.47c.123-.03.24-.082.346-.15l1.002-.514a1.94 1.94 0 00-.426-.399 4.55 4.55 0 00-.559-.523c-.186-.177-.38-.337-.576-.505s-.408-.372-.576-.505-.3-.3-.497-.452-.408-.346-.576-.488-.24-.186-.523-.452-.594-.523-.887-.78a2.83 2.83 0 01-.745-.789.363.363 0 010-.4zm-36.713 6.99c.235-.2.57-.23.837-.073l-.01.027a4.29 4.29 0 011.029 1.463c-.656.328-1.942.027-2.066-.603a.743.743 0 01.21-.814zM43.95 41.7c.674-1.188 2.376-.142 2.234.975a.69.69 0 01-1.046.488c-.718.177.124.878-.195 1.215-.55.062-.48-1.197-.656-1.525a1.604 1.604 0 01-.337-1.162zm.75-4.774l.147.004c.763.044 1.702.32 2.59.4.38.56.266 1.34.612 1.995a5.96 5.96 0 001.507 2.039 1.063 1.063 0 001.312-.337c.186-.842-.56-1.48-.56-2.1.134-.433.43-.798.825-1.02a4.87 4.87 0 012.226.39l.018.018c-.443 1.428.4 2.43.94 3.316-.372 1.312-2.093.372-3.272.257s-2.385-.07-2.953.674c.532 1.18 3.077.372 4.08 1.108-.24.452-.47.115-.79.115a7.82 7.82 0 00-1.321 0c-.727.07-1.5.514-2.057.4-.878-.177-.683-2.075-1.144-2.837a11.1 11.1 0 00-1.286-1.197 16.69 16.69 0 01-1.348-1.986c-.38-.567-.612-1.286.62-1.224zm11.523 2a7.834 7.834 0 011.72 2.057c.505.647 1.65 1.65.825 2.155h.044a1.776 1.776 0 01-.887-.15 7.075 7.075 0 01-2.208-2.625c-.38-.745-.213-1.03.505-1.436zm-1.197 1.516a1.31 1.31 0 01.594.78c-.408.364-.77-.38-.594-.78zm-5.338-.85a.72.72 0 01.381 1.108 2.21 2.21 0 01-.39-1.082zm12.76-8.23a2.05 2.05 0 01-.825 1.224L55.168 39.1l-.01-.01c-.308.425-.724.76-1.206.967a1.97 1.97 0 01.887-1.17c2.323-2.483 4.903-4.992 7.342-7.44a.427.427 0 00.106-.106zm-5.613-2.394c.612-.23 1.623-.204 1.277.567-.434.035-.328-.523-.692-.523-.612.328.053.754.275 1.002-2.1 2.456-4.558 4.655-6.712 7.094-.346.4-.683.833-1.037 1.233a2.07 2.07 0 01-1.259.878c.137-.528.47-.985.93-1.277 2.51-2.438 4.948-5.17 7.395-7.76a1.07 1.07 0 01-.177-1.215zm5.817.7c.065.107.136.21.213.3a.8.8 0 01-.523.222c-.053.514.514.32.745.514a.885.885 0 01-.364.638l.01.01c-.727-.16-1.507-1.596-.08-1.694zM91.1 21.565l.07.01c.116.03.2.114.254.225.133.488-.842 1.162-1.197 1.5-.904.85-1.853 1.56-2.82 2.518-.443.452-1.42 1.72-1.986.77.15-.364.456-.64.833-.754a20.448 20.448 0 001.924-1.88l1.357-1.126c.47-.4.878-.87 1.303-1.18a.369.369 0 01.33-.074zm1.45-2.743a23.31 23.31 0 013.068.275v.372c-.532.257-1.25.248-1.42.816.098.46.532.532 1.117.46.434.177.3.878.754.94.48-.083.845-.48.887-.967.01-.692-.745-.896-1.02-1.25a.8.8 0 01.887-.115c.922.186 1.79.514 1.924 1.4.123.63-.165 1.27-.718 1.596-.816.4-1.676-.098-2.43-.23h-.585l-.044.018c-.958-.09-2.89-.505-3.086-1.543-.09-.488.044-1.773.665-1.773z"/></svg>