<svg xmlns="http://www.w3.org/2000/svg" viewBox="0 0 128 96"><path fill="#fff" d="M120.447 41.18a.29.29 0 01.27.27c-.135.674-.135 1.214-.135 1.753 0 1.484.405 2.832 1.214 3.91l.468.555c1.53 1.862 2.756 3.835 3.983 5.92 1.08 2.023 1.753 4.18 1.753 6.474 0 .674 0 1.35-.135 2.023-.27 1.484-.674 2.832-1.35 4.18.27.944.405 1.888.405 2.832 0 .674-.135 1.484-.27 2.158-.54 2.698-1.753 5.26-3.642 7.283l-.27.135-.674-.135c-.135 0-.27 0-.27-.135l.135-.27c1.484-1.753 2.563-3.91 3.102-6.204.135-.674.27-1.484.27-2.293 0-1.214-.405-2.293-.944-3.237-.81-1.484-2.023-2.698-3.237-3.777l-3.507-3.237-3.507 18.21c-.405 2.158-1.888 3.91-3.91 4.72a9.84 9.84 0 01-4.721 1.214h-.18c-.378-.002-.84-.02-1.302-.134-1.214-.27-2.293-.81-3.102-1.753-.674-.674-.944-1.484-.944-2.428 0-.27.135-.54.135-.81.405-1.888 2.023-3.507 3.91-4.45 1.484-.81 3.102-1.35 4.856-1.35l.202.001c.337.003.674.022 1.012.134 1.08.135 2.158.674 3.102 1.35l6.204-32.506v-.135h.27zM49.905 28.77c.135 0 .27.135-.135.135 0 2.158.81 4.18 2.293 5.665 2.023 1.753 4.046 3.642 5.8 5.8 2.023 2.428 3.102 5.395 3.237 8.497v.135l-.005.495c-.028 1.32-.175 2.638-.534 3.956a11.45 11.45 0 011.214 5.125v.135c0 2.832-.81 5.8-2.293 8.228l-.27.135h-.867c-.113-.002-.212-.02-.212-.134v-.27c1.214-2.023 1.888-4.316 2.023-6.744v-.27c-.135-2.428-.27-3.777-1.753-5.665-1.214-1.214-2.698-2.293-4.18-3.237l-4.316-2.698v19.557c-.135 2.293-1.35 4.45-3.237 5.665-1.888 1.484-4.046 2.293-6.34 2.293l-.287-.006c-1.234-.054-2.343-.456-3.22-1.208-.944-.674-1.484-1.888-1.484-3.102.135-2.023 1.484-3.91 3.237-5.395s3.91-2.293 6.07-2.428h.405c1.214 0 2.293.27 3.237.81V29.175l.135-.27.27-.135zm69.463 21.446v.81c0 2.563.944 5.125 2.428 7.15a36.42 36.42 0 013.642 5.26c.135.27.27.674.405.944.135-.674.27-1.35.27-2.023l.057-.192c.078-.306.078-.55.078-.887-.135-1.888-.674-3.642-1.62-5.125-1.35-2.158-3.237-4.18-5.26-5.935zm-7.823-37.766l.405.135 1.35 31.022c-.135 2.967-2.967 5.8-7.014 6.744l-.462.067c-.756.11-1.45.203-2.235.203h-.27c-1.484 0-2.967-.405-4.316-1.08-1.08-.674-2.023-1.753-2.293-2.967-.135-.27-.135-.674-.135-.944.135-2.967 2.967-5.8 7.014-6.744.944-.135 1.753-.27 2.698-.27h.135c1.753 0 3.372.405 4.72 1.35l-.81-19.018c-5.665 3.642-16.725 6.474-22.12 7.418l.944 22.795c-.135 2.967-2.967 5.8-7.014 6.744-.944.135-1.753.27-2.698.27h-.27c-1.484 0-2.967-.405-4.316-1.08-1.214-.674-2.023-1.753-2.428-3.102-.135-.27-.135-.674-.135-.944.135-2.967 2.967-5.8 7.014-6.744.944-.135 1.753-.27 2.698-.27h.135c1.753 0 3.372.405 4.72 1.35l-1.08-26.166a.29.29 0 01.27-.27c8.902-1.484 15.24-3.777 25.222-8.497h.27zm-77.42 21.985l.27.135v.27l-5.8 20.232c-.54 1.753-2.698 2.967-5.26 2.967h-.81a7.683 7.683 0 01-3.777-1.484c-.944-.674-1.62-1.753-1.62-2.967v-.27c.135-1.08.81-2.023 1.753-2.563 1.08-.54 2.293-.944 3.507-.944h.944c1.753.135 3.372.81 4.586 2.158l3.507-12.004c-2.023.405-4.046.674-6.07.674h-.54c-3.102 0-6.07-.27-9.037-.674l-4.316 14.702c-.54 1.753-2.698 2.967-5.26 2.967h-.81a7.683 7.683 0 01-3.777-1.484C.674 55.476 0 54.397 0 53.183v-.27c.135-1.08.81-2.023 1.753-2.563 1.08-.54 2.293-.944 3.507-.944h.944c1.753.135 3.372.81 4.586 2.158l4.856-16.86a.29.29 0 01.27-.27l.944.13c2.52.332 5.05.545 7.688.545h1.074c2.854-.052 5.625-.305 8.502-.665zm16.05 3.642c.54 3.102 1.888 5.8 4.18 7.823 1.62 1.35 3.237 2.967 4.72 4.72.27.405.405.674.674.944v-2.023c-.135-2.428-1.214-4.316-2.832-6.204-1.888-2.158-4.18-3.91-6.744-5.26z"/></svg>