<svg xmlns="http://www.w3.org/2000/svg" viewBox="0 0 128 96"><path fill="#fff" d="M83.824 44.356c.774-.037 1.594-.112 1.948.447.135.35.205.724.205 1.1l.205 1.1a10.25 10.25 0 01-.084 2.349c-.028.522.12 1.212.12 1.864V53.2c.02.624.112 1.24.158 1.864-.012.625.04 1.25.158 1.864.363.895 2.125 1.25 3.16 1.584 1.845.597 3.57.774 4.502 2.07 1.025-.932 2.768.103 3.253 1.118.324 1.005.555 2.038.7 3.085.056.345.205.55.28.932s.093.792.158 1.174a7.03 7.03 0 01-.084 2.47 7.15 7.15 0 00-.205 1.1c.027.232.067.462.12.7 0 .447-.056.997 0 1.538.14 1.314.4 2.796 0 3.728a1.8 1.8 0 01-1.016.932c-.97.168-1.277-.606-1.985-.606-.42.643-.13 1.417-.205 2.228a6.19 6.19 0 01-.28 1.296c-.214.41-.376.846-.485 1.296-.12 1.174.336 2.703 1.053 3.038.95.447 2.088.28 3.16.57a6.96 6.96 0 012.638 1.379l-.084.02a3.14 3.14 0 011.296 2.069c.114.853.002 1.72-.326 2.517-1.323 2.843-4.92 4.623-7.577 5.9a34.82 34.82 0 01-6.58 2.358 75.396 75.396 0 01-8.258 1.426l-8.127.932c-4.334.447-8.864.606-13.468.932-1.976.14-4.054-.084-6.086-.084h-6.086c-.606-.02-1.24-.205-1.864-.205l-5.592-.447c-1.64-.186-3.355-.643-4.95-.932-.57-.103-1.053-.13-1.66-.28s-1.277-.475-1.948-.727a19.75 19.75 0 01-3.616-1.696c-.597-.336-1.23-.624-1.66-.932a8.11 8.11 0 01-2.228-2.88 6.43 6.43 0 01.41-3.607v-.084a12.33 12.33 0 01.932-1.342 8.139 8.139 0 014.54-3.066c.68-.214 1.25-.54 1.948-.81s1.463-.298 2.153-.57c.485-.186 1.706-.774 1.78-1.417.112-.932-.792-1.212-1.1-1.864a25.305 25.305 0 01-.158-2.964c.037-.904.7-2.45-.242-2.917a2.87 2.87 0 00-1.379-.158 2.99 2.99 0 01-1.379-.158 2.47 2.47 0 01-.671-2.824c.214-.232.416-.474.606-.727a4.22 4.22 0 00-.084-1.659 11.616 11.616 0 00-.848-1.342c-.12-.214-.233-.485-.363-.727a6.46 6.46 0 01-.774-1.864 3 3 0 010-.652c.056-1.072.447-2.246 1.38-2.6.7-.26 3.365-.354 3.486.447a.786.786 0 010 .168c-.037.53-.7.615-1.1.848l-.196.13a2.45 2.45 0 00-.82 2.47 4.93 4.93 0 00.69 1.417l.13.214.27.438.093.12c.142.143.26.306.354.485.117.445.088.915-.084 1.342-.37.41-.763.803-1.174 1.174-.382.615-.39 1.8.326 1.948 1.734 0 2.49-.98 2.433-2.796a1.37 1.37 0 011.137-.932c.637.138 1.14.626 1.296 1.258.224.876-.373 2.172.57 2.31s1.118-.932 2.31-.652c1.584.68-.513 3.076.485 4.297a1.35 1.35 0 002.19-.242c.447-1.305-.98-3.374.447-3.98.487.39.746 1 .7 1.622a9.61 9.61 0 010 2.228 3.81 3.81 0 01-.848 1.706c-.63.53-1.383.893-2.2 1.053-.792.13-1.547-.028-1.864.606a1.62 1.62 0 00.242 1.659c.67.597 2.675.28 3.607.28h-.075l.6.084c.81.125 1.615.297 2.406.516l.59.173c.544.157 1.074.36 1.584.606.497.3 1.05.47 1.622.53.736 0 1.687-.56 2.517-.205.446.18.735.618.727 1.1-.047.57-.67.913-1.864.774-.252-.037-.56-.205-.932-.205-.884.018-1.767-.05-2.638-.205-.718-.242-1.37-1.016-2.47-1.016-.345-.01-.792.084-1.22.084-.932 0-2.256-.205-2.796.447s-.4 2.45-.12 3.57a6 6 0 001.743 2.722c.91.546 1.94.866 3 .932a23.83 23.83 0 003.532.401l12.62-.158a29.04 29.04 0 004.865-.326c2.134-.345 4.4.158 6.524.158 4.246-.03 8.486-.325 12.694-.885a14.51 14.51 0 004.66-1.221c1.277-.68 2.48-.84 3.41-1.864a4.66 4.66 0 00.932-2.88c.065-1.137-.214-2.07-.932-2.395-.6-.2-1.23-.296-1.864-.28a8.65 8.65 0 00-2.6.158c-.57.177-1.035.57-1.584.774-.54.262-1.093.492-1.66.7a7.92 7.92 0 01-1.463 0 5.955 5.955 0 00-1.78.447 6.126 6.126 0 01-1.622.57 12.76 12.76 0 01-1.501-.242h-.727a12.35 12.35 0 00-1.584-.447c-.95 0-1.743.792-2.675.932a15.76 15.76 0 01-2.638-.084c-.895-.075-1.743 0-2.675 0a11.858 11.858 0 00-2.554.084c-.578.065-1.8.718-1.948 0-.103-.513.643-.913 1.137-1.137a4.322 4.322 0 011.864-.447 15.12 15.12 0 011.622.158 29.35 29.35 0 004.297 0 5.77 5.77 0 001.706-.447c.736-.28 1.407-.913 2.517-.81.83.075 1.417.578 2.35.485.615-.065 1.314-.485 2.07-.57h.932a15.19 15.19 0 003.411-.531c.606-.205 1.035-.94 1.864-1.137 1.94-.447 5.36.494 5.797-1.296.042-.69.042-1.38 0-2.07.037-.53.186-1.11.28-1.66.15-.895.4-1.678 0-2.35-.373-.084-.756-.112-1.137-.084a4.438 4.438 0 00-1.296-.447c-.94.13-.382 1.417-.485 2.433-.028.326-.205.652-.205.932v.774a4.598 4.598 0 01-.363.848c-.382.447-.904.447-1.743.447a5.46 5.46 0 01-.932 0c-.513-.093-.634-.513-1.22-.7-.4-.592-.752-1.216-1.053-1.864a1.603 1.603 0 00-.932-1.016c-.513-.037-1.193.597-1.8.652s-1.296-.112-1.864 0a3.73 3.73 0 00-1.1.652c-.485 1.407-.587 3.048-1.78 3.896a6.06 6.06 0 01-.932.41 2.36 2.36 0 01-1.743.41 2.72 2.72 0 01-1.221-.932 6.16 6.16 0 01-.69-1.78 3.215 3.215 0 00-1.38-1.38 7.95 7.95 0 01-1.221-.606 5.89 5.89 0 01-.531-.932c-.065-.093-.233-.214-.326-.363a.788.788 0 00-.242-.447c-.4-.14-1.08.597-1.22.848-.606 1.08-.857 4.297-2.88 4.222a2.928 2.928 0 01-1.743-.81c-.4-.326-.774-1.016-1.22-1.1s-.82.42-1.38.326-.643-1.007-.727-1.66a10.8 10.8 0 01-.205-2.153 1.986 1.986 0 011.174-.932c.7-.317 1.612-.802 2.31-.205.293.328.48.738.53 1.174.065.513-.075 1.035 0 1.538a1.418 1.418 0 002.722.327c.073-.225.126-.456.158-.7a3.96 3.96 0 010-.932c.214-.662 1.007-.81 1.78-1.053a6.355 6.355 0 011.463-.53c.867.01 1.23 1.007 1.948 1.463.458.194.906.412 1.342.652.736.652.96 2.302 2.554 2.2a1.8 1.8 0 001.379-1.174 7.66 7.66 0 000-1.538 2.64 2.64 0 011.706-2.517 2.71 2.71 0 011.659-.363c.606.103.913.652 1.538.652.83.028 1.63-.997 2.88-.447s.485 3.206 2.35 3.206a1.81 1.81 0 001.501-1.221c.28-.885-.438-2.293-.084-3.122a1.12 1.12 0 011.296-.606c.904.13 1.296 1.053 2.228 1.538.4.214.867.29 1.174.447.53.27.848.913 1.463.848.83-.084.606-1.11.4-1.78a10.38 10.38 0 01-.28-4.586 10.69 10.69 0 00.41-2.153 6.916 6.916 0 00-1.174-2.796 2.3 2.3 0 00-.326 1.016 3.377 3.377 0 00-.447.7c-.12.238-.253.468-.4.7a4.23 4.23 0 01-1.333.708c-.447.196-.97.382-1.38.57-.983.365-1.985.676-3 .932-.867.28-1.724.83-2.6 1.137-.81.25-1.636.45-2.47.606a18.11 18.11 0 01-2.796.205c-.298.02-.606.12-.932.12a10.25 10.25 0 00-1.053 0c-.38.095-.75.233-1.1.4-.363.15-.727.27-1.053.4a7.27 7.27 0 01-2.153.774c-1.016.065-2.106-.57-3.038-.57-.587-.02-1.24.12-1.864.12a13.58 13.58 0 00-3.449.531c-.55.177-1.156.158-1.622.326a2.687 2.687 0 01-1.743.485c-.317-.056-.597-.308-.932-.363a24.732 24.732 0 00-3.57 0 35.12 35.12 0 01-4.054-.158c-.615-.15-1.305-.913-1.985-1.016-.81-.158-1.64-.075-2.675-.158-.755-.056-2.153.196-2.153-.57-.056-.997 1.603-.652 2.395-.652a25.49 25.49 0 013.206-.326 6.58 6.58 0 011.463.326c.436.205.9.34 1.38.4.376-.1.733-.264 1.053-.485a6.24 6.24 0 011.258-.326 9.789 9.789 0 012.964-.084c.96.28 1.947.456 2.945.522.447-.02.82-.242 1.258-.242s.857.158 1.296.158c1.995.158 3.532-.988 5.313-.932.764.02 1.557.42 2.395.485.83.073 1.664.003 2.47-.205a10.87 10.87 0 001.221-.569c1.166-.3 2.366-.45 3.57-.447 1.296-.03 2.58-.25 3.812-.652.494-.196.95-.513 1.5-.727.755-.298 1.594-.27 2.35-.53s1.473-.718 2.228-1.016a4.49 4.49 0 002.106-1.137 1.476 1.476 0 00-.848-.774 6.85 6.85 0 00-.932-.652 3.01 3.01 0 00-1.174-.326c-.235.05-.465.12-.7.205-.27.04-.542.04-.81 0-.466-.056-.895-.662-1.463-.485s.14 2.237-.848 2.106c-.485-.065-.54-1.827-.485-2.6.02-.28.12-.55.12-.774a8.33 8.33 0 00-.158-1.137c-.13-.932-.345-1.864-.4-2.796A32.21 32.21 0 0185 50.089c.028-.26.158-.513.158-.774A7.24 7.24 0 0085 47.451a1.36 1.36 0 00-2.274-.848c-1.063.727-.466 2.31-.326 3.812.056.587-.065 1.1 0 1.584s.475 1.118.53 1.538c.158 1.268-.43 2.6-.485 3.85a9.32 9.32 0 00.326 1.706c-.005.625.048 1.25.158 1.864.308.913 1.268 1.165 1.1 2.31-.587 1.296-2.367.494-2.638-.57-.186-.727.242-1.473.242-2.35a2.07 2.07 0 00-2.675-2.069 2.34 2.34 0 00-.811.41c-.643.363-2.023.57-2.153 1.5.02.353.06.705.12 1.053a7.767 7.767 0 01-.12 1.053c-.093.84.14 1.762-.7 1.985a.86.86 0 01-.326-.112c-.606-.345-.503-1.538-.485-2.283s.13-1.445.084-2.153a14.277 14.277 0 01-.242-1.66c.037-.336.096-.67.177-.997a3.54 3.54 0 00.065-.503 17.322 17.322 0 00-.205-2.35c-.12-.84 0-1.64 0-2.433 0-.363-.196-.7-.242-1.174-.065-.652.13-1.5-.363-1.584-.727-.112-.84 1.286-.727 2.395a13.14 13.14 0 01.363 2.675c-.047.718-.28 1.407-.28 2.106a4 4 0 00.13.867 5.59 5.59 0 01.149.708c.056.57-.084 1.258-.084 1.864s.056 1.314 0 1.864-.317 2.07-.81 2.07c-.97.075-.57-2.265-.57-3 0-.615.047-1.212 0-1.864s-.242-1.128-.242-1.584v-.186a18.08 18.08 0 00.084-2.125c-.047-.43-.326-.885-.326-1.258s.047-.7 0-1.174-.27-.923-.326-1.417a13.83 13.83 0 01-.084-1.463 5.51 5.51 0 01.363-2.228c.81-1.64 3.756-1.65 4.054.57.065.513-.01 1.286 0 1.743s.158.876.158 1.174c.01.522-.158 1.11-.158 1.706.02.556.074 1.1.158 1.66a4.09 4.09 0 00.121 1.296c.438 1.016 1.482.923 2.917 1.016 1.072.075 1.855.177 2.35-.28.867-.81.12-2.34.12-3.607-.01-.354.13-.783.12-1.053s-.12-.53-.12-.774v-.727c-.084-1.035-.56-2.004-.606-3.16a3.46 3.46 0 011.417-2.069 3.765 3.765 0 011.864-.4zm12.43 42.167l-.268.008c-1.156.196-.764 1.146-1.1 2.153-.096.27-.218.528-.363.774a6.583 6.583 0 01-2.638 2.31c-.888.364-1.797.676-2.722.932-.983.29-1.986.51-3 .652a31.79 31.79 0 01-3.243.41c-1.137.075-2.228.326-3.3.4-2.32.168-4.483.28-6.98.28-1.08 0-2.144.093-3.206.158-1.855.075-3.765-.12-5.434 0s-3.085.708-4.66.848a6.71 6.71 0 01-3.98.447 8.039 8.039 0 01-.774-.28c-.4-.103-.81-.156-1.22-.158a17 17 0 00-1.985.652h-1.1A5.65 5.65 0 0148.342 96c-.28-.056-.615-.084-.848-.158a4.77 4.77 0 00-1.258-.606 3.59 3.59 0 00-1.501.652c-.457.233-1.23.43-1.174 1.016 0 .363 1.296.932 1.864 1.137.363.13.736.224 1.1.326a10.84 10.84 0 001.137.28c.727.103 1.566.065 2.31.158 1.8.224 3.514.466 5.313.606 1.38.084 2.824 0 4.222.084 2.258.098 4.52.07 6.776-.084h1.743c4.26-.326 8.52-.522 12.778-1.258.83-.15 1.66-.158 2.433-.326 2.33-.513 4.548-1.035 6.85-1.743.976-.258 1.938-.57 2.88-.932 2.395-1.035 5.74-2.162 7.456-4.26l.028.056c.35-.37.613-.813.774-1.296a2.46 2.46 0 00-.531-1.174 5.201 5.201 0 00-1.463-.932c-.536-.304-1.1-.574-1.66-.81a4.168 4.168 0 00-1.584-.205zM38.05 94.826h-1.5a.58.58 0 00-.606.485c0 .57 1.314.7 2.032.7v.047c.53-.02 1.817-.42 1.78-.774s-1.212-.447-1.706-.447zm-4.26-3.486c.112-.727-.764-.82-1.296-.774s-2.35.27-2.35.81c0 .736 1.91.643 2.796.53a.93.93 0 00.932-.569zm10.19-17.625c.438-.913 1.296.01 1.66.4a2.36 2.36 0 01.811 1.137c.186.867-.177 1.603.084 2.35a1.61 1.61 0 001.379.932 1.39 1.39 0 001.379-.848c.242-.904-.438-1.827-.28-2.88a1.454 1.454 0 012.106-1.175c.652.308.913 1.137 1.78 1.174s1.38-1.025 2.31-1.174a2.09 2.09 0 012.563 1.752c.047 1.37-1.8 2.21-1.053 3.45.304.365.747.585 1.22.606.802.084 1.426-.047 1.538.53.196 1.053-1.435 1.323-2.47 1.463-.55.13-1.113.2-1.678.205a4.36 4.36 0 01-1.258-.41 2.156 2.156 0 01-.848-1.538c-.01-.98 1.25-1.883.606-3-1.417-.158-1.557.923-2.274 1.706-.12.12-.298.15-.4.28s-.13.298-.242.4a4.22 4.22 0 01-1.296.932 6.27 6.27 0 01-1.78.158 3.16 3.16 0 01-1.948-.158l.01.028c-.988-.624-1.174-2.35-1.5-3.654a9.08 9.08 0 01-.41-2.675zm-.326-28.576c.81-.037 2.023.112 2.395.652s-.075 1.575-.158 2.35c-.04.54-.04 1.082 0 1.622.028.53.205.997.205 1.463.12 1.706-.14 3.467 0 5.033.112 1.35.7 1.9 2.228 1.66.76.022 1.47-.366 1.864-1.016.326-.68 0-1.49 0-2.274a5.59 5.59 0 01.121-.727c.065-.876-.093-1.827 0-2.638a9.619 9.619 0 00.177-2.358c.3-.71 1.01-1.163 1.78-1.137 1.128-.056 2.125.28 2.274 1.258a8.39 8.39 0 01-.084 1.584c-.056.54-.242 1.072-.242 1.584a12.36 12.36 0 00.158 2.544c.103.792.037 1.538.57 1.66.29.004.572-.08.81-.242a5.89 5.89 0 012.47-.242 18.95 18.95 0 002.106.41 1.53 1.53 0 001.1-.326 2.44 2.44 0 00-.084-1.174c0-.4.056-.783 0-1.174-.12-.792-.494-1.49-.57-2.032a3.05 3.05 0 010-.727 2.35 2.35 0 013.57-1.706c1.193.67 1.08 2.05 1.417 3.728.242 1.174.373 2.507 1.1 2.964a6.604 6.604 0 001.743.447c.606.075 1.8-.075 1.94.587a.704.704 0 010 .065c-.054.29-.23.54-.485.7a2.146 2.146 0 01-.57.57c-.205.103-.56.103-.81.205l-.12.065a4.66 4.66 0 01-.531.419c-.233.13-.615.252-.848.363-.296.088-.58.2-.848.363-.14.322-.223.666-.242 1.016a25.267 25.267 0 000 2.964c0 1.137.047 2.423-.652 2.796a3.73 3.73 0 01-2.554 0c-1.146-.54-1.053-2.246-1.053-3.98 0-1.407.242-3-.606-3.57a5.24 5.24 0 00-2.2-.4c-.39-.028-.774-.205-1.053-.205a9.21 9.21 0 00-1.584.205 2.89 2.89 0 00-2.069 1.342 7.4 7.4 0 00.121 1.706c-.038.26-.094.52-.168.774-.13 1.202.252 3.43-.57 3.728a3.608 3.608 0 01-2.153-.606 2.385 2.385 0 01-1.258-1.948V61.62a4.35 4.35 0 00-.158-1.743 2.557 2.557 0 00-1.622-.205 2.939 2.939 0 00-1.65 1.212c-.302.26-.55.576-.727.932.068.58.068 1.164 0 1.743 0 .615.27 1.323-.242 1.66-.624.12-1.27.064-1.864-.158a3.73 3.73 0 01-2.069-2.274c-.205-.81.112-1.268-.326-1.864a2.989 2.989 0 00-.932-.7h-.4a2.678 2.678 0 00-1.622.205 4.13 4.13 0 00-1.1.531 7.267 7.267 0 00-.7.848 4.41 4.41 0 00-.531.932c-.067.337-.09.682-.065 1.025.012.216.04.43.084.643.017.094.04.188.065.28.258.456.57.88.932 1.258.934.42 1.913.733 2.917.932.457 0 .95-.065 1.5 0 .885.093 2.293.867 2.106 1.743s-1.94.205-2.722.084c-1.128-.177-1.985-.494-2.917-.7-.634-.126-1.257-.3-1.864-.522a6.17 6.17 0 01-.82-.373 5.59 5.59 0 01-1.976-1.864 3.618 3.618 0 01-.308-1.612 4.578 4.578 0 01.84-2.843c.96-1.007 2.48-1.333 4.343-1.743 1.22-.233 3.365-.55 3.486-1.864a11 11 0 00-.326-1.659c-.14-1.174.26-2.74.158-4.176-.028-.438-.158-.867-.158-1.258-.01-.81.158-1.584.158-2.35a2.917 2.917 0 010-1.22 2.135 2.135 0 011.864-1.38zM63.36 51h-.126c-1.407.28-.7 2.59-.57 4.008v.774c.037.475.233 1.035.28 1.66s-.056 1.39 0 1.985c.037.354.242.83.242 1.22.12 1.454-.438 3.85.774 3.85 1.016-.037.53-2.2.652-3.57a9.63 9.63 0 00.158-1.78c-.056-.578-.326-1.1-.326-1.706s.27-1.128.326-1.78c.022-.963-.03-1.926-.158-2.88a4.36 4.36 0 00-.084-1.053 1.22 1.22 0 00-1.296-.727zm-10.853-1.232l-.12.004c-1.268.112-.7 2.116-.7 3.41-.01.457-.084.802-.084 1.174a8.39 8.39 0 01.158 1.864c-.028.28-.205.57-.205.848l.01.02c-.177 1.23.075 2.47 0 3.57-.02.29-.12.578-.12.848 0 .727.475 1.584.932 1.538s.774-1.22.848-1.985c.075-1.156 0-2.395 0-3.607 0-.55-.12-1.128-.12-1.706.01-.42.12-.81.12-1.22v-1.342c.084-1.407.42-3.523-.848-3.41zm-7.8-.444c-.065-.97.28-2.33-.81-2.07l.037-.02c-.746.168-.923 1.93-.848 2.964l.158 1.864c.037.354.205.7.205 1.016a11.76 11.76 0 010 1.706 13.59 13.59 0 00-.242 1.379V57.3c.103 1.24.55 2.423.652 3.41.056.578.112 1.23.606 1.174s.363-.885.363-1.538a35.55 35.55 0 00.363-4.539c-.047-.587-.242-1.202-.242-1.864-.056-.98.075-1.957 0-2.964-.037-.475-.242-.997-.242-1.66zM96.63 50.6c.746-.13 2.74-.02 2.675.727-.037.57-.857.475-1.66.57l.037.01c-.7.075-1.864.28-1.864-.652a.79.79 0 01.811-.652zm-2.87-3.327a5.73 5.73 0 011.622.121h1.258c.643.047 1.286.186 1.948.242.97.075 2.07.084 3 .158.7.084 1.5-.02 2.106.084s1.24.233 1.864.28h1.053c.57.047 1.156.242 1.78.326 1.147.104 2.287.282 3.41.53h.047c.26.075 1.11.27 1.1.7s-1.063.4-1.66.363c-1.11-.093-3.7-.466-5.397-.652a93.851 93.851 0 00-3.327-.28c-.485-.028-.96-.158-1.417-.158-.885-.056-1.706.065-2.638 0-.736-.056-1.575-.326-2.35-.326-.447.01-.867.158-1.258.158-.7 0-1.622-.382-1.622-.932a.607.607 0 01.485-.606zm-72.81.242c1.146-.056 3.644-.242 3.85.7a.784.784 0 01-.53.932h-.97c-1.165-.12-3.784-.7-2.35-1.622zM63.53 36.63a.99.99 0 01.778.093 4.895 4.895 0 012.2 2.554c.092.495.145.997.158 1.5.07.77.07 1.543 0 2.31-.072.29-.165.573-.28.848-.196.615-.447 1.94-1.296 1.78a.599.599 0 01-.4-.7 1.88 1.88 0 01.12-.643c.093-.224.214-.485.308-.764.07-.2.117-.405.14-.615v-.727a8.9 8.9 0 00.158-1.258 1.02 1.02 0 00-.764-.98c-.764-.056-1.22.904-1.463 1.417a4.36 4.36 0 00-.69 3.122c.093.298.317.708.447 1.08a1.63 1.63 0 01.084.336c.033.13.007.27-.072.38s-.203.18-.338.188l.047-.02c-.81.205-1.64-1.1-1.743-1.66-.513-2.49 1.35-3.383 1.864-5.35a9.2 9.2 0 00.158-2.395.99.99 0 01.601-.503zm32.943 8.174c.55-.12 1.8-.093 1.66.7-.14.774-2.228.774-2.228-.158a.55.55 0 01.569-.531zm-44.45-10.085c.7-.15 1.314.96 1.622 1.38a9.21 9.21 0 011.053 1.864 10.25 10.25 0 01.28 3.812c-.12 1.547-.81 3.16-2.228 3.243-1.883.103-2.927-1.305-2.6-3.532a7.27 7.27 0 01.28-1.342l.01.01c.438-1.174 1.146-1.715 1.22-2.917.047-.727-.615-2.31.363-2.517zm20.18.233a2.61 2.61 0 011.948.531 3.97 3.97 0 011.137.69 5.59 5.59 0 011.1 3.243 8.399 8.399 0 01-.57 2.554 5.04 5.04 0 01-1.053 2.032 1.78 1.78 0 01-1.622.606 3.83 3.83 0 01-1.985-1.864c-.727-1.845.634-2.787 1.137-4.138l-.01-.047a2.08 2.08 0 00-.242-1.864c-.252-.447-.652-1.482.158-1.743zm-60.536.39c0-.382.29-.606.848-.53.404.13.797.292 1.174.485a17.71 17.71 0 013.243 1.538c1.575.97 3.486 1.808 5.19 2.675.354.177.634.224 1.053.485s.81.67 1.296.932c.885.475 2.47.578 2.47 1.948-.053.41-.314.76-.7.932-1.156.196-1.594-.746-2.274-1.268l.02-.02c-.802-.615-1.743-1.053-2.6-1.66-.417-.305-.85-.588-1.296-.848-.457-.26-.95-.4-1.463-.652-.29-.14-.55-.42-.848-.606a23.682 23.682 0 00-2.917-1.38c-.53-.233-1.137-.68-1.706-.932s-1.5-.466-1.5-1.1zm41.96 6.87c.13-.98.345-3.41-.848-3.122h.02c-.54.13-1.1 1.296-1.38 2.228a1.38 1.38 0 001.398 1.948c.464-.147.787-.567.81-1.053zm60.918-3.41c.54-.084 1.39-.205 1.417.447s-1.053.578-1.538.652c-.7.112-1.473.373-2.2.53s-1.454.354-2.2.53-1.575.252-2.31.4-1.445.494-2.106.606c-.895.15-2.023.13-3 .205-2.153.158-4.306.81-6.813.81-.615 0-.81-.065-.81-.242-.12-.513 1.37-.587 1.743-.652.736-.13 1.296-.382 1.948-.447h1.296c1.184-.13 2.377-.56 3.654-.774h1.1a24.66 24.66 0 002.433-.531c.81-.158 1.612-.363 2.395-.53 1.724-.326 3.467-.56 4.912-.932h.084zM74.858 40.75c.02-.932.158-2.144-.774-1.864-.65.5-1.134 1.17-1.38 1.948l.01.075a1.333 1.333 0 00.727 1.706c.997.177 1.398-.932 1.417-1.864zm7.065-8.034c.67-.186 1.296.447 1.864.81.542.26 1.057.57 1.538.932a7.169 7.169 0 011.417 3.243c.21.656.29 1.345.242 2.032a1.967 1.967 0 01-1.8 1.864 1.056 1.056 0 01-.336-.848c.03-.41.104-.817.224-1.212a4.28 4.28 0 00.186-1.184c-.028-.755-.457-1.864-1.174-1.864a1.426 1.426 0 00-1.174 1.053 3.01 3.01 0 00-.531 1.948l.056-.047c.033.153.086.3.158.438.306.428.577.88.81 1.35a1.07 1.07 0 010 .438c-.12 1.072-1.258.438-1.66 0a2.555 2.555 0 01-.848-2.07c.177-1.612 1.547-2.563 1.342-4.66-.075-.783-.867-1.35-.326-2.228zm-39.23-1.696c1.035-.26 1.92.783 2.274 1.5.245.603.435 1.227.57 1.864.34.962.493 1.98.447 3 .047.457-.174.9-.57 1.137a.56.56 0 01-.522-.606c0-.485 0-1.174-.103-1.612a1.872 1.872 0 00-.848-1.342c-.792-.12-1.52 1.435-1.66 1.985-.193.86.03 1.763.606 2.433a6.17 6.17 0 001.072.541c.14.06.268.142.382.242a.8.8 0 01.242.55c0 .885-1.212.885-1.864.57l-.075.037a3.46 3.46 0 01-1.706-3.206c-.01-1.77 1.22-3.44 1.22-4.986 0-.94-.457-1.622.53-2.106zm-20.048 5.07c.606-.205 1.808.466 2.47.727a21.4 21.4 0 012.274.932l.047-.075a1.78 1.78 0 01.932 1.258c-.047 1.11-1.603.317-2.228.084-.503-.182-.992-.4-1.463-.652-.54-.29-.746-.494-1.342-.81-.39-.168-1.137-.475-1.137-.932a.491.491 0 01.447-.53zm76.903-1.22c.4-.056 1.24-.12 1.342.326.14.597-.615.84-1.174 1.053-1.22.447-2.013.913-3.085 1.38a3.96 3.96 0 01-1.79.447c-.7-.075-1.24-1.258-.447-1.584.348-.06.705-.06 1.053 0a4.189 4.189 0 001.706-.774 7.16 7.16 0 012.395-.848zM19.56 26.35c.55-.26.932.513 1.22.848s.596.647.932.932c.447.373.913.54 1.38 1.016s.764 1.007 1.296 1.538c.68.68 1.286 1.426 1.985 2.07.748.615 1.44 1.295 2.07 2.032l-.047.028c.26.345.587 1.277 0 1.417s-1.407-.68-1.743-1.016c-.427-.5-.82-1.03-1.174-1.584a8.154 8.154 0 00-1.296-1.1 14.121 14.121 0 01-2.2-2.6c-.363-.485-.885-.81-1.174-1.22a9.893 9.893 0 00-.7-1.137c-.084-.112-1.118-.96-.57-1.22zm93.605-2.004c.438-.056.876-.037.932.326.084.56-1.23.98-1.538 1.137-.624.317-1.184.7-1.706.932a19.77 19.77 0 00-1.864.774c-.53.35-1.084.662-1.66.932a20.74 20.74 0 00-2.6 1.1c-1.566.895-3.383 1.5-4.95 2.433-.382.233-.774.438-1.174.652s-.755.513-1.137.7c-.83.363-1.948.55-2.796 1.016-.624.354-.932 1.22-1.66 1.22a.69.69 0 01-.811-.652c-.01-.662.81-.643 1.38-.932.727-.373 1.202-1.296 2.07-1.706.29-.13.83-.242 1.137-.363s.54-.317.932-.485.848-.27 1.258-.447c.988-.457 1.967-1.137 2.796-1.622s1.864-.802 2.796-1.22 1.762-.997 2.6-1.417l.15-.056c.867-.438 1.855-.774 2.88-1.174a13.72 13.72 0 012.964-1.137zm-93.894-9.33c.913.214 1.622 1.463 2.433 2.2a9.57 9.57 0 011.985 2.6 40.559 40.559 0 002.88 4.054 24.52 24.52 0 001.743 2.153 6.32 6.32 0 001.463 1.379c1.1 1.268 2.358 2.34 3.41 3.728.233.317.466.708.727 1.137a3.5 3.5 0 01.606 1.22.93.93 0 01-.242.932c-.494.233-.857-.214-1.258-.652s-.736-.54-1.053-.932c-.466-.624-.83-1.277-1.296-1.864s-1.035-1.044-1.5-1.622-.82-1.258-1.258-1.743-1.035-.885-1.538-1.417a15.06 15.06 0 01-1.864-2.796c-.522-.95-1.22-1.743-1.864-2.675l.037.065c-.876-1.23-2.07-2.6-3-3.896-.252-.28-1.417-1.743-.4-1.864zM96.435 28.54c.317-.037.56.01.606.28.112.643-1.165 1.22-1.463 1.463-.624.485-1.184 1.37-1.622 1.734s-2.815 1.762-2.554-.158c.168-.932 1.22-1.36 2.032-1.864a15.39 15.39 0 011.463-.727c.47-.324.99-.57 1.538-.727zm-62.316-.783a.84.84 0 01.774.205 4.27 4.27 0 011.09 1.715c-.093.4-.53.485-.932.205-.205-.14-1.49-1.78-.932-2.106zm77.555-17.233a.54.54 0 01.69.205c.224.597-.727 1.137-.932 1.342s-.317.438-.53.652c-.57.57-1.25 1.063-1.864 1.66-.475.447-.857.932-1.342 1.38s-.774.932-1.296 1.38-1.258.885-1.706 1.38-.867 1.053-1.38 1.622-1.24 1.044-1.864 1.622a22.11 22.11 0 01-1.864 1.659c-.336.242-.727.345-1.053.652s-.615.615-.932.932-.67.53-1.016.81c-.433.448-.894.868-1.38 1.258-.53.373-1.174.55-1.706.932-.81.578-1.417 1.78-3.122 1.38-.932-.727.475-1.52.932-1.864a14.82 14.82 0 011.463-1.053c.27-.158.606-.27.81-.4.7-.457 1.314-1.22 2.032-1.743.485-.363.97-.587 1.417-.932.84-.675 1.72-1.298 2.638-1.864l-.075.037a7.27 7.27 0 001.38-.932c.447-.447.643-1.053 1.296-1.66s1.5-1.035 2.106-1.706c.252-.326.43-.7.7-.932.466-.438 1.044-.652 1.5-1.016a22.013 22.013 0 001.66-2.032 10.03 10.03 0 01.848-.606c.81-.662 1.482-1.762 2.6-2.153zM26.905.4c.68-.14 1.007 1.24 1.296 1.864.485 1.063 1.202 2.2 1.743 3.41s.94 2.517 1.417 3.728c.233.643.597 1.22.848 1.864.23.638.5 1.26.81 1.864.214.373.55.7.774 1.1s.373.81.606 1.174c.466.746.848 1.5 1.296 2.274.214.373.55.774.7 1.053s.196.634.326.932c.205.475.503.96.727 1.463a13.44 13.44 0 00.727 1.491 19.14 19.14 0 011.622 2.31c.037.084.093.82.205 1.174s1.407 2.078.4 2.395c-.56.177-1.25-.95-1.622-1.463a21.56 21.56 0 01-1.342-1.864c-.42-.68-.774-1.35-1.165-2.023s-.83-1.314-1.174-1.985c-.242-.447-.4-.94-.652-1.38-.7-1.24-1.77-2.442-2.395-3.728-.177-.354-.27-.718-.447-1.053-.485-.904-1.407-1.995-1.538-3.206a10.58 10.58 0 01.084-1.296 7.14 7.14 0 00-.569-1.985c-.15-.485-.214-.988-.363-1.417a16.85 16.85 0 00-.774-1.501c-.513-1.035-.885-1.967-1.538-3.038-.27-.53-.932-2.013 0-2.153zM92.53 23.385a.57.57 0 01.774.205 1.52 1.52 0 01-.652 1.296 7.114 7.114 0 00-.848 1.1v.037a6.05 6.05 0 00-1.09.811 2.17 2.17 0 01-1.221.69.93.93 0 01-.531-.774c-.02-1.025 1.258-1.146 2.2-1.864.587-.466.755-1.23 1.38-1.5zm-49.65-1.417c.7-.4.857.876 1.137 1.38h.028c.186.345.597.634.848 1.053.325.557.573 1.156.736 1.78a.93.93 0 01-.28 1.1c-.95.158-.98-.81-1.174-1.584-.075-.28-.233-.475-.326-.81s-.075-.643-.158-.932c-.214-.746-1.044-1.193-.81-1.985zM99.995 8.612c.4-.42.923-1.398 1.743-1.016a1.52 1.52 0 01-.447 1.538c-.345.42-.624.895-.932 1.258a12.48 12.48 0 00-.932 1.1c-.54.802-1.044 1.594-1.706 2.395s-1.296 1.584-1.948 2.47-1.25 1.957-1.985 2.796c-.363.42-.783.783-1.137 1.22-.224.317-.373.662-.606.932a37.456 37.456 0 01-2.796 2.638 11.5 11.5 0 01-2.554 2.032c-.308.186-1.715.932-1.864 0-.12-.774 1.165-1.454 1.584-1.706a7.99 7.99 0 001.864-1.417c.252-.252.457-.662.7-.932s.606-.438.848-.727l-.075-.084c.224-.224.42-.597.7-.932l.727-.932c.53-.643 1.24-1.258 1.538-1.706s.466-.96.81-1.38c.186-.195.39-.372.606-.53.19-.19.368-.392.53-.606a9.32 9.32 0 001.09-1.137c.177-.298.196-.578.447-.932s.68-.68 1.016-1.1a41.3 41.3 0 012.796-3.243zM42.31 1.24c.634-.494 1.11 1.277 1.25 1.65.28.634.652 1.305.848 1.864.13.373.14.792.242 1.174.363 1.36 1.016 2.6 1.417 4.017.13.466.326.895.447 1.342.168.652.242 1.53.447 2.2s.485 1.323.7 2.032.39 1.426.606 2.07c.093.26.252.475.326.727a13.98 13.98 0 01.28 1.659 14.92 14.92 0 00.932 3 6.19 6.19 0 01.531 1.379 1.014 1.014 0 01-.57 1.22c-.81.065-1.268-1.417-1.5-2.228-.326-1.137-.53-2.162-.848-3-.177-.457-.447-.802-.57-1.137a15.022 15.022 0 01-.28-1.864c-.093-.43-.298-.848-.4-1.296a35.94 35.94 0 00-1.174-3.812 38.7 38.7 0 01-1.016-3.97c-.13-.43-.345-.802-.466-1.212-.224-.727-.345-1.463-.53-2.153-.196-.736-.29-1.463-.447-2.237a1.977 1.977 0 01-.205-1.417zm40.972 18.995a.93.93 0 011.053-.326c.53.522-.224 1.547-.447 2.106a11.026 11.026 0 01-.774 1.743c-.15.233-.662 1.435-1.174 1.296-.624-.168.093-1.1.242-1.454.4-.98.475-2.62 1.1-3.365zm7.01-20.318a.43.43 0 01.447.28c.158.494-.56.923-.774 1.296a16.17 16.17 0 00-.727 1.584 12.36 12.36 0 00-.606 1.659c-.06.573-.154 1.143-.28 1.706-.27.64-.58 1.264-.932 1.864-.382.57-.597 1.268-.932 1.864-.252.447-.643.802-.932 1.258s-.475 1.1-.774 1.66-.755 1.128-.932 1.5-.14.764-.4 1.174-.652.895-.932 1.342-.662.84-.932 1.296c-.57.885-.932 1.948-1.5 2.88a8.95 8.95 0 01-.932 1.258 1.742 1.742 0 01-1.342.848c-.606-.7.047-1.594.326-2.274.15-.354.317-.718.485-1.1s.26-.764.4-1.137a18.4 18.4 0 011.137-2.106l2.377-4.157c.363-.727.57-1.547.932-2.274.205-.4.522-.83.774-1.258.236-.42.494-.828.774-1.22.597-.802.95-1.743 1.463-2.554.308-.485.708-.857 1.053-1.342s.578-1.137.932-1.584.84-1.044 1.053-1.38.363-1.1.774-1.1zm-38.726 13.7c.177-.298.354-.7.848-.4s.84 1.827 1.1 2.517.802 1.8 1.016 2.554c.12.485.14.82.28 1.417s.755 3.15-.242 3.206c-.68.037-.885-1.258-1.016-1.948a36.37 36.37 0 00-1.174-4.371c-.317-1.1-.876-1.63-.81-2.964zM70.683.382c.26-.065.606.065.606.774a4.91 4.91 0 01-.158 1.137c-.242 1.174-.28 2.433-.447 3.607-.065.4-.075.885-.12 1.342-.103.95-.457 1.9-.606 2.964-.053.517-.134 1.03-.242 1.538-.12.447-.336.96-.4 1.38-.12.718-.065 1.49-.205 2.153s-.39 1.342-.447 1.864a20.6 20.6 0 01-.242 3.001 5.964 5.964 0 01-.774 1.38c-.29.42-.727 1.08-1.22.774l.01.028c-.513-.317-.02-1.706.084-2.032a12.8 12.8 0 00.53-1.948c.075-.652.065-1.35.158-1.78s.317-.802.363-1.174v-.727c.056-.513.345-1.025.485-1.622s.224-1.333.326-2.032.168-1.398.28-2.07c.252-1.454.708-2.76.81-3.896.093-.96.037-1.864.205-2.675.084-.578.494-1.845 1.016-1.985zm4.595 11.688c.4-.112.457.57.4 1.1a7.98 7.98 0 01-.727 2.274 21.494 21.494 0 00-.7 2.31c-.196.792-.53 1.473-.727 2.274s-.177 1.985-.932 1.985l-.056-.01c-.727 0-.95-1.128-.727-1.864.14-.322.3-.633.485-.932.363-.83.447-1.836.774-2.638.177-.42.522-.867.652-1.174.242-.56.382-1.268.606-1.743s.522-1.473.932-1.584zM57.653-.177c.783-.326.792 1.165.848 1.538.093.578.326 1.23.326 1.706v1.5c.065.857.4 1.724.53 2.722 0 .662-.056 1.39 0 2.07.065.83.475 1.63.53 2.31s-.14 1.314-.084 2.07c0 .43.317 1.128.317 1.594v1.66a19.35 19.35 0 01.242 3.933c-.015.38-.213.726-.53.932-.634.028-.447-1.118-.447-1.622-.028-.326-.075-.708-.12-1.137-.103-.885-.485-1.892-.57-2.88v-.81c-.037-.43-.242-.82-.242-1.22-.12-.81 0-1.622 0-2.433a12.61 12.61 0 00-.205-1.501c-.075-.513-.084-1.025-.158-1.5a10.96 10.96 0 01-.363-1.622c-.065-.615.037-1.1 0-1.8s-.14-1.398-.205-2.07h.047c-.047-.457-.233-.895-.28-1.342-.065-.597-.112-1.92.363-2.106zm5.555 17.97c.666-.162.722 1.234.727 2.186v.247h.01c.01 1.11-.923 1.584-1.1.447a9.71 9.71 0 010-2.47.52.52 0 01.363-.41z"/></svg>