<svg xmlns="http://www.w3.org/2000/svg" viewBox="0 0 128 96"><path fill="#fff" d="M26.972 31.71c2.824 0 5.213 2.607 5.213 4.78v13.684c0 .977-.76 1.846-1.738 1.846s-1.846-.87-1.846-1.846V37.9a.51.51 0 00-.543-.543c-.326 0-.652.11-.652.543v34.645c0 .217 0 .326-.11.543-.326.76-.977 1.303-1.738 1.412h-.326c-.326 0-.652-.11-.977-.217-.652-.326-1.086-.977-1.195-1.738V52.67c0-.326-.326-.652-.76-.652h-.11c-.434.11-.652.434-.652.87V72.22c0 .326-.11.543-.326.87-.326.76-.977 1.303-1.846 1.412h-.326c-.326 0-.543-.11-.87-.217a2.33 2.33 0 01-1.195-2.064V37.9c0-.326-.217-.652-.543-.652l-.068.006c-.21.038-.475.243-.475.537v12.273c0 .977-.76 1.738-1.738 1.846-.977 0-1.846-.87-1.846-1.846V36.488c0-2.172 2.39-4.78 5.322-4.78zm25.63-.543c1.846.11 3.584 1.303 4.344 3.15l4.67 13.576V48a1.81 1.81 0 01-1.195 2.172c-.11.11-.326.11-.543.11-.76 0-1.52-.434-1.738-1.195l-3.9-10.97c-.11-.434-.434-.543-.652-.543-.434 0-.76.434-.543.977l7.06 19.332H53.69v14.553c0 .217 0 .543-.11.76-.217.76-.977 1.195-1.738 1.195h-.11c-.217 0-.543 0-.76-.11s-.434-.217-.652-.434c-.326-.326-.543-.652-.543-1.086v-14.77h-1.63v14.553c0 1.086-.87 1.955-1.955 1.955h-.11c-.217 0-.543 0-.76-.11-.76-.326-1.195-1.086-1.195-1.846V57.992h-6.3l6.842-19.332c.217-.652-.11-1.086-.543-1.086-.326 0-.543.11-.652.434l-3.9 10.97c-.326.76-.977 1.195-1.738 1.195-.11 0-.326 0-.543-.11h-.11c-.977-.326-1.412-1.412-1.086-2.28l4.67-13.576.074-.158c.66-1.373 1.744-2.883 3.836-2.883zm28.238.543c2.824 0 5.213 2.607 5.213 4.78v13.684c0 .977-.76 1.846-1.738 1.846s-1.846-.87-1.846-1.846V37.9a.51.51 0 00-.543-.543c-.326 0-.652.11-.652.543v34.645c0 .217 0 .326-.11.543-.326.76-.977 1.303-1.738 1.412H79.1c-.326 0-.652-.11-.977-.217-.652-.326-1.086-.977-1.195-1.738V52.67c0-.326-.326-.652-.76-.652h-.11c-.434.11-.652.434-.652.87V72.22c0 .326-.11.543-.217.87-.326.76-.977 1.303-1.846 1.412h-.326c-.326 0-.543-.11-.87-.217a2.33 2.33 0 01-1.195-2.064V37.9c0-.326-.217-.652-.543-.652l-.068.006c-.21.038-.475.243-.475.537v12.273a1.83 1.83 0 11-3.693 0V36.488c0-2.172 2.39-4.78 5.322-4.78zm25.523-.543c1.955.11 3.693 1.303 4.56 3.04l4.67 13.576.044.154a1.82 1.82 0 01-1.13 2.126c-.11.11-.326.11-.543.11-.76 0-1.52-.434-1.738-1.195l-3.9-10.97c-.11-.434-.434-.543-.652-.543-.434 0-.76.434-.543.977l6.082 16.943.87 2.498h-6.516v14.662a1.99 1.99 0 01-1.955 1.738h-.11c-.217 0-.543 0-.76-.11s-.434-.217-.652-.434c-.326-.326-.543-.652-.543-1.086v-14.77h-1.63v14.662c0 1.086-.87 1.955-1.955 1.955h-.11c-.217 0-.543 0-.76-.11-.76-.326-1.195-1.086-1.195-1.846V57.992h-6.3l6.842-19.332c.217-.652-.11-1.086-.543-1.086-.326 0-.543.11-.652.434l-3.9 10.97c-.326.76-.977 1.195-1.738 1.195-.11 0-.326 0-.543-.11h-.11c-.977-.326-1.412-1.412-1.086-2.28l4.67-13.576c.652-1.412 1.738-3.04 3.9-3.04zM22.52 22.152l.206.005c2.19.107 4.03 1.914 4.03 4.23a4.17 4.17 0 01-4.236 4.236l-.21-.016a4.218 4.218 0 01-3.8-4.003c-.11-2.39 1.63-4.344 4.018-4.453zm53.76 0l.2.005c2.293.104 4.13 1.912 4.026 4.23a4.17 4.17 0 01-4.236 4.236l-.21-.016a4.218 4.218 0 01-3.8-4.003c-.11-2.39 1.63-4.344 4.018-4.453zM49.02 21.5l.2.005c2.293.1 4.135 2.017 4.135 4.23-.11 2.39-1.955 4.236-4.344 4.236l-.206-.005c-2.19-.107-4.03-1.914-4.03-4.23 0-2.28 1.846-4.236 4.236-4.236zm53.87 0l.206.005c2.19.113 4.033 2.02 4.138 4.23-.11 2.39-1.955 4.236-4.344 4.236l-.206-.005c-2.19-.107-4.03-1.914-4.03-4.23 0-2.28 1.846-4.236 4.236-4.236z"/></svg>