<svg xmlns="http://www.w3.org/2000/svg" viewBox="0 0 128 96"><path fill="#fff" d="M63.872 108.786c.405 0 .675.27.54.675v2.564c0 .27-.405.54-.675.54s-.54-.27-.54-.675v-2.43c0-.405.405-.675.675-.675zm-19.43-2.834c.135-.27.54-.54.8-.405.27 0 .405.405.405.8l-.405 1.484-.405 1.214c-.135.405-.54.54-.8.405-.405-.135-.54-.54-.405-.8l.405-1.214.405-1.484zm38.05-.675c.405-.135.675.135.8.405.27.54.405.945.54 1.484.135.405.27.8.27 1.214.135.405-.135.675-.405.8-.405.135-.675-.135-.8-.405l-.405-1.214c0-.405-.27-.945-.405-1.484-.135-.405.135-.675.405-.8zm-18.755-2.564c.405-.135.675.135.675.54v4.183c.135.405-.27.675-.54.675s-.54-.27-.675-.54v-4.183c0-.405.27-.675.54-.675zm9.04 1.08c.27 0 .675.27.675.54.135.54.135 1.08.27 1.62s.135.945.27 1.35c0 .27-.27.675-.54.675s-.675-.27-.675-.54c-.135-.405-.135-.8-.27-1.35s-.135-1.08-.27-1.62c0-.27.27-.675.54-.675zm-17.81.27c.405 0 .54.27.54.675l-.135 1.08c0 .405-.405.54-.675.54-.405 0-.54-.405-.54-.675l.135-1.08c0-.405.405-.54.675-.54zm-9.04-2.968c.135-.27.54-.54.8-.405s.54.405.405.8l-.405 1.35-.405 1.214c-.135.27-.54.54-.8.405s-.54-.54-.405-.8l.405-1.214zm32.113-8.77c.405-.135.675.135.8.405l2.834 8.23.8 2.43c.135.27 0 .675-.405.8s-.675-.135-.8-.405c-.27-.675-.54-1.484-.8-2.43l-2.834-8.23c-.135-.405.135-.675.405-.8zm-21.32-.54c.405 0 .675.27.54.675v.8l-.8 5.262-.54 4.048c0 .405-.405.54-.675.54-.405 0-.54-.405-.54-.675l.54-4.048.8-5.262v-.8c0-.405.405-.54.675-.54zm14.977 5.802c.27 0 .675.27.675.54l.405 2.294.405 2.024c0 .27-.27.675-.54.675-.405 0-.675-.135-.675-.54l-.405-2.024-.405-2.294c0-.27.27-.675.54-.675zM38.1 97.182a.65.65 0 01.81-.27.65.65 0 01.27.81l-.135.405-1.765 3.665-.26.518a.65.65 0 01-.81.27.65.65 0 01-.27-.81l2.024-4.183zm25.772-10.794c.27 0 .54.27.54.675v13.763c0 .405-.27.675-.54.675-.405 0-.675-.27-.675-.675V86.927c0-.27.405-.54.675-.54zM49.165 90.57c.135-.27.54-.54.8-.405.405.135.54.405.54.8l-.27.8-1.35 4.453-1.08 3.508c-.135.27-.54.54-.8.405s-.54-.54-.405-.8l1.08-3.508 1.35-4.453c.135-.27.135-.405.135-.405zm38.05 3.238a.65.65 0 01.81.27l.54 1.08.54.945.8 1.484.135.27a.65.65 0 01-.27.81.65.65 0 01-.81-.27l-.135-.27-.8-1.484-.54-.945-.54-1.08a.65.65 0 01.27-.81zm-57.615.405c.135-.27.54-.27.8-.135s.405.54.135.8c-.27.405-.54.675-.8 1.08-.135.27-.405.54-.675.945-.135.27-.54.27-.8.135s-.27-.54-.135-.8c.105-.105.292-.373.496-.678l.178-.267c.27-.27.54-.675.8-1.08zm41.02-2.564c.27 0 .675.27.675.54.135.135.135.27.135.405l.135.405.27 1.754c0 .27.135.8.27 1.62 0 .27-.27.675-.54.675-.405 0-.675-.27-.675-.54s-.135-.8-.27-1.62c-.135-.54-.135-1.214-.27-1.754l-.135-.405c-.135-.135-.135-.27-.135-.405 0-.27.27-.675.54-.675zm25.367.405c.27-.135.675-.135.8.135l.405.54 1.89 2.564c.135.27.135.54-.135.8-.27.135-.675.135-.8-.135l-1.89-2.564-.405-.54c-.135-.27-.135-.675.135-.8zm-55.32-.27a.65.65 0 01.81-.27c.405.27.54.54.27.945l-.8 1.62-.675 1.484a.65.65 0 01-.81.27.65.65 0 01-.27-.81c.54-1.08.54-1.214.675-1.62l.8-1.62zm-20.51-.945c.27-.135.675-.135.8 0 .27.135.27.54 0 .8l-2.024 2.024c-.135.27-.54.27-.8 0-.27-.135-.27-.54 0-.8.27-.405.675-.675.945-.945l1.08-1.08zm16.73-6.746c.135-.27.54-.27.8-.135s.27.54.135.8l-.27.27-.405.27-3.103 4.453-2.43 3.373c-.135.27-.54.27-.8.135s-.27-.54-.135-.8l2.43-3.373 3.103-4.453.27-.27zm46.956 3.238a.65.65 0 01.81.27c.135.135.135.27.27.405l.135.405.283.506.797 1.518.945 1.89c.135.27 0 .675-.135.8a.65.65 0 01-.81-.27l-.945-1.89c-.405-.675-.675-1.35-1.08-2.024-.27-.27-.27-.405-.27-.405-.135-.135-.135-.27-.27-.405a.65.65 0 01.27-.81zM75.61 84.5c.405-.135.675.135.8.405l.945 3.103.945 2.834c.135.405 0 .675-.405.8s-.675-.135-.8-.405l-.945-2.834c-.27-1.08-.675-2.16-.945-3.103-.135-.405.135-.675.405-.8zm17.406 3.508c.27-.135.675-.135.8.135.27.27.54.675.8 1.08l.8 1.08c.135.27.135.675-.135.8s-.675.135-.8-.135l-.8-1.08-.135-.146c-.225-.26-.45-.597-.675-.934-.135-.27-.135-.675.135-.8zM45.522 82.34a.65.65 0 01.81-.27.65.65 0 01.27.81l-1.754 3.238-1.484 2.834-.8 1.62a.65.65 0 01-.81.27.65.65 0 01-.27-.81l.8-1.62 1.484-2.834 1.754-3.238zm24.287 3.643c.27 0 .675.27.675.54l.27 1.754c.135.54.135 1.08.27 1.62 0 .27-.27.675-.54.675-.405 0-.675-.27-.675-.54-.135-.405-.135-.945-.27-1.62-.135-.54-.135-1.214-.27-1.754 0-.27.27-.675.54-.675zm-12.01-.135c.27 0 .54.405.54.675-.135.54-.135 1.214-.27 1.754l-.27 1.754c0 .405-.405.54-.675.54-.405 0-.54-.405-.54-.675l.27-1.754c0-.54.135-1.08.27-1.754 0-.405.405-.54.675-.54zm44.797.675c.135-.27.54-.27.8 0l.72.72 2.383 2.248c.27.135.27.54 0 .8-.135.27-.54.27-.8 0l-2.7-2.564-.405-.405c-.27-.135-.27-.54 0-.8zm-78.53.405c.27-.27.675-.27.8 0 .27.135.27.54 0 .8l-.405.405c-.675.8-1.35 1.484-1.89 2.024-.135.27-.54.27-.8 0-.27-.135-.27-.54 0-.8.54-.675 1.214-1.35 1.89-2.024zm26.986-2.16c.135-.405.54-.54.8-.405.405.135.54.54.405.8-.135.54-.405 1.214-.54 1.754-.135.27-.27.8-.54 1.62-.135.27-.54.54-.8.405s-.54-.54-.405-.8.27-.8.54-1.62c.135-.54.27-1.214.54-1.754zm35.487-5.532a.498.498 0 01.8.135l2.024 2.834 1.754 2.43c.27.405.54.675.8 1.08l.675.945c.27.27.135.54-.135.8-.27.135-.675.135-.8-.135l-.675-.945c-.27-.405-.54-.675-.8-1.08l-1.754-2.43-2.024-2.834a.498.498 0 01.135-.8zm-5.262 3.103a.65.65 0 01.81.27l.8 1.484.675 1.484a.65.65 0 01-.27.81.65.65 0 01-.81-.27l-.675-1.484c-.114-.114-.325-.518-.632-1.13l-.177-.354a.65.65 0 01.27-.81zm-66.655.8c.27-.27.675-.135.945.135.135.27.135.675-.135.8l-1.62 1.08-1.35.945a.498.498 0 01-.8-.135.498.498 0 01.135-.8c.54-.27.945-.675 1.35-.945l1.484-1.08zm14.572-1.35c.135-.27.54-.27.8 0 .27.135.27.54 0 .8l-1.62 1.754c-.675.54-1.08 1.08-1.62 1.62-.135.27-.54.27-.8 0-.27-.135-.27-.54 0-.8.405-.54.945-1.08 1.484-1.62l1.754-1.754zm83.522 1.35c.135-.27.54-.27.8-.135.405.405.8.675 1.214.945s.675.54 1.08.8c.27.27.27.675.135.8-.135.27-.54.405-.8.135-.405-.27-.675-.54-1.08-.8s-.8-.675-1.214-.945c-.27-.135-.27-.54-.135-.8zm-18.485-4.723c.135-.27.54-.27.8 0l1.35 1.35 2.834 2.7 2.294 2.294c.27.135.27.54 0 .8-.135.27-.54.27-.8 0l-2.294-2.294c-.945-.8-1.754-1.754-2.834-2.7l-1.35-1.35c-.27-.135-.27-.54 0-.8zm-5.937-5.397c.135-.27.54-.27.8 0 .135.27.135.675 0 1.08-3.373 3.238-7.286 5.802-11.604 7.556-4.183 1.62-8.77 2.564-13.493 2.564-2.968 0-5.802-.405-8.636-1.08s-5.532-1.754-8.096-3.103a.65.65 0 01-.27-.81.65.65 0 01.81-.27c2.43 1.214 5.127 2.294 7.826 2.968 2.7.54 5.532.945 8.366.945 4.723 0 9.04-.945 13.088-2.564 4.183-1.754 7.96-4.183 11.2-7.286zM39.45 80.316c.135-.27.54-.27.8-.135s.27.54.135.8-.405.54-.675.945c-.27.27-.405.54-.675.8-.135.27-.54.27-.8.135s-.27-.54-.135-.8c.27-.27.405-.54.675-.8.135-.27.405-.54.675-.945zm68.95-.135c.135-.27.54-.27.8-.135l.27.135c.675.54 1.35 1.08 2.024 1.484.27.135.27.54.135.8s-.54.27-.8.135c-.54-.405-1.214-.945-2.024-1.484l-.27-.135c-.27-.135-.27-.54-.135-.8zM98 72.895c.135-.27.54-.27.8-.135.405.135.8.54 1.214.8s.8.54 1.08.8c1.214.8 2.43 1.754 3.643 2.564 1.08.675 2.024 1.35 2.968 2.024.27.135.27.54 0 .8-.135.27-.54.27-.8.135-.945-.54-1.89-1.214-2.968-2.024l-3.643-2.564c-.405-.27-.8-.54-1.08-.8-.405-.27-.8-.54-1.214-.945-.27-.135-.27-.54 0-.675zM37.02 52.25l-2.294 24.557-4.453.54 1.35-15.112-4.183 15.517-3.103.405-1.484-14.707-1.484 15.247-4.453.54L19.21 54.68l1.754-.405a8.23 8.23 0 004.588 1.754l1.214 12.01h.135l3.373-12.28c2.7-.54 4.857-1.89 6.612-3.508h.135zm54.107 22.938c.135-.27.54-.27.8 0 .27.405.675.675.945.945.405.27.675.675.945.945.27.135.27.54 0 .8-.135.27-.54.27-.8 0l-1.89-1.89c-.27-.135-.27-.54 0-.8zm-82.172.135c.405-.135.675 0 .945.27.135.405 0 .675-.27.8-.54.27-.945.54-1.35.675s-.8.405-1.214.54a.65.65 0 01-.81-.27.65.65 0 01.27-.81c.405-.135.8-.27 1.08-.54.405-.27.945-.405 1.35-.675zm105.38-1.89a.65.65 0 01.81-.27c.945.54 1.62.8 2.024 1.08l1.62.8c.27.135.405.54.27.8a.65.65 0 01-.81.27c-.405-.27-.945-.54-1.62-.8-.8-.405-1.35-.8-2.024-1.08a.65.65 0 01-.27-.81zm-68.68-22.668c.945-.135 1.62-.135 2.294 0v1.214c.135 1.08.54 1.89 1.214 2.43s1.484.8 2.43.8v.135l-1.35 14.168c-.135 2.43-2.43 5.802-6.88 6.342-4.857.675-6.342-2.16-6.207-4.588l1.35-14.168c.27-2.564 2.294-5.667 7.15-6.342zM12.194 73.704a.65.65 0 01.81.27.65.65 0 01-.27.81l-1.08.54a.65.65 0 01-.81-.27.65.65 0 01.27-.81l.54-.27zm58.02-25.772v1.214c.135.945.54 1.754 1.214 2.294l-1.89 20.644-4.183.54 1.35-15.112-4.318 15.517-3.103.405L57.8 58.727h-.135l-1.35 15.112-4.453.54 1.754-19.43c.8-.54 1.62-1.214 2.16-2.16.54-.8 1.08-1.89 1.35-3.103l2.968-.405 1.484 14.303h.135l4.183-15.112 4.318-.54zM109.48 71.14a.65.65 0 01.81-.27c1.35.8 1.35.675 1.484.8l1.35.675c.27.135.405.54.27.8a.65.65 0 01-.81.27l-1.35-.675c-1.08-.675-1.214-.675-1.484-.8a.65.65 0 01-.27-.81zM45.542 54.264l-.155.01c-1.62.27-2.43 1.62-2.43 2.294L41.61 70.6c0 .8.54 2.024 2.16 1.89 1.214-.27 2.16-1.754 2.16-2.43l1.214-14.033c.135-.675-.54-1.89-1.754-1.754zm39.244-8.5l-.27 3.508-6.477.8-.54 6.072 4.453-.54-.27 3.508-4.453.54-.675 7.96 6.746-.945-.27 3.508-11.2 1.484 1.754-19.565h.945c1.484-.135 2.7-1.08 3.643-2.564.54-.945 1.08-1.89 1.35-3.103l5.262-.675zm15.247-2.024l-2.16 24.422-4.453.675-3.103-13.493-1.35 14.033-4.453.675 2.294-24.557 4.588-.675 2.968 13.088L95.58 44.29l4.453-.54zm14.977-2.024l-.27 3.373-4.588.675-1.89 21.05-4.453.54 1.89-21.05-4.453.675.27-3.508 13.493-1.754zM13.14 63.854c.405-.135.675.135.8.405s-.135.675-.405.8c-1.08.27-2.16.675-2.968.945-1.35.405-2.43.8-3.508 1.214-.405.135-.675-.135-.8-.405-.135-.405.135-.675.405-.8L10.17 64.8c.945-.27 1.89-.54 2.968-.945zm106.73 2.16c.135-.27.54-.54.8-.405l.54.135c.27 0-.135 0 .54.135.405.135.54.54.405.8s-.54.54-.8.405.135 0-.54-.135l-.54-.135c-.27-.135-.54-.54-.405-.8zm-7.15-2.16c.135-.27.54-.54.8-.405 1.35.405 2.43.8 3.508 1.08.675.135 1.35.405 1.89.54.405 0 .54.405.405.8-.135.27-.54.54-.8.405-.54-.135-1.214-.27-1.89-.54-1.08-.27-2.16-.675-3.508-1.08-.27-.135-.54-.54-.405-.8zM3.154 57.108c.405 0 .675.27.8.54 0 .27-.27.675-.54.675-.675.135-1.08.27-1.484.27-.405.135-.8.135-1.214.135-.27 0-.675-.27-.675-.54s.27-.675.54-.675c.405 0 .8-.135 1.214-.135.405-.135.945-.135 1.35-.27zm120.762-.54c.54.135 1.08.135 1.62.27s.945.135 1.35.27c.27 0 .54.405.405.675 0 .405-.405.54-.675.54-.405-.135-.945-.135-1.35-.27s-.945-.135-1.484-.27c-.405 0-.54-.405-.54-.675 0-.405.405-.54.675-.54zm-114.96-.405c.27 0 .675.27.675.54s-.27.675-.54.675l-.675.135c-1.08.135-1.89.27-2.7.405-.27 0-.675-.27-.675-.54s.27-.675.54-.675c.8-.135 1.754-.27 2.7-.405zm109.428-.405l.54.135c1.08.135 1.89.27 2.7.405.405 0 .54.405.54.675 0 .405-.405.54-.675.54-.8-.135-1.754-.27-2.7-.405l-.54-.135c-.405 0-.54-.405-.54-.675s.27-.54.675-.54zm-104.166-.405c.27 0 .675.27.675.54s-.27.675-.54.675c-.675.135-1.214.135-1.754.27s-1.08.135-1.62.27c-.405 0-.675-.135-.675-.54 0-.27.27-.675.54-.675.54-.135 1.08-.135 1.62-.27s1.214-.135 1.754-.27zm99.983-.135l.945.135.8.135c.405 0 .54.405.54.675 0 .405-.405.54-.675.54l-.8-.135-.945-.135c-.405 0-.54-.405-.54-.675 0-.405.405-.54.675-.54zM34.053 14.605c3.508-.54 5.262 1.484 5.262 4.318 0 3.508-2.834 8.096-8.77 10.525.27.54.54.945.945 1.35.8-.27 1.754-.405 2.7-.54h.405l-.405 2.968h-.27c-1.484.27-2.7 0-3.778-.405-5.397 2.43-8.096 8.096-8.096 12.818 0 4.318 2.43 7.96 6.88 7.286 5.262-.675 7.556-5.802 7.556-9.58 0-2.564-.945-4.588-2.968-4.318-1.754.27-2.968 2.16-2.968 4.318 0 .945.27 1.89.8 2.834l-3.238 2.024c-.675-1.08-.945-2.43-.945-3.643 0-3.643 2.43-7.15 6.477-7.69 3.913-.54 5.937 2.294 5.937 5.802 0 4.857-3.643 11.064-10.93 12.01-6.746.945-10.12-3.238-10.12-8.366 0-5.262 3.508-11.47 10.12-14.437-.54-.405-.945-.8-1.214-1.35l-2.43.405c-7.826 1.08-10.794-2.294-10.66-5.937 0-2.968 2.16-5.937 5.667-6.477 2.43-.27 4.318.27 5.667 2.564l-2.43 2.16c-.675-1.35-1.62-2.16-3.238-1.89-1.89.27-2.968 1.89-2.968 3.508 0 2.43 2.294 4.992 8.096 4.183.54 0 1.08-.135 1.62-.27-.405-.945-.54-2.16-.54-3.373 0-4.723 2.834-10.12 7.826-10.794zm48.305 8.77c-.405 1.484-1.484 8.23-2.564 13.898 1.484-1.89 2.834-3.913 3.778-6.477.27-.135.945 0 .945.27l-.206.54a27.56 27.56 0 01-4.921 8.095l-.8 4.588c-.675 3.643-1.89 6.477-4.183 6.746-1.62.135-2.7-.54-2.7-2.43 0-2.43 2.294-4.723 4.857-7.556l.405-2.43c-.675 1.08-1.484 1.754-2.43 1.89-1.754.27-2.43-1.35-2.43-3.643 0-.54.135-1.214.135-1.754-.8.945-1.754 1.62-2.7 2.16-1.214 2.7-2.968 4.453-5.262 4.723-2.43.27-3.508-2.024-3.508-5.127a37.794 37.794 0 01-3.913 5.667l-.8 4.588c-.675 3.643-1.89 6.477-4.183 6.746-1.62.135-2.7-.54-2.7-2.43 0-2.43 2.294-4.723 4.857-7.556l1.89-11.47-.945 2.564c-1.484 4.183-3.103 8.5-5.937 8.905-1.214.135-2.43-.675-2.43-2.834 0-3.778 2.294-7.96 2.294-10.525 0-.405-.135-.675-.54-.675-.8.135-2.294 1.89-3.508 7.016l-1.35 7.42-3.103.405s.405-3.238 1.35-5.937l1.754-10.4 3.103.135-.405 2.43c1.214-1.754 2.564-3.103 4.048-3.238 1.214-.27 2.024.54 2.024 2.16 0 3.373-2.294 7.826-2.294 10.66 0 .945.405 1.08.675 1.08.945-.135 2.16-2.294 3.643-6.477.8-2.024 2.024-5.262 2.968-7.96l2.834-.405c-.405 1.484-1.484 8.23-2.564 13.898 1.484-1.89 2.834-4.048 3.778-6.477.135-1.08.405-2.294.8-3.373l1.214.135c.405-2.834 1.89-5.262 4.318-5.667 2.294-.27 3.508 2.294 3.508 5.397 0 1.62-.405 3.508-.8 5.127.8-.54 1.62-1.484 2.294-3.238v-.405l1.62-7.556 2.968-.405s-.8 2.968-1.62 7.556c-.405 2.024-.675 3.778-.675 5.127 0 .945.405 1.08.675 1.08 1.754-.27 3.238-10.794 3.913-14.168zM53.753 46.178c-1.35 1.62-2.43 3.238-2.43 4.857 0 .675.27.8.675.8 1.08-.135 1.35-3.238 1.754-5.667zM1.94 47.663c1.35 0 3.103-.135 5.532.135h.405c.405 0 .675.27.675.54 0 .405-.27.675-.54.675H1.94c-.405 0-.675-.405-.675-.675 0-.405.405-.675.675-.675zm11.604-.135c.405-.135.675.27.675.54.135.405-.27.675-.54.675h-3.103c-.405.135-.675-.135-.675-.54-.135-.405.27-.675.54-.675zm62.607-4.453c-1.35 1.62-2.43 3.238-2.43 4.857 0 .675.27.8.675.8.54 0 .8-.8 1.08-1.89zm51.408 4.048c.27 0 .54.27.405.8 0 .27-.405.54-.675.54h-2.294c-.405 0-.675-.27-.675-.675s.405-.675.675-.675zm-4.453 0c.405-.135.675.27.675.54s-.27.675-.54.675h-4.183c-.405.135-.675-.27-.675-.54-.135-.405.27-.675.54-.675zm-6.746-19.835l-.405 3.778-.675 7.826-18.9 2.564-9.3 1.214.135-1.214.945-10.255 19.565-2.7 8.636-1.214zM8.956 38.892c.8.135 1.754.27 2.7.405l3.103.405c.405 0 .54.405.54.675-.135.405-.405.54-.675.54l-3.103-.405c-1.08-.135-1.89-.27-2.7-.405-.405 0-.54-.405-.54-.675 0-.405.405-.54.675-.54zm84.6-6.612l-3.508.405-.8 7.96 3.643-.54.135-1.08-2.16.27.27-2.564 1.484-.135.135-1.08-1.484.135.135-2.024 2.024-.27.135-1.08zM5.583 38.353l.675.135.54.135c.405 0 .54.405.54.675 0 .405-.405.54-.675.54l-.54-.135-.675-.135c-.405 0-.54-.405-.54-.675 0-.405.405-.54.675-.54zm93.506-7.016l-1.484.27-1.62 6.072-.405-5.802-1.484.27 1.08 7.69 1.35-.27 2.564-8.23zM.725 37.543c.405.135.8.135 1.214.27s.945.135 1.35.27c.405 0 .54.405.54.675 0 .405-.405.54-.675.54-.675-.135-1.08-.27-1.484-.27-.405-.135-.8-.135-1.214-.27-.405 0-.54-.405-.405-.675 0-.405.405-.54.675-.54zm102.817-6.612l-3.508.405-.8 7.96 3.643-.54.135-1.08-2.16.27.27-2.564 1.484-.135.135-1.08-1.484.135.135-2.024 2.024-.27.135-1.08zm21.86 6.207c.27 0 .675.27.675.54s-.27.675-.54.675c-.675.135-1.484.27-2.294.405s-1.89.27-3.103.54c-.27 0-.675-.27-.675-.54s.27-.675.54-.675c1.214-.135 2.16-.27 3.103-.54.945-.135 1.62-.27 2.294-.405zm-61.933-2.834c-.135.54-.135.945-.135 1.62 0 2.024.675 3.373 1.484 3.238.135-.135.135-.135.27-.135.54-.135.945-.675 1.35-1.484-1.484-.405-2.43-1.62-2.968-3.238zm45.202-1.89c.135-1.214-.405-2.16-1.754-2.024l-2.43.27-.8 7.96 1.484-.135.27-3.238h.405l1.08 2.968 1.484-.135-1.214-3.238c.8-.405 1.35-1.214 1.484-2.43zm5.532-2.7l-1.484.135-1.35 3.913-.675-3.778-1.35.135 1.214 4.588-.27 3.103 1.35-.135.27-3.103 2.294-4.857zm-47.1-2.844l-.115.01c-.135.135-.135.135-.27.135-.945.405-1.754 2.834-1.89 4.857 0 1.89.54 3.643 2.16 3.913.8-2.024 1.35-4.453 1.35-6.342 0-1.62-.405-2.7-1.35-2.564zm39.69 4.733c.54-.135.675.405.54 1.08-.135 1.214-.405 1.35-1.35 1.484h-.405l.27-2.43zM8.146 30.122c.135-.27.54-.54.8-.405.54.27 1.08.405 1.62.54l.8.27c.27.135.54.54.405.8s-.54.54-.8.405l-.8-.27a11.33 11.33 0 00-1.619-.54c-.405-.135-.54-.405-.405-.8zm-5.937-1.89c.135-.405.54-.54.8-.405.54.27 1.08.405 1.754.675.675.135 1.484.405 2.294.675.27.135.54.54.405.8s-.54.54-.8.405c-.945-.27-1.62-.405-2.294-.675-.54-.27-1.214-.405-1.754-.675-.27-.135-.54-.54-.405-.8zm121.842-.8c.405-.135.675.135.8.405.135.405-.135.675-.405.8-.405.135-.945.27-1.484.405-.675.135-1.214.405-1.754.54-.405.135-.675-.135-.8-.405 0-.27.135-.675.405-.8.675-.27 1.35-.405 1.754-.54.54-.135.945-.27 1.484-.405zM33.8 16.35l-.153.01c-2.7.405-4.183 4.453-4.183 8.366 0 1.08 0 2.024.27 2.968 4.318-2.16 6.072-6.072 6.072-8.636 0-1.62-.8-2.834-2.16-2.7zm30.206-4.443c5.667 0 10.93 1.214 15.652 3.508 4.857 2.294 9.175 5.802 12.548 9.985.135.27.135.54-.135.8-.27.135-.54.135-.8-.135a35.53 35.53 0 00-12.144-9.715 35.42 35.42 0 00-15.112-3.373c-3.778 0-7.42.675-10.794 1.754-3.508 1.214-6.746 2.834-9.715 4.992-.27.135-.675.135-.8-.135-.27-.27-.135-.675 0-.8 3.103-2.16 6.477-3.913 10.12-5.127 3.508-1.08 7.286-1.754 11.2-1.754zm41.963 4.318c.27-.135.675-.135.8.135s.135.675-.135.8l-2.564 2.024c-.675.405-1.62 1.214-3.103 2.294-.675.54-1.484 1.08-2.43 1.754l-2.834 2.024a.498.498 0 01-.8-.135.498.498 0 01.135-.8c1.08-.8 2.024-1.484 2.834-2.024.8-.675 1.62-1.214 2.43-1.754s1.89-1.35 3.103-2.294c1.484-1.214 2.294-1.754 2.564-2.024zM59.7 20.002c1.08-.135 1.62.675 1.62 1.62 0 1.35-.945 2.834-2.43 3.103-1.08.135-1.62-.675-1.62-1.62 0-1.214.945-2.834 2.43-3.103zm55.726.54a.65.65 0 01.81.27c.135.27 0 .675-.27.8-.675.405-1.484.8-2.294 1.214l-1.35.675a.65.65 0 01-.81-.27.65.65 0 01.27-.81l1.35-.675c.945-.405 1.62-.8 2.294-1.214zM6.257 18.923a.65.65 0 01.81-.27l1.62.8c.54.27 1.214.54 1.89.945a.65.65 0 01.27.81.65.65 0 01-.81.27c-.8-.27-1.484-.675-2.024-.945-.675-.27-1.08-.54-1.62-.8-.405-.135-.405-.54-.135-.8zm87.03-1.484c.135-.27.54-.27.8 0 .27.135.27.54 0 .8l-2.294 2.294c-.27.135-.675.135-.8 0-.27-.135-.27-.54 0-.8l2.294-2.294zm26.85.8a.65.65 0 01.81.27.65.65 0 01-.27.81c-.405.135-.8.27-1.214.54-.405.135-.8.405-1.35.675a.65.65 0 01-.81-.27.65.65 0 01.27-.81c.405-.27.945-.405 1.35-.675.405-.135.8-.405 1.214-.54zm-28.74-9.58c.135-.27.54-.27.8-.135s.27.54.135.8l-1.35 1.89c-.54.675-1.08 1.62-1.754 2.43-.54.945-1.214 1.89-2.024 2.834-.135.27-.54.27-.8.135s-.27-.54-.135-.8l2.024-2.834c.675-.8 1.214-1.62 1.754-2.43l.675-.945zm10.66-.27c.135-.27.54-.27.8 0 .27.135.27.54 0 .8-.8.8-1.754 1.89-2.834 2.968l-3.778 3.778c-.135 0-.135.135-.27.27l-.27.27c-.135.27-.54.27-.8 0-.27-.135-.27-.54 0-.8.135-.135.135-.135.27-.405l.27-.27c1.484-1.35 2.7-2.7 3.778-3.643 1.08-1.08 2.024-2.16 2.834-2.968zm9.715 3.508c.27-.135.675-.135.8.135s.135.675-.135.8c-.945.675-1.89 1.484-3.238 2.43l-.54.405c-.27.135-.675.135-.8-.135a.498.498 0 01.135-.8l.54-.405c1.35-.945 2.43-1.754 3.238-2.43zm-97.824.135c.135-.27.54-.27.8-.135.405.405.8.675 1.214.945l1.35 1.214c.27.135.27.54.135.8s-.54.27-.8.135c-.135-.135-.54-.405-1.484-1.08-.54-.405-.945-.675-1.214-.945s-.405-.675 0-.945zm30.09-2.564a.65.65 0 01.81.27c.27.675.54 1.214.8 1.62.135.27.405.945.8 1.754a.65.65 0 01-.27.81c-.27.135-.675 0-.8-.27-.27-.405-.54-.945-.8-1.754-.27-.675-.675-1.214-.8-1.62a.65.65 0 01.27-.81zm37.78 1.35a.65.65 0 01.81-.27c.27.135.405.405.27.8l-.54.945c-.135.27-.405.675-.54.945s-.54.405-.8.27a.65.65 0 01-.27-.81c.27-.27.405-.675.54-.945zM23.933 8.533c.135-.27.54-.27.8 0 .405.54.945.945 1.484 1.484s1.08 1.214 1.754 1.754c.27.135.27.54 0 .8-.135.27-.54.27-.8 0l-3.238-3.238c-.27-.135-.27-.54 0-.8zm-12.548 1.754c.135-.27.54-.405.8-.135.135 0 .27.135.54.405.135.135.27.27.54.405s.27.54.135.8-.54.27-.8.135c-.135-.135-.27-.27-.54-.405-.135-.135-.405-.27-.54-.405-.27-.27-.405-.675-.135-.8zm103.49-.54a.498.498 0 01.8.135c.27.27.135.675-.135.8-.405.27-.675.405-.8.54-.27.135-.54.27-.8.54s-.675.135-.8-.135-.135-.675.135-.8.54-.405.8-.54c.405-.27.675-.405.8-.54zM46.87-3.206c.405-.135.675.135.8.405.27.945.675 2.024 1.08 3.238.405 1.08.8 2.294 1.35 3.913.27.945.54 2.024.945 3.103.405 1.214.675 2.43 1.08 3.508.135.405-.135.675-.405.8-.405.135-.675-.135-.8-.405l-1.08-3.508c-.27-1.214-.675-2.16-.945-3.103C48.5 3.54 47.95 2.19 47.546.842c-.405-1.214-.8-2.294-1.08-3.238-.135-.405 0-.675.405-.8zm32.383.405c.135-.27.54-.54.8-.405s.54.54.405.8c-.27 1.08-.675 2.16-.945 3.103L78.3 4.485c-.27.945-.54 1.89-.945 2.968-.27.945-.675 2.024-1.08 3.373-.135.405-.54.54-.8.405-.405-.135-.54-.405-.405-.8.27-1.08.675-2.16 1.08-3.373.405-1.08.675-2.16.945-2.968.405-1.35.8-2.564 1.214-3.778l.945-3.103zm-47.36 7.42c.27-.135.675-.135.8.135l1.62 2.16c.27.27.945 1.08 1.89 2.43.135.27.135.675-.135.8s-.675.135-.8-.135c-.405-.405-1.08-1.214-1.89-2.43l-1.62-2.16c-.135-.27-.135-.675.135-.8zm24.962.675c.27-.135.54.135.675.54.135.54.135 1.08.27 1.754s.135 1.214.27 1.89c0 .27-.27.675-.54.675s-.675-.27-.675-.54c-.135-.675-.135-1.35-.27-1.89s-.135-1.08-.27-1.754c0-.27.27-.675.54-.675zm31.17-7.15a.65.65 0 01.81-.27.65.65 0 01.27.81c-.675 1.35-1.35 2.834-1.89 3.778a80.705 80.705 0 01-2.43 4.857c-.135.27-.405.675-.54 1.08-.135.27-.27.675-.54 1.214a.65.65 0 01-.81.27.65.65 0 01-.27-.81c.135-.27.27-.675.54-1.214.135-.405.405-.675.54-1.08l4.17-8.338zm-17.81 7.15c.405 0 .54.405.54.675-.135.54-.135 1.08-.27 1.62s-.135 1.214-.27 1.754c0 .405-.405.54-.675.54s-.54-.405-.405-.675c.135-.54.135-1.214.27-1.754 0-.675.135-1.214.135-1.62s.405-.54.675-.54zm-6.612-2.7c.27 0 .54.27.54.8v5.667c0 .27-.405.54-.675.54s-.54-.405-.54-.675V3.27c0-.405.405-.675.675-.675zM37.966-1.857c.405-.135.675-.135.8.27.54.945 1.214 2.294 1.89 3.643.675 1.214 1.484 2.834 2.564 4.857l.27.54a.65.65 0 01-.27.81.65.65 0 01-.81-.27l-.27-.54-.628-1.214-1.935-3.643c-.675-1.35-1.35-2.564-1.89-3.643a.65.65 0 01.27-.81zm56.13 6.477c.135-.27.54-.27.8-.135s.27.54.135.8l-.8 1.214c-.405.54.135-.27-.945 1.35-.135.27-.54.27-.8.135s-.27-.54-.135-.8c.405-.675 0 0 .945-1.35l.8-1.214zM21.504 6.104c.135-.27.54-.27.8 0l.405.54.405.405c.27.135.27.54 0 .8-.135.27-.54.27-.8 0l-.405-.405-.405-.54c-.27-.135-.27-.54 0-.8zm83.252-.405c.135-.27.54-.27.8 0 .27.135.27.54 0 .8l-1.08 1.08c-.27.27-.675.27-.8 0-.27-.135-.27-.54 0-.8l.54-.54zm-85.95-2.16c.135-.27.54-.27.8 0l1.08 1.08c.27.135.27.54 0 .8-.135.27-.54.27-.8 0l-1.08-1.08c-.27-.135-.27-.54 0-.8zm87.974.135c.135-.27.54-.27.8 0 .27.135.27.54 0 .8l-.8.8c-.27.27-.675.27-.8 0-.27-.135-.27-.54 0-.8l.8-.8zm-34.812-11.2c.405 0 .54.405.54.675-.135 1.214-.27 2.564-.54 4.183s-.54 3.508-.8 5.397v.8c0 .405-.405.54-.675.54s-.54-.405-.54-.675v-.8c.27-2.16.54-3.913.8-5.397.135-1.62.405-2.968.54-4.183 0-.405.405-.54.675-.54zm-16.866 2.43c.27 0 .54.135.675.54.135.945.27 2.024.54 3.238.135 1.08.405 2.294.675 3.913v.8c0 .27-.27.675-.54.675s-.675-.27-.675-.54v-.8c-.27-1.35-.405-2.564-.675-3.913-.135-1.214-.405-2.294-.54-3.238 0-.27.135-.54.54-.675zM27.98-.507c.27-.135.675-.135.8.135.675.8 1.35 1.754 2.16 2.834l.27.405c.135.27.135.675-.135.8s-.675.135-.8-.135l-.27-.405C29.06 1.92 28.386.842 27.846.302c-.135-.27-.135-.675.135-.8zm70.703-1.08c.135-.27.54-.27.8-.135s.27.54.135.8c-.8 1.08-1.62 2.294-2.7 3.778l-.405.54c-.135.27-.54.27-.8.135-.27-.27-.405-.675-.135-.8l.405-.54C97.2.572 98-.642 98.684-1.587zM63.468-8.063c.27 0 .54.27.675.54v8.905c.135.405-.27.675-.54.675-.405.135-.675-.27-.675-.54V-7.39c0-.405.27-.675.54-.675zM36.077-5.5a.65.65 0 01.81.27l.405.945c.135.27.405.54.54.945a.65.65 0 01-.27.81.65.65 0 01-.81-.27c-.27-.27-.405-.675-.54-.945l-.405-.945c-.135-.405 0-.675.27-.8zm53.432.8a.65.65 0 01.81-.27.65.65 0 01.27.81l-.54 1.08a.65.65 0 01-.81.27c-.405-.135-.405-.405-.27-.8zM45.117-8.468c.405-.135.675.135.8.405.27.675.675 1.62.945 2.564l.27.8c.135.405-.135.675-.405.8-.405.135-.675-.135-.8-.405l-.27-.8c-.405-.945-.675-1.754-.945-2.564-.135-.27 0-.675.405-.8zM80.47-7.12c.135-.27.54-.54.8-.405s.54.54.405.8l-.405 1.484-.135.54c-.135.27-.54.54-.8.405s-.405-.405-.27-.8l.135-.54zm11.47-2.16a.65.65 0 01.81-.27.65.65 0 01.27.81 2.94 2.94 0 00-.675 1.079c-.135.405-.405.8-.675 1.35a.65.65 0 01-.81.27c-.405-.135-.405-.54-.27-.675.27-.405.405-.945.675-1.35.27-.54.54-.945.675-1.214zm-57.885-.135a.65.65 0 01.81.27c.135.405.405.675.54 1.08a4.04 4.04 0 01.54 1.079.65.65 0 01-.27.81.65.65 0 01-.81-.27c-.135-.405-.405-.8-.54-1.08a4.04 4.04 0 00-.54-1.079.65.65 0 01.27-.81zm20.105-1.08c.27 0 .675.135.675.54l.405 2.564.135.54c0 .27-.27.675-.54.675s-.675-.27-.675-.54l-.135-.54-.405-2.564c0-.27.27-.675.54-.675zm27.526.27c.135-.27.54-.54.8-.405s.54.54.405.8c-.135.135-.135.135-.27.675-.135.135-.135.405-.27.675s-.54.54-.8.405-.54-.54-.405-.8.135-.405.27-.675c.135-.135.135-.135.27-.675zm-9.04-.675c.405 0 .54.405.54.675l-.135.675-.135.8c0 .405-.405.54-.675.54s-.54-.405-.54-.675l.135-.8.135-.675c0-.405.405-.54.675-.54zm-9.3-.54c.405 0 .675.27.675.675v1.214c0 .405-.27.675-.54.675-.405 0-.675-.27-.675-.54v-1.35c0-.405.27-.675.54-.675zm-19.835-1.89c.405-.135.675.135.8.405l.405 1.214c.135.405.27.8.405 1.35 0 .405-.135.675-.405.8-.405.135-.675-.135-.8-.405-.135-.405-.27-.945-.405-1.35l-.405-1.214c-.135-.405.135-.675.405-.8zm10.4.405c.27 0 .675.27.675.54v.54c0 .405-.27.675-.675.8-.27 0-.675-.27-.675-.54v-.54c0-.27.135-.675.675-.8zm9.58-3.643c.27 0 .54.27.54.675v2.7c0 .405-.27.675-.675.675-.27 0-.54-.27-.54-.675v-2.834c0-.27.405-.54.675-.54z"/></svg>