<svg xmlns="http://www.w3.org/2000/svg" viewBox="0 0 128 96"><path fill="#fff" d="M54.89 84.894c-.288 0-.767-.48-.863-.575a10 10 0 00-2.013-2.013l-1.15-.863c-.192-.096-.383-.288-.575-.383-.096-.192-.192-.383-.383-.48-.48-.288-1.438-1.15-.383-1.342.958-.192 1.82-.575 2.684-.958l2.684-1.246c.863-.383 1.725-.863 2.588-1.342l1.246-.575c.288-.288.767-.48 1.15-.575.575.096-.288 2.11-.48 2.396-.096.192-.288.48-.288.767s-.096.48-.192.67c-.096.096-.288.288-.48.383-.096.096-.192.192-.383.288l-1.342.67c-.383.192-.767.48-.958.863-.096.575-.192 1.054-.192 1.63 0 .192 0 .48-.096.67l-.096.192.096.096c-.192.383-.288.863-.48 1.342.096.288 0 .383-.096.383m-9.297-9.776c-.288 0-.48 0-.67-.096-.48-.192-.863-.575-1.15-.958a1.163 1.163 0 00-.48-.48c-.096-.096-.288-.192-.383-.288s-.288-.192-.096-.288h.096c.096 0 .288 0 .383.096.383.192.863.288 1.342.48l1.246.575h.67c.096 0 .192.096.288.096l.192-.096.767.288c-.67.288-1.438.67-2.204.67m26.645 10.16c-.192 0-.288-.096-.383-.288v-.192c.192-.48.575-.863.863-1.15.383-.288.67-.67 1.054-.958.67-.67 1.342-1.438 1.82-2.204a57.32 57.32 0 014.025-5.463c.767-.863 1.534-1.63 2.492-2.3.863-.767 1.725-1.438 2.684-2.013.192-.192.48-.288.767-.383.192 0 .288-.096.48-.192.383-.192.767-.383 1.15-.383.48-.096.958-.192 1.342-.192.575 0 1.246.096 1.82.383.48.192 1.246.288 1.438.863.096.383-.096.48-.383.575-.288.096-.575.192-.863.383-.48.288-1.054.48-1.534.67l-1.342.863c-.958.575-1.725 1.342-2.492 2.204a7.226 7.226 0 00-1.054 1.342c-.288.383-.48.863-.863 1.246-.192.192-.288.383-.383.575l-.192.096c-.096.096-.096.192-.096.288-.192.383-.575.767-.863 1.15-.288.48-.67.958-1.054 1.342l-1.05 1.343a3.136 3.136 0 01-2.3 1.438c-.383 0-.575-.383-.575-.67v-.096c0-.192.192-.383.288-.48.192-.192.288-.288.383-.48l.958-1.438c.192-.288.67-.767.383-1.15-.383.096-.767.48-.958.863l-.767.958c-.48.67-1.054 1.246-1.725 1.82l-2.013 1.342a.733.733 0 01-.48.192l-.575.096m7.668-21.086c.096 0 .192 0 .288-.096h.096c.096 0 .096 0 .192.096.192.096.383.288.48.48.383.288.767.67 1.15.863.383.288.767.575 1.15.958.863.67 1.82 1.342 2.78 1.917.192.096.48.192.67.383.096.096.096.192.096.288 0 .192-.096.192-.288.192l-1.534.575c-.958.48-1.917.958-2.684 1.63l-2.588 2.013a14.417 14.417 0 00-2.013 2.204l-3.93 5.176c-.383.383-.67.767-1.054 1.246-.288.383-.67.767-1.054 1.15a22.56 22.56 0 01-2.396 1.82l-1.438.863a4.49 4.49 0 01-1.438.575c-1.054.383-2.204.67-3.26.958l-3.355.67c-.958.288-1.917.383-2.875.383h-.48c-.192 0-.383-.096-.575-.192-.096-.192-.096-.288-.096-.48.096-.48.192-.863.383-1.246l1.054-3.26c.096-.575.288-1.054.48-1.63.096-.192.288-.383.48-.48h.096c.096 0 .288 0 .383.096.288.096.575.096.863.192.192.096.48.096.767.096.48 0 1.054.096 1.534.096h.48c.383 0 .863 0 1.246-.096h.096c.48 0 .958 0 1.438.096l3.26-.383c.575-.096 1.15-.096 1.725-.192a.529.529 0 00.48-.288c.096-.096.192-.383 0-.383-.288 0-.48-.096-.767-.096s-.48 0-.767.096c-.48 0-1.054.096-1.534.192h-.192c-.48 0-.958-.096-1.438-.096h-.192c-.192 0-.288 0-.48-.096-.192-.192-.192-.383-.192-.575 0-.575.096-1.15.192-1.63.096-.575.288-1.054.48-1.534l1.246-3.067.288-.767c.096-.096.192-.288.383-.383 0-.192.192-.288.192-.48.096-.192.192-.383.288-.48.096-.192.383-.767.096-.767-.096 0-.096 0-.192.096-.383.288-.67.67-.958 1.054-.67.863-1.342 1.82-1.82 2.875-.288.48-.48.958-.767 1.534a9.514 9.514 0 00-.48 1.534c-.096.575-.288 1.054-.383 1.63a1.77 1.77 0 01-.479 1.15c-.288-.096-.575-.096-.863-.096s-.48 0-.767-.096h-.288c-.383 0-.767-.096-1.054-.288a1.177 1.177 0 01.096-1.246l.575-1.342c.288-1.054.67-2.013 1.054-2.97.575-.958 1.342-1.82 2.11-2.492 3.26-3.067 7.668-4.696 11.693-6.326.48-.192 1.054-.383 1.534-.48s.767-.48 1.15-.575c.288-.096.575-.192.767-.288.383-.192.67-.288.863-.288m-36.612 4.505h-.192c-.288-.096-.48-.288-.67-.48l-.288-.288c-.096-.096-.192-.096-.288-.192-.192-.192-.383-.383-.48-.575s-.192-.383-.288-.67c-.096-.192 0-.383.192-.48.48-.383.958-.767 1.342-1.15.288-.48.575-.958.958-1.438.096 0 .096-.096.096-.096.288 0 .288.863.288 1.054 0 .575-.096 1.15-.192 1.725-.096.67.288 1.246.192 1.917-.096.096-.096.288-.096.48-.192-.096-.288.192-.575.192m10.926 20.03a.529.529 0 01-.48-.288v-.575c-.096-1.054-.575-2.11-1.246-2.97-1.342-1.725-3.26-2.97-5.367-3.642-.575-.192-1.15-.288-1.725-.48-.48-.096-1.054-.096-1.63-.192-.48 0-.863-.192-1.342-.383a8.713 8.713 0 01-.863-.958c-.383-.48-.67-.958-.958-1.438-.383-.383-.67-.863-1.054-1.246L38.3 75.31c-.383-.192-.67-.575-.863-.958-.096-.48.288-.958.767-1.054.383-.192.67-.575.863-.958.192-.48-.383-.767-.67-1.054-.192-.096-.288-.192-.48-.288l-.575-.383a7.09 7.09 0 01-1.917-2.204c-.48-.958-.575-2.013-.288-3.067a9.543 9.543 0 011.725-2.78l1.054-1.342c.383-.48.67-.767 1.054-1.15.767-.863 1.63-1.63 2.396-2.3.48-.288.863-.67 1.15-1.054.096-.192.192-.383.383-.575s.383-.288.575-.48c.096-.192.192-.288.288-.48.192 0 .192.192.192.288l.192.192c.096.096.096.192.096.288.096.192.096.48.192.67.288.48.575.958.863 1.342.192.288.383.288.288.575-.096.192-.096.383 0 .67s.096.48 0 .767c-.192.192-.383.383-.67.48-.48.288-.863.67-1.246 1.054L41.185 64c-.958.383-1.63 1.342-1.534 2.396.096.48.383.863.863 1.15.383.288.767.575 1.054.958l.48.48c.096.192.096.383.096.575 0 .288.192.383.288.383.192 0 .383-.096.575-.192.096-.096.288-.096.383-.096.288 0 .575.096.767.288.288.096.67.096.958.096h.48c1.15 0 2.3.288 3.355.288h.096c.288 0 .575-.096.863-.096s.575 0 .863.096c.192.096.383.096.575.096.288 0 .575-.096.767-.192.48-.288.863-.67 1.342-.863s.958-.48 1.342-.67c.48-.192.863-.383 1.438-.383.288 0 .958-.192.67-.575-.192-.096-.288-.096-.575-.096-.575 0-1.342.383-1.725.48-.767.288-1.534.575-2.3 1.054-.67.383-1.342.575-2.11.67-.192 0-.288-.096-.48-.192s-.383-.096-.48-.096c-.383-.096-.767-.192-1.15-.192-.767 0-1.725 0-2.396-.67-.192-.288-.288-.67-.192-.958 0-.383 0-.767-.096-1.15-.096-.863-.192-1.725-.192-2.588 0-.767.288-1.534.67-2.3.383 1.054.958 1.917 1.63 2.78a6.11 6.11 0 001.342.767c.48.288.958.48 1.438.575s1.054.096 1.534.096c.67 0 1.342-.096 2.013-.192.575-.096 1.054-.192 1.63-.48.192-.096.383-.192.575-.192.288 0 .575.096.767.288a8.75 8.75 0 01.767 1.246c.288.383.48.863.67 1.342.48.958.863 1.917 1.246 2.97.096.288.096.48.192.767.096.192.096.383.192.575.096.383.096.767-.096 1.15-.288.383-.67.67-1.15.767l-1.438.767c-1.054.575-2.013.958-3.067 1.438-1.054.383-2.013.863-3.067 1.246-1.054.48-2.11.67-3.163.767H47.8c-1.054 0-2.11-.288-2.97-.863-.958-.48-1.917-.958-2.97-1.342-.288-.096-.575-.096-.863-.192-.575-.288-.958-.863-1.054-1.534a2.87 2.87 0 01.383-.767c.096-.192.192-.383.192-.575 0-.096 0-.383.192-.383.192.096.383.192.48.383s.288.48.383.67l.48.48 1.15.863c.48.288.863.67 1.342.863.192 0 .383.096.67.096s.575 0 .863-.096c.575-.096 1.054-.383 1.63-.575s1.054-.288 1.534-.48 1.054-.48 1.63-.575c.575-.192.958-.288 1.438-.48.958-.383 1.82-.958 2.78-1.342.288-.096 1.054-.383.958-.863.096-.48-.288-.67-.67-.67h-.096c-.48 0-.958.288-1.438.575-.383.288-.863.575-1.342.863a3.97 3.97 0 01-1.534.288c-.48 0-.863.096-1.342.192-.288 0-.67.096-.958.096-.767 0-1.63-.096-2.396-.288-.575-.096-1.15-.288-1.63-.48s-.958-.383-1.438-.67c-.192-.096-.288-.192-.48-.192-.096.096-.192.096-.288.096-.192 0-.383 0-.575.096s-.383.096-.575.096c-.288 0-.48-.096-.67-.192-.192-.192-.288-.383-.48-.575-.096-.192-.288-.383-.383-.575-.192-.383-.383-.863-.575-1.342s-.48-.958-.67-1.534c-.192-.48-.192-1.054-.192-1.534.096-1.054.383-2.11.767-3.067l.863-1.438c.288-.48.48-.958.767-1.342.096-.192.288-.48.48-.67.096 0 .288-.288.096-.383-.383.096-.67.192-.863.48-.767.767-1.342 1.63-1.917 2.588-.288.48-.575.863-.958 1.246s-.67.67-.958 1.15c-.67.767-.863 1.917-.575 2.875.096.288.288.48.383.767.096.096.096.192.096.383 0 .096.096.192.192.288.383.383.67.767.958 1.15l1.15 1.15c.383.192.67.575.958.863.096.48 0 .958-.288 1.342-.383.192-.575.575-.575 1.054.096.48.288.958.575 1.438.096.192.383.288.48.48s.192.288.383.383.383.288.48.48c.192.192.383.383.48.575.288.48.575.863.958 1.246s.863.575 1.438.67c.48.096.958.288 1.534.383.48.096.958.192 1.438.383.48 0 .958.096 1.342.192.096.096.288.192.383.383.096 0 .192 0 .192.096.192.096.383.288.48.48.383.288.863.575 1.246.958.863.67 1.725 1.438 2.492 2.3.383.383.767.863 1.15 1.246.192.383.288.863.192 1.246.48.48.288.958.096 1.438m-2.396-48.593h-.192c-.288-.096-.48-.48-.383-.767.096-.863.096-1.725.096-2.588-.096-.863-.192-1.63-.48-2.396a2.332 2.332 0 010-1.15.528.528 0 01.48-.288h.192l.096.096c.192.096.383.192.575.192.096 0 .288 0 .383-.096h.192c.288 0 .575.192.67.383.192.383.288.767.288 1.15s.096.767.096 1.15c0 .863-.096 1.82-.192 2.684.096.383.096.67 0 1.054h.096c-.288.192-.575.288-.863.288h-.096a1.85 1.85 0 01-.958.288m27.124-9.68c-.192 0-.383-.096-.575-.288-.383-.192-.48-.67-.288-1.054.192-.863.67-1.725 1.438-2.3h.096c.48 0 .863.192 1.15.48s-.192.767-.288.958c-.096.192-.096.383-.192.575-.096.096-.096.192-.192.288v.192c-.288.288-.288.767-.575 1.054-.192.096-.383.096-.575.096m-5.08-1.534a2.045 2.045 0 01.096-2.204c.48-.67 1.246-.575 1.917-.767h.192c.096 0 .096 0 .192.096.096.192 0 .096-.192.192l-.192.192c-.288.288-.575.48-.767.767-.288.383-.575.767-.767 1.15-.096.192-.192.383-.288.48l-.192.096m-21.66 3.546h-.192a.72.72 0 01-.671-.479c0-.383 0-.767.192-1.054l.288-1.15c.383-1.342.67-2.97 1.725-4.025.383 0 .192 3.067.192 3.45v3.45l-.288.096h-.096c-.096 0-.192 0-.288-.096s-.288-.192-.48-.192h-.383m-7.476 18.2v-1.534c.096-1.054.288-2.204.48-3.26.192-1.15.192-2.204.288-3.355l.288-1.725v-1.63c0-.575-.096-1.15-.096-1.725v-1.534a1.33 1.33 0 010-.863c.096-.192.096-.48.096-.67 0-.48 0-.958-.096-1.342a1.33 1.33 0 010-.863c.096-.288.096-.48.096-.767.096-.48.288-1.054.48-1.438.958-2.11 2.11-4.025 3.546-5.942.383-.48.767-.958 1.054-1.438.383-.48.575-.958.863-1.342.192-.288.958-1.246 1.534-1.246.192 0 .383.096.48.383.575 1.054.096 2.11-.096 2.97-.096.48-.288.958-.48 1.438-.288.383-.383.767-.67 1.15a5.81 5.81 0 00-1.342 2.779c-.096.575-.192 1.15-.383 1.82a3.97 3.97 0 00-.288 1.534.87.87 0 00-.288.671c-.096.096-.288.192-.383.192-.096.096-.288.192-.383.192-.192 0-.288 0-.383.096-.383.096-.767.096-1.15.192s-.192.48.096.575c.192 0 .383.096.48.096.288 0 .48 0 .67-.096.096-.096.288-.096.383-.096.192 0 .383.096.48.192.192.383.288.863.192 1.246 0 .383.096.863.096 1.246.096.958.096 1.917.096 2.875.192.67 0 1.438-.575 1.917-.767.575-1.534.863-2.492 1.054-.383 0-.767-.192-1.054-.288h-.096c-.192 0-.288.192-.192.48.096.383.48.48.863.48.48 0 1.054-.192 1.342-.288.192-.096.48-.288.67-.288.192-.096.383-.096.575-.192s.48-.383.67-.383c.096 0 .192.096.288.288.192.575 0 1.15.383 1.438 0 .096.096.096.192.096s.096 0 .192-.096l.096-.192c0-.192.096-.383.192-.575.192-.48.192-.958.096-1.438.096-.383.383-.67.863-.67.192 0 .575-.192.863-.192.096 0 .288 0 .288.192 0 .48-.096 1.054-.288 1.438a8.154 8.154 0 00-.48 1.63l-.288 1.63c-.192 1.15-.48 2.3-.575 3.45-.096 1.054-.096 2.11 0 3.26s.288 2.204.48 3.355.383 2.204.767 3.26c.383.958.958 1.917 1.534 2.684.288.48.67.863 1.054 1.246.48.288 0 .767-.383.958-.958.48-2.11.767-3.163.863h-.48a5.597 5.597 0 01-2.492-.575c-.863-.48-1.534-1.342-1.917-2.204-.192-.48-.383-.958-.48-1.438-.096-.288-.575-.863-.192-1.15v.192c.096 0 .192.096.288.096.192.096.48.288.67.383.383.288.863.48 1.342.67.192.096.575.383.863.383.096 0 .192 0 .288-.192.288-.383-.288-.767-.67-.958-.863-.48-1.63-1.054-2.204-1.82-.767-.67-1.342-1.534-1.82-2.396a19.608 19.608 0 01-.863-3.163c.096-.67.096-1.246.192-1.725M56.616 18.1c0-.383.288-.767.67-.863.096 0 .192-.096.383-.096a.87.87 0 01.671.288c.096.383.096.863 0 1.246 0 .48-.096.958-.192 1.438.096.288-.192.67-.48.67h-.192c-.383 0-.67-.192-.863-.48-.383-.575-.383-1.438 0-2.204m-4.888 2.3a.87.87 0 01.288-.671c.096-.192.192-.48.288-.767.288-.48.48-1.054.767-1.534s.575-.958.863-1.534c.096-.48.383-.863.767-1.15 0-.192.288-.48.383-.48s.096.096.192.192l.288 1.15c.192.288.192.767-.096.958-.288.288-.575.575-.767.958l-.575 1.15c0 .288-.192.575-.48.767h-.48c-.192 0-.383.096-.575.288-.288.288-.575.48-.863.67m7.284-5.27h-.67l-.096-.192c-.192-.288-.288-.575-.383-.863V13.5c-.096-.192-.096-.288-.096-.48-.096-.383.096-.67.48-.767.096-.096.192-.096.383-.096s.48.096.575.288c.192.383.288.767.383 1.15a1.62 1.62 0 00.288.958c0 .383-.288.67-.67.67 0-.096-.096-.096-.192-.096m4.792-3.738c.096 0 .192-.096.288-.096s.192 0 .288.096l.192.192c.096 0 .192.096.288.096l.575.575c.192.192.383.48.48.767-.192.288-.383.575-.67.767-.192.096-.288.192-.383.192s-.288-.096-.383-.288c-.192-.288-.383-.575-.48-.958-.192-.192-.288-.48-.383-.767-.096-.192-.096-.48.096-.575h.096m-3.163-.383s-.096 0 0 0l-.192-.192c-.288-.288-.383-.67-.383-1.054-.096-.383-.192-.767-.192-1.15a1.04 1.04 0 01.767-.767c.096-.096.192-.096.383-.096s.383.096.575.288c.192.383.383.863.48 1.342.192.383.288.767.288 1.15-.192.288-.48.575-.863.575l-.67.096c-.096-.192-.192-.192-.192-.192M65.53 37.93c.383 0 .67-.288.767-.67v-.096c-.192-.48-.383-.958-.575-1.342-.192-.48-.288-.958-.288-1.534s0-1.15-.096-1.82l-.288-1.63a5.21 5.21 0 010-1.725 3.63 3.63 0 000-1.438c-.096-.575-.288-1.054-.48-1.63-.192-.48-.288-.958-.575-1.534-.192-.48-.48-1.054-.67-1.63s-.288-1.054-.575-1.534c-.48-1.054-.767-2.11-.958-3.163s-.48-2.11-.863-3.163c-.096-.288-.288-.48-.383-.767s-.096-.48-.192-.767a4.255 4.255 0 00-.575-1.534c-.192-.48-.48-.863-.863-1.246-.383-.096-.67-.383-.958-.575-.096-.288-.192-.575-.096-.767 0-.192.096-.383.192-.575.192-.288.383-.67.67-1.054s1.054-.67 1.63-.67c.383 0 .67.096.863.383-.383.288-1.054.096-1.438.575a2.952 2.952 0 00-.288 1.82c.096.288.288.575.383.863s.288.575.48.767c.192.096.288.192.48.192.383 0 .767-.192 1.15-.288h.192c.383 0 .575.288.767.67.096.192.192.383.288.67.096.192.096.48.192.67.192.48.48.958.767 1.438.096.192.192.48.288.67s.288.383.383.575c.48 1.054.958 2.013 1.342 3.067.192.48.383 1.054.67 1.534.192.48.383 1.054.575 1.534.288.48.575.958.863 1.342.192.192.288.383.48.575l.288.575c.383.48-.096.67-.575.67s-.958.096-1.438.192-.958.383-1.15.863c-.096.48.096.863.575 1.054.192.096.288.096.48.096h.767c.192-.096 1.054-.192.863-.575-.096-.096-.096-.192-.192-.192-.192 0-.383.192-.575.288h-.288c-.192 0-.383 0-.575-.096-.67-.288-.383-.863.192-.958l1.342-.288h.48c.288 0 .575.096.383.288.192.096.288.383.192.575 0 .192.096.48.096.67.096.48.096 1.054.192 1.534 0 2.3.192 4.6.383 6.9.096.575.096 1.15.192 1.725 0 .383.288.767.575.863.192.096.383.192.67.288.192 0 .288-.288.288-.48-.096-.192-.096-.383-.192-.67 0-.288-.096-.575-.192-.767-.288-1.054-.575-2.204-.767-3.26-.192-1.15-.288-2.3-.288-3.45v-1.82c0-.575-.096-1.054-.192-1.63 0-.575-.096-1.054-.383-1.534-.096-.192-.096-.383-.192-.575s-.288-.383-.383-.575c-1.054-1.917-1.917-4.025-2.875-5.942-.192-.48-.48-.958-.767-1.438a3.342 3.342 0 01-.575-1.342 1.52 1.52 0 01.767-.958c.096-.096.192-.096.192-.096.096 0 .096 0 .192.096.192.096.288.288.48.48.67.863 1.246 1.725 1.82 2.588.67.863 1.246 1.82 1.725 2.875.383 1.054.958 2.013 1.438 3.067.288.48.48 1.054.67 1.534s.288.958.383 1.438c0 .575-.192 1.15-.096 1.63 0 .48.096 1.054.192 1.534.096.288.096.575.096.863 0 .192.096.48.192.67 0 .192.096.48.096.67.096.192.096.383.192.67.096.48.096 1.054.192 1.534s.192 1.054.192 1.63.096 1.054.192 1.63c.192.48.288.958.575 1.438.192.575.48 1.054.863 1.534l.863 1.15c.192.192.288.48.288.67l.575 1.15c.096.192.192.288.288.383a1.62 1.62 0 00-.288-.958c0-.096-.096-.288-.192-.383s-.192-.288-.192-.48c-.096-.288-.383-.575-.48-.958 0-.096 0-.288-.096-.383s.192-.67.096-.767c-.096-.288-.192-.67-.288-.958s-.288-.67-.383-1.054a14.9 14.9 0 01-.767-2.204c-.192-.767-.383-1.534-.48-2.204-.192-.67-.288-1.438-.192-2.204.192-.575.48-1.15.863-1.63.288-.575.67-1.15 1.15-1.725.383-.383.767-.767 1.246-1.054.288-.288.67-.48 1.15-.67h.48c.767 0 1.82.288 2.013 1.054.096.192 0 .288-.096.288-.192 0-.48-.192-.67-.288s-.383-.192-.67-.192c-.192 0-.48.096-.67.192a3.115 3.115 0 00-.958 1.246c-.288.48-.48.958-.67 1.438-.096.48.096.958.48 1.15.192.096 1.054.48.958.67-.383.863-.575 1.82-.67 2.78-.096 2.3.192 4.6.67 6.805.288 1.15.575 2.3.767 3.45.288 1.054.383 2.204.383 3.355-.288 1.054-.575 2.11-1.054 3.067-.288 1.15-.48 2.204-.863 3.355-.383 1.054-.767 2.11-1.246 3.163-.192.575-.383 1.054-.575 1.63-.096.575-.096 1.054-.096 1.63-.096.575 0 1.15.096 1.725.096.48.48.863.575 1.342.192.48-.288.863-.767.958s-.958.288-1.438.48c-1.054.48-2.11.67-3.163 1.054-1.054.48-2.11.958-3.163 1.534a34.417 34.417 0 00-5.463 3.738c-.192.192-.383.383-.67.575-.096.096-.192.192-.288.192s-.096 0-.192-.096a3.342 3.342 0 01-.575-1.342c-.288-1.15-.767-2.204-1.246-3.26a22.15 22.15 0 00-.863-1.534c-.096-.192-.192-.48-.288-.67-.192-.192-.288-.383-.383-.67-.48-1.15 1.534-.48 1.917-.958s-1.054-.863-1.342-.958c-.67-.383-1.246-.767-1.82-1.342-1.15-.958-1.917-2.3-2.396-3.738-.958-3.26-.863-6.613-.67-9.968.096-1.15 0-2.396.096-3.546l.288-1.725c.096-.288.096-.48.192-.767.096-.192.096-.383.192-.67 0-.48 0-1.054-.192-1.534v-1.438c0-.575.192-1.15.192-1.725s-.096-1.054-.288-1.534c-.192-1.15-.192-2.204-.192-3.355-.096-1.15-.096-2.3-.096-3.546 0-.67 0-1.246-.096-1.917s-.096-1.054-.096-1.63v-1.342c0-.288.096-.48.192-.67.096-.288.096-.48.096-.767v-1.534c0-.192 0-.48.096-.67l.192-.192c0-.096 0-.192.096-.288.192-.48.383-.958.67-1.342.096-.096.192-.192.288-.192s.096.383 0 .575v-.096c-.192.863-.192 1.82.096 2.684.096.383.383.575.767.67h.575c.096 0 .192-.096.288-.096 0 0 .096 0 .096.096.096.288.192.48.192.767v2.3c.096 1.15.096 2.3.192 3.45 0 .575.096 1.15.192 1.725.096.48.383.958.48 1.438.192.383.096.863-.288 1.054h-.096c-.383 0-.67.192-.863.48.192.096.48.096.67.096h.383c.192 0 .383 0 .575.096.383.192.575.67.383 1.054l-.096.096c-.192.096-.48 0-.767.096-.096 0-.096.096-.192.096s-.096 0-.192-.096c-.192-.096-.383-.096-.575-.096a.733.733 0 00-.48-.192h-.096c.192.383.575.67.958.67h.383c.192 0 .288 0 .48.096s.288.288.192.48c-.096.096-.192.096-.383.096-.096 0-.288 0-.383-.096-.192-.096-.48-.096-.67-.192-.192 0-.575-.192-.863-.192-.096 0-.288 0-.288.192-.096.575 1.246.767 1.63.767h.288c.192 0 .48.096.67.192a1.62 1.62 0 01.288.958c.096.767.192 1.438.383 2.204 0 .096.192.67.383.67h.096c.192-.192.288-.383.192-.67 0-.383-.192-.767-.192-1.15s-.096-.767-.096-1.15v-1.15c.096-.383.096-.67.096-1.054v-.48c0-.096 0-.288-.096-.383 0-.288 0-.67-.096-.958a4.67 4.67 0 00-.383-1.054l-.288-.863c-.192-.575-.48-1.054-.575-1.63-.096-.48-.192-.958-.192-1.438s-.096-.958-.096-1.438v-1.534c-.096-.48-.192-.958-.192-1.438.096-.48 0-.958 0-1.438s.192-1.15.192-1.725c0-.48.096-.958.096-1.438 0-.288-.096-.575 0-.767a.529.529 0 00-.288-.48c-.383-.288-.767-.48-1.246-.48h-.096c-.192 0-.383-.096-.48-.288s-.192-.383-.288-.67l-.288-1.342c-.192-.48-.192-1.054 0-1.63.096-.192.192-.383.192-.575.096-.192.192-.288.288-.48s.288-.383.48-.48l.575-.288h.192c.192 0 .383 0 .48.096a.746.746 0 01.383.383c-.575.096-1.054.48-1.342.958-.096.575-.096 1.15.192 1.725.096.288.192.67.288.958l.192.383c0 .096.096.096.192.096h1.054c.288-.096.48-.192.767-.288.192.575.288 1.15.383 1.63.096.575.288.958.383 1.342 0 .192 0 .48.096.67s.192.383.288.67c.096.383.288.863.48 1.246.48.958.767 2.11 1.246 3.163.383 1.054.958 2.11 1.246 3.163.096.575.192 1.15.192 1.725 0 .288.096.48.096.767s0 .48-.096.767a4.121 4.121 0 000 1.534c0 .48 0 1.054.096 1.534a5.21 5.21 0 010 1.725c-.096.48-.096 1.054.096 1.438.096.192.192.48.288.67.67.67.863.767 1.054.863m-5.27-32.587h-.767c-.958.192-1.82.767-2.11 1.725-.192.383-.383.767-.48 1.246 0 .48-.096.958-.288 1.342-.192.192-.383.383-.575.48-.192.192-.383.383-.48.575-.192.383-.383.863-.575 1.246s-.48.767-.863 1.15l-.863 1.15a9.616 9.616 0 00-1.63 2.684c-.383 1.054-.767 2.11-1.246 3.163-.48.958-.958 1.82-1.438 2.684s-1.246 1.82-1.917 2.684-1.246 1.917-1.82 2.875c-.192.192-.288.48-.48.67l-.288.575c-.192.383-.288.863-.383 1.246-.096 1.15-.192 2.204-.096 3.355 0 1.15.096 2.3 0 3.45s.096 2.204 0 3.355c-.288 2.3-.575 4.6-.767 6.997-.096 1.15-.096 2.396-.096 3.546.096.575 0 1.15-.096 1.725-.192.48-.383.863-.67 1.246-.383.383-.767.767-1.246 1.15l-1.15 1.15c-.767.767-1.438 1.534-2.204 2.3s-1.438 1.63-2.11 2.492-1.342 1.725-1.725 2.78a5.678 5.678 0 00-.575 3.067 5.22 5.22 0 001.246 2.875 7.66 7.66 0 001.246 1.246c.383.288.767.575 1.054.958.383.383-.383.863-.575 1.15-.288.383-.48.767-.48 1.246v.48l.192.288c.096.192.288.383.48.575.288.383.67.67 1.054 1.054l2.3 2.3c.383.383.67.863.958 1.342.096.192.288.383.383.575s.192.288.383.48c.383.383.767.575 1.246.575h1.534c.575.096 1.15.096 1.63.192.575.096 1.054.288 1.534.383.575.096 1.054.288 1.534.48s.863.48 1.246.863a7.185 7.185 0 011.725 2.684c.192.575.192 1.15.096 1.725-.096.48 0 .958.192 1.246.288.192.67.288 1.054.288h.383c.575 0 1.15-.096 1.725-.096h.383c.958 0 1.917-.096 2.875-.192 1.15-.192 2.204-.192 3.355-.48s2.3-.575 3.355-.958c1.15-.383 2.11-.863 3.163-1.15a11.88 11.88 0 012.588-.288h.767c.575 0 1.15-.192 1.63-.383.48-.288.863-.48 1.342-.767.192-.096.48-.192.67-.192h.863c.288-.096.48-.096.767-.096s.48.096.767.096.575-.096.767-.288c.192-.096.48-.192.67-.288.48-.288.863-.575 1.15-.958.767-.767 1.438-1.725 2.013-2.684 1.15-1.917 2.492-3.738 4.12-5.27a29.016 29.016 0 012.684-2.11c.48-.288.958-.575 1.438-.958a8.75 8.75 0 011.246-.767c.288-.096.48-.288.67-.383l.575-.288c.192-.096.383-.288.575-.383s.383-.192.48-.288c.096-.288.192-.575.096-.863v-.383l-.192-.192c-.288-.383-.67-.575-1.054-.767-.958-.383-2.013-.575-3.067-.958-1.054-.288-2.013-.767-2.97-1.246-.958-.67-1.82-1.342-2.684-2.013-.48-.383-.958-.67-1.438-.958-.48-.192-.863-.48-1.246-.767a3.013 3.013 0 00-1.054-.863c-.192 0-.383-.096-.67-.096s-.575 0-.863.096c-.096 0-.192.096-.288.096s-.288 0-.383-.096c-.096.096-.192-.096-.192-.383-.192-.48-.288-1.054-.383-1.534 0-1.15.288-2.204.767-3.163.192-.575.383-1.054.575-1.63.096-.48.192-1.054.383-1.534.958-2.013 1.438-4.12 1.63-6.326 0-2.204-.383-4.41-1.054-6.517-.288-1.054-.48-2.204-.67-3.355-.192-1.054-.288-2.11-.192-3.163l.288-1.63c.096-.48.288-.863.48-1.342a2.87 2.87 0 01.383-.767c.096-.192.192-.48.288-.767.192-.383.383-.767.48-1.15.288-.575.575-1.054.767-1.63.288-.48.383-.958.48-1.438 0-.48-.288-.863-.767-1.054a3.608 3.608 0 00-1.246-.575 4.34 4.34 0 00-1.534-.288c-.48 0-.863.288-1.342.288h-.096c-.48-.096-.958-.096-1.342-.096h-.383c-.48 0-1.054.096-1.534.192l-.288-.863c-.096-.288-.192-.575-.383-.767-.288-.575-.575-1.15-.767-1.82a26.204 26.204 0 00-2.013-4.025c-.383-.67-.767-1.342-1.15-1.917s-.863-1.054-1.246-1.63-.863-1.054-1.342-1.63c-.192-.192-.383-.383-.575-.67-.192-.192-.383-.383-.575-.48a3.342 3.342 0 00-1.342-.575c-.383-.096-.767-.48-.958-.863-.48-.958-.863-2.013-1.438-2.97-.288-.383-.67-.767-1.15-.958-.288.096-.575.096-.863.096"/></svg>