<svg xmlns="http://www.w3.org/2000/svg" viewBox="0 0 128 96"><path fill="#fff" d="M28.834 85.693a.647.647 0 01-.663-.663c0-.38.284-.663.663-.663h72.073c.38 0 .663.284.663.663s-.284.663-.663.663H28.834m2.84-9.092c-.095-.663-.284-1.23-.568-1.894h69.8c.19 0 .38 0 .663-.095.38.095.852.284 1.136.568.568.568 1.23 1.6 1.23 3.788v.19a4.78 4.78 0 01-1.421 3.788c-.19.19-.474.38-.758.568-.284-.095-.568-.19-.852-.19h-69.99c.663-1.326 1.042-2.747 1.042-4.262v-.284l13.164.095c.19 0 .284-.095.284-.284s-.095-.284-.284-.284l-7.103-.568 32.58-.474c.19 0 .284-.095.284-.284s-.095-.284-.284-.284H31.676m70.936 8.713c.095-.38 0-.758-.095-1.136.284-.19.474-.38.758-.568 1.23-1.23 1.8-2.936 1.705-4.64v-.095c0-2.368-.663-3.883-1.6-4.64-.284-.284-.568-.474-.947-.568.095-.284.19-.568.19-.852v-.095c.852.095 1.705.38 2.368.947.947.758 1.705 2.178 1.705 4.925v.19c0 3.125-.947 4.735-2.084 5.588-.474.474-1.23.758-1.99.947M28.834 73.57c-.38-.095-.568-.474-.474-.758s.284-.474.474-.474h72.073c.095 0 .284 0 .38.095a.52.52 0 01.284.474c0 .38-.284.663-.663.663H28.834m-2.273-5.02c-.758-.38-2.084-1.326-2.178-4.357v-.19c0-2.273.663-3.315 1.23-3.788.284-.284.663-.474 1.136-.568.19.095.38.095.663.095h69.8l-.568 1.894h-38.83c-.19 0-.284.095-.284.284s.095.284.284.284l32.58.474-7.103.568c-.19 0-.284.095-.284.284s.095.284.284.284l13.07-.095v.284c0 1.515.38 2.936 1.042 4.262h-69.99v.095c-.284 0-.568.095-.852.19m3.694-12.786c-.095 0-.284-.095-.38-.095-.284-.19-.38-.663-.19-.947.095-.19.284-.284.568-.284h72.073c.38 0 .663.284.663.663s-.284.663-.663.663H30.255m-.758-2.368c-.758-.38-2.084-1.326-2.178-4.357v-.19c0-2.178.568-3.315 1.23-3.788.284-.284.758-.474 1.136-.568.19.095.38.095.568.095h69.8l-.568 1.894h-38.83c-.19 0-.284.095-.284.284s.095.284.284.284l32.58.474-7.103.568c-.19 0-.284.095-.284.284s.095.284.284.284h13.07v.284c0 1.515.38 2.936 1.042 4.262h-69.99c-.284 0-.568.095-.758.19m-3.03 1.136c-1.136-.852-2.084-2.462-2.084-5.588v-.19c0-2.747.852-4.167 1.705-4.925.663-.568 1.515-.852 2.368-.947 0 .284.095.568.19.852-.38.19-.663.38-.947.568-.947.758-1.6 2.273-1.6 4.64v.19c-.095 1.705.568 3.41 1.705 4.64.19.19.474.38.758.568-.095.19-.19.474-.19.758v.38c-.663-.19-1.42-.568-1.894-.947m3.788-10.89a.647.647 0 01-.663-.663c0-.38.284-.663.663-.663h72.073c.38 0 .663.38.568.758 0 .284-.284.568-.568.568H30.255m70.747 31.632c.095 0 .095.095.284.19l.196.14c1.017.765 1.61 1.934 1.7 3.27 0 1.326-.663 2.652-1.894 3.315h-.095l-.19-.095a.29.29 0 010-.379c.095-.19.284-.38.38-.568l-12.028-.095c-.19 0-.284-.095-.284-.284s.095-.284.284-.284h1.705l-7.955-.38c-.19 0-.284-.095-.284-.284s.095-.284.284-.284l2.462-.095-27.465-.095c-.19 0-.284-.095-.284-.284s.095-.284.284-.284l43.755-.568a9.31 9.31 0 00-.474-1.515c-.19-.38-.38-.663-.568-.947a.29.29 0 010-.379c0-.095.095-.095.19-.095zm-24.245-35.42c1.136 0 2.368.852 3.978 1.326h-6.25l.568-.474a2.94 2.94 0 011.705-.852zM74.862 8.6a.52.52 0 00-.474.284c-.19.284-.095.568.19.758 0 0 .095.095.284.38 1.136 1.326 1.8 3.03 1.894 4.83 0 .38 0 .758-.095 1.136l-.38-.19a8.42 8.42 0 00-4.451-1.326h-.19c-3.41 0-7.482 1.515-9.187 5.21-.568 1.326-.852 2.84-.758 4.262a24.918 24.918 0 002.747 10.702c1.23 2.747 3.41 4.925 5.967 6.345H30.255c-.474 0-1.042.19-1.326.663a5.635 5.635 0 00-3.504 1.23c-1.23 1.042-2.084 2.84-2.084 5.777v.19c0 3.41 1.136 5.398 2.462 6.44.474.38 1.042.663 1.6.852a1.87 1.87 0 00-1.326.568 5.635 5.635 0 00-3.504 1.23c-1.23 1.042-2.084 2.84-2.084 5.777v.19c0 3.41 1.136 5.304 2.462 6.44 1.042.758 2.273 1.23 3.6 1.23.284.19.568.284.852.284-.568.852-.38 1.894.474 2.462a1.83 1.83 0 00.947.284h.474c.568 1.326.947 2.84.947 4.357s-.474 2.936-1.326 4.167v.095h-.095a1.8 1.8 0 00-1.8 1.8c0 .758.474 1.42 1.136 1.6h-.758c-.474 0-1.042.19-1.326.568a5.635 5.635 0 00-3.504 1.23c-1.23 1.042-2.084 2.84-2.084 5.777v.19c0 .663 0 1.23.095 1.8h4.072c-.095-.474-.19-.947-.19-1.6v-.19c0-2.273.568-3.315 1.23-3.788.284-.284.663-.474 1.136-.568.19.19.38.284.568.284h69.8l-.568 1.894h-38.83c-.19 0-.284.095-.284.284s.095.284.284.284l32.58.568-7.103.568c-.19 0-.284.095-.284.284s.095.284.284.284l13.07-.19v.284c0 .568 0 1.136.19 1.705h1.705c-.095-.568-.19-1.136-.19-1.8 0-1.326.284-2.557.758-3.788.095-.19.095-.284.19-.474h.474a1.8 1.8 0 001.8-1.8c0-.758-.474-1.42-1.136-1.6h.852c.284 0 .663-.095.852-.284 1.326 0 2.557-.38 3.6-1.23 1.42-1.042 2.462-3.03 2.462-6.44v-.19c0-2.936-.947-4.735-2.084-5.777-.947-.852-2.273-1.23-3.504-1.23h-.095c-.284-.38-.758-.568-1.326-.568.568-.852.284-1.894-.474-2.462a1.83 1.83 0 00-.947-.284h-.095v-.095c-.852-1.23-1.326-2.652-1.326-4.167 0-1.326.284-2.557.758-3.788.095-.19.095-.284.19-.474h.474a1.8 1.8 0 001.8-1.8c0-.474-.19-.947-.474-1.23h1.515c.947 0 1.8-.758 1.8-1.8s-.758-1.8-1.8-1.8h-.095v-.095c-.852-1.23-1.326-2.652-1.326-4.167 0-1.326.284-2.557.758-3.788.095-.19.095-.284.19-.474h.474a1.8 1.8 0 001.8-1.8 1.8 1.8 0 00-1.8-1.8H83.755c.38-.095.663-.19 1.042-.38 1.705-.852 3.41-3.22 4.925-6.156a23.342 23.342 0 002.557-10.04c0-1.326-.19-2.747-.663-3.978-1.42-3.694-3.978-5.682-7.482-5.682h-.19c-1.42 0-2.747.284-4.072.663-.568.19-1.042.38-1.515.663.19-.947.284-1.8.284-2.747.095-1.515-.474-3.03-1.6-4.072l-.19-.095c-.663-.19-1.136-.38-1.42-.474l-.38-.19c0 .095-.095 0-.19 0"/></svg>