<svg xmlns="http://www.w3.org/2000/svg" viewBox="0 0 128 96"><path fill="#fff" d="M71.37 16.574c.372 0 1.156.05 2.158.13l5.416.63a26.75 26.75 0 014.753 1.051.81.81 0 01.364.275.51.51 0 01.081.283.71.71 0 010 .113 32.67 32.67 0 00-3.387-.687c-3.137-.275-7.542-.412-12.053-.445a4.26 4.26 0 011.099-1.035c.466-.24.99-.346 1.512-.307h.057v-.008zm12.878 2.918a2.9 2.9 0 011.568 1.027c.072.095.137.195.194.3h-.065a41.15 41.15 0 012.425 11.52v.186h3.234a.685.685 0 01.275.17c.048.047.077.1.08.178a.242.242 0 01-.113.194.99.99 0 01-.485.17c-.604.062-1.212.09-1.82.08-.938 0-2.175-.05-3.703-.202a2.923 2.923 0 00-.453-.097h-.154a69.053 69.053 0 01-3.064-.42c-5.15-.865-16.977-1.722-24.794-1.722H51.57c-4.236 0-7.348.08-9.49.29a3.67 3.67 0 00.275-.275v.13a72.46 72.46 0 0111.738-.695 269.04 269.04 0 0127.623 1.722 31.53 31.53 0 003.646.234c.627.007 1.254-.03 1.876-.113h.146v-.146a8.28 8.28 0 00.049-.986c.001-.34-.015-.68-.05-1.02-.065-.558-.283-1.68-.51-2.813l-.6-2.797a4.85 4.85 0 00-1.027-2.498 5.4 5.4 0 00-1.908-1.35 13.17 13.17 0 00-3.581-.946 116.41 116.41 0 00-13.347-.558c-5.796 0-11.665.194-14.624.453a16.031 16.031 0 00-3.3.566 4.04 4.04 0 00-2.336 1.568 4.172 4.172 0 00-.26.46 3.58 3.58 0 01.64-1.245c.68-.808 1.867-1.512 3.96-1.81h.057a62.25 62.25 0 016.467-.493c2.918-.12 6.403-.186 9.92-.186 5.093 0 10.243.137 13.743.445.808.113 1.73.3 2.425.453l.808.194.3.08.016-.05zM89.34 29.67a39.487 39.487 0 00-1.536-7.502h1.05l1.43 7.534h-.914l-.032-.032zm.994.428l.33 1.738H89.54a57.09 57.09 0 00-.154-1.77h.954l-.008.032zm-1.18-8.666a.54.54 0 01.331.137l.105.105.283 1.617 1.172 6.645.33 2.207h-.26l-1.673-8.787-.3-1.617h-1.908l.097.267a41.01 41.01 0 011.82 10.016v.09h-.42a42.33 42.33 0 00-2.191-10.808l2.603.097.008.032zm3.686 8.755a2.1 2.1 0 00-.162.808c.001.396.116.783.33 1.116l-.47.598h-.234a.698.698 0 00-.162-.3 1.032 1.032 0 00-.348-.243l-.315-2.078 1.366.073-.008.024zm1.22 1.253l.162-.162-.194-.137a.093.093 0 01-.04-.09.21.21 0 01.21-.202h.453c.095-.01.2.017.267.073.038.032.06.08.057.13 0 .063-.023.123-.065.17s-.1.08-.178.08h-.097l-.146-.04-1.27 2.06h-.64l1.48-1.884zm-.986-.445c0-.94.76-1.7 1.698-1.706.94.01 1.698.774 1.698 1.714a1.69 1.69 0 01-2.344 1.56l.534-.873h.057a.64.64 0 00.469-.202.647.647 0 00.178-.437.56.56 0 00-.186-.42.81.81 0 00-.525-.17h-.46a.606.606 0 00-.606.598c.001.09.026.175.073.25l-.38.485a1.627 1.627 0 01-.194-.808l-.008.008zm3.694-.606l5.505.186h.93c-.387.165-.747.39-1.067.663a2.166 2.166 0 00-.808 1.617v.154a106.552 106.552 0 00-5.44-.29 2.085 2.085 0 00.946-1.738 2.11 2.11 0 00-.089-.606l.024.016zm9.49-.243a6.21 6.21 0 012.239-.412h.073c.88-.025 1.753.14 2.563.485.425.158.78.462 1.002.857l.04.105 1.617.275h-1.81c-1.05 0-2.167.065-3.137.113s-1.803.097-2.304.162a5.94 5.94 0 00-2.264.711c-.355.204-.68.454-.97.744h-.12a2.398 2.398 0 00-.728-.12 1.22 1.22 0 00-.218 0l-.453-.008v-.186a1.77 1.77 0 01.655-1.358 5.37 5.37 0 012.425-1.059 8.82 8.82 0 001.447-.299l-.057-.008zm9.022 1.665h.695l7.81.234c.4-.01.82.03 1.22.113a1.7 1.7 0 01.59.251c.25.185.43.45.51.752.128.474.186.964.17 1.455v.647l-.097 3.282a21.49 21.49 0 00.364 4.196 8.322 8.322 0 00-3.072-1.85 22.227 22.227 0 00-7.04-1.196h-.808c-2.37 0-5.732.26-9.555.655 0-.307 0-.64-.065-.986l.808-.08h.178v-2.086a6.144 6.144 0 00-.323-2.425 1.999 1.999 0 00-.574-.752c-.208-.162-.44-.3-.687-.38a2.4 2.4 0 01.703-.67 4.78 4.78 0 012.167-.477c1.027-.065 2.425-.08 4.34-.186a4.04 4.04 0 00.808-.105.816.816 0 00.234-.097.34.34 0 00.097-.08.258.258 0 00.057-.162h1.44l.032-.05zm11.374 15.36a10.27 10.27 0 00.105-.719v.388c0 .418-.04.835-.12 1.245h-.283c.134-.29.23-.598.283-.914h.016zm.194-3.735v-.057a.88.88 0 01.469.105c.03.02.05.048.065.08.01.043.01.087 0 .13a1.9 1.9 0 01-.081.428.56.56 0 000 .129 2.71 2.71 0 00.049.42c.137.622.22 1.255.25 1.892.014.34-.05.68-.186.994a1 1 0 01-.372.404 7 7 0 00.089-1.116c-.01-.626-.07-1.25-.178-1.867a10.13 10.13 0 01-.17-1.293.81.81 0 010-.251h.065zm-11.48 15.837c-1.253 0-2.264-1.956-2.668-4.972a5.05 5.05 0 00.283-.808c.107.954.358 1.886.744 2.765.16.36.38.688.655.97a1.32 1.32 0 00.808.404 1.13 1.13 0 00.55-.146c.333-.197.61-.475.808-.808a7.54 7.54 0 00.808-2.255c.218-1.023.332-2.066.34-3.112v-.178a15.07 15.07 0 00-.356-3.371 6.17 6.17 0 00-.954-2.296l-.283.218a3.13 3.13 0 011.067-.914 15.6 15.6 0 011.14 6.54c-.057 4.462-1.415 8.028-3.032 7.963h.09zm-2.045-6.176h-.2l.162-.493c0 .162 0 .315.05.47v.024zm1.496 2.183v.09h-.057l.065-.057-.008-.032zm.2-7.728l.09-.178.05.09v.05l-.09.04h-.05zm.146 3.72v-.105a3.62 3.62 0 01.186-1.213c.036-.1.085-.196.146-.283.072.14.127.3.162.445.07.305.107.617.105.93v.097c.003.383-.05.765-.162 1.132a1.48 1.48 0 01-.162.356 1.78 1.78 0 01-.162-.437 3.97 3.97 0 01-.105-.938l-.008.016zm.13 3.573l-.097.517.057-.485h.04v-.032zm.356-6.475a.199.199 0 01.097 0 .199.199 0 01.097 0 .89.89 0 01.251.323 3.84 3.84 0 01.323 1.043c.088.488.13.983.13 1.48v.065c.01.7-.09 1.4-.29 2.07-.064.21-.162.405-.29.582a.54.54 0 01-.137.129.187.187 0 01-.105 0 .199.199 0 01-.097 0 .89.89 0 01-.251-.323 3.527 3.527 0 01-.29-.873c.033.06.07.117.113.17a.55.55 0 00.396.21.47.47 0 00.226-.065.81.81 0 00.283-.299 2.36 2.36 0 00.259-.711 4.72 4.72 0 00.097-.954v-.08a3.963 3.963 0 00-.202-1.318 1.44 1.44 0 00-.243-.445.67.67 0 00-.178-.146.47.47 0 00-.218-.065.473.473 0 00-.226.065.81.81 0 00-.283.291v.073a4.6 4.6 0 01.137-.509 1.98 1.98 0 01.291-.59.55.55 0 01.137-.129l-.024.008zm-.808 6.225l.065.057v.05l-.097.09.04-.194h-.008zm-.808-4.22v-.024.024zm-.3 2.23c0-.162 0-.323-.04-.493l.2.146-.234.348h.065zm.26 1.358c0-.097-.057-.202-.08-.307h.275l-.194.34v-.032zm.46 0l.097.194v.113l-.307.283-.05-.105.29-.493-.032.008zm-.243-.736l-.38.05v-.08l.3-.445a6.43 6.43 0 00.097.485l-.016-.008zm-.5-1.892l.05.057.243-.186v.614l-.412-.17.09-.275.032-.04zm.978 5.635a3.754 3.754 0 01-.808-1.463 10.77 10.77 0 01-.477-2.167 8.94 8.94 0 00.534 2.07 3.41 3.41 0 00.614 1.027c.202.244.493.398.808.428h.04a1.01 1.01 0 00.493-.129c.202-.12.378-.28.517-.47-.11.21-.242.41-.396.6a1.43 1.43 0 01-.372.315.73.73 0 01-.356.097.92.92 0 01-.59-.291l-.008-.008zm1.7-10.17a9.8 9.8 0 01.808 4.285v.2a11.32 11.32 0 01-.598 3.727c-.135.393-.337.76-.598 1.083a1.22 1.22 0 01-.315.267.601.601 0 01-.3.08.81.81 0 01-.55-.299 2.474 2.474 0 01-.364-.542c.147.12.328.2.517.202a.85.85 0 00.412-.113c.242-.15.443-.358.582-.606a4.85 4.85 0 00.509-1.261 4.18 4.18 0 00.323-1.019 8.31 8.31 0 00.137-1.536v-.113a8.21 8.21 0 00-.065-1.027 6.17 6.17 0 00-.234-1.132c0-.09-.065-.178-.097-.26s-.073-.3-.12-.445l-.073-.2.057-.09-.08-.073a3.81 3.81 0 00-.259-.55l-.05-.26h-.113a1.428 1.428 0 00-.437-.396 7.76 7.76 0 01.703-1.011 3.37 3.37 0 01.315.517 1.998 1.998 0 00-.364-.388l-.243.307c.213.184.386.4.51.663l-.016-.016zm10.05-3.023a7.485 7.485 0 00-1.407-1.164 13.75 13.75 0 00-6.783-1.924 50.06 50.06 0 00-2.959-.081 92.11 92.11 0 00-9.208.542v-.428c3.832-.404 7.195-.655 9.54-.655h.808c2.352.013 4.686.406 6.912 1.164a7.402 7.402 0 013.177 2.037 1.18 1.18 0 00-.057.388v.097l-.024.024zm-39.49-9.984l-.218-.194 1.277.08-1.06.113zm4.236.073c-.16.032-.314.084-.46.154a.68.68 0 00-.194.146l-.04.057a44.94 44.94 0 00-1.722.194l-1.188.162a4.63 4.63 0 00-.299-.404c1.423-.154 2.83-.29 4.325-.38-.113 0-.267 0-.42.073zm13.743.396h-.097l-.057-.065.154.073v-.008zm.097-.6l-.097.154-.275-.09v-.243h-.865l-.08-.04a4.59 4.59 0 01.808-.6 5.72 5.72 0 012.126-.695 39.136 39.136 0 012.272-.162l3.953-.137h.243-.428c-2.563.137-4.155.113-5.287.275a3.68 3.68 0 00-1.399.445c-.406.27-.74.637-.97 1.067v.016zm-15.49 9.184l12.126-1.617 4.002-.453v.428c-4.293.445-9.386 1.14-15.724 2.06l-.388.057c0-.154 0-.315-.04-.47l.024-.008zm-.17-1.617c7.154-.954 12.296-1.512 16.24-1.884 0 .348.05.687.065.994l-4.042.46L89.5 42.427l-.13-1.188h-.008zm16.087-3.33v.12a.96.96 0 000-.121zm-.428-3.234h.34c.195.275.335.585.412.914a5.87 5.87 0 01.162 1.431v.97h-.105c0-.146-.02-.29-.057-.437-.065-.46-.146-.914-.243-1.334a.62.62 0 00.097-.113.46.46 0 00-.121-.647.68.68 0 00-.21-.105 5.402 5.402 0 00-.275-.68zm.275 1.22a.405.405 0 01-.194.137 1.53 1.53 0 01-.493.097h-.057a.534.534 0 01-.218 0 .185.185 0 01-.105-.097.227.227 0 010-.09v-.17h.808a.38.38 0 01.226.057c.023.013.04.038.04.065v.05l-.008-.05zm-.356 2.19a.268.268 0 01-.073-.09.585.585 0 01-.073-.194.68.68 0 010-.137.417.417 0 010-.186.299.299 0 01.09.097.63.63 0 01.081.194.614.614 0 010 .105.46.46 0 010 .202h-.04l.016.008zm-15.198 2.2l12.19-1.487 2.99-.33h.582v.6c-3.945.38-9.095.93-16.25 1.884 0-.154 0-.307-.057-.453v-.154l.485-.065.057.016zm-25.45 5.764a14.25 14.25 0 001.964-.162h.137a5.19 5.19 0 00.808.057c2.2-.11 4.393-.352 6.564-.728l10.84-1.657 4.52-.663.04.47-13.04 1.98c-3.314.553-6.66.896-10.016 1.027a8.464 8.464 0 01-2.255-.226 1.935 1.935 0 01-.428-.178 5.07 5.07 0 00.808.065l.057.016zm24.68-4.72l.13 1.188-4.535.663-10.84 1.657a54 54 0 01-6.508.728 3.79 3.79 0 01-.93-.081.59.59 0 01-.202-.089.072.072 0 010-.05.114.114 0 010-.073 1.51 1.51 0 01.534-.315c.76-.274 1.54-.485 2.336-.63 3.13-.655 8.496-1.366 15.1-2.312l4.907-.68.008-.008zm-25.732 3.856a3.22 3.22 0 011.18-.736c1.45-.547 2.946-.96 4.47-1.237 5.416-1.116 13.55-2.02 19.968-2.82v.08l.057.453-4.923.68-13.12 1.94a34.85 34.85 0 00-3.759.808 5.03 5.03 0 00-1.035.412c-.115.063-.22.145-.307.243a.5.5 0 00-.137.331.445.445 0 000 .073.43.43 0 00.049.137c-.472.06-.947.092-1.423.097a4.76 4.76 0 01-.808-.057 1.35 1.35 0 01-.404-.121.54.54 0 01.137-.275l.057-.008zm26.678 4.964c0-2.19-.113-4.373-.29-6.467l.412-.057 15.675-2.053c0 .93-.073 4.22-.137 7.276 0 1.568-.073 3.088-.097 4.212v1.714l-16.45 4.85a42.74 42.74 0 00.938-9.483l-.05.008zm16.75-12.935V38.9l-.655.065c0-.194 0-.388-.057-.6h.356v-.154a8.24 8.24 0 00.081-1.156 5.387 5.387 0 00-.348-2.045 2.517 2.517 0 00-.388-.647 1.87 1.87 0 00-.178-.178l-.154-.113c.233.08.452.196.647.348a1.77 1.77 0 01.598 1.027 8.02 8.02 0 01.146 1.819l-.05-.073zM93.705 33.3l.113-.194c2.086 0 4.753.113 7.1.29L95.88 33.3h-2.175zm1.002.388h1.164l7.825.178a4.04 4.04 0 01.509.348 130.06 130.06 0 00-7.534-.234h-2.255l-.162-.057-.808-.202h1.245l.016-.032zm-1.81 1.108a10.37 10.37 0 001.237-.129c.113-.018.224-.048.33-.09.047-.02.09-.047.13-.08s.06-.07.073-.113h1.973a130.18 130.18 0 017.914.259c.128.218.234.448.315.687-.42 0-.905 0-1.366.05a3.63 3.63 0 00-1.399.34 1.36 1.36 0 00-.259.186.406.406 0 00-.08.105.3.3 0 00-.04.154c0 .06.02.116.057.162.04.05.098.088.162.105h.154c.228-.012.452-.073.655-.178a2.3 2.3 0 01.978-.186h.12a.58.58 0 00.089.186.6.6 0 00.234.186.92.92 0 00.38.073h.08c.184-.007.366-.04.542-.097.08.364.146.752.2 1.156a.93.93 0 00-.162-.307c-.048-.056-.105-.102-.17-.137s-.142-.056-.218-.057h-.08a.392.392 0 00-.178.09.54.54 0 00-.146.226.906.906 0 00-.05.283.954.954 0 000 .2.98.98 0 00.089.251l-15.31 1.843a14.78 14.78 0 00-1.407-5.02l1.02-.137a31.604 31.604 0 011.657-.186l.04.05c.04.052.094.093.154.12a1.48 1.48 0 00.639.097c.38 0 .914 0 1.617-.08l.016-.016zm0-.752l-1.002.057.275-.356h.71l-.178.29h.186l.008.008zm-7.55 28.852l-.517-.202a23.58 23.58 0 00-2.797-9.871c-1.835-3.41-3.177-5.974-8.302-4.85a6.59 6.59 0 00-3.46 1.948c-1 1.106-1.76 2.4-2.272 3.783v-.113s-3.832.12-6.29.47c-.154-.71-.26-1.366-.372-1.94 0-.202-.08-.396-.13-.582v-.097a4.98 4.98 0 00-.186-.566 2.429 2.429 0 00-1.156-1.318c.05-.01.1-.03.146-.057a.6.6 0 00.243-.291c.05-.13.076-.27.073-.412a2.208 2.208 0 00-.29-1.02 19.315 19.315 0 01-1.528-4.123c-.04-.226-.105-.477-.178-.744s-.13-.606-.186-.922a5.343 5.343 0 00-1.948-3.13 6.13 6.13 0 00-1.795-1.002h.073a44.64 44.64 0 005.788-.671c3.832-.542 20.752-2.37 24.406-2.732l2.094-.218c.123.13.236.267.34.412l-22.684 2.886a36.13 36.13 0 00-4.584.93 2.9 2.9 0 00-1.132.614 1.31 1.31 0 00-.396.978 5.98 5.98 0 00.849 2.425l.356-.178a5.7 5.7 0 01-.808-2.247.911.911 0 01.275-.695 3.93 3.93 0 011.787-.744c.914-.218 2.142-.42 3.72-.687 5.44-.914 16.977-2.15 22.862-2.902.138.235.263.478.372.728a16.72 16.72 0 011.067 4.285l-16.516 2.2c-2.278.338-4.532.82-6.75 1.44-.703.2-1.38.46-2.02.808a2.29 2.29 0 00-.582.477.91.91 0 00-.226.654c.03.232.148.444.33.6.35.252.76.4 1.188.46.626.097 1.26.14 1.892.13a80.08 80.08 0 0010.073-1.027L89.194 43.8c.178 2.045.29 4.204.29 6.37a41.676 41.676 0 01-1.002 9.7l-.08.33 17.43-5.085v-.146l.283-13.412a92.119 92.119 0 019.2-.542c1.02 0 1.99 0 2.935.08 2.32.035 4.592.676 6.59 1.86.483.307.926.674 1.318 1.09a4.04 4.04 0 01.283.348l.057.08c0 .243 0 1.067-.097 1.884a7.43 7.43 0 01-.202 1.148 2.32 2.32 0 01-.154.412.63.63 0 01-.162.218l-.25.17a20.36 20.36 0 01-1.002.631c-.323.205-.664.38-1.02.525a1.89 1.89 0 01-.558.113.68.68 0 01-.461-.17l-.057-.057c-.647-2.846-2.425-5.07-4.85-4.85a2.57 2.57 0 00-1.665 1.108 8.73 8.73 0 00-.922 1.487l-.08.05v.057l-.194.412h-.08v.065l-.065.137a1.76 1.76 0 00-.178.267 4.327 4.327 0 00-.388 1.156l-.05.137c-.178.5-.33.994-.477 1.455l-.113.09.065.08-.25.857h-.016v.194l-.194.72c0 .065-.04.13-.065.186h-.065v.105a3.54 3.54 0 01-.679 1.205 2.31 2.31 0 01-1.415.808l-25.06 7.583a25.804 25.804 0 00-.647-5.66 15.18 15.18 0 00-1.617-4.268 26.14 26.14 0 00-3.234-4.55 6.84 6.84 0 00-1.876-1.407 5.113 5.113 0 00-2.288-.525c-.352.001-.704.03-1.05.09-3.678.598-7.648 1.738-11.237 1.738h-.808v.396h.808c3.67 0 7.656-1.156 11.318-1.746.326-.054.656-.08.986-.08a4.71 4.71 0 012.118.485 7.72 7.72 0 012.579 2.264 37.086 37.086 0 012.36 3.557 14.81 14.81 0 011.534 4.15 25.35 25.35 0 01.639 5.61v.065l-.032.12zm-15.893 5.732a2.12 2.12 0 001.043.42h.218a2.32 2.32 0 001.358-.477 5.18 5.18 0 001.504-1.916 4.46 4.46 0 00.695-1.188c.298-.745.483-1.53.55-2.328v-.808a7.55 7.55 0 00-.04-.808 5.884 5.884 0 00-.453-1.827l-.057-.113a7.15 7.15 0 00-.307-.946l.137-.097-.234-.315-.065.05c-.1-.22-.237-.43-.38-.63l-.032-.33h-.218l-.202-.194a2.16 2.16 0 00-1.196-.542h-.2a2.34 2.34 0 00-1.358.477 3.509 3.509 0 00-.356.3 5.026 5.026 0 011.156-1.23c.4-.32.912-.497 1.43-.51h.226c.458.056.888.254 1.23.566a5.125 5.125 0 011.374 2.264 11.06 11.06 0 01.525 3.484 13.87 13.87 0 01-.073 1.415 11.52 11.52 0 01-1.576 4.972 5.23 5.23 0 01-1.31 1.447 2.433 2.433 0 01-1.423.51h-.2a2.28 2.28 0 01-1.237-.574 3.883 3.883 0 01-.728-.873l.218-.194zm-.202-.162l-.097.234a6.13 6.13 0 01-.42-.808 3.42 3.42 0 00.517.598v-.024zm.202-2.538l-.808.808a5.46 5.46 0 01-.121-.315c-.057-.17-.105-.348-.154-.525h1.108l-.024.032zm-.202-1.487c.04.368.107.733.202 1.09h-1.188v-.2l1.027-.857-.04-.024zm-.178-.364l-.922.768a10.11 10.11 0 01-.073-1.205l.994.437zm.162-1.544v1.148l-1.108-.485v-.12l1.108-.542zm-.08-.404l-1.027.5v-.13c0-.202.05-.396.073-.598s.057-.323.09-.485l.85.744.016-.032zm.445-1.82l.08.105a8.62 8.62 0 00-.348 1.35l-.938-.808a8.88 8.88 0 01.146-.542l1.06-.146v.04zm-.267-.364l-.655.09c.08-.218.162-.437.25-.64l.404.55zm1.908-2.425l-.315-.412c.107-.045.218-.08.33-.105v.517h-.016zm-.105 1.9l-.137-.3.29.12-.154.178zm0 7.898l.057-.2a1.72 1.72 0 00.234.146l-.17.09h-.105l-.016-.024zm-.154.606l.356-.178h.194l-.315.88a1.65 1.65 0 01-.412.073l.202-.808-.024.032zm-.307-.914l.154-.08-.04.17-.113-.09zm-.752.962l.307-.744h.073l.04.05c.105.1.22.187.348.26v.097l-.744.372-.024-.032zm.614.137l-.13.525a1.7 1.7 0 01-.509-.202l.647-.323h-.008zm-.275-6.912l-.12.445-.412.202c.06-.352.14-.7.243-1.043l.29.396zm.105-1.4l.154-.283.146-.234.178.445-.5.065.024.008zm.3.356l-.09.186c-.057.12-.105.26-.154.388l-.283-.388.05-.12.485-.065h-.008zm-.647 5.772h.348l-.17.42a4.04 4.04 0 01-.186-.42h.008zm-.13-3.727l.13-.05v.186l-.13-.105v-.032zm-.065 1.762l.113-.097v.146l-.12-.057.008.008zm.17.51c.033.273.085.543.154.808l-.275.275a7.033 7.033 0 01-.226-1.205l.348.154v-.032zm.744 2.102l-.26.13.13-.315.13.186zm-.356-3.072c-.008.74.1 1.477.323 2.183 0-.08-.065-.162-.09-.243a6.16 6.16 0 01-.291-1.94 7.71 7.71 0 01.04-.808 7.267 7.267 0 01.38-1.722 8.4 8.4 0 00-.323 1.7v.808l-.04.032zm-.744-.986l.323.267v.582l-.33.275v-1.132l.008.008zm.073 5.012l-.243.582a3.05 3.05 0 01-.275-.323l.517-.26zm-.744-.073a3.03 3.03 0 01-.17-.323l.905-.89v.08c.076.17.166.336.267.493l-.065.154-.97.485h.032zm3.848-.146a4.08 4.08 0 01-.808.93l.542-.857c.105-.01.208-.036.307-.073h-.04zm.428-8.77v-.17l.05.194h-.073l.024-.024zm-.72-.986l.065-.26.097.105a2.61 2.61 0 01.243.243l-.073.493-.38-.6.05.008zm-.267 1.01v-.146l.186.097-.218.057.032-.008zm-.622 1.382c.16-.307.377-.58.64-.808a1.06 1.06 0 01.655-.267h.105c.218.03.42.133.574.29.326.352.56.78.68 1.245a6.85 6.85 0 01.267 1.956v.808a7.023 7.023 0 01-.808 2.79 2.79 2.79 0 01-.647.808 1.06 1.06 0 01-.663.267h-.09a1.01 1.01 0 01-.574-.299 2.9 2.9 0 01-.68-1.245 6.795 6.795 0 01-.267-1.948v-.808c.072-.97.348-1.915.808-2.773v-.016zm.154-1.124l-.13.097v-.307l.146.194-.016.016zm-.12-.816V56.97l.428.67-.09.33a1.35 1.35 0 00-.34.049v-.008zm-.404.12v.05c-.085.048-.166.102-.243.162s-.155.13-.226.202l-.534-1.06.17-.137.13-.08.647.85.057.016zm-1.536 0c.094-.12.193-.237.3-.348l.26.574-.622-.243.065.016zm.808.752c-.23.31-.422.647-.574 1.002h-.113l-.655-.897c.09-.17.178-.33.275-.485l.04-.065 1.02.428.008.016zm2.102-4.414a2.61 2.61 0 011.431.663 5.98 5.98 0 011.617 2.635c.4 1.294.61 2.645.598 4.002a10.34 10.34 0 00-1.051-4.462 4.71 4.71 0 00-1.09-1.463 2.62 2.62 0 00-1.455-.639h-.267a2.849 2.849 0 00-1.665.582 6.64 6.64 0 00-1.99 2.62 12.61 12.61 0 00-1.002 3.606c0 .154 0 .307-.057.46a3.73 3.73 0 01-.049.598v.808a10.428 10.428 0 00.946 4.592c.267.557.64 1.057 1.1 1.47a2.67 2.67 0 001.455.671l.558.065-.065-.065c.5-.063.995-.258 1.407-.566a6.6 6.6 0 001.99-2.627c.288-.636.518-1.296.687-1.973a11.94 11.94 0 01-1.431 3.606 5.979 5.979 0 01-1.504 1.665 2.83 2.83 0 01-1.617.59h-.243a2.62 2.62 0 01-1.431-.663 5.937 5.937 0 01-1.617-2.62 12.764 12.764 0 01-.598-4.042v-.582a27.16 27.16 0 00.154-1.285v-.647a12.67 12.67 0 011.698-4.786 5.979 5.979 0 011.504-1.665 2.926 2.926 0 011.657-.6h.243l.09.04zm5.376 9.078c-.614 6.152-3.767 10.85-7.033 10.51-2.555-.275-4.422-3.533-4.85-7.874 0 0 .437.09.808-1.1a11.242 11.242 0 001.043 4.196c.303.637.73 1.21 1.253 1.68.45.408 1.014.67 1.617.752h.267a3.25 3.25 0 001.884-.663 7.54 7.54 0 002.272-2.991 14.76 14.76 0 001.221-4.648c.057-.55.08-1.09.08-1.617a12.06 12.06 0 00-1.083-5.295 5.617 5.617 0 00-1.253-1.7 3.019 3.019 0 00-1.617-.76h-.283a3.234 3.234 0 00-1.892.663 7.533 7.533 0 00-2.272 2.99c-.346.78-.617 1.593-.808 2.425a1.22 1.22 0 00-.679-1.019c1.188-4.535 3.8-7.656 6.467-7.357 3.234.348 5.416 5.66 4.794 11.787l.065.008zM63.77 67.1c-2.926.728-8.893 2.385-14.753.364a40.94 40.94 0 00-7.276-1.56l-.13-.178a.56.56 0 01-.202-.243.88.88 0 01-.073-.364 1.155 1.155 0 010-.186l4.85.12c.72.022 1.437.108 2.142.26a2.84 2.84 0 01.679.251.92.92 0 01.356.315 1.43 1.43 0 00.703.501c.66.24 1.347.4 2.045.47a24.52 24.52 0 003.032.17c3.44-.01 6.865-.487 10.178-1.415.27-.11.496-.3.64-.566.272-.48.458-1 .55-1.544a9.665 9.665 0 00.178-1.843 6 6 0 00-.146-1.407l-.38.097a5.66 5.66 0 01.129 1.31 8.7 8.7 0 01-.3 2.304c-.08.304-.204.595-.364.865a.908.908 0 01-.437.404 37.865 37.865 0 01-10.057 1.4 21.14 21.14 0 01-3.759-.291 6.108 6.108 0 01-1.164-.315 1.1 1.1 0 01-.509-.34 1.31 1.31 0 00-.509-.461 4.504 4.504 0 00-1.512-.42c-1.673-.2-3.897-.2-6.314-.283.05-.1.113-.19.186-.275.28-.286.66-.45 1.06-.46a1.18 1.18 0 00.542-.162.81.81 0 00.283-.315 1.86 1.86 0 00.146-.768 9.281 9.281 0 01.097-1.423c.123-.627.4-1.214.808-1.706l.05-.065c3.015.13 4.673.315 6.855.5 1.617.146 4.85.372 8.133.372a39.24 39.24 0 006.783-.477v-.194c.85-.13.85 1.698.598 3.525-.146 1.14-.202 2.142-.938 2.9a4.46 4.46 0 01-2.223 1.116l.024.008zm-22.304-.525c-.38.33-.87.51-1.374.51a1.39 1.39 0 01-.76-.202c-.283-.136-.5-.38-.598-.68l-1.382-5.958h-.113a.74.74 0 01-.412-.267h.09a2.53 2.53 0 00.493.04 10.56 10.56 0 002.037-.283 1.702 1.702 0 00-.09.566 5.9 5.9 0 00.477 1.989 19.37 19.37 0 001.09 2.28 1.61 1.61 0 00-.105.558 1.27 1.27 0 00.113.525.96.96 0 00.307.38l.283.38a.668.668 0 01-.13.178l.073-.016zm-12.433 1.48c.712-.66 1.3-1.44 1.738-2.304 2.62.146 5.14.243 7.526.283l.057.243v.105l-9.32 1.673zm-14.89-4.762v-.05a11.29 11.29 0 00-1.019-.428l-.388-.51a.57.57 0 01-.26-.493 1.09 1.09 0 01.154-.509l.542.137 4.73 1.23-.057.46a.73.73 0 00.711.728l8.893 1.035a.72.72 0 00.776-.719v-.218l2.894.234 6.896.542.2.905c-2.66-.05-5.48-.162-8.424-.34v.146c-1.698-.09-4.964-.283-6.718-.55-2.03-.307-7.276-1.277-8.95-1.617l.008.016zm-1.762-.323c-.287.11-.6.17-.897.178a1.07 1.07 0 01-.598-.178 1.01 1.01 0 01-.396-.598l-1.245-6.087H9.13a.982.982 0 01-.428-.234.416.416 0 01-.105-.26 1.55 1.55 0 00.493.17 3.87 3.87 0 00.711.057 8.173 8.173 0 001.26-.113l-.057.13a2.61 2.61 0 00-.113.808 9.7 9.7 0 001.302 4.228l.137-.073a1.51 1.51 0 00-.243.808.96.96 0 00.388.808l.2.275-.307.08zM2.5 61.27a2.432 2.432 0 01-1.617-.67 1.7 1.7 0 01-.404-.808c.07.044.143.082.218.113.44.157.9.247 1.366.267.566.05 1.237.057 2.005.057h.146a37.08 37.08 0 015.53.509l.26 1.27c-2.58-.46-5.255-.5-7.494-.71l-.01-.028zM.447 58.927a4.952 4.952 0 01.517-1.617 9.96 9.96 0 011.47-2.425c.17-.186.376-.335.606-.437a1.74 1.74 0 01.671-.121l1.382-.097a.81.81 0 00.057.218.999.999 0 00.5.51 2.73 2.73 0 001.213.226c.396 0 .88 0 1.423.05-.07.158-.11.328-.113.5a.81.81 0 00.21.558c.136.144.305.252.493.315L9.63 60.3a37.162 37.162 0 00-5.44-.493h-.13c-.91.027-1.822-.024-2.724-.154a1.83 1.83 0 01-.687-.243.46.46 0 01-.137-.146.33.33 0 01-.04-.17.59.59 0 010-.137l-.024-.032zm4.058-8.973a8.57 8.57 0 01-.323-1.908c-.001-.486.15-.96.428-1.358a2.89 2.89 0 00.323-.695v.08s1.73.057 3.58.057c.922 0 1.876 0 2.652-.057h1.002c-.21.183-.384.405-.51.655a2.35 2.35 0 00-.154.42c-.88-.08-1.617-.13-2.07-.13H9.38c-1.487 0-2.603-.137-3.42-.137a3.71 3.71 0 00-.679.049 1.34 1.34 0 00-.534.21.98.98 0 00-.348.469 1.584 1.584 0 00-.08.542c.006.322.06.64.162.946l1.108 4.462h.12c.11.21.286.374.5.47a2.57 2.57 0 00.808.146l1.948.154c-.176.177-.335.37-.477.574-.622 0-1.18-.057-1.617-.057-.42.043-.84-.057-1.196-.283a.51.51 0 01-.154-.202.524.524 0 010-.097h.057l-.057-.226-.986-4.042-.032-.04zm0-6.613v-.057c.223.416.522.786.88 1.09l.113.08h-.05c.41.6 1.01 1.042 1.706 1.253H5.015a2.31 2.31 0 000-.372 4.763 4.763 0 00-.542-1.948l.032-.05zm-.09-1.205a4.27 4.27 0 01-.267-1.342h3.088a.29.29 0 01.202.073.229.229 0 01.065.17.81.81 0 01-.461.622c-.283.194-.606.42-.93.606a2.036 2.036 0 01-.938.307.86.86 0 01-.396-.113 1.09 1.09 0 01-.364-.307v-.016zm2.1-4.85a2.1 2.1 0 011.665.938 3.92 3.92 0 01.719 2.328v.388a.501.501 0 00-.162-.162.42.42 0 00-.218-.065.51.51 0 00-.259.081.81.81 0 00-.21.194l-.154.186a.81.81 0 000-.178.62.62 0 00-.186-.453.68.68 0 00-.517-.162H4.117a3.92 3.92 0 01.711-2.142 2.1 2.1 0 011.665-.938l.032-.016zM6.05 43.34a4.85 4.85 0 001.374-1.059c.38-.404.68-.808.905-1.067a.524.524 0 01.097-.073h.057c.023.02.04.044.05.073a.657.657 0 010 .234c-.027.4-.143.8-.34 1.14-.19.35-.496.62-.865.768a2.82 2.82 0 01-1.108.243 1.15 1.15 0 01-.331-.032.72.72 0 01.178-.146l-.016-.08zm-.598.226a2.626 2.626 0 01-.606-.598l-.065-.08a1.3 1.3 0 00.372.057c.4-.023.8-.145 1.132-.356.315-.17.606-.38.865-.558a4.43 4.43 0 01-1.277.986c-.096.06-.184.133-.26.218a.424.424 0 00-.113.275l-.05.057zM3.664 39.08a3.858 3.858 0 01-.137-.938c-.013-.432.147-.85.445-1.164a2.66 2.66 0 011.835-.631h.186a3.176 3.176 0 011.932.647c.346.28.648.6.897.978a17.63 17.63 0 011.124 2.692l.146.428c.01.13.01.26 0 .388v.065c.005.67-.153 1.33-.46 1.924a2.19 2.19 0 01-.808.76 3.25 3.25 0 01-1.496.315h-.26a2.48 2.48 0 01-1.09-.283 2.14 2.14 0 00.525.073 2.507 2.507 0 001.98-1.108 4.34 4.34 0 00.808-2.579v-.05a4.31 4.31 0 00-.808-2.563 2.5 2.5 0 00-1.981-1.091 2.5 2.5 0 00-1.973 1.099 4.1 4.1 0 00-.695 1.617c-.04-.146-.105-.34-.162-.558l-.008-.024zm-.614-1.504c-.026-.452.1-.902.33-1.285a4.48 4.48 0 011.819-.348h.154a2.75 2.75 0 00-1.681.711 2.02 2.02 0 00-.51 1.496 4.23 4.23 0 00.146 1.035c.073.29.154.525.194.655a9.02 9.02 0 00.194 1.358 12.233 12.233 0 01-.614-3.614l-.032-.008zm2.538-2.36c.01.055.033.107.065.154.094.117.213.21.348.275a5.95 5.95 0 00-.808-.065 5.617 5.617 0 00-1.035.09 6.04 6.04 0 011.431-.453zm.453-.09l1.47-.267c1.253-.243 4.244-.582 7.97-.922l8.084-.63a23.102 23.102 0 00-6.718 2.425 5.61 5.61 0 00-1.746 1.479.58.58 0 00-.105-.162 2.03 2.03 0 00-.388-.283.36.36 0 01-.13-.13.217.217 0 010-.113.81.81 0 01.073-.299.75.75 0 00.065-.283.535.535 0 00-.162-.388 1.17 1.17 0 00-.606-.267 4.81 4.81 0 00-.873-.065 30.92 30.92 0 00-3.751.364 7.64 7.64 0 01-1.035.073 5.39 5.39 0 01-1.673-.234 1.7 1.7 0 01-.437-.202l-.073-.065h.05l-.016-.032zm19.943-1.787c-.068.034-.126.084-.17.146s-.065.135-.065.2c.002.092.03.182.08.26a1 1 0 00.3.283c.135.086.282.15.437.194.39.074.763.2 1.108.404a1.53 1.53 0 01.461.461c.15.246.247.522.283.808a.353.353 0 000 .065 1.377 1.377 0 00-.558-.3 7.05 7.05 0 00-1.439-.259 20.372 20.372 0 00-1.94-.08h-.736c-1.035 0-2.07 0-3.015.073-.845.035-1.683.165-2.498.388a1.1 1.1 0 00-.428.226.559.559 0 00-.178.38.58.58 0 00.081.283 1.27 1.27 0 00.396.404c.732.438 1.573.66 2.425.64.333.001.666-.03.994-.09.57-.1 1.15-.15 1.73-.146a11.69 11.69 0 012.82.33 3.87 3.87 0 01.897.34c.08.042.154.097.218.162.025.02.042.05.05.08-.142.553-.25 1.115-.323 1.68l-2.58-.073v1.172c-.006.2.033.378.113.55a.81.81 0 00.17.226l-2.425-1.06-.154-.065-.105.105a.303.303 0 00-.05.154c.003.08.028.16.073.226.1.144.216.274.348.388a21.02 21.02 0 002.425 1.746c.445.29.857.55 1.188.744l.42.234.13.065c-.065.477-.13.914-.202 1.253-.032.156-.073.31-.12.46a.81.81 0 01-.097.226l-.097.113-7.017-.655c-2.045-.17-4.042-.315-5.66-.38.247-.274.425-.604.517-.962a7.54 7.54 0 00.218-2.061 10.75 10.75 0 01.55-3.694 5.248 5.248 0 012.425-2.9 24.81 24.81 0 019.119-2.765l-.146.057.024-.04zm.234.33a.995.995 0 01.267 0h4.438v-.08l4.042-.04-.06.2 1.06-.046h-.146l-6.847.162h-2.013c-.25 0-.453 0-.598-.05h-.08l-.065-.146zm2.425-.64l-.08.186H26.47c.7-.086 1.42-.156 2.19-.2l-.016.024zm.493-.08c.076-.125.168-.24.275-.34a.86.86 0 01.356-.202l.647-.162c.143-.036.29-.057.437-.065l-.202 1.06h-1.617c.045-.1.096-.198.154-.29h-.05zm2.02-.26l4.632-.445c-.072.045-.14.097-.202.154a2.268 2.268 0 00-.47.68v.073l-4.042.04.113-.5h-.032zm5.093-.226a3.38 3.38 0 01.768-.113.59.59 0 01.243 0l-.146.954H35.5c.044-.103.096-.203.154-.3.076-.125.168-.24.275-.34s.228-.166.364-.202h-.04zm1.188 1.075zm16.338 3.872c-.517 0-.994-.057-1.44-.057-.29-.002-.578.01-.865.04a10.65 10.65 0 012.158-.606 144.907 144.907 0 0118.173-2.19l10.024-.655a41.24 41.24 0 002.377-.234c.358-.044.7-.126 1.05-.243l.477.05a2.31 2.31 0 01.55.259l.146.09-1.73.186-24.422 2.732c-1.894.345-3.81.566-5.732.663h-.728l-.04-.032zm2.425 8.294a4.04 4.04 0 01-.38.622 2.92 2.92 0 01-1.253 1.002 6.538 6.538 0 001.617-1.617l.016-.008zm-2.474.17l1.253-.88c.38-.275.68-.493.808-.63a1.31 1.31 0 01.299-.202.56.56 0 01.226-.065.091.091 0 01.065 0 .17.17 0 010 .113 1.19 1.19 0 01-.097.404 4.85 4.85 0 01-1.051 1.552c-.498.535-1.1.96-1.77 1.253a2.422 2.422 0 01-1.277-.582l1.48-1.01.065.05zm-.962-.202c.388-.13.808-.275 1.188-.437l-1.05.752-.736.5-.194.13a3.818 3.818 0 01-.234-.275 3.27 3.27 0 01-.186-.275c.267-.08.72-.2 1.22-.38l-.008-.016zm-1.1-2.1h3.517a.88.88 0 01.364.057h.04a.18.18 0 010 .08 2.07 2.07 0 01-.687.671c-.315.19-.645.35-.986.485-.6.243-1.26.46-1.78.63l-.647.194h-.09a5.051 5.051 0 01-.542-2.118h.808zm4.252-.137a.567.567 0 00-.307-.202c-.14-.04-.284-.06-.428-.057H50.86c.03-.93.33-1.833.865-2.595a2.589 2.589 0 012.045-1.156 2.6 2.6 0 012.06 1.164 4.85 4.85 0 01.881 2.878v.388a.476.476 0 00-.356-.137.94.94 0 00-.396.105.5.5 0 000-.146.418.418 0 00-.073-.243h.032zm1.673 3.484a2.7 2.7 0 01-1.075.938 4.04 4.04 0 01-1.851.388h-.202a3.013 3.013 0 01-1.698-.574 2.58 2.58 0 001.027.218 2.99 2.99 0 002.377-1.318 5.24 5.24 0 00.962-3.096 5.28 5.28 0 00-.962-3.137 3 3 0 00-2.377-1.326 2.987 2.987 0 00-2.37 1.326 4.97 4.97 0 00-.857 2.078c-.05-.178-.154-.46-.243-.808a4.61 4.61 0 01-.17-1.148 1.98 1.98 0 01.525-1.44 3.234 3.234 0 012.247-.808h.243a3.87 3.87 0 012.352.808 6.89 6.89 0 012.102 2.9 9.92 9.92 0 01.372 1.075l.17.72c.05.24.08.483.09.728v.097a4.98 4.98 0 01-.679 2.369h.016zm2.336 2.167a.16.16 0 01-.05.057h-.05a.31.31 0 01-.178-.073 1.32 1.32 0 01-.291-.323 2.006 2.006 0 00-.542-.582 1.01 1.01 0 00-.574-.178 1.95 1.95 0 00-.606.121 6.16 6.16 0 01-.598.186H56.9a8.767 8.767 0 01-2.555.493 3.521 3.521 0 01-1.552-.33 3.685 3.685 0 01-1.4-1.23c-1.617-2.344-1.504-4.042-1.795-5.327a6.89 6.89 0 01-.17-1.382 2.636 2.636 0 01.445-1.568 2.82 2.82 0 011.876-1.027 4.6 4.6 0 01.469-.008 3.17 3.17 0 00-1.819.808 2.37 2.37 0 00-.639 1.722 4.99 4.99 0 00.178 1.245c.09.348.194.64.243.808a9.7 9.7 0 00.986 3.84 4.78 4.78 0 001.293 1.617 3.41 3.41 0 001.997.703h.218a4.44 4.44 0 002.03-.428 3.242 3.242 0 001.536-1.722c.164-.424.276-.866.33-1.318.315.953.7 1.878 1.18 2.765.144.246.227.523.243.808a.6.6 0 01-.073.315l.008.008zm-19.337-.614l5.327.42c-.13.15-.245.31-.348.477a1.73 1.73 0 00-.218.582H45.2L25 48.7c.17-.34.38-.654.63-.938l.485-.566h.016c1.617.178 7.906.76 14.47 1.293v-.024zm6.168.09a3.55 3.55 0 001.035-1.617 13.49 13.49 0 00.291-2.296 14.73 14.73 0 01.501-2.708 6.41 6.41 0 01.364-.962V40.9c.026.405.083.808.17 1.205.275 1.237.194 3.048 1.86 5.465a4.04 4.04 0 001.544 1.358l.178.08-5.998-.404.057-.05zm14.26 3.686l.364 1.892a1.613 1.613 0 00-1.22.978c-.13-.736-.25-1.4-.404-1.956-.08-.31-.19-.6-.33-.897a2.61 2.61 0 00.946.226 1.01 1.01 0 00.388-.073c.098-.04.186-.1.26-.178v.008zm-4.438-2.74h.808a5.66 5.66 0 012.142.315c.32.13.597.342.808.614a3.17 3.17 0 01.517 1.164.67.67 0 01-.121.364.34.34 0 01-.137.105.62.62 0 01-.234 0 3.64 3.64 0 01-1.568-.574 6.75 6.75 0 00-1.835-.59c-2.272-.46-6.023-.687-11.22-.954a1.39 1.39 0 01.162-.404 4.04 4.04 0 01.493-.639l10.186.6v.008zm.55-.808c.226-.057.428-.13.606-.186.155-.06.32-.095.485-.105a.611.611 0 01.356.105c.172.126.318.286.428.47.077.117.167.225.267.323a7.1 7.1 0 00-1.867-.202h-1.722a16.76 16.76 0 001.447-.396v-.008zM28.49 35.08a2.03 2.03 0 00-.905-.752l-.275-.105h1.665l3.654-.05-.897.186c-.523.112-1.037.266-1.536.46a2.1 2.1 0 00-.703.42l-.542.517-.146.12a2.356 2.356 0 00-.315-.808v.008zm0 1.617a.42.42 0 01.146-.097c.236-.1.483-.17.736-.2 1.542-.216 3.1-.308 4.656-.275 1.803 0 3.856.073 5.9.2a68.29 68.29 0 004.551.154 79.55 79.55 0 009.612-.582l14.996-1.932a26.25 26.25 0 012.862-.194 5.95 5.95 0 011.382.121.94.94 0 01.234.089.72.72 0 01-.178.081c-.13.04-.262.064-.396.073l-1.18.08a145.51 145.51 0 00-18.222 2.2 7.534 7.534 0 00-3.452 1.342l-.218.097v.065c-.3.293-.533.65-.68 1.043-.14.384-.2.788-.2 1.196a2.2 2.2 0 00-.388.582 7.13 7.13 0 00-.412 1.124.81.81 0 01-.736.525.957.957 0 01-.695-.33 2.57 2.57 0 01-.574-1.269 2.206 2.206 0 00-1.116-1.47 9.29 9.29 0 00-3.646-.962c-1.504-.162-3.234-.218-5.02-.283-2.538-.097-4.794-.29-6.467-.29a8.7 8.7 0 00-1.754.129 2.5 2.5 0 00-.396.121c.09-.26.2-.514.323-.76a4.97 4.97 0 01.348-.566l-.008-.008zm-10.146-.372a10.89 10.89 0 012.425-.372c.93-.065 1.956-.073 2.99-.073h.752c.906-.014 1.812.05 2.708.186.278.04.55.115.808.226a.59.59 0 01.17.121 5.2 5.2 0 00-.388.622 6.962 6.962 0 00-.396 1.09 2.1 2.1 0 00-.517-.291 10.46 10.46 0 00-3.597-.566 10.01 10.01 0 00-1.795.154 5.06 5.06 0 01-.922.081 4.61 4.61 0 01-1.884-.404 1.94 1.94 0 01-.525-.331.63.63 0 01-.121-.146.195.195 0 010-.09.12.12 0 01.05-.09.73.73 0 01.275-.137l-.032.016zm8.36 9.232l.12-.808h.05c.348-.065.994-.226 1.787-.453 1.188-.33 2.676-.808 3.88-1.196a29.42 29.42 0 001.512-.55 4.48 4.48 0 00.461-.218l.178-.113.065-.073a.255.255 0 00.05-.137v-.057l-.113-.178h-.186l-2.58.493-1.948.396a14.46 14.46 0 00-1.27.307 3.218 3.218 0 01-.994.137 5.14 5.14 0 01-.736-.057v-.267l.057-.154v-.04a.415.415 0 01.17-.065 1.73 1.73 0 01.323 0c.445 0 1.075.097 1.617.097a2.15 2.15 0 001.011-.194.905.905 0 00.493-.34 1.06 1.06 0 00.129-.534v-1.22h-.194l-3.234-.097c.074-.545.182-1.085.323-1.617a.51.51 0 01.194-.17 2.33 2.33 0 01.808-.226c.445-.05.894-.072 1.342-.065 1.617 0 3.864.194 6.42.29a47.22 47.22 0 016.378.485c.733.113 1.44.35 2.094.703a1.82 1.82 0 01.93 1.213 2.95 2.95 0 00.671 1.463 1.36 1.36 0 00.954.445 1.19 1.19 0 00.55-.137 16.41 16.41 0 00-.299 1.9c-.026.766-.118 1.53-.275 2.28a3.159 3.159 0 01-.93 1.48l-.25.26-5.66-.445L26.373 46.8a1.39 1.39 0 00.113-.267c.096-.32.17-.647.218-.978zM25.21 42.83c.26.12.46.226.574.283.277.144.574.245.88.3a5.6 5.6 0 001.083.105c.38.008.76-.043 1.124-.154.186-.065.655-.17 1.23-.29l2.9-.582h.065l-.372.13c-1.1.38-2.514.808-3.71 1.164l-1.552.42-.517.12H26.6c-.186-.09-.558-.307-1.002-.6a36.118 36.118 0 01-2.223-1.463c-.267-.202-.51-.388-.703-.558l1.617.71.89.404h.032zm1.455-.283l-.057.453a2.5 2.5 0 01-.647-.226 10.58 10.58 0 00-.752-.372h1.083a.88.88 0 01.299.065h.05l.024.08zm.178-.364a1.433 1.433 0 00-.687-.146c-.34.01-.678-.02-1.01-.09a.55.55 0 01-.291-.186.71.71 0 01-.121-.445v-.728l5.66.162v.808a.672.672 0 01-.08.34.6.6 0 01-.364.259 2.29 2.29 0 01-.663.081c-.534 0-1.156-.097-1.617-.097a1.755 1.755 0 00-.525.065.73.73 0 00-.162.073l-.13-.09-.008-.008zm-14.188 4l.162-.105c1.568.057 3.808.218 6.055.404l6.734.63-.307.364c-.273.31-.504.656-.687 1.027-.02.047-.037.096-.05.146-1.52-.154-4.608-.55-7.64-.914l-4.454-.5-.566-.057a1.85 1.85 0 01.113-.283 1.72 1.72 0 01.639-.703v-.008zm-5.392-1.26a3.63 3.63 0 001.681-.356 2.71 2.71 0 001.277-1.439 4.48 4.48 0 00.267-.994v.057c.073.218.146.42.218.6a2.78 2.78 0 00.202.412 12.54 12.54 0 01.469.808 3.72 3.72 0 01.178.412c.036.093.058.19.065.29a.64.64 0 01-.202-.049 3.33 3.33 0 00-1.132-.259 1.77 1.77 0 00-.687.137 3.75 3.75 0 00-.736.42c-.33.23-.722.355-1.124.356a2.173 2.173 0 01-1.447-.6c.247.074.502.114.76.12h.202l.008.08zm3.88.744c-.808 0-1.714.057-2.635.057h-.202c.29-.068.563-.19.808-.356a3.42 3.42 0 01.655-.38c.17-.073.35-.11.534-.113a2.95 2.95 0 01.994.234 1.01 1.01 0 00.331.073.47.47 0 00.17 0 .36.36 0 00.194-.178.488.488 0 00.065-.267 1.34 1.34 0 00-.089-.42 7.63 7.63 0 00-.72-1.334 2.472 2.472 0 01-.17-.356c-.162-.388-.348-.978-.574-1.617a7.131 7.131 0 00-.194-.857 7.89 7.89 0 00-1.14-2.425 9.69 9.69 0 00-.315-.517A3.5 3.5 0 007.31 36a7.01 7.01 0 00.873.057 7.98 7.98 0 001.091-.073 30.63 30.63 0 013.694-.364c.332-.013.664.023.986.105a.55.55 0 01.218.113c.03.026.05.065.05.105a.355.355 0 010 .13 1.18 1.18 0 00-.105.453.6.6 0 00.154.412c.116.108.243.203.38.283.038.026.07.06.097.097.01.04.01.082 0 .12a.969.969 0 01-.105.372 6.41 6.41 0 00-.469.994 11.13 11.13 0 00-.574 3.832 5.548 5.548 0 01-.348 2.328c-.088.19-.21.36-.364.5-.07.064-.142.123-.218.178h-1.568l.04.032zm17.785 13.137a.81.81 0 00-.089-.34l7.615.55c-.046.158-.07.32-.073.485-.028.457.25.878.68 1.035l.865 3.783-6.766-.534-2.87-.234.606-4.745h.032zm-15.045 1.512a.613.613 0 00.364-.3.92.92 0 00.089-.437c0-.33-.08-.728-.08-1.196a3.576 3.576 0 01.808-2.28l4.042.914a.736.736 0 00-.598.695l-.566 4.535c-1.714-.412-3.387-.88-4.68-1.213l-.396-.105c.278-.287.622-.5 1.002-.622l.016.008zM9.55 53.058a5.113 5.113 0 01-.655 0 9.5 9.5 0 01-1.496-.129 5.78 5.78 0 01-.631-.137 1.73 1.73 0 01-.372-.113.393.393 0 01-.05-.09 2.58 2.58 0 01-.137-.445 9.553 9.553 0 01-.234-1.892 2.085 2.085 0 010-.25.995.995 0 01.202-.05 3.85 3.85 0 01.517 0 13.41 13.41 0 011.803.08c.3.04.566.097.808.146l.275.073.12.05v.073c.124.295.22.6.29.914a5.32 5.32 0 01.162 1.132c.01.094.01.19 0 .283a.41.41 0 01-.057.154.255.255 0 01-.097.065 1.64 1.64 0 01-.437.105l-.016.032zm.25.356c.12-.022.236-.057.348-.105a.606.606 0 00.29-.202.81.81 0 00.121-.299 1.86 1.86 0 000-.364v-.348l.05.234a2.24 2.24 0 01.049.461.88.88 0 01-.113.485.368.368 0 01-.137.12.556.556 0 01-.234.05h-.356l-.016-.032zm1.172-1.172c-.137-.622-.275-1.496-.477-2.15a1.274 1.274 0 00-.582-.76 2.645 2.645 0 00-1.027-.26l-2.5-.13h-.073a2.12 2.12 0 00-.808.097 1.11 1.11 0 01.194-.356.53.53 0 01.275-.13c.192-.037.387-.054.582-.05a18.48 18.48 0 013.234.461c.322.05.612.224.808.485.297.458.486.978.55 1.52.105.582.154 1.188.26 1.617.03.116.047.236.05.356.01.086.01.173 0 .26l-.493.073a1.44 1.44 0 00.089-.525 2.607 2.607 0 00-.065-.542l-.024.032zm-5.505-2.425a.51.51 0 01.065-.275.3.3 0 01.105-.097.75.75 0 01.291-.081c.135-.008.27-.008.404 0h.065l2.425.105a2.28 2.28 0 01.865.202c.202.12.348.314.404.542.05.162.097.348.146.542a11.28 11.28 0 00-.137-.404 1.89 1.89 0 00-.097-.21l-.04-.065-.097-.057a1.18 1.18 0 00-.21-.089 8.65 8.65 0 00-1.35-.267 13.09 13.09 0 00-1.617-.121 4.229 4.229 0 00-.574 0 .92.92 0 00-.42.146.29.29 0 00-.097.137.81.81 0 00-.008.21v.243c.012.526.066 1.05.162 1.568a5.77 5.77 0 00.17.728 1.72 1.72 0 00.105.267.51.51 0 00.17.202l.154.073h-.146a.81.81 0 01-.234-.105v.05c0-.08-.05-.162-.073-.26-.105-.388-.202-.93-.33-1.665a5.87 5.87 0 01-.162-1.099v-.146h.065v-.073zm.68 3.662a6.84 6.84 0 00.914.178c.808.113 1.85.17 2.522.202l-.146.105c-.566 0-1.285-.105-2.336-.178a2.63 2.63 0 01-.703-.137.59.59 0 01-.267-.178l.016.008zm5.327 1.948a8.138 8.138 0 01-1.68.202 2.96 2.96 0 01-.808-.089.81.81 0 01-.243-.105l-.057-.05c.046-.1.1-.2.162-.29a4.31 4.31 0 01.703-.808 2.9 2.9 0 011.302-.574c.463-.1.935-.134 1.407-.13h.808c.226.05.43.172.582.348.244.32.43.682.55 1.067.1.335.265.653.46.946a3.956 3.956 0 00-.808 2.425c0 .51.08.93.08 1.196a.56.56 0 01-.04.251c-.03.052-.08.1-.137.105a2.808 2.808 0 00-1.237.808l-.04.057a9.24 9.24 0 01-1.229-3.921 2.24 2.24 0 01.097-.703.75.75 0 01.259-.388l-.162-.356.032.008zm16.346 8.74c0 .18-.145.323-.323.323l-8.893-1.035a.33.33 0 01-.331-.331l.67-5.376a.34.34 0 01.331-.34l8.893 1.035c.2.004.36.165.364.364l-.71 5.36zm13.436-.194a1.7 1.7 0 00-.113.154 18.06 18.06 0 01-.946-2.005 5.56 5.56 0 01-.445-1.843 1.26 1.26 0 01.065-.445.55.55 0 01.186-.259l-.162-.356a12.44 12.44 0 01-2.425.372 1.796 1.796 0 01-.517-.057.443.443 0 01-.137-.065c.03-.285.122-.56.267-.808a3.33 3.33 0 01.695-.865 3.9 3.9 0 011.43-.72 6.74 6.74 0 011.908-.283c.46-.007.916.053 1.358.178v-.065c.236.047.45.172.606.356.247.323.435.687.558 1.075a3.83 3.83 0 00.461.946 4.68 4.68 0 00-.841 2.878 2.66 2.66 0 01-.097.873.385.385 0 01-.162.194.81.81 0 01-.364.105 1.93 1.93 0 00-1.326.614v.024zm10.137-4.527c-2.23-.186-3.937-.38-7.114-.517a2.7 2.7 0 01-.178-.348 10.89 10.89 0 00-.517-1.205 2.06 2.06 0 00-.372-.485l3.007.202-.13-.6-4.697-.356.04.17h-.275l-.05-.186-1.334-.105-2.95-.226.162.703 2.102.137h-.05a4.382 4.382 0 00-1.576.808 3.72 3.72 0 00-.808.97c0 .073-.073.146-.105.218l-9.2-.663-3.832-.445a80.305 80.305 0 01-3.808-.752l-4.802-1.083a2.5 2.5 0 01-.194-.388c-.137-.42-.3-.83-.485-1.23l1.124.178-.065-.364-1.27-.137a1.73 1.73 0 00-.194-.202l-.154-.105.445.05 1.083.12-.194-.768-2.23-.25.146.582h-1.067a1.38 1.38 0 000-.226 1.9 1.9 0 00-.057-.445c-.065-.275-.105-.64-.162-1.027a6.901 6.901 0 00-.42-1.78 2.229 2.229 0 00-.493-.728 1.617 1.617 0 00-.808-.42 18.78 18.78 0 00-3.314-.469 3.04 3.04 0 00-.671.065.89.89 0 00-.485.259l-.09.097c-.116.175-.2.37-.25.574a3.3 3.3 0 00-.089.525l-.162-.663a2.84 2.84 0 01-.146-.808c.002-.135.027-.27.073-.396a.58.58 0 01.202-.283.941.941 0 01.372-.137 3.33 3.33 0 01.598-.04c.808 0 1.908.137 3.42.137h.057c.437 0 1.14.05 1.997.12-.005.09-.005.178 0 .267a2.805 2.805 0 000 .29h.194l.09.323h.146l1.318.146.768.08-.073-.3a.14.14 0 010-.05l-2.24-.243h.194a2.085 2.085 0 010-.25 2.14 2.14 0 010-.226l.606.032c3.897.396 9.87 1.196 12.126 1.423a.81.81 0 00.105.194 1.09 1.09 0 00.234.234l-1.7-.17.09.34 1.94.178 1.116.073-.073-.275-.88-.073.065-.186a1.34 1.34 0 01-.307-.17l-.09-.08c3.355.283 13.072.89 20.105 1.237h.154v.356h-.46l.097.388 1.617.097 3.476.194-.13-.525c-1.366 0-2.878-.097-4.454-.162h.283v-.315l8.335.55c1.124.113 2.078.243 2.838.404.594.1 1.17.282 1.714.542.188.137.34.317.445.525a5.61 5.61 0 01.469 1.431c.13.6.243 1.277.38 2.037h.097v.267a5.54 5.54 0 00.477 2.07 7.5 7.5 0 00.93 1.617h-1.892c-3.282 0-6.467-.226-8.084-.364h-.065zm14.826-.105c-1.433.244-2.88.388-4.333.428a6.94 6.94 0 01-1.05-1.746 5.15 5.15 0 01-.445-1.916 2.3 2.3 0 01.081-.622c.335.04.673.058 1.01.057a30.76 30.76 0 005.424-.687l-.09-.388h-.137a29.61 29.61 0 01-5.206.655 8.24 8.24 0 01-.808 0l.05-.08a1.39 1.39 0 01.986-.542c1.205-.186 2.813-.307 4.123-.38l1.617-.08h.525c-.695 1.82-1.18 3.79-1.698 5.538v-.194l-.05-.04zM57.327 31.31c7.793 0 19.62.857 24.73 1.722l1.997.3c-1.512.2-4.462.372-10.12.744a.308.308 0 000-.105.33.33 0 00-.057-.186.575.575 0 00-.25-.194 2.32 2.32 0 00-.647-.162 8.47 8.47 0 00-1.099-.057c-.97.012-1.94.076-2.902.194l-14.996 1.94c-3.154.4-6.33.6-9.507.598a73.47 73.47 0 01-4.527-.146 91.005 91.005 0 00-5.934-.2 37.96 37.96 0 00-3.88.162c-.356.038-.67.084-.946.137.178-.162.372-.348.534-.5a.92.92 0 01.162-.121l.073-.05.364-.17a24.161 24.161 0 015.45-1.075l1.843-.05v-.17l1.116-.105c.127-.008.252-.032.372-.073a.448.448 0 00.137-.08c.056-.05.09-.12.09-.194a.25.25 0 00-.04-.137.34.34 0 00-.137-.113l-.154-.057a122.09 122.09 0 016.677-1.035c3.743-.396 5.505-.736 5.87-.808h5.788zm-17.704.598l1.26-.105a2.24 2.24 0 00.606-.202v.073a73.452 73.452 0 017.445-.33l-3.274.396c-2.1.234-5.077.72-7.9 1.253l-.226.065.13-.614a.392.392 0 00-.145-.308l2.102-.178-.008-.05zm3.96-2.894c.388-.808.808-1.746 1.293-2.975-.29 1.463-.68 3.298-1.02 4.406h.08a41.15 41.15 0 00-1.358.194c.384-.5.72-1.053 1.002-1.625zm30.154.47a5.73 5.73 0 00-.234 1.407l-5.66-.42a95.76 95.76 0 012.555-.517c1.1-.202 2.296-.388 3.298-.47h.04zm13.17.283l-.962.04a9.11 9.11 0 00-7.146-3.775c-3.112 0-4.4 1.617-4.923 3.04-1.357.13-2.706.33-4.042.598-1.487.283-2.66.558-2.66.558l.05.194c-4.333-.267-8.893-.453-13.12-.453-1.835 0-3.614 0-5.287.113l1.334-7.858a.909.909 0 00-.097-.364.615.615 0 00-.162-.243.53.53 0 00-.34-.13l-2.716-.073c.236-.243.51-.448.808-.606a11.18 11.18 0 014.196-.946c2.935-.26 8.804-.453 14.55-.453 4.437-.068 8.874.118 13.3.558a12.79 12.79 0 013.476.914 4.353 4.353 0 012.215 1.9 5.86 5.86 0 01.493 1.681l.6 2.79c.194.938.372 1.867.46 2.425l-.008.09zm-.67.428h.76c0 .33.04.64.04.897v.396c-.242-.437-.512-.86-.808-1.26l.008-.032zm-.574 1.156a.93.93 0 01.744.04 11.21 11.21 0 01.299.477c-.307 0-.76.05-1.382.05h-.808l1.148-.566zm-3.274-1.277h.388a24.19 24.19 0 001.892.073h.914a1.48 1.48 0 01-.348.631l-1.374.728a8.09 8.09 0 00-1.47-1.43zm-3.985-.687l.897.065a8.14 8.14 0 011.948.38l.186.057a6.385 6.385 0 012.03 1.916c-.51 0-1.075-.09-1.7-.162a246.26 246.26 0 00-5.901-.598 5.35 5.35 0 012.53-1.617v-.04zm-3.856-.372a4.43 4.43 0 014.285-2.361 8.73 8.73 0 016.395 3.169h-.574c-.622 0-1.277 0-1.86-.065a7.397 7.397 0 01-1.277-.2 4.65 4.65 0 00-2.23-.614 4.38 4.38 0 00-.938.081h-1.657c-.72 0-1.447 0-2.158.04l.016-.04zm2.183.34h.63a5.467 5.467 0 00-1.948 1.617l-1.4-.12c.048-.508.17-1.007.364-1.48h.09c.744 0 1.512-.05 2.264-.05v.032zm-30.986-5.497c.178-.51.307-.986.493-1.407a3.81 3.81 0 01.331-.622l3.023.08c.03-.01.06-.01.09 0 .038.04.063.09.073.146a.534.534 0 010 .08l-1.318 7.922h-.6l-2.037.154v-.105c.113-.622.404-2.2.808-3.783.186-.808.396-1.617.606-2.272.146-.503.34-1 .582-1.455l1.124.08-1.302 7.308h.388l1.326-7.704-1.795-.13-.065.097a8.46 8.46 0 00-.808 1.956c-.663 2.385-1.213 5.578-1.302 6.08l-1.05.113c.315-1.067.655-2.652.93-4.042l.477-2.538.016.04zm5.74-5.45a4.85 4.85 0 011.164-.372c.542-.12 2.344-.46 4.155-.808l2.57-.404a15.643 15.643 0 011.617-.178 1.57 1.57 0 01.808.146.34.34 0 01.129.137c.03.07.044.143.04.218a2.16 2.16 0 01-.162.695v.09c-1.68 0-3.282.08-4.745.137-2.425.097-4.4.226-5.732.388l.17-.09-.016.04zm18.14-1.867a4.85 4.85 0 00-1.261 1.205h-6.103c.06-.183.092-.374.097-.566a.891.891 0 00-.08-.388.81.81 0 00-.469-.396 2.453 2.453 0 00-.808-.113 15.73 15.73 0 00-1.698.178c-1.14.162-2.62.412-3.92.64s-2.425.445-2.83.542c-.436.08-.86.216-1.26.404a4.6 4.6 0 00-.808.566c-2.118.307-3.403 1.02-4.155 1.948a4.914 4.914 0 00-.946 3.193 34.898 34.898 0 01-2.66 6.07 4.74 4.74 0 01-.978 1.196 1.91 1.91 0 01-.889.42c-.226 0-4.996.404-9.588.873V32.2a.33.33 0 00-.234-.323.63.63 0 00-.21 0 2.58 2.58 0 00-.517.073l-.64.154a1.281 1.281 0 00-.55.315 1.93 1.93 0 00-.17.186l-1.01.113c-4.268.243-8.755.574-12.5.905s-6.718.67-8.01.922l-1.124.13a1.81 1.81 0 00-.348.08c-.626.1-1.24.27-1.827.51-.43.18-.804.477-1.075.857a2.57 2.57 0 00-.404 1.479 15.1 15.1 0 001.479 5.934 4.39 4.39 0 01.509 1.787 2.178 2.178 0 01-.372 1.188 2.756 2.756 0 00-.493 1.568c.04.663.154 1.32.34 1.956l.68 2.74.226.93v.13l-1.358.09a2.12 2.12 0 00-.808.154 2.65 2.65 0 00-1.091.946 14.48 14.48 0 00-1.188 2.07 5.03 5.03 0 00-.575 2.158 2.28 2.28 0 00.559 1.568 2.78 2.78 0 001.884.808c2.304.2 5.028.26 7.615.736v.105c.085.33.286.616.566.808a1.47 1.47 0 00.808.218 3.23 3.23 0 001.09-.226c.162-.057.29-.12.38-.162l.68.275c.234 1.116 1.407 5.602 5.57 6.564-4.276.728-14.09 2.514-8.537 3.783 2.676.598 2.676.356 4.52.105a16.58 16.58 0 014.753.493c-.744.85.477 1.463 1.698.493 3.41 1.09 7.56 1.94 9.143 1.932s4.85 1.1 6.217.622c-.614.72.85.808 1.827.105 2.805.13 8.65.372 10.243 1.358s8.812.3 15.036-2.005c3.41.493 4.753.873 8.407-.808 2.07-.986 3.525-4.155 3.525-4.155L108.8 60.406a10.51 10.51 0 004.988.728c2.555-.113 4.93-2.58 4.923-10.63.938-1.342 2.36-1.172 3.363-1.02.077.097.164.187.26.267.196.167.446.26.703.26a2.27 2.27 0 00.679-.129 4.85 4.85 0 00.703-.331 20.55 20.55 0 001.617-1.011h.808c.41-.1.752-.374.938-.752a2.62 2.62 0 00.226-1.172 8.042 8.042 0 00-.154-1.4c0-.2-.073-.404-.105-.558a2.351 2.351 0 01-.04-.356c.05-.17.08-.347.09-.525a.72.72 0 00-.049-.275.612.612 0 00-.34-.323 1.4 1.4 0 00-.461-.097 20.618 20.618 0 01-.428-4.446c0-1.05.05-2.126.097-3.234v-.663a5.77 5.77 0 00-.146-1.431 2.132 2.132 0 00-.34-.744 1.757 1.757 0 00-.954-.63 5.24 5.24 0 00-1.439-.162L116 31.44l-3.54-.582a2.425 2.425 0 00-1.156-.962 6.497 6.497 0 00-2.724-.517h-.08a6.608 6.608 0 00-2.352.428 12.49 12.49 0 01-3.79.412h-.08c-1.196 0-3.492-.09-5.66-.194a2.11 2.11 0 00-1.827-1.091 2.1 2.1 0 00-1.738.889H92.6l-1.188-.065-1.447-8.19a1.23 1.23 0 00-.21-.218.94.94 0 00-.566-.226l-2.684-.194a2.836 2.836 0 00-.38-.663 3.226 3.226 0 00-1.617-1.1c.008-.075.008-.15 0-.226a.9.9 0 00-.146-.493 1.151 1.151 0 00-.55-.428 19.155 19.155 0 00-2.983-.76c-1.78-.34-3.856-.606-5.66-.808s-3.234-.283-3.824-.29h-.13a3.279 3.279 0 00-1.7.364l.097.016z"/></svg>